<svg xmlns="http://www.w3.org/2000/svg" width="194.69" height="51" viewBox="0 0 194.69 51">
  <g id="Group_1097" data-name="Group 1097" transform="translate(-203.309 -196.698)">
    <g id="Group_491" data-name="Group 491" transform="translate(266.145 199.309)">
      <path id="Path_5986" data-name="Path 5986" d="M515.731,201.6h-5.719l-16.458,36.577H500.8l12.01-27.926h.127l12.01,27.926h7.244Z" transform="translate(-400.335 -201.562)" fill="#002f4f"/>
      <path id="Path_5987" data-name="Path 5987" d="M417.469,207V201.53H373c-9.194,0-14.51,4.349-14.51,10.517,0,5.208,4.129,9.254,11.821,10.113,2.314.252,3.878.455,5.879.657,4,.405,5.817,2.326,5.817,4.853,0,2.984-3.316,5.006-8.818,5.006h-16.8l-13.142-31.11H337.53l-16.458,36.577h7.243l12.01-27.926h.127l12.01,27.926H358.7l-.022-.052,14.45.045c9.57,0,15.637-3.843,15.637-10.467,0-4.9-3.878-9.556-12.2-10.365-2.127-.2-3.816-.4-5-.556-4.5-.556-6.317-2.579-6.317-4.6,0-3.438,3.315-5.158,7.443-5.158l25.524,0v31.15h6.864V207Z" transform="translate(-321.072 -201.53)" fill="#002f4f"/>
    </g>
    <g id="Group_492" data-name="Group 492" transform="translate(203.309 196.698)">
      <path id="Path_5988" data-name="Path 5988" d="M203.309,205.133c0,.053.006.105.008.158v-.307C203.314,205.034,203.309,205.083,203.309,205.133Z" transform="translate(-203.309 -200.506)" fill="#008c98"/>
      <path id="Path_5989" data-name="Path 5989" d="M252.379,201.175c0-.03,0-.06-.005-.089a4.553,4.553,0,0,0-4.594-4.386l-.028,0-.029,0-16.084,0L247.5,234.538h-3.32L231.5,204.818h-7.245l-9.433,22.273h-3.32L222.3,201.752h8l-2.122-5.047-19.967.006c-.087-.005-.175-.013-.263-.013s-.179.008-.268.013a4.543,4.543,0,0,0-4.353,4.321v.3l.05,29.068a7.5,7.5,0,0,0,3.047,6.441l.82.461,2.379-5.827h8.451l2.566-5.841h4.679l-2.265-5.7,4.83-11.536,11.243,26.142h-3.4l-7.773-18.109-1.509,3.5,3.547,8.764H222.6l-2.49,5.914h-8.3l-1.862,4.2.784.439,13.9,7.657a6.351,6.351,0,0,0,6.143,0l19.043-10.6c2.617-1.426,2.527-5.882,2.527-5.882l.031-29.165C252.374,201.238,252.379,201.207,252.379,201.175Z" transform="translate(-203.315 -196.698)" fill="#008c98"/>
    </g>
  </g>
</svg>
