<svg xmlns="http://www.w3.org/2000/svg" xmlns:xlink="http://www.w3.org/1999/xlink" width="70.4" height="70.4" viewBox="0 0 70.4 70.4">
  <defs>
    <linearGradient id="linear-gradient" x1="0.5" x2="0.5" y2="1" gradientUnits="objectBoundingBox">
      <stop offset="0" stop-color="#033d61"/>
      <stop offset="1" stop-color="#0042ff"/>
    </linearGradient>
  </defs>
  <g id="nodes" transform="translate(0)">
    <path id="Path_5926" data-name="Path 5926" d="M66.275,42.468V27.933a5.224,5.224,0,1,0-3.907-9.511L51.979,8.032A5.223,5.223,0,1,0,44.61,9.524L39.955,20.8l-7.924-7.924,8.23-3.42a1.1,1.1,0,0,0-.844-2.032l-9.069,3.769L27.213,8.057a5.223,5.223,0,1,0-8.791-.025L8.032,18.422a5.224,5.224,0,1,0-1.863,9.542L9.177,35.2,6.169,42.437a5.224,5.224,0,1,0,1.863,9.542l10.39,10.39a5.224,5.224,0,1,0,9.511,3.907H42.468a5.225,5.225,0,1,0,0-2.2H28.339L60.884,50.55a5.224,5.224,0,1,0,5.392-8.083Zm-6.24-18.711-3.045,1.257-6.3-15.159L60.8,19.968a5.192,5.192,0,0,0-.769,3.789Zm.841,2.033a5.238,5.238,0,0,0,3.2,2.143V42.062l-6.24-15.016Zm1.154,17.085L49.6,30.445l6.2-2.56Zm6.17-20.05A3.025,3.025,0,1,1,65.175,19.8,3.028,3.028,0,0,1,68.2,22.825ZM47.575,2.2A3.025,3.025,0,1,1,44.55,5.225,3.028,3.028,0,0,1,47.575,2.2Zm-.932,8.165a5.159,5.159,0,0,0,1.876,0l6.438,15.491L47.916,28.76,41.64,22.484Zm-.929,19.3-8.487,3.5,3.5-8.487ZM21.881,10.363a5.194,5.194,0,0,0,3.776-.75l2.494,2.494L19.7,15.62Zm-5.065,6.454L9.855,19.71,19.71,9.855ZM22.825,2.2A3.025,3.025,0,1,1,19.8,5.225,3.028,3.028,0,0,1,22.825,2.2ZM2.2,22.825A3.025,3.025,0,1,1,5.225,25.85,3.028,3.028,0,0,1,2.2,22.825Zm6,4.292a5.214,5.214,0,0,0,2.163-5.236L15.62,19.7,10.368,32.334Zm2.168,10.95,2.2,5.288L9.524,44.61A5.266,5.266,0,0,0,8.2,43.283Zm0,8.576,3.045-1.257,6.3,15.159L9.6,50.432a5.193,5.193,0,0,0,.769-3.789ZM2.2,47.575A3.025,3.025,0,1,1,5.225,50.6,3.028,3.028,0,0,1,2.2,47.575ZM22.825,68.2a3.025,3.025,0,1,1,3.025-3.025A3.028,3.028,0,0,1,22.825,68.2Zm24.75-6.05a3.025,3.025,0,1,1-3.025,3.025A3.028,3.028,0,0,1,47.575,62.15Zm-20.458.05a5.214,5.214,0,0,0-5.236-2.163L15.443,44.547l4.287-1.77a1.1,1.1,0,1,0-.839-2.033L14.6,42.515,11.559,35.2,18.5,18.5l11.334-4.71L39.046,23,34.358,34.358l-7.479,3.088a1.1,1.1,0,0,0,.839,2.034l5.455-2.252L25.326,56.235a1.1,1.1,0,1,0,2.034.84l8.683-21.032L47.4,31.354,60.787,44.743a5.194,5.194,0,0,0-.75,3.776ZM65.175,50.6A3.025,3.025,0,1,1,68.2,47.575,3.028,3.028,0,0,1,65.175,50.6Z" transform="translate(0 0)" fill="url(#linear-gradient)"/>
    <path id="Path_5927" data-name="Path 5927" d="M162.085,283.8a1.1,1.1,0,1,0,1.435.6A1.1,1.1,0,0,0,162.085,283.8Z" transform="translate(-139.197 -244.703)" fill="url(#linear-gradient)"/>
  </g>
</svg>
