<svg xmlns="http://www.w3.org/2000/svg" xmlns:xlink="http://www.w3.org/1999/xlink" width="88.586" height="66.281" viewBox="0 0 88.586 66.281">
  <defs>
    <linearGradient id="linear-gradient" x1="0.5" x2="0.5" y2="1" gradientUnits="objectBoundingBox">
      <stop offset="0" stop-color="#033d61"/>
      <stop offset="1" stop-color="#0042ff"/>
    </linearGradient>
  </defs>
  <path id="Path_2572" data-name="Path 2572" d="M512.1,772.09l2.358,1.855v0l2.359-3,3.182-4.047-5.205-5.2-5.2-5.2-4.04,3.183-2.235,1.758q-.875-.439-1.783-.816t-1.866-.688l-.337-2.823-.6-5.116H484l-.609,5.116-.335,2.823q-.948.31-1.865.686t-1.786.818l-2.23-1.758-4.042-3.183-5.206,5.2-5.208,5.208,3.185,4.042,1.756,2.23q-.442.878-.816,1.787t-.685,1.864l-2.824.335-5.116.606v14.724l5.116.61,2.823.335q.311.943.684,1.858t.818,1.791l-1.756,2.229-3.185,4.04,5.208,5.21,5.206,5.2,4.044-3.181,2.231-1.757q.875.441,1.785.816t1.863.685l.335,2.822.609,5.115h14.723l.6-5.118.337-2.821q.945-.307,1.864-.686t1.786-.815l2.229,1.756,4.042,3.183,5.206-5.2,5.205-5.21-3.182-4.038-1.756-2.23c.15-.3.279-.61.418-.916h2.957V780.232H509v15.941h3.146c-.061.117-.118.237-.181.353l-.484.871,2.977,3.778,1.532,1.947-3.32,3.324-3.322,3.319-1.95-1.533-3.778-2.976-.871.483a22.268,22.268,0,0,1-2.362,1.134,23.4,23.4,0,0,1-2.512.871l-.958.276-.568,4.783-.293,2.469h-9.392l-.295-2.469-.57-4.783-.955-.276a24.14,24.14,0,0,1-2.512-.868,21.869,21.869,0,0,1-2.358-1.137l-.875-.483-3.779,2.976-1.951,1.535-6.644-6.645,1.534-1.949,2.979-3.781-.486-.872a22.4,22.4,0,0,1-1.136-2.361,24.6,24.6,0,0,1-.87-2.51l-.276-.958-4.782-.566-2.471-.295v-9.394l2.471-.293,4.784-.567.274-.958a24.75,24.75,0,0,1,.872-2.513,22.149,22.149,0,0,1,1.134-2.359l.486-.875-2.979-3.78-1.534-1.949,3.322-3.321,3.322-3.322,1.949,1.534,3.775,2.977.87-.48a23.154,23.154,0,0,1,4.881-2.01l.955-.276.57-4.781.295-2.472h9.394l.291,2.47.568,4.783.958.276a23.471,23.471,0,0,1,4.876,2.008l.871.482,3.781-2.977,1.949-1.534,3.318,3.32,3.32,3.321-1.535,1.951Zm-.1,21.08v-9.938h3.435v9.938Zm-20.641-18.107a10.069,10.069,0,1,0,7.121,2.951A10.049,10.049,0,0,0,491.356,775.063Zm5,15.071a7.074,7.074,0,1,1,2.07-5A7.04,7.04,0,0,1,496.356,790.134Zm46.883-17.756h-9.431v23.793h9.431Zm-3,20.793h-3.432v-17.8h3.432Zm-9.4-26.032H521.4v29.032h9.432Zm-3,26.032H524.4V770.138h3.433Zm-1.411,7.391v3H546.8v-3Zm5.337-45.126h-6.307v3h6.307Zm-60.17,28.629a1.5,1.5,0,0,0,0,3h5.339a1.5,1.5,0,0,0,0-3Z" transform="translate(-458.217 -751.992)" fill="url(#linear-gradient)"/>
</svg>
