<svg xmlns="http://www.w3.org/2000/svg" xmlns:xlink="http://www.w3.org/1999/xlink" width="90.392" height="81.999" viewBox="0 0 90.392 81.999">
  <defs>
    <linearGradient id="linear-gradient" x1="0.5" x2="0.5" y2="1" gradientUnits="objectBoundingBox">
      <stop offset="0" stop-color="#033d61"/>
      <stop offset="1" stop-color="#0042ff"/>
    </linearGradient>
  </defs>
  <path id="Path_2567" data-name="Path 2567" d="M170.141,953.128l-7.434,5.836,1.544,1.967v0l3.844-3.018a38.477,38.477,0,0,1-65.7,26.524l-1.769,1.767A40.971,40.971,0,0,0,170.6,957.765l3.407,4.342,1.967-1.543Zm-1.158,4.086.733-.575.451.575Zm-72.9,9.1L93.669,971a38.5,38.5,0,0,1,71.419-28.775l2.3-.973A41.006,41.006,0,0,0,91.23,971.631l-4.505-2.316-1.144,2.222,8.4,4.32,4.321-8.4-2.221-1.143Zm61.742-7.85v-2.5h-.028a27.118,27.118,0,0,0-5.787-15.563l.015-.019-.687-.809-.028-.031-.926-1.089-.025.031a27.177,27.177,0,0,0-18.535-8.486v-.036h-2.5v.036a27.17,27.17,0,0,0-18.534,8.486l-.026-.031-.952,1.12-.01.013-.679.8.015.019a27.114,27.114,0,0,0-5.787,15.563h-.029v2.5h.029a27.118,27.118,0,0,0,5.787,15.562l-.014.017.676.8.012.015.952,1.12.026-.032a27.159,27.159,0,0,0,18.533,8.483v.038h2.5v-.035a27.162,27.162,0,0,0,18.535-8.486l.026.032.952-1.12.688-.812-.014-.017a27.113,27.113,0,0,0,5.786-15.562Zm-33.928-25.091c-.009.011-.018.025-.027.034-.343.386-.672.8-.991,1.242-.047.064-.094.126-.14.192-.309.435-.606.895-.891,1.376-.045.075-.089.152-.133.228-.286.5-.561,1.007-.823,1.541-.028.058-.055.117-.082.174-.272.566-.534,1.148-.78,1.753-.283.706-.543,1.449-.79,2.209-.059.181-.117.361-.174.545-.234.758-.455,1.535-.652,2.34-.007.026-.015.05-.021.076-.08-.045-.157-.092-.236-.138q-.6-.348-1.175-.727c-.109-.072-.22-.143-.328-.216q-.693-.471-1.352-.987c-.083-.066-.162-.134-.244-.2q-.558-.449-1.087-.93c-.1-.09-.2-.179-.3-.271-.4-.378-.8-.767-1.175-1.172-.02-.021-.038-.043-.058-.065A24.761,24.761,0,0,1,123.894,933.372Zm-13.078,8.937c.029.03.062.057.091.089.422.439.861.861,1.311,1.272.108.1.215.2.323.293q.725.641,1.491,1.229c.084.064.17.124.255.187q.712.531,1.46,1.018c.091.058.179.12.271.177q.839.533,1.718,1c.034.019.067.041.1.06l0,.017.01.005c-.065.354-.117.719-.175,1.08-.033.211-.07.418-.1.632-.113.775-.213,1.56-.293,2.362-.01.106-.016.217-.026.325q-.1,1.041-.155,2.109c-.015.277-.024.558-.035.838-.013.32-.033.636-.04.959H105.85A24.607,24.607,0,0,1,110.816,942.309Zm.094,29.714c-.03.032-.064.06-.094.091a24.59,24.59,0,0,1-4.965-13.65h11.167c.007.314.027.622.039.934.011.292.02.586.036.875.037.684.088,1.357.149,2.024.013.136.02.274.033.41.079.791.179,1.567.29,2.333.034.23.074.453.11.681.055.347.106.7.168,1.042l-.009,0,0,.02c-.041.022-.079.048-.12.07q-.867.465-1.695.989c-.1.06-.189.124-.284.185q-.741.484-1.449,1.011c-.085.064-.173.125-.259.189q-.767.588-1.489,1.228c-.109.1-.216.2-.324.3C111.769,971.163,111.331,971.585,110.91,972.023Zm1.527,2.024c.016-.018.031-.036.047-.053.384-.411.783-.806,1.193-1.189.092-.087.188-.171.281-.256q.539-.488,1.1-.943c.079-.064.156-.13.236-.193q.662-.519,1.358-.992c.1-.07.209-.137.313-.206q.6-.4,1.224-.757c.066-.039.132-.079.2-.116.006.025.015.049.021.074.2.81.419,1.589.654,2.35.055.179.112.356.17.533.248.762.508,1.507.792,2.213.241.594.5,1.165.765,1.721.035.073.068.148.1.219.257.524.526,1.025.806,1.509.05.087.1.174.151.26q.42.7.873,1.347c.053.077.108.149.162.224.312.427.633.835.967,1.212.013.014.025.031.038.046A24.753,24.753,0,0,1,112.437,974.047Zm7.1-15.586h9.785v5.193c-.042,0-.083.009-.125.012-.7.035-1.395.1-2.082.186-.155.02-.309.045-.464.067-.609.089-1.213.2-1.81.323-.1.023-.207.04-.309.064-.671.152-1.33.333-1.98.534-.147.045-.291.094-.436.141-.614.2-1.219.418-1.813.661-.031.012-.064.021-.1.034-.029-.17-.062-.334-.089-.505-.033-.21-.064-.422-.095-.634q-.128-.9-.225-1.818c-.015-.138-.033-.272-.046-.41q-.108-1.117-.168-2.271c-.01-.188-.015-.381-.023-.571C119.545,959.135,119.542,958.8,119.534,958.461ZM129.32,981.8c-.029-.008-.057-.018-.086-.025a5.423,5.423,0,0,1-.859-.327l0,0a6.89,6.89,0,0,1-.852-.5c-.047-.033-.094-.062-.141-.1a9.158,9.158,0,0,1-.805-.654c-.053-.047-.106-.1-.159-.148a11.261,11.261,0,0,1-.8-.828c-.033-.038-.065-.08-.1-.118q-.377-.445-.742-.957c-.032-.045-.064-.086-.1-.131-.25-.36-.495-.745-.734-1.15-.047-.08-.094-.159-.14-.24q-.353-.613-.684-1.29c-.039-.079-.076-.161-.114-.242-.229-.481-.452-.98-.663-1.509-.178-.44-.348-.9-.511-1.366-.053-.152-.1-.311-.154-.466-.108-.322-.214-.647-.314-.981-.058-.19-.112-.384-.166-.577-.089-.315-.176-.632-.259-.956q-.078-.308-.153-.619c-.033-.139-.063-.283-.1-.423.04-.018.08-.038.12-.055q.867-.372,1.766-.679c.127-.044.255-.083.383-.124.579-.187,1.165-.358,1.762-.5.057-.013.111-.031.168-.044.635-.149,1.283-.267,1.936-.367.144-.021.288-.043.433-.062.655-.088,1.317-.156,1.988-.191.022,0,.046,0,.068,0Zm0-25.836-9.786,0c.007-.332.01-.666.024-.994.008-.2.014-.4.024-.592q.06-1.134.165-2.237c.017-.176.04-.348.059-.524.061-.565.129-1.123.208-1.673.035-.249.071-.5.11-.742.024-.153.055-.3.08-.454.054.023.11.038.164.061.567.229,1.143.436,1.728.629.154.05.307.1.463.15.648.2,1.305.38,1.973.532.1.023.2.039.3.06.607.132,1.221.24,1.842.329.143.021.286.044.43.062.694.089,1.4.154,2.107.189.039,0,.076.008.114.01Zm0-7.7-.069,0c-.671-.035-1.333-.1-1.988-.191-.144-.019-.287-.041-.43-.062-.656-.1-1.306-.218-1.943-.369-.049-.011-.1-.026-.144-.037-.61-.149-1.21-.324-1.8-.516-.116-.037-.233-.073-.348-.112q-.915-.312-1.8-.693l-.1-.047c.032-.137.061-.279.094-.416.052-.214.1-.428.159-.64.079-.312.163-.618.249-.921.057-.2.113-.4.173-.6.1-.335.208-.662.315-.985.05-.149.1-.3.149-.448.164-.471.334-.931.513-1.373.007-.019.015-.036.023-.055.2-.5.41-.969.626-1.424.046-.1.09-.2.137-.29q.322-.659.664-1.254c.054-.094.109-.185.163-.277.234-.4.473-.773.717-1.123.037-.054.075-.1.113-.154.237-.33.478-.642.722-.931.037-.043.073-.091.11-.133a11.307,11.307,0,0,1,.79-.822c.054-.052.109-.1.164-.153a8.927,8.927,0,0,1,.8-.651c.048-.034.1-.064.145-.1a7.016,7.016,0,0,1,.843-.5l.014-.006a5.424,5.424,0,0,1,.846-.322l.1-.028Zm19.385-7.885-.046.051c-.384.412-.785.808-1.2,1.193-.091.086-.186.168-.279.253q-.538.489-1.107.947c-.078.063-.153.128-.232.19q-.661.519-1.36.993c-.1.07-.209.137-.313.2q-.593.391-1.208.748c-.071.041-.141.084-.213.125-.006-.027-.015-.051-.022-.077-.2-.8-.416-1.577-.649-2.334-.059-.188-.118-.371-.178-.556-.247-.758-.506-1.5-.79-2.2-.242-.6-.5-1.171-.769-1.729-.033-.07-.064-.14-.1-.208-.258-.526-.529-1.029-.809-1.514-.049-.086-.1-.172-.149-.257q-.422-.708-.875-1.35c-.053-.076-.107-.148-.161-.222-.313-.428-.634-.836-.969-1.214-.013-.014-.024-.031-.037-.046A24.767,24.767,0,0,1,148.706,940.377Zm-16.886-7.756a.232.232,0,0,1,.025.006,5.325,5.325,0,0,1,.823.313c.055.025.11.048.165.076a6.883,6.883,0,0,1,.8.472c.058.039.117.082.176.124a9.279,9.279,0,0,1,.793.645c.044.04.088.086.132.128.258.243.512.506.763.794.026.029.052.054.077.084.26.3.514.635.765.985.051.071.1.141.153.213.24.345.473.713.7,1.1.055.091.109.186.163.281.226.4.447.808.66,1.244.046.094.09.191.135.287.207.438.409.891.6,1.367l.045.107c.182.45.355.918.522,1.4.036.106.07.216.106.322.124.369.245.742.36,1.125.048.162.094.327.141.49.1.346.194.7.285,1.055q.066.258.129.519c.038.158.071.32.108.48-.034.015-.068.031-.1.045q-.885.383-1.8.7c-.111.038-.224.072-.336.108-.6.2-1.205.371-1.823.521-.042.01-.084.023-.127.034-.64.15-1.292.269-1.949.37-.142.021-.284.042-.426.06-.656.089-1.319.157-1.991.192-.022,0-.045,0-.068,0Zm0,23.341v-5.191c.037,0,.073-.008.11-.01.713-.035,1.418-.1,2.116-.19.141-.018.28-.041.42-.061q.942-.135,1.862-.333c.092-.02.185-.035.276-.056.673-.153,1.335-.335,1.989-.537.148-.046.294-.095.441-.144q.888-.289,1.75-.636c.05-.021.1-.035.153-.056.027.163.06.321.085.485q.054.339.1.681.122.849.213,1.723c.018.168.04.332.057.5.07.728.124,1.47.164,2.221.011.217.017.438.026.657.013.312.016.631.023.946Zm9.787,2.5c-.006.3-.009.6-.022.9-.009.242-.016.484-.028.722-.04.745-.094,1.481-.163,2.2-.016.164-.038.324-.055.487q-.095.888-.217,1.752c-.031.218-.063.436-.1.652-.027.169-.06.33-.088.5-.04-.017-.083-.028-.124-.045-.584-.237-1.18-.451-1.783-.649-.145-.047-.29-.1-.436-.141-.651-.2-1.31-.382-1.98-.534-.1-.025-.21-.042-.314-.065-.591-.127-1.19-.232-1.794-.32-.162-.023-.323-.05-.487-.07-.679-.087-1.365-.15-2.059-.185-.046,0-.092-.011-.139-.013V958.46Zm-5.132,19.519-.12.166c-.26.365-.525.71-.795,1.025l-.036.039a11.735,11.735,0,0,1-.818.852c-.033.03-.065.063-.1.092a8.876,8.876,0,0,1-.822.667c-.048.035-.1.07-.144.1a7.1,7.1,0,0,1-.82.486c-.047.024-.093.044-.139.066a5.553,5.553,0,0,1-.843.319l-.021.005V966.163l.084,0c.657.035,1.3.1,1.948.188.162.021.324.045.485.069.639.1,1.271.213,1.892.359.08.019.157.042.236.062.571.139,1.132.3,1.686.481.141.046.283.089.422.137q.888.3,1.744.672c.043.017.085.038.128.057-.032.143-.063.289-.1.429q-.073.306-.15.606c-.084.33-.173.654-.264.974-.053.188-.1.376-.161.56-.1.341-.21.673-.32,1-.05.149-.1.3-.148.447-.163.47-.333.928-.511,1.369-.214.535-.441,1.041-.673,1.529-.032.068-.063.137-.1.2-.223.458-.454.89-.691,1.3l-.13.225C136.968,977.24,136.724,977.623,136.475,977.981Zm.774,3.068c.012-.013.022-.029.034-.042.338-.38.661-.791.976-1.223.051-.07.1-.139.154-.211q.456-.645.878-1.357c.05-.083.1-.167.146-.251.281-.485.551-.988.809-1.514.034-.071.067-.144.1-.216.266-.556.524-1.129.765-1.723.285-.706.545-1.451.793-2.212.058-.177.115-.354.17-.533.237-.764.459-1.547.657-2.36.006-.022.013-.042.018-.064.078.044.153.09.229.134q.6.35,1.182.731c.109.072.22.143.329.217q.693.473,1.354.989c.079.063.155.128.233.191.38.3.75.623,1.11.949.091.083.184.164.273.247.414.388.817.786,1.2,1.2l.041.044A24.744,24.744,0,0,1,137.249,981.049Zm13.077-8.935c-.032-.033-.068-.063-.1-.1-.418-.436-.853-.854-1.3-1.26-.11-.1-.22-.2-.331-.3q-.72-.636-1.482-1.223c-.09-.068-.182-.131-.272-.2q-.7-.52-1.432-1c-.1-.064-.2-.131-.3-.194q-.828-.523-1.695-.987c-.04-.022-.077-.047-.117-.069l0-.02-.009,0c.06-.331.109-.673.163-1.009.039-.242.082-.481.118-.727.11-.758.208-1.527.287-2.312.015-.154.023-.315.037-.47.059-.647.109-1.3.145-1.963.016-.3.025-.6.037-.9s.031-.612.038-.922H155.29A24.6,24.6,0,0,1,150.326,972.114Zm-6.2-16.153c-.008-.342-.028-.676-.042-1.014-.01-.252-.018-.506-.031-.756q-.062-1.134-.165-2.24c-.007-.068-.01-.138-.017-.206-.08-.808-.181-1.6-.295-2.38-.032-.216-.069-.425-.1-.638-.057-.358-.109-.72-.173-1.071l.009-.005,0-.016c.039-.021.075-.045.113-.067q.873-.466,1.707-.993c.091-.057.18-.119.271-.177q.752-.491,1.471-1.026c.079-.059.161-.116.24-.176q.775-.592,1.505-1.241c.1-.09.2-.181.3-.271.472-.43.932-.872,1.373-1.333.014-.015.03-.029.044-.043a24.6,24.6,0,0,1,4.964,13.653Z" transform="translate(-85.581 -916.212)" fill="url(#linear-gradient)"/>
</svg>
