<svg id="shield" xmlns="http://www.w3.org/2000/svg" xmlns:xlink="http://www.w3.org/1999/xlink" width="90" height="90" viewBox="0 0 90 90">
  <defs>
    <linearGradient id="linear-gradient" x1="0.5" x2="0.5" y2="1" gradientUnits="objectBoundingBox">
      <stop offset="0" stop-color="#033d61"/>
      <stop offset="1" stop-color="#0042ff"/>
    </linearGradient>
  </defs>
  <path id="Path_5928" data-name="Path 5928" d="M66.912,202.39a1.463,1.463,0,1,0-1.441-1.306A1.457,1.457,0,0,0,66.912,202.39Z" transform="translate(-53.585 -164.44)" fill="url(#linear-gradient)"/>
  <path id="Path_5929" data-name="Path 5929" d="M83.672,11.953h3.164A3.168,3.168,0,0,0,90,8.789V5.625a3.168,3.168,0,0,0-3.164-3.164H83.672A3.174,3.174,0,0,0,80.508,5.8H70.055a1.406,1.406,0,0,0-1.406,1.406V18.951a12.631,12.631,0,0,1-3.961-9.213,3.168,3.168,0,0,0-3.164-3.164H28.477a3.168,3.168,0,0,0-3.164,3.164,12.722,12.722,0,0,1-.694,4.149H14.062V9.492h.527a3.168,3.168,0,0,0,3.164-3.164V3.164A3.168,3.168,0,0,0,14.59,0H11.426A3.168,3.168,0,0,0,8.262,3.164V6.328A3.165,3.165,0,0,0,11.25,9.483v5.81A1.406,1.406,0,0,0,12.656,16.7H23.239a12.594,12.594,0,0,1-8.451,5.516,4.222,4.222,0,0,0-3.539,4.163c0,4.939,0,4.741,0,5.007a1.406,1.406,0,0,0,2.813-.017c0-.239,0-.282,0-4.99a1.417,1.417,0,0,1,1.2-1.39A15.419,15.419,0,0,0,28.125,9.738a.352.352,0,0,1,.352-.352H61.523a.352.352,0,0,1,.352.352A15.426,15.426,0,0,0,74.74,24.988a1.418,1.418,0,0,1,1.2,1.39v4.659A55.349,55.349,0,0,1,57.782,72.429a59.781,59.781,0,0,1-9.768,7.4,5.613,5.613,0,0,1-5.654.046A56.365,56.365,0,0,1,15.35,43.015a1.406,1.406,0,0,0-2.748.6A58.921,58.921,0,0,0,16.341,55.02H6.152V51.856a3.174,3.174,0,0,0,3.34-3.164V45.528a3.168,3.168,0,0,0-3.164-3.164H3.164A3.168,3.168,0,0,0,0,45.528v3.164a3.174,3.174,0,0,0,3.34,3.164v4.57a1.406,1.406,0,0,0,1.406,1.406H17.681A59.287,59.287,0,0,0,26.2,70.313H19.687a1.406,1.406,0,0,0-1.406,1.406v8.789a3.174,3.174,0,0,0-3.34,3.164v3.164A3.168,3.168,0,0,0,18.105,90H21.27a3.168,3.168,0,0,0,3.164-3.164V83.672a3.174,3.174,0,0,0-3.34-3.164V73.125H28.87a58.945,58.945,0,0,0,12.092,9.187,8.428,8.428,0,0,0,8.492-.07,59.308,59.308,0,0,0,7.645-5.5v8.511A1.406,1.406,0,0,0,58.5,86.66H73.477A3.174,3.174,0,0,0,76.641,90H79.8a3.168,3.168,0,0,0,3.164-3.164V83.672A3.168,3.168,0,0,0,79.8,80.508H76.641a3.174,3.174,0,0,0-3.164,3.34H59.911V74.235A59.233,59.233,0,0,0,76.786,46.406h7.062V55.02a3.174,3.174,0,0,0-3.34,3.164v3.164a3.168,3.168,0,0,0,3.164,3.164h3.164A3.168,3.168,0,0,0,90,61.348V58.184a3.174,3.174,0,0,0-3.34-3.164V45a1.406,1.406,0,0,0-1.406-1.406h-7.8C78.927,36.671,78.75,31.8,78.75,26.378a4.223,4.223,0,0,0-3.539-4.163,12.671,12.671,0,0,1-3.749-1.259V8.613h9.046a3.174,3.174,0,0,0,3.164,3.34Zm-72.6-5.625V3.164a.352.352,0,0,1,.352-.352H14.59a.352.352,0,0,1,.352.352V6.328a.352.352,0,0,1-.352.352H11.426A.352.352,0,0,1,11.074,6.328ZM2.812,48.691V45.527a.352.352,0,0,1,.352-.352H6.328a.352.352,0,0,1,.352.352v3.164a.352.352,0,0,1-.352.352H3.164A.352.352,0,0,1,2.812,48.691Zm18.809,34.98v3.164a.352.352,0,0,1-.352.352H18.105a.352.352,0,0,1-.352-.352V83.672a.352.352,0,0,1,.352-.352H21.27A.352.352,0,0,1,21.621,83.672Zm54.668,0a.352.352,0,0,1,.352-.352H79.8a.352.352,0,0,1,.352.352v3.164a.352.352,0,0,1-.352.352H76.641a.352.352,0,0,1-.352-.352Zm10.9-25.488v3.164a.352.352,0,0,1-.352.352H83.672a.352.352,0,0,1-.352-.352V58.184a.352.352,0,0,1,.352-.352h3.164A.352.352,0,0,1,87.187,58.184ZM83.32,5.625a.352.352,0,0,1,.352-.352h3.164a.352.352,0,0,1,.352.352V8.789a.352.352,0,0,1-.352.352H83.672a.352.352,0,0,1-.352-.352Z" fill="url(#linear-gradient)"/>
  <path id="Path_5930" data-name="Path 5930" d="M161.466,142.82a1.38,1.38,0,0,0,.422,1.9,1.357,1.357,0,0,0,1.881-.425,38.188,38.188,0,0,0,5.866-20.648V120.6a3.2,3.2,0,0,0-2.669-3.167,7.765,7.765,0,0,1-6.441-7.7,2.515,2.515,0,0,0-2.5-2.521h-21.41a2.515,2.515,0,0,0-2.5,2.521,7.764,7.764,0,0,1-6.441,7.7A3.2,3.2,0,0,0,125,120.6v3.042a39.182,39.182,0,0,0,19.477,33.874,5.875,5.875,0,0,0,5.957-.05,41.091,41.091,0,0,0,9.163-7.659,1.381,1.381,0,0,0-.1-1.94,1.356,1.356,0,0,0-1.925.1,38.284,38.284,0,0,1-8.537,7.142,3.163,3.163,0,0,1-3.207.026,36.425,36.425,0,0,1-18.106-31.49V120.6a.47.47,0,0,1,.4-.458,10.5,10.5,0,0,0,8.709-10.181H157.8a10.5,10.5,0,0,0,8.709,10.18.471.471,0,0,1,.4.458c0,5.164.281,13.115-5.443,22.22Z" transform="translate(-102.317 -87.76)" fill="url(#linear-gradient)"/>
  <path id="Path_5931" data-name="Path 5931" d="M206.888,156a7.993,7.993,0,0,0-7.984,7.984v3.629h-1.452A1.452,1.452,0,0,0,196,169.065V182.13a1.452,1.452,0,0,0,1.452,1.452h18.872a1.452,1.452,0,0,0,1.452-1.452V169.065a1.452,1.452,0,0,0-1.452-1.452h-1.452v-3.629A7.993,7.993,0,0,0,206.888,156Zm-5.081,7.984a5.081,5.081,0,1,1,10.162,0v3.629H201.807Zm13.065,16.694H198.9V170.517h15.969Z" transform="translate(-161.888 -128.952)" fill="url(#linear-gradient)"/>
  <path id="Path_5932" data-name="Path 5932" d="M249.452,253A1.452,1.452,0,0,0,248,254.452v1.27a1.452,1.452,0,0,0,2.9,0v-1.27A1.452,1.452,0,0,0,249.452,253Z" transform="translate(-204.452 -208.595)" fill="url(#linear-gradient)"/>
</svg>
