<svg xmlns="http://www.w3.org/2000/svg" xmlns:xlink="http://www.w3.org/1999/xlink" width="95.354" height="77.458" viewBox="0 0 95.354 77.458">
  <defs>
    <linearGradient id="linear-gradient" y1="0.5" x2="1" y2="0.5" gradientUnits="objectBoundingBox">
      <stop offset="0" stop-color="#033d61"/>
      <stop offset="1" stop-color="#0042ff"/>
    </linearGradient>
  </defs>
  <path id="Path_2608" data-name="Path 2608" d="M906.542,244.05a1.447,1.447,0,0,0,.25-.193c.026-.025.048-.051.072-.078a1.342,1.342,0,0,0,.156-.205.972.972,0,0,0,.054-.087,1.473,1.473,0,0,0,.129-.31l.005-.012a1.482,1.482,0,0,0,.047-.351c0-.013.005-.025.005-.038s-.007-.037-.008-.056a1.554,1.554,0,0,0-.036-.278c-.007-.029-.012-.059-.021-.087a1.5,1.5,0,0,0-.136-.331,1.539,1.539,0,0,0-.218-.284c-.02-.02-.041-.037-.062-.057a1.535,1.535,0,0,0-.228-.175c-.015-.009-.027-.023-.041-.031l-16.117-9.307,0,0h0l-.005,0-16.116-9.306a1.507,1.507,0,0,0-1.5,0l-.011.008-16.1,9.3-.008,0h0l-16.119,9.309a1.5,1.5,0,0,0-.751,1.3V261.39a1.5,1.5,0,0,0,3,0V245.374l27.739,16.016L840.526,278.7a1.52,1.52,0,0,0-.286.22c-.023.023-.044.048-.066.072a1.364,1.364,0,0,0-.159.208c-.019.029-.038.058-.054.088a1.436,1.436,0,0,0-.124.3.267.267,0,0,0-.01.026,1.476,1.476,0,0,0-.046.345c0,.015-.006.028-.006.042s.008.041.009.063a1.469,1.469,0,0,0,.034.263c.008.033.013.067.023.1a1.465,1.465,0,0,0,.133.319l0,.008h0c.006.01.014.017.02.026a1.5,1.5,0,0,0,.223.286,1.439,1.439,0,0,0,.181.14c.043.031.079.069.125.1l16.119,9.307.007,0,16.108,9.3.008.006a1.5,1.5,0,0,0,1.5,0l16.1-9.3c.007,0,.016-.005.023-.009h0L906.51,281.3a1.5,1.5,0,0,0,.75-1.3V261.39a1.5,1.5,0,0,0-3,0V277.4l-27.741-16.014,15.775-9.109,14.217-8.207C906.521,244.068,906.53,244.057,906.542,244.05Zm-34.526,51.968-13.87-8.005h0l-13.867-8.007,27.739-16.016Zm0-37.226-27.741-16.017,13.871-8.008,0,0,13.867-8.008ZM898.4,277.486,902.759,280l-13.871,8.011h0l-13.869,8v-32.03Zm-23.379-18.7,0-32.032,13.868,8,0,0,13.869,8.007Zm30.547-3.454v-3h-5.78v3Zm2.889,0h5.779v-3h-5.779Zm8.669-3v3h5.78v-3ZM827.55,269.785h5.78v-3h-5.78Zm14.449-3H836.22v3H842Zm2.889,0v3h5.779v-3Z" transform="translate(-827.55 -222.66)" fill="url(#linear-gradient)"/>
</svg>
