<svg xmlns="http://www.w3.org/2000/svg" width="580.369" height="224.583" viewBox="0 0 580.369 224.583">
  <g id="Group_1410" data-name="Group 1410" transform="translate(-469.5 -267)">
    <g id="Group_1400" data-name="Group 1400" transform="translate(789.826 267)">
      <g id="Polygon_15" data-name="Polygon 15" fill="#fff">
        <path d="M 73.89051818847656 84.69605255126953 L 25.3986759185791 84.69605255126953 L 1.155680418014526 42.84801483154297 L 25.39868927001953 0.9999995827674866 L 73.89051818847656 0.9999995827674866 L 98.133544921875 42.84802627563477 L 73.89051818847656 84.69605255126953 Z" stroke="none"/>
        <path d="M 25.97505950927734 2 L 2.311363220214844 42.8480110168457 L 25.97504425048828 83.69605255126953 L 73.31413269042969 83.69605255126953 L 96.97785949707031 42.84802627563477 L 73.31413269042969 2 L 25.97505950927734 2 M 24.82231140136719 0 L 74.46688079833984 0 L 99.28922271728516 42.84802627563477 L 74.46688079833984 85.69605255126953 L 24.82229614257812 85.69605255126953 L 0 42.8480110168457 L 24.82231140136719 0 Z" stroke="none" fill="#00b5be"/>
      </g>
      <g id="Group_1364" data-name="Group 1364" transform="translate(29.255 18.634)">
        <text id="뷰티" transform="translate(19.919 54.365)" fill="#033d61" font-size="9" font-family="AppleSDGothicNeo-Regular, Apple SD Gothic Neo"><tspan x="-7.785" y="0">뷰티</tspan></text>
        <g id="outline" transform="translate(0 0)">
          <path id="Path_8044" data-name="Path 8044" d="M355.121,72.437V58.393l.277-1.383a55.077,55.077,0,0,0,1.067-10.647l2.084-5.209a2.531,2.531,0,0,0-.942-3.032l-.048-.032a9.215,9.215,0,0,0-10.249,0l-.048.032a2.531,2.531,0,0,0-.942,3.032l2.083,5.209A55.074,55.074,0,0,0,349.47,57.01l.277,1.383V72.437a2.688,2.688,0,0,0,5.375,0ZM349.529,45.56l-1.962-4.9a1.181,1.181,0,0,1,.44-1.415l.048-.032a7.874,7.874,0,0,1,8.759,0l.048.032a1.181,1.181,0,0,1,.44,1.415l-1.962,4.9h-1.413L354.436,43a.672.672,0,0,0-1.318-.264l-.563,2.819h-.242l-.564-2.819a.672.672,0,1,0-1.318.264l.511,2.556Zm4.249,26.876a1.344,1.344,0,1,1-2.688,0V59h2.688Zm.121-14.782h-2.93l-.182-.908A53.744,53.744,0,0,1,349.75,46.9h5.367q-.025,2.017-.2,4.031h-1.807a.672.672,0,0,0,0,1.344h1.672q-.255,2.249-.7,4.467Z" transform="translate(-318.414 -34.81)" fill="#033d61"/>
          <path id="Path_8045" data-name="Path 8045" d="M291.98,252.393l-1.318-.439a1.512,1.512,0,0,0-1.99,1.434v6.9a.672.672,0,0,0-.672.672v10.751a.672.672,0,0,0,.672.672h5.375a.672.672,0,0,0,.672-.672V260.957a.672.672,0,0,0-.672-.672v-5.024A3.02,3.02,0,0,0,291.98,252.393Zm-1.964.995a.168.168,0,0,1,.221-.16l1.318.439a1.678,1.678,0,0,1,1.149,1.594v5.024h-2.688Zm3.36,17.648h-4.031v-6.719h4.031Zm0-8.063h-4.031v-1.344h4.031Z" transform="translate(-265.155 -232.065)" fill="#033d61"/>
          <path id="Path_8046" data-name="Path 8046" d="M16,270.124v.336a5.718,5.718,0,0,0,5.711,5.711H31.79A5.718,5.718,0,0,0,37.5,270.46v-.336a.672.672,0,0,0-.672-.672H35.25a9.407,9.407,0,1,0-17,0H16.672A.672.672,0,0,0,16,270.124Zm10.751-12.766a8.064,8.064,0,0,1,6.983,12.094H32.128a6.72,6.72,0,1,0-10.753,0H19.767a8.064,8.064,0,0,1,6.983-12.094Zm.944,2.772a5.335,5.335,0,0,1,1.589.551L22.745,269a5.376,5.376,0,0,1-.809-1.195Zm-6.257,6.1a5.366,5.366,0,0,1,4.6-6.14Zm8.943-4.772a5.4,5.4,0,0,1,1.291,1.8s-4.828,6.152-4.848,6.19H24.1ZM24.735,270.8h4.031a.672.672,0,0,1,0,1.344H24.735a.672.672,0,0,1,0-1.344Zm3.782-1.344,3.583-4.56c.017.174.026.35.026.528a5.35,5.35,0,0,1-1.822,4.031ZM22.835,270.8a2.015,2.015,0,0,0,1.9,2.688h4.031a2.015,2.015,0,0,0,1.9-2.687h5.478a4.373,4.373,0,0,1-4.355,4.031H21.711a4.373,4.373,0,0,1-4.355-4.031Z" transform="translate(-16 -235.856)" fill="#033d61"/>
          <path id="Path_8047" data-name="Path 8047" d="M240.3,91.914l1.077.718a3.584,3.584,0,0,1,1.215,1.377l.167.334a.672.672,0,0,0,1.2,0l.167-.334a3.584,3.584,0,0,1,1.215-1.377l1.077-.718a.672.672,0,0,0-.16-1.2A3.6,3.6,0,0,1,244,88.455a.672.672,0,0,0-1.275,0,3.6,3.6,0,0,1-2.263,2.263.672.672,0,0,0-.16,1.2Zm3.06-1.771a4.97,4.97,0,0,0,1.343,1.3l-.1.07a4.927,4.927,0,0,0-1.238,1.184,4.927,4.927,0,0,0-1.238-1.184l-.1-.07A4.97,4.97,0,0,0,243.359,90.143Z" transform="translate(-221.186 -81.948)" fill="#033d61"/>
          <path id="Path_8048" data-name="Path 8048" d="M158.259,138.72A3.6,3.6,0,0,1,156,136.458a.672.672,0,0,0-1.275,0,3.6,3.6,0,0,1-2.263,2.263.672.672,0,0,0-.16,1.2l1.077.718a3.584,3.584,0,0,1,1.215,1.377l.167.334a.672.672,0,0,0,1.2,0l.167-.334a3.584,3.584,0,0,1,1.215-1.377l1.077-.718a.672.672,0,0,0-.16-1.2Zm-1.662.8a4.927,4.927,0,0,0-1.238,1.184,4.926,4.926,0,0,0-1.238-1.184l-.1-.07a4.97,4.97,0,0,0,1.343-1.3,4.97,4.97,0,0,0,1.343,1.3Z" transform="translate(-140.577 -125.92)" fill="#033d61"/>
          <path id="Path_8049" data-name="Path 8049" d="M189.342,20.635l1.077-.718a.672.672,0,0,0-.16-1.2A3.6,3.6,0,0,1,188,16.458a.672.672,0,0,0-1.275,0,3.6,3.6,0,0,1-2.263,2.263.672.672,0,0,0-.16,1.2l1.077.718a3.584,3.584,0,0,1,1.215,1.377l.167.334a.672.672,0,0,0,1.2,0l.167-.334a3.584,3.584,0,0,1,1.215-1.377Zm-1.984.066a4.926,4.926,0,0,0-1.238-1.184l-.1-.07a4.97,4.97,0,0,0,1.343-1.3,4.97,4.97,0,0,0,1.343,1.3l-.1.07a4.927,4.927,0,0,0-1.238,1.184Z" transform="translate(-169.889 -15.998)" fill="#033d61"/>
        </g>
      </g>
    </g>
    <g id="Group_1399" data-name="Group 1399" transform="translate(549.877 313.099)">
      <g id="Polygon_15-2" data-name="Polygon 15" fill="#fff">
        <path d="M 73.89051818847656 84.69605255126953 L 25.3986759185791 84.69605255126953 L 1.155680418014526 42.84801483154297 L 25.39868927001953 0.9999995827674866 L 73.89051818847656 0.9999995827674866 L 98.133544921875 42.84802627563477 L 73.89051818847656 84.69605255126953 Z" stroke="none"/>
        <path d="M 25.97505950927734 2 L 2.311363220214844 42.8480110168457 L 25.97504425048828 83.69605255126953 L 73.31413269042969 83.69605255126953 L 96.97785949707031 42.84802627563477 L 73.31413269042969 2 L 25.97505950927734 2 M 24.82231140136719 0 L 74.46688079833984 0 L 99.28922271728516 42.84802627563477 L 74.46688079833984 85.69605255126953 L 24.82229614257812 85.69605255126953 L 0 42.8480110168457 L 24.82231140136719 0 Z" stroke="none" fill="#00b5be"/>
      </g>
      <g id="Group_1375" data-name="Group 1375" transform="translate(29.846 18.422)">
        <text id="의료" transform="translate(20.278 54.479)" fill="#033d61" font-size="9" font-family="AppleSDGothicNeo-Regular, Apple SD Gothic Neo"><tspan x="-7.785" y="0">의료</tspan></text>
        <g id="_004-healthcare" data-name="004-healthcare" transform="translate(0 0)">
          <path id="Path_8040" data-name="Path 8040" d="M12.367,18.193a2.594,2.594,0,0,0-3.65-.026,2.555,2.555,0,0,0-.712,1.316L6.762,18.266a1.9,1.9,0,0,1-.553-1.1l-.937-7.049A2.648,2.648,0,0,0,0,10.462V20.586a4.1,4.1,0,0,0,.972,2.648l3.319,3.913a.589.589,0,1,0,.9-.762L1.87,22.472a2.92,2.92,0,0,1-.692-1.887V10.462a1.47,1.47,0,0,1,2.928-.194l.937,7.049a3.085,3.085,0,0,0,.9,1.79l2.789,2.73h0l2.64,2.585a.589.589,0,1,0,.824-.841L9.551,21A1.4,1.4,0,0,1,9.546,19a1.409,1.409,0,0,1,1.981.014l5.447,5.549a3.917,3.917,0,0,1,1.128,2.76V39.6a.589.589,0,1,0,1.177,0V27.326a5.088,5.088,0,0,0-1.465-3.585ZM7,28.515a.589.589,0,0,0-.9.762l2.84,3.348a1.987,1.987,0,0,1,.471,1.284V39.6a.589.589,0,1,0,1.177,0V33.909a3.166,3.166,0,0,0-.751-2.045ZM19.2,15.709h1.779a1.183,1.183,0,0,0,1.182-1.182V11.409h3.118a1.183,1.183,0,0,0,1.182-1.182V8.447a1.183,1.183,0,0,0-1.182-1.182H22.166V4.147a1.183,1.183,0,0,0-1.182-1.182H19.2a1.183,1.183,0,0,0-1.182,1.182V7.266H14.9a1.183,1.183,0,0,0-1.182,1.182v1.779A1.183,1.183,0,0,0,14.9,11.409h3.118v3.118A1.183,1.183,0,0,0,19.2,15.709Zm-4.3-5.482,0-1.784h3.41a.886.886,0,0,0,.885-.885l0-3.415,1.784,0v3.41a.886.886,0,0,0,.885.885h3.41l0,0,0,1.784h-3.41a.886.886,0,0,0-.885.885l0,3.415-1.784,0v-3.41a.886.886,0,0,0-.885-.885Zm13.488,3.4a.589.589,0,0,0-1.045-.542,8.114,8.114,0,1,1,.807-2.44.589.589,0,1,0,1.162.188,9.346,9.346,0,1,0-.924,2.795Zm9.153-5.809a2.656,2.656,0,0,0-2.625,2.3l-.937,7.049a1.9,1.9,0,0,1-.553,1.1l-1.243,1.217a2.554,2.554,0,0,0-.712-1.316,2.593,2.593,0,0,0-3.65.026l-5.447,5.549a5.088,5.088,0,0,0-1.465,3.585V39.6a.589.589,0,0,0,1.177,0V27.326a3.917,3.917,0,0,1,1.128-2.76l5.447-5.549A1.409,1.409,0,0,1,30.643,19,1.4,1.4,0,0,1,30.637,21L28,23.581a.589.589,0,0,0,.824.841l2.64-2.585h0l2.789-2.73a3.084,3.084,0,0,0,.9-1.79l.937-7.049a1.47,1.47,0,0,1,2.928.194V20.586a2.92,2.92,0,0,1-.692,1.887l-7.966,9.391a3.166,3.166,0,0,0-.751,2.045V39.6a.589.589,0,1,0,1.177,0V33.909a1.987,1.987,0,0,1,.471-1.284l7.966-9.391a4.1,4.1,0,0,0,.972-2.648V10.462a2.651,2.651,0,0,0-2.648-2.648Z" fill="#033d61"/>
        </g>
      </g>
    </g>
    <g id="Group_1401" data-name="Group 1401" transform="translate(629.072 267)">
      <g id="Polygon_15-3" data-name="Polygon 15" fill="#fff">
        <path d="M 73.89051818847656 84.69605255126953 L 25.3986759185791 84.69605255126953 L 1.155680418014526 42.84801483154297 L 25.39868927001953 0.9999995827674866 L 73.89051818847656 0.9999995827674866 L 98.133544921875 42.84802627563477 L 73.89051818847656 84.69605255126953 Z" stroke="none"/>
        <path d="M 25.97505950927734 2 L 2.311363220214844 42.8480110168457 L 25.97504425048828 83.69605255126953 L 73.31413269042969 83.69605255126953 L 96.97785949707031 42.84802627563477 L 73.31413269042969 2 L 25.97505950927734 2 M 24.82231140136719 0 L 74.46688079833984 0 L 99.28922271728516 42.84802627563477 L 74.46688079833984 85.69605255126953 L 24.82229614257812 85.69605255126953 L 0 42.8480110168457 L 24.82231140136719 0 Z" stroke="none" fill="#00b5be"/>
      </g>
      <g id="Group_1372" data-name="Group 1372" transform="translate(29.255 18.252)">
        <text id="여행" transform="translate(20.674 53.748)" fill="#033d61" font-size="9" font-family="AppleSDGothicNeo-Regular, Apple SD Gothic Neo"><tspan x="-7.785" y="0">여행</tspan></text>
        <g id="_003-world" data-name="003-world" transform="translate(0 0)">
          <g id="Group_1279" data-name="Group 1279" transform="translate(5.518 33.048)">
            <g id="Group_1278" data-name="Group 1278">
              <path id="Path_8017" data-name="Path 8017" d="M54.906,323.125l-.041-.034c-.42-.348-.84-.722-1.226-1.108a.628.628,0,1,0-.886.89,16.064,16.064,0,0,0,1.31,1.188.63.63,0,1,0,.843-.936Z" transform="translate(-52.569 -321.801)" fill="#033d61"/>
            </g>
          </g>
          <g id="Group_1281" data-name="Group 1281" transform="translate(0.129 15.666)">
            <g id="Group_1280" data-name="Group 1280">
              <path id="Path_8018" data-name="Path 8018" d="M2.366,156.232a.63.63,0,0,0-.835.538c-.126.575-.223,1.159-.294,1.742a.63.63,0,0,0,.533.705h.08a.63.63,0,0,0,.626-.554c.067-.546.16-1.1.277-1.629A.63.63,0,0,0,2.366,156.232Z" transform="translate(-1.232 -156.197)" fill="#033d61"/>
            </g>
          </g>
          <g id="Group_1283" data-name="Group 1283" transform="translate(2.64 29.35)">
            <g id="Group_1282" data-name="Group 1282">
              <path id="Path_8019" data-name="Path 8019" d="M27.234,288.247c-.323-.445-.63-.907-.911-1.377a.63.63,0,0,0-.863-.219h0a.63.63,0,0,0-.219.863v0c.3.5.63,1,.978,1.474a.63.63,0,0,0,1.016-.743Z" transform="translate(-25.15 -286.562)" fill="#033d61"/>
            </g>
          </g>
          <g id="Group_1285" data-name="Group 1285" transform="translate(0.743 25.046)">
            <g id="Group_1284" data-name="Group 1284">
              <path id="Path_8020" data-name="Path 8020" d="M8.861,247.582c-.2-.508-.386-1.033-.542-1.562a.63.63,0,0,0-.78-.429l-.017.005a.63.63,0,0,0-.42.781c.168.563.361,1.125.579,1.679a.636.636,0,1,0,1.18-.474Z" transform="translate(-7.076 -245.566)" fill="#033d61"/>
            </g>
          </g>
          <g id="Group_1287" data-name="Group 1287" transform="translate(1.292 11.316)">
            <g id="Group_1286" data-name="Group 1286">
              <path id="Path_8021" data-name="Path 8021" d="M13.921,114.821a.63.63,0,0,0-.846.279c-.265.525-.508,1.066-.722,1.616a.629.629,0,0,0,1.17.461v0a15.144,15.144,0,0,1,.676-1.507A.63.63,0,0,0,13.921,114.821Z" transform="translate(-12.309 -114.753)" fill="#033d61"/>
            </g>
          </g>
          <g id="Group_1289" data-name="Group 1289" transform="translate(0 20.427)">
            <g id="Group_1288" data-name="Group 1288">
              <path id="Path_8022" data-name="Path 8022" d="M1.394,203.808v0c-.067-.546-.113-1.1-.134-1.646a.63.63,0,1,0-1.26.046,13.8,13.8,0,0,0,.143,1.763.63.63,0,0,0,.609.542h.1A.63.63,0,0,0,1.394,203.808Z" transform="translate(0 -201.553)" fill="#033d61"/>
            </g>
          </g>
          <g id="Group_1291" data-name="Group 1291" transform="translate(15.087 1.1)">
            <g id="Group_1290" data-name="Group 1290">
              <path id="Path_8023" data-name="Path 8023" d="M146.753,18a.633.633,0,0,0-.691-.569c-.584.059-1.171.143-1.751.256a.633.633,0,1,0,.118,1.26l0-.017h.122c.542-.1,1.092-.185,1.637-.239A.633.633,0,0,0,146.753,18Z" transform="translate(-143.738 -17.428)" fill="#033d61"/>
            </g>
          </g>
          <g id="Group_1293" data-name="Group 1293" transform="translate(3.525 7.414)">
            <g id="Group_1292" data-name="Group 1292">
              <path id="Path_8024" data-name="Path 8024" d="M35.7,77.739a.634.634,0,0,0-.894.055c-.386.441-.756.907-1.1,1.386a.63.63,0,0,0,.508,1v.008a.63.63,0,0,0,.512-.26c.323-.445.668-.882,1.029-1.293A.634.634,0,0,0,35.7,77.739Z" transform="translate(-33.582 -77.58)" fill="#033d61"/>
            </g>
          </g>
          <g id="Group_1295" data-name="Group 1295" transform="translate(19.825 1.022)">
            <g id="Group_1294" data-name="Group 1294">
              <path id="Path_8025" data-name="Path 8025" d="M191.3,16.871c-.579-.088-1.171-.151-1.759-.185a.631.631,0,0,0-.076,1.26c.554.042,1.1.1,1.646.185h.1a.631.631,0,0,0,.092-1.26Z" transform="translate(-188.873 -16.685)" fill="#033d61"/>
            </g>
          </g>
          <g id="Group_1297" data-name="Group 1297" transform="translate(6.73 4.316)">
            <g id="Group_1296" data-name="Group 1296">
              <path id="Path_8026" data-name="Path 8026" d="M66.6,48.32a.63.63,0,0,0-.848-.157c-.483.332-.957.693-1.411,1.066a.631.631,0,0,0,.806.97c.42-.353.865-.689,1.318-1A.63.63,0,0,0,66.6,48.32Z" transform="translate(-64.116 -48.064)" fill="#033d61"/>
            </g>
          </g>
          <g id="Group_1300" data-name="Group 1300" transform="translate(10.695 2.125)">
            <g id="Group_1299" data-name="Group 1299">
              <g id="Group_1298" data-name="Group 1298">
                <path id="Path_8027" data-name="Path 8027" d="M107.817,45.652h0Z" transform="translate(-107.184 -43.714)" fill="#033d61"/>
                <path id="Path_8028" data-name="Path 8028" d="M104.746,27.652a.63.63,0,0,0-.86-.41,15.732,15.732,0,0,0-1.629.684.627.627,0,1,0,.525,1.138c.5-.235,1.008-.449,1.524-.638A.63.63,0,0,0,104.746,27.652Z" transform="translate(-101.892 -27.189)" fill="#033d61"/>
              </g>
            </g>
          </g>
          <g id="Group_1302" data-name="Group 1302" transform="translate(18.193 38.427)">
            <g id="Group_1301" data-name="Group 1301">
              <path id="Path_8029" data-name="Path 8029" d="M176.293,373.635a.631.631,0,0,0-.67-.59,15.542,15.542,0,0,1-1.654.038.63.63,0,0,0-.034,1.26h.533c.42,0,.84,0,1.234-.038A.631.631,0,0,0,176.293,373.635Z" transform="translate(-173.322 -373.044)" fill="#033d61"/>
            </g>
          </g>
          <g id="Group_1304" data-name="Group 1304" transform="translate(36.365 24.409)">
            <g id="Group_1303" data-name="Group 1303">
              <path id="Path_8030" data-name="Path 8030" d="M347.73,239.509a.63.63,0,0,0-.766.456c-.134.533-.3,1.062-.483,1.579a.629.629,0,0,0,1.188.413v0c.2-.554.369-1.121.516-1.679A.63.63,0,0,0,347.73,239.509Z" transform="translate(-346.447 -239.489)" fill="#033d61"/>
            </g>
          </g>
          <g id="Group_1306" data-name="Group 1306" transform="translate(36.853 15.04)">
            <g id="Group_1305" data-name="Group 1305">
              <path id="Path_8031" data-name="Path 8031" d="M352.7,152.407c-.1-.579-.218-1.163-.365-1.73a.63.63,0,0,0-1.218.319c.139.529.252,1.075.344,1.616a.63.63,0,0,0,.613.516h.1A.63.63,0,0,0,352.7,152.407Z" transform="translate(-351.099 -150.23)" fill="#033d61"/>
            </g>
          </g>
          <g id="Group_1308" data-name="Group 1308" transform="translate(4.49)">
            <g id="Group_1307" data-name="Group 1307">
              <path id="Path_8032" data-name="Path 8032" d="M79.413,16.936a.611.611,0,0,0-.12-.173L78.181,15.6a.609.609,0,0,0-.609-.151l-2.007.609-2.351-2.494,5.278-2.939a.613.613,0,0,0,.181-.987L77.19,8.16a.613.613,0,0,0-.609-.143l-6.688,2.024-2.25-2.389a2.036,2.036,0,0,0-2.318-.55h-.038A2.477,2.477,0,0,0,63.939,8.45a2.269,2.269,0,0,0-.134.5l-.256-.088a.631.631,0,1,0-.386,1.2c.323.1.647.223.97.344a2.418,2.418,0,0,0,.34.42l2.372,2.25-.68,2.246a14.8,14.8,0,1,0,3.128,3.014l1.075-1.94,2.494,2.351-.6,1.986a.609.609,0,0,0,.147.621s1.23,1.218,1.26,1.26a.609.609,0,0,0,.832-.221l.008-.014,1.642-3.01,2.964-1.616A.613.613,0,0,0,79.413,16.936Zm-31.349.83a13.482,13.482,0,0,1,9.543-3.947q.42,0,.84.025c2.381,2.2,1.679,4.2.084,6a29.472,29.472,0,0,1-3.023,2.788c-1.549,1.318-2.994,2.549-3.539,3.779-.647,1.461-.172,2.784,2.439,3.938A6.864,6.864,0,0,1,56.7,31.722a.068.068,0,0,0,.012.011l-.029.01a5.218,5.218,0,0,1-1.982.34c-3.166.134-5.42-1.889-7.171-3.455-1.26-1.121-2.305-2.053-3.392-2.062A13.482,13.482,0,0,1,48.064,17.766Zm23.088,9.564h0a13.536,13.536,0,0,1-9.325,12.86,4.4,4.4,0,0,1,.516-2.859,10.409,10.409,0,0,1,2.519-2.771c3.875-3.233,4.094-5.038,4.262-6.428.1-.878.185-1.532,1.919-2.486A13.678,13.678,0,0,1,71.152,27.331Zm-.781-4.543a13.4,13.4,0,0,1,.462,1.616c-2.641,1.344-2.758,2.3-2.918,3.607-.143,1.176-.327,2.712-3.829,5.634a11.484,11.484,0,0,0-2.813,3.12,5.568,5.568,0,0,0-.63,3.749A13.528,13.528,0,0,1,44.109,27.8c.668,0,1.532.794,2.595,1.738,1.923,1.717,4.383,3.909,8.049,3.779a6.3,6.3,0,0,0,2.519-.479,1.26,1.26,0,0,0,.7-.789,1.2,1.2,0,0,0-.3-1.1,7.842,7.842,0,0,0-2.746-1.717c-1.776-.785-2.162-1.549-1.814-2.33.42-.982,1.772-2.1,3.208-3.359a30.562,30.562,0,0,0,3.153-2.939c1.755-2,2.658-4.178.873-6.562A13.435,13.435,0,0,1,65.8,16.532l-.966,3.187a.613.613,0,0,0,.147.621s1.566,1.553,1.616,1.583a.609.609,0,0,0,.832-.221l.008-.014,1.222-2.208A13.5,13.5,0,0,1,70.371,22.788ZM76,18.1l-.542.269a.6.6,0,0,0-.277.281l-.269.546-1.045,1.889-.306-.336.609-2.011a.609.609,0,0,0-.2-.647l-3.313-3.12a.609.609,0,0,0-.861.008L69.783,15c-.042.046-3.023,5.416-3.023,5.416l-.651-.651,2.032-6.7a.609.609,0,0,0-.2-.651L65.308,9.932a.873.873,0,0,1-.239-1.008,1.319,1.319,0,0,1,.684-.68h.021a.873.873,0,0,1,.982.252l2.519,2.662a.609.609,0,0,0,.621.168L76.615,9.3l.651.651-5.332,2.931a.609.609,0,0,0-.243.826l.008.014c.025.046,3.237,3.464,3.237,3.464a.609.609,0,0,0,.621.164l2.02-.609.315.315Z" transform="translate(-42.775 -6.948)" fill="#033d61"/>
            </g>
          </g>
          <g id="Group_1310" data-name="Group 1310" transform="translate(34.247 28.767)">
            <g id="Group_1309" data-name="Group 1309">
              <path id="Path_8033" data-name="Path 8033" d="M328.116,281.1l-.028-.015a.63.63,0,0,0-.84.248c-.265.483-.554.957-.865,1.411a.631.631,0,1,0,1.033.726c.327-.487.638-1,.924-1.507A.63.63,0,0,0,328.116,281.1Z" transform="translate(-326.269 -281.013)" fill="#033d61"/>
            </g>
          </g>
          <g id="Group_1312" data-name="Group 1312" transform="translate(37.369 19.661)">
            <g id="Group_1311" data-name="Group 1311">
              <path id="Path_8034" data-name="Path 8034" d="M356.735,194.255a.63.63,0,0,0-.638.621c0,.009,0,.017,0,.026v.071c0,.55-.025,1.1-.076,1.654a.63.63,0,0,0,.57.684h.06a.63.63,0,0,0,.634-.584c.055-.584.08-1.176.08-1.763v-.084A.63.63,0,0,0,356.735,194.255Z" transform="translate(-356.019 -194.255)" fill="#033d61"/>
            </g>
          </g>
          <g id="Group_1314" data-name="Group 1314" transform="translate(13.521 37.746)">
            <g id="Group_1313" data-name="Group 1313">
              <path id="Path_8035" data-name="Path 8035" d="M131.263,366.96a13.011,13.011,0,0,1-1.612-.369.63.63,0,0,0-.418,1.188.641.641,0,0,0,.074.021c.563.16,1.142.3,1.721.42h.118a.633.633,0,0,0,.118-1.26Z" transform="translate(-128.811 -366.555)" fill="#033d61"/>
            </g>
          </g>
          <g id="Group_1316" data-name="Group 1316" transform="translate(22.869 37.548)">
            <g id="Group_1315" data-name="Group 1315">
              <path id="Path_8036" data-name="Path 8036" d="M220.723,365.078a.63.63,0,0,0-.764-.388v.017a12.517,12.517,0,0,1-1.591.42.631.631,0,0,0,.277,1.23c.571-.13,1.146-.29,1.7-.47A.63.63,0,0,0,220.723,365.078Z" transform="translate(-217.876 -364.665)" fill="#033d61"/>
            </g>
          </g>
          <g id="Group_1318" data-name="Group 1318" transform="translate(9.237 35.906)">
            <g id="Group_1317" data-name="Group 1317">
              <path id="Path_8037" data-name="Path 8037" d="M90.412,349.9c-.5-.248-.991-.516-1.465-.785a.63.63,0,1,0-.638,1.087c.508.3,1.033.575,1.566.84a.631.631,0,1,0,.537-1.142Z" transform="translate(-87.997 -349.029)" fill="#033d61"/>
            </g>
          </g>
          <g id="Group_1320" data-name="Group 1320" transform="translate(31.149 32.562)">
            <g id="Group_1319" data-name="Group 1319">
              <path id="Path_8038" data-name="Path 8038" d="M299.028,317.336a.63.63,0,0,0-.879.029h0a15.3,15.3,0,0,1-1.184,1.155.63.63,0,0,0,.84.94c.42-.39.865-.806,1.26-1.234A.63.63,0,0,0,299.028,317.336Z" transform="translate(-296.758 -317.171)" fill="#033d61"/>
            </g>
          </g>
          <g id="Group_1322" data-name="Group 1322" transform="translate(27.276 35.562)">
            <g id="Group_1321" data-name="Group 1321">
              <path id="Path_8039" data-name="Path 8039" d="M262.529,346.053a.63.63,0,0,0-.864-.217l-.03.019v-.017c-.462.294-.945.571-1.432.84a.63.63,0,0,0,.575,1.121c.521-.269,1.037-.567,1.533-.882A.63.63,0,0,0,262.529,346.053Z" transform="translate(-259.861 -345.746)" fill="#033d61"/>
            </g>
          </g>
        </g>
      </g>
    </g>
    <g id="Group_1406" data-name="Group 1406" transform="translate(870.203 313.69)">
      <g id="Polygon_15-4" data-name="Polygon 15" transform="translate(0)" fill="#fff">
        <path d="M 73.89051818847656 84.69605255126953 L 25.3986759185791 84.69605255126953 L 1.155680418014526 42.84801483154297 L 25.39868927001953 0.9999995827674866 L 73.89051818847656 0.9999995827674866 L 98.133544921875 42.84802627563477 L 73.89051818847656 84.69605255126953 Z" stroke="none"/>
        <path d="M 25.97505950927734 2 L 2.311363220214844 42.8480110168457 L 25.97504425048828 83.69605255126953 L 73.31413269042969 83.69605255126953 L 96.97785949707031 42.84802627563477 L 73.31413269042969 2 L 25.97505950927734 2 M 24.82231140136719 0 L 74.46688079833984 0 L 99.28922271728516 42.84802627563477 L 74.46688079833984 85.69605255126953 L 24.82229614257812 85.69605255126953 L 0 42.8480110168457 L 24.82231140136719 0 Z" stroke="none" fill="#00b5be"/>
      </g>
      <g id="Group_1365" data-name="Group 1365" transform="translate(29.846 17.381)">
        <text id="금융" transform="translate(19.951 54.929)" fill="#033d61" font-size="9" font-family="AppleSDGothicNeo-Regular, Apple SD Gothic Neo"><tspan x="-7.785" y="0">금융</tspan></text>
        <g id="_005-money" data-name="005-money" transform="translate(0 0)">
          <g id="Group_1324" data-name="Group 1324" transform="translate(10.25 31.145)">
            <g id="Group_1323" data-name="Group 1323">
              <path id="Path_8041" data-name="Path 8041" d="M70.576,452.443a1.506,1.506,0,1,0,.442,1.066A1.518,1.518,0,0,0,70.576,452.443Z" transform="translate(-68.003 -452.001)" fill="#033d61"/>
            </g>
          </g>
          <g id="Group_1326" data-name="Group 1326" transform="translate(31.213 13.601)">
            <g id="Group_1325" data-name="Group 1325">
              <path id="Path_8042" data-name="Path 8042" d="M455.027,180.45a1.5,1.5,0,1,0,.443,1.066A1.515,1.515,0,0,0,455.027,180.45Z" transform="translate(-452.454 -180.008)" fill="#033d61"/>
            </g>
          </g>
          <g id="Group_1328" data-name="Group 1328">
            <g id="Group_1327" data-name="Group 1327">
              <path id="Path_8043" data-name="Path 8043" d="M39.966.23A.785.785,0,0,0,39.41,0H20.1a.785.785,0,0,0-.785.785V3.031l-7.44,1.994a.785.785,0,0,0-.555.961l3.856,14.391-3.336,3.336A2.354,2.354,0,0,0,9.9,22.685H2.362A2.357,2.357,0,0,0,.007,25.04V37.835A2.357,2.357,0,0,0,2.362,40.19H9.9A2.359,2.359,0,0,0,12.183,38.4l.933.814a3.955,3.955,0,0,0,2.6.974h23.7A.785.785,0,0,0,40.2,39.4V.785A.786.786,0,0,0,39.966.23Zm-29.284,37.6a.786.786,0,0,1-.785.785H2.362a.786.786,0,0,1-.785-.785V25.04a.786.786,0,0,1,.785-.785H5.344V33.3a.785.785,0,0,0,1.57,0V24.255H9.9a.786.786,0,0,1,.785.785V37.835Zm2.358-31.5,6.276-1.682V7.565l-.526.141a.785.785,0,0,0-.555.961,2.116,2.116,0,0,1-1.494,2.589.785.785,0,0,0-.555.963l3.06,11.33H17.67l-.812-3.176a.784.784,0,0,0-.132-.275Zm6.276,4.827v6.623l-1.432-5.3A3.677,3.677,0,0,0,19.316,11.164ZM30.593,38.62H15.715a2.385,2.385,0,0,1-1.568-.588l-1.9-1.653V25.522L15.679,22.1l.622,2.432a.785.785,0,0,0,.76.591H32.493a1.1,1.1,0,1,1,0,2.2H24.586a.785.785,0,1,0,0,1.57H34.95a1.1,1.1,0,1,1,0,2.2H24.586a.785.785,0,1,0,0,1.57h8.685a1.1,1.1,0,0,1,0,2.2H24.586a.785.785,0,1,0,0,1.57h6.007a1.1,1.1,0,1,1,0,2.2Zm8.032,0h-5.6a2.659,2.659,0,0,0,0-2.2h.246a2.667,2.667,0,0,0,2.385-3.863A2.667,2.667,0,0,0,37.092,28.4V18.447a.785.785,0,0,0-1.57,0v8.932a2.669,2.669,0,0,0-.572-.062h-.026a2.667,2.667,0,0,0-2.431-3.768H31.231a3.757,3.757,0,1,0-2.951,0H23.989V8.624A3.7,3.7,0,0,0,26.8,5.809h5.9a3.7,3.7,0,0,0,2.814,2.814v2.44a.785.785,0,0,0,1.57,0V7.923a.785.785,0,0,0-.785-.785,2.116,2.116,0,0,1-2.113-2.113.785.785,0,0,0-.785-.785H26.1a.785.785,0,0,0-.785.785A2.116,2.116,0,0,1,23.2,7.138a.785.785,0,0,0-.785.785V23.549H20.886V1.571H38.626Zm-8.87-16.338a2.187,2.187,0,1,1,2.187-2.187A2.189,2.189,0,0,1,29.756,22.281Z" transform="translate(-0.007)" fill="#033d61"/>
            </g>
          </g>
        </g>
      </g>
    </g>
    <g id="Group_1409" data-name="Group 1409" transform="translate(950.58 359.788)">
      <g id="Polygon_15-5" data-name="Polygon 15" transform="translate(0)" fill="#fff">
        <path d="M 73.89051818847656 84.69605255126953 L 25.3986759185791 84.69605255126953 L 1.155680418014526 42.84801483154297 L 25.39868927001953 0.9999995827674866 L 73.89051818847656 0.9999995827674866 L 98.133544921875 42.84802627563477 L 73.89051818847656 84.69605255126953 Z" stroke="none"/>
        <path d="M 25.97505950927734 2 L 2.311363220214844 42.8480110168457 L 25.97504425048828 83.69605255126953 L 73.31413269042969 83.69605255126953 L 96.97785949707031 42.84802627563477 L 73.31413269042969 2 L 25.97505950927734 2 M 24.82231140136719 0 L 74.46688079833984 0 L 99.28922271728516 42.84802627563477 L 74.46688079833984 85.69605255126953 L 24.82229614257812 85.69605255126953 L 0 42.8480110168457 L 24.82231140136719 0 Z" stroke="none" fill="#00b5be"/>
      </g>
      <g id="Group_1366" data-name="Group 1366" transform="translate(29.255 15.393)">
        <text id="교육" transform="translate(19.324 55.85)" fill="#033d61" font-size="9" font-family="AppleSDGothicNeo-Regular, Apple SD Gothic Neo"><tspan x="-7.785" y="0">교육</tspan></text>
        <g id="Outline-2" data-name="Outline" transform="translate(0 0)">
          <path id="Path_8058" data-name="Path 8058" d="M96,48h1.391v1.391H96Z" transform="translate(-89.739 -45.217)" fill="#033d61"/>
          <path id="Path_8059" data-name="Path 8059" d="M128,48h1.391v1.391H128Z" transform="translate(-118.957 -45.217)" fill="#033d61"/>
          <path id="Path_8060" data-name="Path 8060" d="M160,48h1.391v1.391H160Z" transform="translate(-148.174 -45.217)" fill="#033d61"/>
          <path id="Path_8061" data-name="Path 8061" d="M96,160h1.391v1.391H96Z" transform="translate(-89.739 -147.479)" fill="#033d61"/>
          <path id="Path_8062" data-name="Path 8062" d="M96,192h1.391v6.956H96Z" transform="translate(-89.739 -176.696)" fill="#033d61"/>
          <path id="Path_8063" data-name="Path 8063" d="M24.073,51.788a.7.7,0,0,0,.622.385H27.21a5.366,5.366,0,0,0,.639,5.287.7.7,0,0,0,.557.278H63.651a.7.7,0,0,0,.557-1.113,3.962,3.962,0,0,1,0-4.73.7.7,0,0,0-.556-1.113H61.136a5.387,5.387,0,0,0-.006-4.186,2.786,2.786,0,0,0,2.52-2.77V41.738a.7.7,0,0,0-.7-.7H60.868V18.783A2.786,2.786,0,0,0,58.086,16H30.261a2.786,2.786,0,0,0-2.783,2.783v22.26H25.391a.7.7,0,0,0-.7.7v2.087h1.391V42.434H38.32a1.668,1.668,0,0,1,1.187.492,3.051,3.051,0,0,0,2.171.9h4.989a3.051,3.051,0,0,0,2.171-.9,1.668,1.668,0,0,1,1.188-.492H62.26v1.391a1.393,1.393,0,0,1-1.391,1.391H24.7a.7.7,0,0,0-.557,1.113,3.962,3.962,0,0,1,0,4.73A.7.7,0,0,0,24.073,51.788Zm23.782-9.846a1.668,1.668,0,0,1-1.188.492H41.679a1.668,1.668,0,0,1-1.188-.492,3.051,3.051,0,0,0-2.171-.9H28.869V18.783a1.393,1.393,0,0,1,1.391-1.391H58.086a1.393,1.393,0,0,1,1.391,1.391v22.26H50.027a3.05,3.05,0,0,0-2.171.9ZM26.265,49.39H39.933a3.925,3.925,0,0,1-.531,1.391H25.891A5.348,5.348,0,0,0,26.265,49.39ZM55.4,50.782H45.832a5.387,5.387,0,0,0,0-4.174H55.4A3.969,3.969,0,0,1,55.4,50.782Zm-8.017,5.565H44.076a3.969,3.969,0,0,1,0-4.174h3.308A5.387,5.387,0,0,0,47.384,56.347ZM32.946,52.173h9.568a5.387,5.387,0,0,0,0,4.174H32.946a3.969,3.969,0,0,1,0-4.174Zm11.325-1.391H40.963a5.387,5.387,0,0,0,0-4.174h3.308A3.969,3.969,0,0,1,44.271,50.782Zm-15.5,1.391h2.612a5.387,5.387,0,0,0,0,4.174H28.772a3.969,3.969,0,0,1,0-4.174Zm20.173,4.174a3.923,3.923,0,0,1-.531-1.391H62.081a5.344,5.344,0,0,0,.374,1.391Zm13.136-2.783H48.414a3.923,3.923,0,0,1,.531-1.391h13.51a5.344,5.344,0,0,0-.374,1.391Zm-2.506-2.783H56.962a5.387,5.387,0,0,0,0-4.174h2.612a3.969,3.969,0,0,1,0,4.174Zm-32.1-4.174H39.4A3.925,3.925,0,0,1,39.933,48H26.265a5.348,5.348,0,0,0-.374-1.391Z" transform="translate(-24 -16)" fill="#033d61"/>
          <path id="Path_8064" data-name="Path 8064" d="M129.04,77.1V71.33l.978-.435a.7.7,0,0,0,0-1.271L117.5,64.059a.7.7,0,0,0-.565,0L104.41,69.624a.7.7,0,0,0,0,1.271l5.152,2.29v8.2a.7.7,0,0,0,.7.7,17.279,17.279,0,0,1,6.45,1.243l.249.1a.7.7,0,0,0,.515,0l.25-.1a17.277,17.277,0,0,1,6.449-1.242.7.7,0,0,0,.7-.7v-8.2l2.783-1.237V77.1l-1.356,4.067a.7.7,0,0,0,.66.916h2.783a.7.7,0,0,0,.66-.916ZM117.214,65.456l4.263,1.895-2.816,1.408A2.092,2.092,0,1,0,119.285,70l3.806-1.9-.021-.041,4.953,2.2-10.808,4.8-10.808-4.8Zm.7,4.8a.7.7,0,1,1-.7-.7A.7.7,0,0,1,117.91,70.26Zm5.565,10.447a18.647,18.647,0,0,0-6.261,1.325,18.647,18.647,0,0,0-6.261-1.325V73.8l5.978,2.657a.7.7,0,0,0,.565,0l5.978-2.657Zm4.443-.013.426-1.278.426,1.278Z" transform="translate(-97.041 -59.825)" fill="#033d61"/>
        </g>
      </g>
    </g>
    <g id="Group_1402" data-name="Group 1402" transform="translate(709.449 313.69)">
      <g id="Polygon_15-6" data-name="Polygon 15" transform="translate(0)" fill="#fff">
        <path d="M 73.89051818847656 84.69605255126953 L 25.3986759185791 84.69605255126953 L 1.155680418014526 42.84801483154297 L 25.39868927001953 0.9999995827674866 L 73.89051818847656 0.9999995827674866 L 98.133544921875 42.84802627563477 L 73.89051818847656 84.69605255126953 Z" stroke="none"/>
        <path d="M 25.97505950927734 2 L 2.311363220214844 42.8480110168457 L 25.97504425048828 83.69605255126953 L 73.31413269042969 83.69605255126953 L 96.97785949707031 42.84802627563477 L 73.31413269042969 2 L 25.97505950927734 2 M 24.82231140136719 0 L 74.46688079833984 0 L 99.28922271728516 42.84802627563477 L 74.46688079833984 85.69605255126953 L 24.82229614257812 85.69605255126953 L 0 42.8480110168457 L 24.82231140136719 0 Z" stroke="none" fill="#00b5be"/>
      </g>
      <g id="Group_1373" data-name="Group 1373" transform="translate(29.332 20.046)">
        <text id="물류" transform="translate(19.247 48.243)" fill="#033d61" font-size="9" font-family="AppleSDGothicNeo-Regular, Apple SD Gothic Neo"><tspan x="-7.785" y="0">물류</tspan></text>
        <g id="XMLID_677_" transform="translate(0 0)">
          <g id="XMLID_509_">
            <path id="XMLID_535_" d="M39.4,71.517H38.081l-2.174-6.376a.785.785,0,0,0-.743-.532H28.258V61a.785.785,0,0,0-.785-.785H23.7V57.925A3.929,3.929,0,0,0,19.78,54H8.477a3.929,3.929,0,0,0-3.925,3.925v2.289H.785A.785.785,0,0,0,0,61V81.093a.785.785,0,0,0,.785.785H4.256a4.2,4.2,0,0,0,8.365,0h4.363a.785.785,0,1,0,0-1.57H12.461a4.214,4.214,0,0,0-1.564-2.2H26.688v2.2h-2.64a.785.785,0,1,0,0,1.57h3.975a4.2,4.2,0,0,0,8.365,0H39.4a.785.785,0,0,0,.785-.785V72.3A.785.785,0,0,0,39.4,71.517Zm-.785,3.454H36.735V73.087h1.884ZM34.6,66.18l1.82,5.338H28.258V66.18ZM16.485,55.57v3.813l-1.9-1.36a.785.785,0,0,0-.915,0l-1.9,1.36V55.57ZM6.122,57.925A2.357,2.357,0,0,1,8.477,55.57h1.728v5.341a.785.785,0,0,0,1.242.638l2.682-1.923,2.682,1.923a.785.785,0,0,0,1.242-.638V55.57H19.78a2.357,2.357,0,0,1,2.355,2.355v11.3a2.357,2.357,0,0,1-2.355,2.355H8.477a2.357,2.357,0,0,1-2.355-2.355ZM8.438,84.141a2.63,2.63,0,1,1,2.63-2.63A2.633,2.633,0,0,1,8.438,84.141ZM4.415,80.308H1.57v-2.2h4.41A4.214,4.214,0,0,0,4.415,80.308ZM1.57,76.541V61.784H4.553v7.444a3.929,3.929,0,0,0,3.925,3.925h11.3A3.929,3.929,0,0,0,23.7,69.228V61.784h2.983V76.541Zm30.635,7.6a2.63,2.63,0,1,1,2.63-2.63A2.633,2.633,0,0,1,32.205,84.141Zm4.023-3.833a4.2,4.2,0,0,0-7.97-.229V73.087h6.907v2.669a.785.785,0,0,0,.785.785h2.669v3.768Z" transform="translate(0 -54)" fill="#033d61"/>
            <path id="XMLID_1762_" d="M207.157,231.244h2.486a.786.786,0,0,0,0-1.572h-2.486a.786.786,0,1,0,0,1.572Z" transform="translate(-190.174 -215.884)" fill="#033d61"/>
            <path id="XMLID_1763_" d="M252.156,389.17a.786.786,0,1,0,.556.23A.788.788,0,0,0,252.156,389.17Z" transform="translate(-231.64 -362.868)" fill="#033d61"/>
          </g>
        </g>
      </g>
    </g>
    <g id="Group_1403" data-name="Group 1403" transform="translate(469.5 359.788)">
      <g id="Polygon_15-7" data-name="Polygon 15" transform="translate(0)" fill="#fff">
        <path d="M 73.89051818847656 84.69605255126953 L 25.3986759185791 84.69605255126953 L 1.155680418014526 42.84801483154297 L 25.39868927001953 0.9999995827674866 L 73.89051818847656 0.9999995827674866 L 98.133544921875 42.84802627563477 L 73.89051818847656 84.69605255126953 Z" stroke="none"/>
        <path d="M 25.97505950927734 2 L 2.311363220214844 42.8480110168457 L 25.97504425048828 83.69605255126953 L 73.31413269042969 83.69605255126953 L 96.97785949707031 42.84802627563477 L 73.31413269042969 2 L 25.97505950927734 2 M 24.82231140136719 0 L 74.46688079833984 0 L 99.28922271728516 42.84802627563477 L 74.46688079833984 85.69605255126953 L 24.82229614257812 85.69605255126953 L 0 42.8480110168457 L 24.82231140136719 0 Z" stroke="none" fill="#00b5be"/>
      </g>
      <g id="Group_1374" data-name="Group 1374" transform="translate(29.255 16.144)">
        <text id="리조트" transform="translate(20.244 50.068)" fill="#033d61" font-size="9" font-family="AppleSDGothicNeo-Regular, Apple SD Gothic Neo"><tspan x="-11.677" y="0">리조트</tspan></text>
        <g id="_002-sun-bath" data-name="002-sun-bath" transform="translate(0 0)">
          <g id="Group_1330" data-name="Group 1330">
            <g id="Group_1329" data-name="Group 1329">
              <path id="Path_8065" data-name="Path 8065" d="M33.395,253.052v-4.174h1.67a.835.835,0,0,0,.835-.835V244.7a.833.833,0,0,0-.281-.625l5.046-5.046a.835.835,0,0,0,0-1.181l-2.5-2.5a.835.835,0,0,0-.59-.244h0a.835.835,0,0,0-.592.25l-1.685,1.716-1.3-1.3a.835.835,0,0,0-1.181,0l-5.6,5.6H24.629a.835.835,0,0,0-.835.835v1.67H13.775v-1.252a1.656,1.656,0,0,1,0-1.67v-1.252a1.672,1.672,0,0,0-1.67-1.67H5.427a1.672,1.672,0,0,0-1.67,1.67v1.252a1.656,1.656,0,0,1,0,1.67v1.252H.835A.835.835,0,0,0,0,244.7v3.339a.835.835,0,0,0,.835.835H2.5v4.174H0v1.67H40.908v-1.67Zm-7.931-10.018H27.55a.835.835,0,0,0,.59-.245l5.254-5.254.724.724-5.5,5.609H25.463v-.835ZM5.427,239.694h6.679v1.252H5.427Zm0,2.922h6.679v1.252H5.427Zm-.417,10.436H4.174v-4.174h.835Zm24.211,0H6.679v-4.174H29.22v4.174Zm2.5,0H30.89v-4.174h.835Zm-1.67-5.844H1.67v-1.67h27.3a.835.835,0,0,0,.6-.25l6.328-6.453,1.68-1.711,1.319,1.318-5.427,5.427H31.725v1.67h2.5v1.67H30.055Z" transform="translate(0 -218.822)" fill="#033d61"/>
              <path id="Path_8066" data-name="Path 8066" d="M305.268,38.772,304.1,39.94l1.181,1.181,1.168-1.168a3.734,3.734,0,0,0,1.163.483V42.2h1.67V40.436a3.734,3.734,0,0,0,1.164-.483l1.168,1.168,1.181-1.181-1.168-1.168a3.736,3.736,0,0,0,.483-1.163h1.764v-1.67h-1.764a3.734,3.734,0,0,0-.483-1.163l1.168-1.168-1.181-1.181-1.168,1.168a3.733,3.733,0,0,0-1.163-.483V31.347h-1.67v1.764a3.734,3.734,0,0,0-1.163.483l-1.168-1.168L304.1,33.607l1.168,1.168a3.736,3.736,0,0,0-.483,1.163H303.02v1.67h1.764A3.736,3.736,0,0,0,305.268,38.772Zm3.179-4.085a2.087,2.087,0,1,1-2.087,2.087A2.09,2.09,0,0,1,308.447,34.686Z" transform="translate(-278.809 -31.347)" fill="#033d61"/>
              <path id="Path_8067" data-name="Path 8067" d="M75.648,100.935a.836.836,0,0,1,.835.835h1.67a.835.835,0,0,1,1.67,0h1.67A2.5,2.5,0,0,0,77.317,99.9a2.5,2.5,0,0,0-4.174,1.865h1.67A.836.836,0,0,1,75.648,100.935Z" transform="translate(-67.299 -93.838)" fill="#033d61"/>
              <path id="Path_8068" data-name="Path 8068" d="M135.837,154.015h1.67a.835.835,0,0,1,1.67,0h1.67a.835.835,0,0,1,1.67,0h1.67a2.5,2.5,0,0,0-4.174-1.865,2.5,2.5,0,0,0-4.174,1.865Z" transform="translate(-124.984 -141.909)" fill="#033d61"/>
            </g>
          </g>
        </g>
      </g>
    </g>
    <g id="Group_1404" data-name="Group 1404" transform="translate(789.826 359.788)">
      <g id="Polygon_15-8" data-name="Polygon 15" fill="#fff">
        <path d="M 73.89051818847656 84.69605255126953 L 25.3986759185791 84.69605255126953 L 1.155680418014526 42.84801483154297 L 25.39868927001953 0.9999995827674866 L 73.89051818847656 0.9999995827674866 L 98.133544921875 42.84802627563477 L 73.89051818847656 84.69605255126953 Z" stroke="none"/>
        <path d="M 25.97505950927734 2 L 2.311363220214844 42.8480110168457 L 25.97504425048828 83.69605255126953 L 73.31413269042969 83.69605255126953 L 96.97785949707031 42.84802627563477 L 73.31413269042969 2 L 25.97505950927734 2 M 24.82231140136719 0 L 74.46688079833984 0 L 99.28922271728516 42.84802627563477 L 74.46688079833984 85.69605255126953 L 24.82229614257812 85.69605255126953 L 0 42.8480110168457 L 24.82231140136719 0 Z" stroke="none" fill="#00b5be"/>
      </g>
      <g id="Group_1276" data-name="Group 1276" transform="translate(29.255 17.66)">
        <text id="음원" transform="translate(19.919 53.552)" fill="#033d61" font-size="9" font-family="AppleSDGothicNeo-Regular, Apple SD Gothic Neo"><tspan x="-7.785" y="0">음원</tspan></text>
        <g id="XMLID_1123_" transform="translate(0 0)">
          <g id="XMLID_89_" transform="translate(0 0)">
            <path id="XMLID_1118_" d="M18.67,243.783a.8.8,0,0,0-.219.031h0l-2.292.653A.8.8,0,1,0,16.6,246l1.275-.363v2.826l-9.893,2.82v-2.826l1.713-.488a.8.8,0,0,0-.437-1.535l-2.292.653h0a.8.8,0,0,0-.579.767V258a3.988,3.988,0,1,0,1.6,3.189v-8.25l9.893-2.82v4.606a3.988,3.988,0,1,0,1.6,3.189V244.581a.8.8,0,0,0-.8-.8Zm-14.68,19.8a2.394,2.394,0,1,1,2.394-2.394A2.4,2.4,0,0,1,3.989,263.587Zm11.489-3.275a2.394,2.394,0,1,1,2.394-2.394A2.4,2.4,0,0,1,15.478,260.312Z" transform="translate(0 -224.333)" fill="#033d61"/>
            <path id="XMLID_2013_" d="M323.583.161a.8.8,0,0,0-.7-.129l-8.33,2.4a.8.8,0,0,0-.577.767V13.348a3.988,3.988,0,1,0,1.6,3.189V8.285l7.753-2.234a.8.8,0,0,0,.577-.767V.8a.8.8,0,0,0-.318-.637Zm-12,18.769a2.394,2.394,0,1,1,2.394-2.394A2.4,2.4,0,0,1,311.581,18.931ZM322.3,4.684l-6.734,1.941V3.8L322.3,1.859Z" transform="translate(-283.051 -0.001)" fill="#033d61"/>
            <path id="XMLID_2027_" d="M318.593,296.911l-3.853-.56-1.723-3.491a.8.8,0,0,0-1.431,0l-1.723,3.491-3.853.56a.8.8,0,0,0-.442,1.361l2.788,2.717-.658,3.837a.8.8,0,0,0,1.158.841l3.446-1.812,3.446,1.812a.8.8,0,0,0,1.158-.841l-.658-3.837,2.788-2.717a.8.8,0,0,0-.442-1.361Zm-3.76,3.228a.8.8,0,0,0-.229.706l.456,2.657-2.386-1.255a.8.8,0,0,0-.743,0l-2.386,1.255.456-2.657a.8.8,0,0,0-.229-.706l-1.93-1.882,2.668-.388a.8.8,0,0,0,.6-.436l1.193-2.418,1.193,2.418a.8.8,0,0,0,.6.436l2.668.388Z" transform="translate(-280.967 -269.085)" fill="#033d61"/>
            <path id="XMLID_2031_" d="M4.037,7.237l-.528,3.079a.8.8,0,0,0,1.158.841L7.432,9.7,10.2,11.157a.8.8,0,0,0,1.158-.841l-.528-3.079,2.237-2.181A.8.8,0,0,0,12.622,3.7L9.53,3.246,8.147.445a.8.8,0,0,0-1.431,0l-1.383,2.8L2.242,3.7A.8.8,0,0,0,1.8,5.056ZM5.978,4.765a.8.8,0,0,0,.6-.436L7.432,2.6l.853,1.728a.8.8,0,0,0,.6.436l1.907.277L9.412,6.387a.8.8,0,0,0-.229.706l.326,1.9L7.8,8.1a.8.8,0,0,0-.742,0l-1.706.9.326-1.9a.8.8,0,0,0-.229-.706L4.072,5.042Z" transform="translate(-1.435 0)" fill="#033d61"/>
            <path id="XMLID_2032_" d="M224.8,86.306a.8.8,0,0,0-.8.8v.8a.8.8,0,0,0,1.6,0v-.8A.8.8,0,0,0,224.8,86.306Z" transform="translate(-206.128 -79.42)" fill="#033d61"/>
            <path id="XMLID_2033_" d="M224.8,156.306a.8.8,0,0,0-.8.8v.8a.8.8,0,0,0,1.6,0v-.8A.8.8,0,0,0,224.8,156.306Z" transform="translate(-206.128 -143.835)" fill="#033d61"/>
            <path id="XMLID_2036_" d="M255.6,126.306h-.8a.8.8,0,1,0,0,1.6h.8a.8.8,0,0,0,0-1.6Z" transform="translate(-233.735 -116.229)" fill="#033d61"/>
            <path id="XMLID_2038_" d="M184.8,127.9h.8a.8.8,0,0,0,0-1.6h-.8a.8.8,0,0,0,0,1.6Z" transform="translate(-169.32 -116.229)" fill="#033d61"/>
            <path id="XMLID_2039_" d="M152.8,265.906a.8.8,0,1,0-.564-.234A.8.8,0,0,0,152.8,265.906Z" transform="translate(-139.873 -243.222)" fill="#033d61"/>
          </g>
        </g>
      </g>
    </g>
    <g id="Group_1407" data-name="Group 1407" transform="translate(870.203 405.887)">
      <g id="Polygon_15-9" data-name="Polygon 15" transform="translate(0)" fill="#fff">
        <path d="M 73.89051818847656 84.69605255126953 L 25.3986759185791 84.69605255126953 L 1.155680418014526 42.84801483154297 L 25.39868927001953 0.9999995827674866 L 73.89051818847656 0.9999995827674866 L 98.133544921875 42.84802627563477 L 73.89051818847656 84.69605255126953 Z" stroke="none"/>
        <path d="M 25.97505950927734 2 L 2.311363220214844 42.8480110168457 L 25.97504425048828 83.69605255126953 L 73.31413269042969 83.69605255126953 L 96.97785949707031 42.84802627563477 L 73.31413269042969 2 L 25.97505950927734 2 M 24.82231140136719 0 L 74.46688079833984 0 L 99.28922271728516 42.84802627563477 L 74.46688079833984 85.69605255126953 L 24.82229614257812 85.69605255126953 L 0 42.8480110168457 L 24.82231140136719 0 Z" stroke="none" fill="#00b5be"/>
      </g>
      <g id="Group_1376" data-name="Group 1376" transform="translate(29.255 20.53)">
        <text id="행사" transform="translate(19.324 53.077)" fill="#033d61" font-size="9" font-family="AppleSDGothicNeo-Regular, Apple SD Gothic Neo"><tspan x="-7.785" y="0">행사</tspan></text>
        <g id="_008-party" data-name="008-party" transform="translate(0 0)">
          <path id="Path_8050" data-name="Path 8050" d="M48,61.871l.048-.02c.145-.066.369-.152.49-.2l.1-.039h0a2.615,2.615,0,0,0,1.647-1.935,5.463,5.463,0,0,0-.465-3.049,18.109,18.109,0,0,1,7.206,1.052,3.766,3.766,0,0,0,1.161.2,2.6,2.6,0,0,0,1.788-.669,2.7,2.7,0,0,0,.769-2.6,3.071,3.071,0,0,0-2.228-2.236,14.341,14.341,0,0,0-10.954.39c-.456-.619-.945-1.231-1.451-1.823l8.224-6.83q.021-.018.041-.037a1.417,1.417,0,0,0,0-2l-2.558-2.554a1.417,1.417,0,0,0-2,0c-.013.013-.025.026-.037.04l-2.509,3.017a.6.6,0,0,0,.917.763l2.486-2.989a.226.226,0,0,1,.3.013l2.558,2.554a.224.224,0,0,1,.013.3l-8.225,6.83q-.344-.376-.691-.736l-.015-.015q-.377-.364-.775-.727l2.534-3.046a.6.6,0,1,0-.917-.763l-2.512,3.02c-.551-.469-1.12-.924-1.7-1.35a14.277,14.277,0,0,0,1.006-11.023,3.069,3.069,0,0,0-2.121-2.337,2.7,2.7,0,0,0-2.638.637,2.837,2.837,0,0,0-.62,2.919A18.192,18.192,0,0,1,37.52,44.2a5.711,5.711,0,0,0-3.283-.56A2.615,2.615,0,0,0,32.3,45.288l-.039.1c-.046.121-.133.345-.2.489-.007.016-.014.032-.02.048l-.756,2.123,0,.006-1.274,3.58,0,.014L28.173,56.8l-.006.013-.556,1.566L25.1,65.43c-.461,1.3-.323,2.389.377,3a2.05,2.05,0,0,0,1.6.643,4.25,4.25,0,0,0,1.406-.268l7.038-2.5,1.581-.561.013-.005,5.156-1.833.015,0,3.581-1.274.007,0ZM58.17,53.515a1.862,1.862,0,0,1,1.408,1.36,1.527,1.527,0,0,1-.412,1.454,1.752,1.752,0,0,1-1.776.217,19.42,19.42,0,0,0-8.113-1.079,19.156,19.156,0,0,0-1.024-1.715C52.425,51.791,56.275,52.946,58.17,53.515Zm-20.146-17.2a1.748,1.748,0,0,1,.306-1.76,1.53,1.53,0,0,1,1.475-.338,1.861,1.861,0,0,1,1.287,1.473c.48,1.951,1.456,5.921-.827,10.046-.54-.363-1.08-.694-1.612-.982a19.278,19.278,0,0,0-.629-8.439ZM33.16,46.349c.079-.176.168-.407.216-.533l.026-.067,0,0a1.416,1.416,0,0,1,1.076-.935,5.422,5.422,0,0,1,3.209.783.589.589,0,0,0,.094.047,18.992,18.992,0,0,1,2.289,1.406.594.594,0,0,0,.068.05l.008,0a32.3,32.3,0,0,1,3.627,3.045q.531.55,1.019,1.1l0,.006.015.017a30.236,30.236,0,0,1,2.048,2.56.594.594,0,0,0,.063.089A18.351,18.351,0,0,1,48.367,56.3a.588.588,0,0,0,.053.107,5.177,5.177,0,0,1,.694,3.027,1.416,1.416,0,0,1-.936,1.076l0,0-.067.026c-.127.049-.357.137-.533.216l-1.5.532c-.79-2.532-2.995-5.29-4.309-6.779a.6.6,0,0,0-.895.789,19.557,19.557,0,0,1,4.079,6.39L42.39,62.6a27.721,27.721,0,0,0-4.733-6.322l-.015-.015a27.735,27.735,0,0,0-6.325-4.73l.911-2.56a20.405,20.405,0,0,1,6.712,4.36.6.6,0,0,0,.8-.885,21.436,21.436,0,0,0-7.112-4.6Zm3.979,18.116a32.82,32.82,0,0,0-3.466-4.208l-.015-.015a32.83,32.83,0,0,0-4.21-3.464l1.464-4.113A26.7,26.7,0,0,1,41.255,63Zm-1.994.709-2.116.751a35.178,35.178,0,0,0-2.345-2.681l-.015-.015a35.169,35.169,0,0,0-2.682-2.344l.745-2.1.3-.849a32.13,32.13,0,0,1,3.788,3.152,32.117,32.117,0,0,1,3.153,3.785Zm-7.061,2.511c-.812.288-1.456.267-1.723-.055a.6.6,0,0,0-.08-.08c-.322-.265-.342-.909-.055-1.72l1.337-3.756c.768.62,1.529,1.292,2.27,2.007.715.74,1.388,1.5,2.007,2.268Z" transform="translate(-22.859 -30.538)" fill="#033d61"/>
          <path id="Path_8051" data-name="Path 8051" d="M381.96,7.38l1.506,1.064a.608.608,0,0,1,.033.126l.322,1.741a.892.892,0,0,0,.489.757.684.684,0,0,0,.26.052,1.1,1.1,0,0,0,.64-.268l1.4-1.074a.359.359,0,0,1,.144-.039l1.751.233a.917.917,0,0,0,.883-.26.9.9,0,0,0,.049-.9l-.595-1.67a.586.586,0,0,1-.033-.123l.772-1.678a.908.908,0,0,0,.044-.905.9.9,0,0,0-.838-.349l-1.847.036-1.325-1.284a.924.924,0,0,0-.869-.311.923.923,0,0,0-.6.7v0L383.638,5l-1.621.893a.9.9,0,0,0-.549.721.91.91,0,0,0,.492.763Zm2.306-1.361a.95.95,0,0,0,.511-.657l.372-1.309.939.91.035.034a.955.955,0,0,0,.76.319h.018l1.386-.027-.57,1.24a1.29,1.29,0,0,0,0,1.01l.42,1.18-1.222-.163a1.483,1.483,0,0,0-1.031.274l-.98.755-.227-1.232a1.31,1.31,0,0,0-.508-.876L383.05,6.69Z" transform="translate(-351.126 -2.501)" fill="#033d61"/>
          <path id="Path_8052" data-name="Path 8052" d="M275.25,10.593l1.264.732a1.085,1.085,0,0,0,.54.143,1.267,1.267,0,0,0,.97-.485l2.332-2.807a1.022,1.022,0,0,0,.214-.84,1.2,1.2,0,0,0-.578-.815l-2.325-1.343a1.2,1.2,0,0,0-1-.087,1.019,1.019,0,0,0-.615.6l-1.267,3.42A1.184,1.184,0,0,0,275.25,10.593Zm.656-1.064,1.217-3.287,2.222,1.284-2.241,2.7a.255.255,0,0,1-.042.041l-1.172-.678a.256.256,0,0,1,.015-.057Z" transform="translate(-252.848 -4.821)" fill="#033d61"/>
          <path id="Path_8053" data-name="Path 8053" d="M440.192,135.152a1.386,1.386,0,0,0-1.049-.485h-3.521a1.387,1.387,0,0,0-1.049.486,1.137,1.137,0,0,0-.265.936l.807,4.716a1.359,1.359,0,0,0,1.314,1.221h1.909a1.359,1.359,0,0,0,1.314-1.221l.8-4.716A1.137,1.137,0,0,0,440.192,135.152Zm-1.716,5.451c-.019.11-.077.23-.138.23h-1.909c-.068,0-.121-.134-.138-.229l-.8-4.687a.205.205,0,0,1,.133-.057h3.521a.206.206,0,0,1,.133.056Z" transform="translate(-399.749 -124.155)" fill="#033d61"/>
          <path id="Path_8054" data-name="Path 8054" d="M3.361,145.717a1.279,1.279,0,0,0,.328-.043l1.842-.495a1.356,1.356,0,0,0,.955-1.52l-.444-4.765a1.139,1.139,0,0,0-.5-.837,1.383,1.383,0,0,0-1.136-.2l-3.4.911a1.385,1.385,0,0,0-.889.739,1.136,1.136,0,0,0-.013.974l2,4.347a1.408,1.408,0,0,0,1.257.883Zm-2.049-5.791h0l3.4-.912a.2.2,0,0,1,.141.02L5.3,143.77c.01.111-.014.24-.075.256l-1.842.495c-.066.018-.153-.1-.194-.186L1.2,140.014a.2.2,0,0,1,.113-.088Z" transform="translate(-0.001 -127.053)" fill="#033d61"/>
          <path id="Path_8055" data-name="Path 8055" d="M298.681,419.716l-3.6-2.546a1.3,1.3,0,0,0-1.715.064l-1.242,1.241a1.294,1.294,0,0,0-.065,1.713l2.548,3.595a1.094,1.094,0,0,0,.816.458c.036,0,.071,0,.107,0a1.328,1.328,0,0,0,.93-.385l2.293-2.292a1.324,1.324,0,0,0,.381-1.036A1.092,1.092,0,0,0,298.681,419.716Zm-.766,1.009-2.293,2.292a.14.14,0,0,1-.067.033l-2.519-3.554a.255.255,0,0,1-.064-.178l1.244-1.244h.011a.322.322,0,0,1,.168.069l3.554,2.516a.14.14,0,0,1-.033.066Z" transform="translate(-268.565 -383.919)" fill="#033d61"/>
          <path id="Path_8056" data-name="Path 8056" d="M37.011,8.232a.456.456,0,0,1-.04.16L36.325,10.2a.924.924,0,0,0,.045.929.939.939,0,0,0,.916.263l1.892-.253a.429.429,0,0,1,.195.05l1.52,1.174a1.128,1.128,0,0,0,.656.277.7.7,0,0,0,.265-.052.927.927,0,0,0,.5-.782l.347-1.888a.411.411,0,0,1,.049-.164L44.36,8.593a.931.931,0,0,0,.51-.786A.934.934,0,0,0,44.3,7.07l-1.776-.98-.554-1.943a.955.955,0,0,0-.611-.732.956.956,0,0,0-.9.327L39.041,5.116l-.034.033-2.026-.039a.934.934,0,0,0-.867.354.928.928,0,0,0,.053.936Zm2.015-1.888a.967.967,0,0,0,.8-.33L40.95,4.929l.429,1.5a.979.979,0,0,0,.532.684l1.389.766-1.274.9a1.354,1.354,0,0,0-.535.92l-.26,1.418-1.13-.873a1.6,1.6,0,0,0-.919-.3,1.227,1.227,0,0,0-.157.01l-1.413.189L38.1,8.791a1.348,1.348,0,0,0,0-1.06l-.653-1.418Z" transform="translate(-33.142 -3.319)" fill="#033d61"/>
          <path id="Path_8057" data-name="Path 8057" d="M405.018,360.495l-1.974-.488-1.038-1.734a.955.955,0,0,0-.779-.55h0a.958.958,0,0,0-.781.547h0l-1.016,1.7-.023.04-1.975.488a.808.808,0,0,0-.45,1.458l1.29,1.553a.471.471,0,0,1,0,.166l-.153,1.92a.923.923,0,0,0,.28.885.943.943,0,0,0,.957.02l1.765-.736a.422.422,0,0,1,.2,0l1.775.739a1.369,1.369,0,0,0,.511.123.709.709,0,0,0,.437-.144.927.927,0,0,0,.284-.885l-.155-1.921a.431.431,0,0,1,0-.166l1.292-1.553a.93.93,0,0,0,.291-.889A.94.94,0,0,0,405.018,360.495Zm-1.755,2.247a1.346,1.346,0,0,0-.276,1.025l.116,1.441-1.32-.55a1.55,1.55,0,0,0-1.117,0l-1.319.55.115-1.442a1.345,1.345,0,0,0-.275-1.023l-1-1.206,1.542-.381a.973.973,0,0,0,.7-.528l.8-1.338.774,1.292.028.047a.972.972,0,0,0,.694.527l1.545.382Z" transform="translate(-365.106 -329.469)" fill="#033d61"/>
        </g>
      </g>
    </g>
    <g id="Group_1405" data-name="Group 1405" transform="translate(629.072 359.788)">
      <g id="Polygon_15-10" data-name="Polygon 15" fill="#fff">
        <path d="M 73.89051818847656 84.69605255126953 L 25.3986759185791 84.69605255126953 L 1.155680418014526 42.84801483154297 L 25.39868927001953 0.9999995827674866 L 73.89051818847656 0.9999995827674866 L 98.133544921875 42.84802627563477 L 73.89051818847656 84.69605255126953 Z" stroke="none"/>
        <path d="M 25.97505950927734 2 L 2.311363220214844 42.8480110168457 L 25.97504425048828 83.69605255126953 L 73.31413269042969 83.69605255126953 L 96.97785949707031 42.84802627563477 L 73.31413269042969 2 L 25.97505950927734 2 M 24.82231140136719 0 L 74.46688079833984 0 L 99.28922271728516 42.84802627563477 L 74.46688079833984 85.69605255126953 L 24.82229614257812 85.69605255126953 L 0 42.8480110168457 L 24.82231140136719 0 Z" stroke="none" fill="#00b5be"/>
      </g>
    </g>
    <text id="공연" transform="translate(677.651 427.486)" fill="#033d61" font-size="9" font-family="AppleSDGothicNeo-Regular, Apple SD Gothic Neo"><tspan x="-7.785" y="0">공연</tspan></text>
    <g id="_001-movie-tickets" data-name="001-movie-tickets" transform="translate(658.918 374.889)">
      <path id="Path_8005" data-name="Path 8005" d="M122.094,198.586a.875.875,0,1,0-.619-.256A.881.881,0,0,0,122.094,198.586Zm0,0" transform="translate(-111.748 -181.458)" fill="#033d61"/>
      <path id="Path_8006" data-name="Path 8006" d="M258.885,200.92a.876.876,0,1,0,.256.619A.883.883,0,0,0,258.885,200.92Zm0,0" transform="translate(-237.281 -184.987)" fill="#033d61"/>
      <path id="Path_8007" data-name="Path 8007" d="M293.266,167.414a.875.875,0,1,0-.619-.256A.881.881,0,0,0,293.266,167.414Zm0,0" transform="translate(-269.547 -152.721)" fill="#033d61"/>
      <path id="Path_8008" data-name="Path 8008" d="M37.834,19.309h-2.19L39.5,15.454a2.355,2.355,0,0,0,0-3.33L36,8.627a.785.785,0,0,0-1.11,0,2.355,2.355,0,0,1-3.33-3.33.785.785,0,0,0,0-1.11l-3.5-3.5a2.354,2.354,0,0,0-3.33,0L11.771,13.654a.785.785,0,0,0,1.11,1.11L25.845,1.8a.785.785,0,0,1,1.11,0l3,3a3.926,3.926,0,0,0,5.44,5.44l3,3a.786.786,0,0,1,0,1.11l-4.966,4.966H29.982l2.579-2.579a.785.785,0,0,0,0-1.11L24.569,7.628a.785.785,0,0,0-1.11,0L11.777,19.309H2.355A2.357,2.357,0,0,0,0,21.664v4.945a.785.785,0,0,0,.785.785,2.355,2.355,0,1,1,0,4.71A.785.785,0,0,0,0,32.888v4.945a2.358,2.358,0,0,0,2.355,2.355H37.834a2.358,2.358,0,0,0,2.355-2.355V32.888A.785.785,0,0,0,39.4,32.1a2.355,2.355,0,1,1,0-4.71.785.785,0,0,0,.785-.785V21.664A2.357,2.357,0,0,0,37.834,19.309ZM24.013,9.293,30.9,16.175l-3.134,3.134H24.654l2.3-2.3a.785.785,0,1,0-1.11-1.11l-3.411,3.411H14ZM38.619,25.9a3.925,3.925,0,0,0,0,7.692v4.239a.786.786,0,0,1-.785.785H2.355a.786.786,0,0,1-.785-.785V33.594a3.925,3.925,0,0,0,0-7.692V21.664a.786.786,0,0,1,.785-.785H37.834a.786.786,0,0,1,.785.785Zm0,0" transform="translate(0 0)" fill="#033d61"/>
      <path id="Path_8009" data-name="Path 8009" d="M197.994,346.49a.875.875,0,1,0-.619.256A.882.882,0,0,0,197.994,346.49Zm0,0" transform="translate(-181.148 -318.042)" fill="#033d61"/>
      <path id="Path_8010" data-name="Path 8010" d="M296.993,346.49a.874.874,0,1,0-.619.256A.882.882,0,0,0,296.993,346.49Zm0,0" transform="translate(-272.413 -318.042)" fill="#033d61"/>
      <path id="Path_8011" data-name="Path 8011" d="M247.494,346.49a.875.875,0,1,0-.619.256A.882.882,0,0,0,247.494,346.49Zm0,0" transform="translate(-226.781 -318.042)" fill="#033d61"/>
      <path id="Path_8012" data-name="Path 8012" d="M147.875,346.746a.875.875,0,1,0-.619-.256A.882.882,0,0,0,147.875,346.746Zm0,0" transform="translate(-135.515 -318.042)" fill="#033d61"/>
      <path id="Path_8013" data-name="Path 8013" d="M346.493,346.49a.874.874,0,1,0-.619.256A.882.882,0,0,0,346.493,346.49Zm0,0" transform="translate(-318.046 -318.042)" fill="#033d61"/>
      <path id="Path_8014" data-name="Path 8014" d="M147.875,394.746H165.2a.875.875,0,0,0,0-1.75H147.875a.875.875,0,0,0,0,1.75Zm0,0" transform="translate(-136.442 -362.292)" fill="#033d61"/>
      <path id="Path_8015" data-name="Path 8015" d="M184.2,441a.875.875,0,1,0,.619.256A.882.882,0,0,0,184.2,441Zm0,0" transform="translate(-168.998 -407.02)" fill="#033d61"/>
      <path id="Path_8016" data-name="Path 8016" d="M117.007,297H94.733a.813.813,0,0,0-.733.875v12.6a.813.813,0,0,0,.733.875h3.052a.889.889,0,0,0,0-1.75h-2.32V298.746h20.809v10.849h-11.9a.889.889,0,0,0,0,1.75h12.628a.813.813,0,0,0,.733-.875v-12.6A.813.813,0,0,0,117.007,297Zm0,0" transform="translate(-85.776 -275.619)" fill="#033d61"/>
    </g>
  </g>
</svg>
