<svg xmlns="http://www.w3.org/2000/svg" xmlns:xlink="http://www.w3.org/1999/xlink" width="349" height="687" viewBox="0 0 349 687">
  <defs>
    <filter id="Ellipse_123" x="43" y="21" width="116" height="116" filterUnits="userSpaceOnUse">
      <feOffset dy="3" input="SourceAlpha"/>
      <feGaussianBlur stdDeviation="10" result="blur"/>
      <feFlood flood-opacity="0.161"/>
      <feComposite operator="in" in2="blur"/>
      <feComposite in="SourceGraphic"/>
    </filter>
    <filter id="Ellipse_123-2" x="190" y="21" width="116" height="116" filterUnits="userSpaceOnUse">
      <feOffset dy="3" input="SourceAlpha"/>
      <feGaussianBlur stdDeviation="10" result="blur-2"/>
      <feFlood flood-opacity="0.161"/>
      <feComposite operator="in" in2="blur-2"/>
      <feComposite in="SourceGraphic"/>
    </filter>
    <filter id="Rectangle_1711" x="0" y="0" width="349" height="158" filterUnits="userSpaceOnUse">
      <feOffset dy="3" input="SourceAlpha"/>
      <feGaussianBlur stdDeviation="10" result="blur-3"/>
      <feFlood flood-opacity="0.161"/>
      <feComposite operator="in" in2="blur-3"/>
      <feComposite in="SourceGraphic"/>
    </filter>
    <filter id="Ellipse_122" x="9" y="241" width="138" height="138" filterUnits="userSpaceOnUse">
      <feOffset dy="3" input="SourceAlpha"/>
      <feGaussianBlur stdDeviation="10" result="blur-4"/>
      <feFlood flood-opacity="0.161"/>
      <feComposite operator="in" in2="blur-4"/>
      <feComposite in="SourceGraphic"/>
    </filter>
    <filter id="Rectangle_1712" x="171" y="254" width="177" height="123" filterUnits="userSpaceOnUse">
      <feOffset dy="3" input="SourceAlpha"/>
      <feGaussianBlur stdDeviation="10" result="blur-5"/>
      <feFlood flood-opacity="0.161"/>
      <feComposite operator="in" in2="blur-5"/>
      <feComposite in="SourceGraphic"/>
    </filter>
    <filter id="Rectangle_1713" x="0" y="467" width="349" height="220" filterUnits="userSpaceOnUse">
      <feOffset dy="3" input="SourceAlpha"/>
      <feGaussianBlur stdDeviation="10" result="blur-6"/>
      <feFlood flood-opacity="0.161"/>
      <feComposite operator="in" in2="blur-6"/>
      <feComposite in="SourceGraphic"/>
    </filter>
  </defs>
  <g id="Group_2826" data-name="Group 2826" transform="translate(-2219 -1792)">
    <g id="Group_1493" data-name="Group 1493" transform="translate(1888 1279)">
      <g transform="matrix(1, 0, 0, 1, 331, 513)" filter="url(#Ellipse_123)">
        <g id="Ellipse_123-3" data-name="Ellipse 123" transform="translate(129 48) rotate(90)" fill="#fff" stroke="#033d61" stroke-width="1">
          <circle cx="28" cy="28" r="28" stroke="none"/>
          <circle cx="28" cy="28" r="27.5" fill="none"/>
        </g>
      </g>
      <g id="Group_936" data-name="Group 936" transform="translate(423.339 576.042)">
        <text id="User" transform="translate(8.662 26.525)" fill="#033d61" font-size="8" font-family="Roboto-Regular, Roboto"><tspan x="-8.129" y="0">User</tspan></text>
        <g id="user-2" data-name="user" transform="translate(-0.339 0)">
          <g id="Group_1453" data-name="Group 1453" transform="translate(0)">
            <path id="Path_8100" data-name="Path 8100" d="M17.9,15.376a.7.7,0,0,0-1.372.286.732.732,0,0,1-.148.614.712.712,0,0,1-.561.267H2.127a.712.712,0,0,1-.561-.267.732.732,0,0,1-.148-.614A7.744,7.744,0,0,1,8.787,9.529q.092,0,.186,0t.187,0a7.711,7.711,0,0,1,6.227,3.423.7.7,0,1,0,1.164-.781,9.118,9.118,0,0,0-4.725-3.589,4.766,4.766,0,1,0-5.706,0A9.117,9.117,0,0,0,.046,15.376a2.13,2.13,0,0,0,2.082,2.568h13.69A2.13,2.13,0,0,0,17.9,15.376ZM5.608,4.766a3.365,3.365,0,1,1,3.535,3.36l-.17,0-.17,0A3.369,3.369,0,0,1,5.608,4.766Z" transform="translate(0)" fill="#033d61"/>
          </g>
        </g>
      </g>
    </g>
    <g id="Group_1495" data-name="Group 1495" transform="translate(2035 1279)">
      <g transform="matrix(1, 0, 0, 1, 184, 513)" filter="url(#Ellipse_123-2)">
        <g id="Ellipse_123-4" data-name="Ellipse 123" transform="translate(276 48) rotate(90)" fill="#fff" stroke="#033d61" stroke-width="1">
          <circle cx="28" cy="28" r="28" stroke="none"/>
          <circle cx="28" cy="28" r="27.5" fill="none"/>
        </g>
      </g>
      <g id="Group_936-2" data-name="Group 936" transform="translate(423.339 576.042)">
        <text id="User-3" data-name="User" transform="translate(8.662 26.525)" fill="#033d61" font-size="8" font-family="Roboto-Regular, Roboto"><tspan x="-8.129" y="0">User</tspan></text>
        <g id="user-4" data-name="user" transform="translate(-0.339 0)">
          <g id="Group_1453-2" data-name="Group 1453" transform="translate(0)">
            <path id="Path_8100-2" data-name="Path 8100" d="M17.9,15.376a.7.7,0,0,0-1.372.286.732.732,0,0,1-.148.614.712.712,0,0,1-.561.267H2.127a.712.712,0,0,1-.561-.267.732.732,0,0,1-.148-.614A7.744,7.744,0,0,1,8.787,9.529q.092,0,.186,0t.187,0a7.711,7.711,0,0,1,6.227,3.423.7.7,0,1,0,1.164-.781,9.118,9.118,0,0,0-4.725-3.589,4.766,4.766,0,1,0-5.706,0A9.117,9.117,0,0,0,.046,15.376a2.13,2.13,0,0,0,2.082,2.568h13.69A2.13,2.13,0,0,0,17.9,15.376ZM5.608,4.766a3.365,3.365,0,1,1,3.535,3.36l-.17,0-.17,0A3.369,3.369,0,0,1,5.608,4.766Z" transform="translate(0)" fill="#033d61"/>
          </g>
        </g>
      </g>
    </g>
    <g id="Group_1494" data-name="Group 1494" transform="translate(624.5 1179)">
      <line id="Line_24" data-name="Line 24" x2="65" transform="translate(1736.5 687.5)" fill="none" stroke="#033d61" stroke-width="1"/>
      <g id="Polygon_1" data-name="Polygon 1" transform="translate(1808.5 683.5) rotate(90)" fill="#033d61">
        <path d="M 7.138411045074463 6.5 L 0.8615883588790894 6.5 L 3.999999761581421 1.007779955863953 L 7.138411045074463 6.5 Z" stroke="none"/>
        <path d="M 3.999999761581421 2.015560150146484 L 1.723176956176758 6 L 6.276822566986084 6 L 3.999999761581421 2.015560150146484 M 3.999999761581421 0 L 8 7 L -4.76837158203125e-07 7 L 3.999999761581421 0 Z" stroke="none" fill="#033d61"/>
      </g>
      <g id="Polygon_2" data-name="Polygon 2" transform="translate(1729.5 691.5) rotate(-90)" fill="#033d61">
        <path d="M 7.138411045074463 6.5 L 0.8615883588790894 6.5 L 3.999999761581421 1.007779955863953 L 7.138411045074463 6.5 Z" stroke="none"/>
        <path d="M 3.999999761581421 2.015560150146484 L 1.723176956176758 6 L 6.276822566986084 6 L 3.999999761581421 2.015560150146484 M 3.999999761581421 0 L 8 7 L -4.76837158203125e-07 7 L 3.999999761581421 0 Z" stroke="none" fill="#033d61"/>
      </g>
    </g>
    <text id="P2P_거래" data-name="P2P 거래" transform="translate(2397 1855)" fill="#033d61" font-size="10" font-family="NotoSansKR-Regular, Noto Sans KR"><tspan x="-19.415" y="0">P2P </tspan><tspan y="0">거래</tspan></text>
    <g transform="matrix(1, 0, 0, 1, 2219, 1792)" filter="url(#Rectangle_1711)">
      <g id="Rectangle_1711-2" data-name="Rectangle 1711" transform="translate(30 27)" fill="none" stroke="#033d61" stroke-width="1" stroke-dasharray="4">
        <rect width="289" height="98" rx="15" stroke="none"/>
        <rect x="0.5" y="0.5" width="288" height="97" rx="14.5" fill="none"/>
      </g>
    </g>
    <g id="Group_1496" data-name="Group 1496" transform="translate(1617 1702)">
      <g transform="matrix(1, 0, 0, 1, 602, 90)" filter="url(#Ellipse_122)">
        <g id="Ellipse_122-2" data-name="Ellipse 122" transform="translate(39 268)" fill="#fff" stroke="#00b5be" stroke-width="1">
          <circle cx="39" cy="39" r="39" stroke="none"/>
          <circle cx="39" cy="39" r="38.5" fill="none"/>
        </g>
      </g>
      <g id="Group_1025" data-name="Group 1025" transform="translate(663.042 374.109)">
        <g id="museum" transform="translate(0 0)">
          <path id="Path_7231" data-name="Path 7231" d="M246.671,119.341a.671.671,0,1,0-.474-.2A.676.676,0,0,0,246.671,119.341Zm0,0" transform="translate(-229.737 -110.199)" fill="#00b5be"/>
          <path id="Path_7232" data-name="Path 7232" d="M33.205,29.9h-.794V27.913a.661.661,0,0,0-.661-.661h-.4V26.2a1.733,1.733,0,0,0-1.058-1.595V22.378a.661.661,0,0,0-1.323,0v2.095H27.649V15.08h1.323v2.14a.661.661,0,0,0,1.323,0V14.944a1.734,1.734,0,0,0,1.058-1.595V12.3h.4a.661.661,0,0,0,.661-.661V9.127h.066a.662.662,0,0,0,.3-1.253L17.23.069a.662.662,0,0,0-.594,0L1.092,7.875a.662.662,0,0,0,.3,1.253h.066v2.514a.661.661,0,0,0,.661.661h.4v1.047a1.733,1.733,0,0,0,1.058,1.595v9.665A1.733,1.733,0,0,0,2.514,26.2v1.047h-.4a.661.661,0,0,0-.661.661V29.9H.661A.661.661,0,0,0,0,30.558V33.2a.661.661,0,0,0,.661.661H33.205a.661.661,0,0,0,.661-.661V30.558a.661.661,0,0,0-.661-.661Zm-3.583-4.1a.408.408,0,0,1,.408.408v1.047h-3.44V26.2A.408.408,0,0,1,27,25.8Zm-5.854,1.455V26.2a1.734,1.734,0,0,0-1.058-1.595V14.944a1.734,1.734,0,0,0,1.058-1.595V12.3h1.5v1.047a1.733,1.733,0,0,0,1.058,1.595v9.665A1.733,1.733,0,0,0,25.268,26.2v1.047Zm-7.585,0V26.2a1.734,1.734,0,0,0-1.058-1.595V14.944a1.734,1.734,0,0,0,1.058-1.595V12.3h1.5v1.047a1.733,1.733,0,0,0,1.058,1.595v9.665A1.733,1.733,0,0,0,17.683,26.2v1.047Zm-7.585,0V26.2a1.733,1.733,0,0,0-1.058-1.595V14.944A1.734,1.734,0,0,0,8.6,13.349V12.3h1.5v1.047a1.733,1.733,0,0,0,1.058,1.595v9.665A1.733,1.733,0,0,0,10.1,26.2v1.047ZM4.895,15.08H6.218v9.393H4.895Zm7.585,0H13.8v9.393H12.48Zm2.381-1.731a.408.408,0,0,1-.408.408H11.829a.409.409,0,0,1-.408-.408V12.3h3.44v1.047ZM11.421,26.2a.408.408,0,0,1,.408-.408h2.624a.409.409,0,0,1,.408.408v1.047h-3.44ZM20.064,15.08h1.323v9.393H20.064Zm2.381-1.731a.408.408,0,0,1-.408.408H19.414a.409.409,0,0,1-.408-.408V12.3h3.44ZM19.006,26.2a.408.408,0,0,1,.408-.408h2.624a.409.409,0,0,1,.408.408v1.047h-3.44V26.2ZM30.03,13.349a.408.408,0,0,1-.408.408H27a.408.408,0,0,1-.408-.408V12.3h3.44ZM13.648,9.127a.661.661,0,0,0,0-1.323H4.18L16.933,1.4,29.686,7.8H20.439a.661.661,0,0,0,0,1.323H31.089v1.852H2.778V9.127ZM7.276,12.3v1.047a.408.408,0,0,1-.408.408H4.244a.408.408,0,0,1-.408-.408V12.3ZM3.836,26.2a.408.408,0,0,1,.408-.408H6.868a.408.408,0,0,1,.408.408v1.047H3.836Zm-1.058,2.37h28.31V29.9H2.778Zm29.766,3.969H1.323V31.22H32.544Zm0,0" transform="translate(0 0.001)" fill="#00b5be"/>
          <path id="Path_7233" data-name="Path 7233" d="M438.671,289a.671.671,0,1,0,.474.2A.676.676,0,0,0,438.671,289Zm0,0" transform="translate(-409.097 -269.895)" fill="#00b5be"/>
        </g>
        <text id="Exchange" transform="translate(16.956 44.56)" fill="#00b5be" font-size="8" font-family="Roboto-Regular, Roboto"><tspan x="-17.26" y="0">Exchange</tspan></text>
      </g>
    </g>
    <g transform="matrix(1, 0, 0, 1, 2219, 1792)" filter="url(#Rectangle_1712)">
      <rect id="Rectangle_1712-2" data-name="Rectangle 1712" width="117" height="63" rx="15" transform="translate(201 281)" fill="#033d61"/>
    </g>
    <g id="Group_1497" data-name="Group 1497" transform="translate(2437.18 2092.145)">
      <g id="Group_1462" data-name="Group 1462" transform="translate(25.784 0.471)">
        <g id="Group_481" data-name="Group 481" transform="translate(4.238 0)">
          <path id="Path_5978" data-name="Path 5978" d="M501.788,201.6h-2.123l-6.11,13.58h2.689l4.459-10.368h.047l4.459,10.368H507.9Z" transform="translate(-458.944 -201.585)" fill="#fafafa"/>
          <path id="Path_5979" data-name="Path 5979" d="M356.862,203.56v-2.03H340.353c-3.413,0-5.387,1.615-5.387,3.9,0,1.934,1.533,3.436,4.389,3.755.859.094,1.44.169,2.183.244,1.486.151,2.16.863,2.16,1.8,0,1.108-1.231,1.859-3.274,1.859h-6.238l-4.879-11.55h-2.123l-6.11,13.58h2.689l4.459-10.368h.047l4.459,10.368h2.316l-.008-.019,5.365.017c3.553,0,5.805-1.427,5.805-3.886,0-1.821-1.44-3.548-4.528-3.848-.79-.075-1.417-.15-1.858-.206-1.672-.206-2.345-.957-2.345-1.708,0-1.277,1.231-1.915,2.763-1.915h9.476v11.565h2.548V203.559Z" transform="translate(-321.072 -201.53)" fill="#fafafa"/>
        </g>
        <path id="Path_8106" data-name="Path 8106" d="M5.116,6.217V9H4.178V1.891H6.8a2.634,2.634,0,0,1,1.829.6A2.02,2.02,0,0,1,9.29,4.063a1.993,1.993,0,0,1-.647,1.594,2.752,2.752,0,0,1-1.853.559Zm0-.767H6.8A1.686,1.686,0,0,0,7.953,5.1a1.293,1.293,0,0,0,.4-1.023,1.336,1.336,0,0,0-.4-1.016,1.58,1.58,0,0,0-1.1-.4H5.116Zm6.313,2.783H14.8V9H10.487V1.891h.942Zm8.457-1.089H16.908L16.239,9h-.967l2.715-7.109h.82L21.527,9h-.962Zm-2.7-.771h2.417L18.4,3.048Zm9.575-3.711H24.481V9h-.933V2.662h-2.28V1.891h5.5Zm4.976,3.2H28.758V9h-.937V1.891h4.4v.771H28.758V5.094h2.983Zm7.075-.186A4.4,4.4,0,0,1,38.465,7.5a2.663,2.663,0,0,1-1,1.189,2.749,2.749,0,0,1-4-1.179,4.22,4.22,0,0,1-.369-1.77V5.226a4.346,4.346,0,0,1,.356-1.812,2.636,2.636,0,0,1,2.5-1.621,2.756,2.756,0,0,1,1.506.413,2.658,2.658,0,0,1,1,1.2,4.419,4.419,0,0,1,.352,1.824Zm-.933-.459a3.188,3.188,0,0,0-.508-1.941A1.675,1.675,0,0,0,35.956,2.6a1.657,1.657,0,0,0-1.4.676,3.122,3.122,0,0,0-.525,1.877v.522A3.192,3.192,0,0,0,34.547,7.6a1.805,1.805,0,0,0,2.825.039,3.174,3.174,0,0,0,.513-1.9Zm4.946.908h-1.67V9h-.942V1.891h2.354a2.786,2.786,0,0,1,1.848.547,1.968,1.968,0,0,1,.647,1.592,1.914,1.914,0,0,1-.359,1.157,2.142,2.142,0,0,1-1,.737l1.67,3.018V9H44.373Zm-1.67-.767H42.6A1.627,1.627,0,0,0,43.712,5a1.221,1.221,0,0,0,.413-.967,1.285,1.285,0,0,0-.393-1.011A1.666,1.666,0,0,0,42.6,2.662H41.161Zm6.431-3.467,2.324,5.8,2.324-5.8h1.216V9h-.937V6.231l.088-2.988L50.272,9h-.718L47.225,3.258l.093,2.974V9H46.38V1.891Z" transform="translate(0 15.139)" fill="#fcfeff"/>
      </g>
      <g id="Group_482" data-name="Group 482" transform="translate(0 0)">
        <path id="Path_5980" data-name="Path 5980" d="M203.309,205.06c0,.027,0,.054,0,.081v-.158C203.312,205.01,203.309,205.035,203.309,205.06Z" transform="translate(-203.309 -202.684)" fill="#ebebeb"/>
        <path id="Path_5981" data-name="Path 5981" d="M228.518,199.074c0-.016,0-.032,0-.047a2.375,2.375,0,0,0-2.359-2.328h-.029l-8.261,0,8.146,20.08h-1.705L217.8,201.008h-3.721l-4.845,11.821h-1.7l5.542-13.448h4.108l-1.09-2.679-10.255,0c-.045,0-.09-.007-.135-.007s-.092,0-.137.007A2.373,2.373,0,0,0,203.322,199v.158l.026,15.428A4.049,4.049,0,0,0,204.913,218l.421.245,1.222-3.093H210.9l1.318-3.1h2.4l-1.163-3.024,2.481-6.123,5.775,13.875h-1.744l-3.992-9.611-.775,1.859,1.822,4.652h-3.8l-1.279,3.139H207.68l-.956,2.232.4.233,7.139,4.064a3.172,3.172,0,0,0,3.155,0l9.78-5.624c1.344-.757,1.3-3.122,1.3-3.122l.016-15.479C228.515,199.107,228.518,199.091,228.518,199.074Z" transform="translate(-203.318 -196.698)" fill="#fff"/>
      </g>
    </g>
    <g transform="matrix(1, 0, 0, 1, 2219, 1792)" filter="url(#Rectangle_1713)">
      <g id="Rectangle_1713-2" data-name="Rectangle 1713" transform="translate(30 494)" fill="#fff" stroke="#00b5be" stroke-width="1">
        <rect width="289" height="160" rx="15" stroke="none"/>
        <rect x="0.5" y="0.5" width="288" height="159" rx="14.5" fill="none"/>
      </g>
    </g>
    <g id="Group_1498" data-name="Group 1498" transform="translate(2366.5 2346.654)">
      <text id="Alliance" transform="translate(28 15)" fill="#033d61" font-size="16" font-family="Roboto-Regular, Roboto"><tspan x="-28.234" y="0">Alliance</tspan></text>
    </g>
    <g id="Group_1502" data-name="Group 1502" transform="translate(34 86)">
      <g id="Group_1499" data-name="Group 1499" transform="translate(2344.686 2306.193)">
        <g id="Group_1372" data-name="Group 1372" transform="translate(0 0)">
          <g id="_003-world" data-name="003-world" transform="translate(0 0)">
            <g id="Group_1279" data-name="Group 1279" transform="translate(4.483 26.849)">
              <g id="Group_1278" data-name="Group 1278">
                <path id="Path_8017" data-name="Path 8017" d="M54.467,322.877l-.033-.027c-.341-.283-.682-.587-1-.9a.51.51,0,1,0-.72.723,13.043,13.043,0,0,0,1.064.965.512.512,0,0,0,.685-.761Z" transform="translate(-52.569 -321.801)" fill="#033d61"/>
              </g>
            </g>
            <g id="Group_1281" data-name="Group 1281" transform="translate(0.105 12.727)">
              <g id="Group_1280" data-name="Group 1280">
                <path id="Path_8018" data-name="Path 8018" d="M2.154,156.225a.512.512,0,0,0-.678.437c-.1.467-.181.941-.239,1.416a.512.512,0,0,0,.433.573h.065a.512.512,0,0,0,.508-.45c.055-.443.13-.89.225-1.323A.512.512,0,0,0,2.154,156.225Z" transform="translate(-1.232 -156.197)" fill="#033d61"/>
              </g>
            </g>
            <g id="Group_1283" data-name="Group 1283" transform="translate(2.145 23.844)">
              <g id="Group_1282" data-name="Group 1282">
                <path id="Path_8019" data-name="Path 8019" d="M26.843,287.931c-.263-.362-.512-.737-.74-1.119a.512.512,0,0,0-.7-.178h0a.512.512,0,0,0-.178.7h0c.246.409.512.812.795,1.2a.512.512,0,0,0,.825-.6Z" transform="translate(-25.15 -286.562)" fill="#033d61"/>
              </g>
            </g>
            <g id="Group_1285" data-name="Group 1285" transform="translate(0.603 20.348)">
              <g id="Group_1284" data-name="Group 1284">
                <path id="Path_8020" data-name="Path 8020" d="M8.526,247.2c-.164-.413-.314-.839-.44-1.269a.512.512,0,0,0-.634-.349l-.014,0a.512.512,0,0,0-.341.634c.136.457.293.914.471,1.364a.517.517,0,0,0,.959-.385Z" transform="translate(-7.076 -245.566)" fill="#033d61"/>
              </g>
            </g>
            <g id="Group_1287" data-name="Group 1287" transform="translate(1.05 9.193)">
              <g id="Group_1286" data-name="Group 1286">
                <path id="Path_8021" data-name="Path 8021" d="M13.618,114.808a.512.512,0,0,0-.687.227c-.215.426-.413.866-.587,1.313a.511.511,0,0,0,.951.374v0a12.3,12.3,0,0,1,.549-1.225A.512.512,0,0,0,13.618,114.808Z" transform="translate(-12.309 -114.753)" fill="#033d61"/>
              </g>
            </g>
            <g id="Group_1289" data-name="Group 1289" transform="translate(0 16.595)">
              <g id="Group_1288" data-name="Group 1288">
                <path id="Path_8022" data-name="Path 8022" d="M1.133,203.385h0c-.055-.443-.092-.894-.109-1.337A.512.512,0,0,0,0,202.084a11.214,11.214,0,0,0,.116,1.433.512.512,0,0,0,.495.44H.689A.512.512,0,0,0,1.133,203.385Z" transform="translate(0 -201.553)" fill="#033d61"/>
              </g>
            </g>
            <g id="Group_1291" data-name="Group 1291" transform="translate(12.257 0.894)">
              <g id="Group_1290" data-name="Group 1290">
                <path id="Path_8023" data-name="Path 8023" d="M146.187,17.892a.514.514,0,0,0-.561-.462c-.474.048-.952.116-1.422.208a.514.514,0,0,0,.1,1.023l0-.014h.1c.44-.085.887-.15,1.33-.194A.514.514,0,0,0,146.187,17.892Z" transform="translate(-143.738 -17.428)" fill="#033d61"/>
              </g>
            </g>
            <g id="Group_1293" data-name="Group 1293" transform="translate(2.864 6.023)">
              <g id="Group_1292" data-name="Group 1292">
                <path id="Path_8024" data-name="Path 8024" d="M35.3,77.71a.515.515,0,0,0-.727.044c-.314.358-.614.737-.894,1.126a.512.512,0,0,0,.413.812V79.7a.512.512,0,0,0,.416-.211c.263-.362.542-.716.836-1.051A.515.515,0,0,0,35.3,77.71Z" transform="translate(-33.582 -77.58)" fill="#033d61"/>
              </g>
            </g>
            <g id="Group_1295" data-name="Group 1295" transform="translate(16.106 0.83)">
              <g id="Group_1294" data-name="Group 1294">
                <path id="Path_8025" data-name="Path 8025" d="M190.846,16.836c-.471-.072-.952-.123-1.429-.15a.513.513,0,0,0-.061,1.023c.45.034.9.082,1.337.15h.078a.513.513,0,0,0,.075-1.023Z" transform="translate(-188.873 -16.685)" fill="#033d61"/>
              </g>
            </g>
            <g id="Group_1297" data-name="Group 1297" transform="translate(5.468 3.506)">
              <g id="Group_1296" data-name="Group 1296">
                <path id="Path_8026" data-name="Path 8026" d="M66.136,48.272a.512.512,0,0,0-.689-.127c-.392.269-.778.563-1.146.866a.512.512,0,1,0,.655.788c.341-.287.7-.559,1.071-.812A.512.512,0,0,0,66.136,48.272Z" transform="translate(-64.116 -48.064)" fill="#033d61"/>
              </g>
            </g>
            <g id="Group_1300" data-name="Group 1300" transform="translate(8.689 1.726)">
              <g id="Group_1299" data-name="Group 1299">
                <g id="Group_1298" data-name="Group 1298">
                  <path id="Path_8027" data-name="Path 8027" d="M107.814,45.652h0Z" transform="translate(-107.3 -44.078)" fill="#033d61"/>
                  <path id="Path_8028" data-name="Path 8028" d="M104.211,27.565a.512.512,0,0,0-.7-.333,12.783,12.783,0,0,0-1.323.556.509.509,0,1,0,.426.924c.4-.191.819-.365,1.238-.518A.512.512,0,0,0,104.211,27.565Z" transform="translate(-101.892 -27.189)" fill="#033d61"/>
                </g>
              </g>
            </g>
            <g id="Group_1302" data-name="Group 1302" transform="translate(14.78 31.219)">
              <g id="Group_1301" data-name="Group 1301">
                <path id="Path_8029" data-name="Path 8029" d="M175.735,373.524a.513.513,0,0,0-.544-.479,12.625,12.625,0,0,1-1.344.031.512.512,0,0,0-.027,1.023h.433c.341,0,.682,0,1-.031A.513.513,0,0,0,175.735,373.524Z" transform="translate(-173.322 -373.044)" fill="#033d61"/>
              </g>
            </g>
            <g id="Group_1304" data-name="Group 1304" transform="translate(29.544 19.83)">
              <g id="Group_1303" data-name="Group 1303">
                <path id="Path_8030" data-name="Path 8030" d="M347.489,239.505a.512.512,0,0,0-.623.37c-.109.433-.242.863-.392,1.283a.511.511,0,0,0,.965.336v0c.16-.45.3-.911.42-1.364A.512.512,0,0,0,347.489,239.505Z" transform="translate(-346.447 -239.489)" fill="#033d61"/>
              </g>
            </g>
            <g id="Group_1306" data-name="Group 1306" transform="translate(29.94 12.218)">
              <g id="Group_1305" data-name="Group 1305">
                <path id="Path_8031" data-name="Path 8031" d="M352.4,152c-.078-.471-.177-.945-.3-1.405a.512.512,0,0,0-.989.259c.113.43.2.873.28,1.313a.512.512,0,0,0,.5.42h.085A.512.512,0,0,0,352.4,152Z" transform="translate(-351.099 -150.23)" fill="#033d61"/>
              </g>
            </g>
            <g id="Group_1308" data-name="Group 1308" transform="translate(3.648 0)">
              <g id="Group_1307" data-name="Group 1307">
                <path id="Path_8032" data-name="Path 8032" d="M72.541,15.063a.5.5,0,0,0-.1-.141l-.9-.941a.494.494,0,0,0-.495-.123l-1.63.495L67.5,12.326l4.288-2.388a.5.5,0,0,0,.147-.8l-1.2-1.2a.5.5,0,0,0-.495-.116L64.806,9.461,62.978,7.52a1.654,1.654,0,0,0-1.883-.447h-.031a2.013,2.013,0,0,0-1.095,1.095,1.844,1.844,0,0,0-.109.4L59.652,8.5a.512.512,0,1,0-.314.976c.263.085.525.181.788.28a1.964,1.964,0,0,0,.276.341l1.927,1.828-.553,1.825A12.02,12.02,0,1,0,64.318,16.2l.873-1.576,2.026,1.91-.488,1.613a.5.5,0,0,0,.119.5s1,.989,1.023,1.023a.5.5,0,0,0,.676-.18l.006-.011,1.334-2.446L72.3,15.723A.5.5,0,0,0,72.541,15.063Zm-25.469.674a10.953,10.953,0,0,1,7.753-3.206q.341,0,.682.02c1.934,1.784,1.364,3.411.068,4.878a23.943,23.943,0,0,1-2.456,2.265,10.778,10.778,0,0,0-2.875,3.07c-.525,1.187-.14,2.262,1.982,3.2a5.577,5.577,0,0,1,1.862,1.112l.01.009-.024.008a4.239,4.239,0,0,1-1.61.276c-2.572.109-4.4-1.535-5.826-2.807-1.023-.911-1.873-1.668-2.756-1.675A10.953,10.953,0,0,1,47.072,15.737Zm18.757,7.77h0a11,11,0,0,1-7.576,10.448,3.578,3.578,0,0,1,.42-2.323,8.457,8.457,0,0,1,2.047-2.251c3.148-2.626,3.326-4.093,3.462-5.222.085-.713.15-1.245,1.559-2.019A11.111,11.111,0,0,1,65.829,23.507Zm-.634-3.691a10.88,10.88,0,0,1,.375,1.313C63.425,22.221,63.329,23,63.2,24.06c-.116.955-.266,2.2-3.111,4.578A9.329,9.329,0,0,0,57.8,31.172a4.523,4.523,0,0,0-.512,3.046A10.99,10.99,0,0,1,43.859,23.893c.542,0,1.245.645,2.108,1.412,1.562,1.4,3.561,3.176,6.539,3.07a5.116,5.116,0,0,0,2.047-.389,1.023,1.023,0,0,0,.566-.641.975.975,0,0,0-.246-.89,6.371,6.371,0,0,0-2.231-1.4c-1.443-.638-1.757-1.259-1.474-1.893a10.608,10.608,0,0,1,2.606-2.729,24.83,24.83,0,0,0,2.562-2.388c1.426-1.624,2.159-3.394.709-5.331a10.915,10.915,0,0,1,4.434,2.016L60.7,17.323a.5.5,0,0,0,.119.5s1.272,1.262,1.313,1.286a.5.5,0,0,0,.676-.18l.006-.011.993-1.794A10.967,10.967,0,0,1,65.195,19.816Zm4.574-3.81-.44.218a.491.491,0,0,0-.225.229l-.218.443-.849,1.535-.249-.273.495-1.634a.5.5,0,0,0-.16-.525L65.43,13.465a.5.5,0,0,0-.7.006l-.013.014c-.034.038-2.456,4.4-2.456,4.4l-.529-.529,1.651-5.441a.494.494,0,0,0-.16-.529L61.081,9.372a.71.71,0,0,1-.194-.819A1.071,1.071,0,0,1,61.443,8h.017a.71.71,0,0,1,.8.2L64.3,10.368a.5.5,0,0,0,.5.136l5.458-1.648.529.529-4.332,2.381a.494.494,0,0,0-.2.671l.006.011c.02.038,2.63,2.814,2.63,2.814a.5.5,0,0,0,.5.133l1.641-.495.256.256Z" transform="translate(-42.775 -6.948)" fill="#033d61"/>
              </g>
            </g>
            <g id="Group_1310" data-name="Group 1310" transform="translate(27.823 23.371)">
              <g id="Group_1309" data-name="Group 1309">
                <path id="Path_8033" data-name="Path 8033" d="M327.77,281.084l-.023-.012a.512.512,0,0,0-.682.2c-.215.392-.45.778-.7,1.146a.513.513,0,1,0,.839.59c.266-.4.518-.808.75-1.225A.512.512,0,0,0,327.77,281.084Z" transform="translate(-326.269 -281.013)" fill="#033d61"/>
              </g>
            </g>
            <g id="Group_1312" data-name="Group 1312" transform="translate(30.36 15.973)">
              <g id="Group_1311" data-name="Group 1311">
                <path id="Path_8034" data-name="Path 8034" d="M356.6,194.255a.512.512,0,0,0-.519.5c0,.007,0,.014,0,.021v.058c0,.447-.02.9-.061,1.344a.512.512,0,0,0,.463.556h.048a.512.512,0,0,0,.515-.474c.044-.474.065-.955.065-1.433v-.068A.512.512,0,0,0,356.6,194.255Z" transform="translate(-356.019 -194.255)" fill="#033d61"/>
              </g>
            </g>
            <g id="Group_1314" data-name="Group 1314" transform="translate(10.984 30.666)">
              <g id="Group_1313" data-name="Group 1313">
                <path id="Path_8035" data-name="Path 8035" d="M130.8,366.884a10.56,10.56,0,0,1-1.31-.3.512.512,0,1,0-.28.983c.457.13.928.242,1.4.341h.1a.514.514,0,0,0,.1-1.023Z" transform="translate(-128.811 -366.555)" fill="#033d61"/>
              </g>
            </g>
            <g id="Group_1316" data-name="Group 1316" transform="translate(18.58 30.505)">
              <g id="Group_1315" data-name="Group 1315">
                <path id="Path_8036" data-name="Path 8036" d="M220.189,365a.512.512,0,0,0-.621-.315v.014a10.155,10.155,0,0,1-1.293.341.512.512,0,1,0,.225,1c.464-.106.931-.235,1.385-.382A.512.512,0,0,0,220.189,365Z" transform="translate(-217.876 -364.665)" fill="#033d61"/>
              </g>
            </g>
            <g id="Group_1318" data-name="Group 1318" transform="translate(7.504 29.171)">
              <g id="Group_1317" data-name="Group 1317">
                <path id="Path_8037" data-name="Path 8037" d="M89.959,349.737c-.406-.2-.8-.42-1.19-.638a.512.512,0,1,0-.518.883c.413.242.839.467,1.272.682a.513.513,0,0,0,.437-.928Z" transform="translate(-87.997 -349.029)" fill="#033d61"/>
              </g>
            </g>
            <g id="Group_1320" data-name="Group 1320" transform="translate(25.306 26.455)">
              <g id="Group_1319" data-name="Group 1319">
                <path id="Path_8038" data-name="Path 8038" d="M298.6,317.3a.512.512,0,0,0-.714.024h0a12.433,12.433,0,0,1-.962.938.512.512,0,1,0,.682.764c.341-.317.7-.655,1.023-1A.512.512,0,0,0,298.6,317.3Z" transform="translate(-296.758 -317.171)" fill="#033d61"/>
              </g>
            </g>
            <g id="Group_1322" data-name="Group 1322" transform="translate(22.16 28.891)">
              <g id="Group_1321" data-name="Group 1321">
                <path id="Path_8039" data-name="Path 8039" d="M262.028,346a.512.512,0,0,0-.7-.177l-.024.015v-.014c-.375.239-.767.464-1.163.682a.512.512,0,0,0,.467.911c.423-.218.843-.46,1.245-.716A.512.512,0,0,0,262.028,346Z" transform="translate(-259.861 -345.746)" fill="#033d61"/>
              </g>
            </g>
          </g>
        </g>
      </g>
      <g id="_001-movie-tickets" data-name="001-movie-tickets" transform="translate(2284.049 2305.468)">
        <path id="Path_8005" data-name="Path 8005" d="M121.906,198.211a.688.688,0,1,0-.486-.2A.693.693,0,0,0,121.906,198.211Zm0,0" transform="translate(-113.777 -184.752)" fill="#033d61"/>
        <path id="Path_8006" data-name="Path 8006" d="M258.565,200.865a.688.688,0,1,0,.2.486A.694.694,0,0,0,258.565,200.865Zm0,0" transform="translate(-241.589 -188.345)" fill="#033d61"/>
        <path id="Path_8007" data-name="Path 8007" d="M293.079,167.039a.688.688,0,1,0-.487-.2A.692.692,0,0,0,293.079,167.039Zm0,0" transform="translate(-274.44 -155.494)" fill="#033d61"/>
        <path id="Path_8008" data-name="Path 8008" d="M29.729,15.172H28.008l3.029-3.029a1.851,1.851,0,0,0,0-2.617L28.289,6.779a.617.617,0,0,0-.872,0A1.85,1.85,0,0,1,24.8,4.162a.617.617,0,0,0,0-.872L22.053.542a1.85,1.85,0,0,0-2.617,0L9.249,10.729a.617.617,0,1,0,.872.872L20.308,1.414a.617.617,0,0,1,.872,0l2.355,2.355A3.085,3.085,0,0,0,27.81,8.044L30.165,10.4a.617.617,0,0,1,0,.872l-3.9,3.9h-2.7l2.026-2.026a.617.617,0,0,0,0-.872l-6.28-6.28a.617.617,0,0,0-.872,0L9.254,15.172H1.85A1.852,1.852,0,0,0,0,17.023v3.886a.617.617,0,0,0,.617.617,1.85,1.85,0,1,1,0,3.7A.617.617,0,0,0,0,25.843v3.886a1.853,1.853,0,0,0,1.85,1.85H29.729a1.853,1.853,0,0,0,1.85-1.85V25.843a.617.617,0,0,0-.617-.617,1.85,1.85,0,1,1,0-3.7.617.617,0,0,0,.617-.617V17.023A1.852,1.852,0,0,0,29.729,15.172ZM18.869,7.3l5.408,5.408-2.463,2.463H19.372l1.808-1.808a.617.617,0,0,0-.872-.872l-2.681,2.68H11ZM30.345,20.354a3.084,3.084,0,0,0,0,6.044v3.331a.618.618,0,0,1-.617.617H1.85a.618.618,0,0,1-.617-.617V26.4a3.084,3.084,0,0,0,0-6.044V17.023a.617.617,0,0,1,.617-.617H29.729a.617.617,0,0,1,.617.617Zm0,0" transform="translate(0 0)" fill="#033d61"/>
        <path id="Path_8009" data-name="Path 8009" d="M197.674,346.17a.687.687,0,1,0-.486.2A.694.694,0,0,0,197.674,346.17Zm0,0" transform="translate(-184.436 -323.817)" fill="#033d61"/>
        <path id="Path_8010" data-name="Path 8010" d="M296.674,346.17a.687.687,0,1,0-.486.2A.694.694,0,0,0,296.674,346.17Zm0,0" transform="translate(-277.359 -323.817)" fill="#033d61"/>
        <path id="Path_8011" data-name="Path 8011" d="M247.174,346.17a.687.687,0,1,0-.486.2A.693.693,0,0,0,247.174,346.17Zm0,0" transform="translate(-230.898 -323.817)" fill="#033d61"/>
        <path id="Path_8012" data-name="Path 8012" d="M147.688,346.371a.688.688,0,1,0-.486-.2A.693.693,0,0,0,147.688,346.371Zm0,0" transform="translate(-137.975 -323.817)" fill="#033d61"/>
        <path id="Path_8013" data-name="Path 8013" d="M346.174,346.17a.687.687,0,1,0-.486.2A.694.694,0,0,0,346.174,346.17Zm0,0" transform="translate(-323.82 -323.817)" fill="#033d61"/>
        <path id="Path_8014" data-name="Path 8014" d="M147.688,394.371H161.3a.687.687,0,1,0,0-1.375H147.688a.687.687,0,1,0,0,1.375Zm0,0" transform="translate(-138.704 -368.87)" fill="#033d61"/>
        <path id="Path_8015" data-name="Path 8015" d="M184.008,441a.688.688,0,1,0,.486.2A.693.693,0,0,0,184.008,441Zm0,0" transform="translate(-172.066 -414.298)" fill="#033d61"/>
        <path id="Path_8016" data-name="Path 8016" d="M112.078,297h-17.5a.639.639,0,0,0-.576.688v9.9a.639.639,0,0,0,.576.687h2.4a.7.7,0,0,0,0-1.375H95.151v-8.525H111.5V306.9h-9.347a.7.7,0,0,0,0,1.375h9.923a.639.639,0,0,0,.576-.687v-9.9A.639.639,0,0,0,112.078,297Zm0,0" transform="translate(-87.537 -280.198)" fill="#033d61"/>
      </g>
      <g id="_002-sun-bath" data-name="002-sun-bath" transform="translate(2407.51 2305.469)">
        <g id="Group_1330" data-name="Group 1330" transform="translate(0 0)">
          <g id="Group_1329" data-name="Group 1329">
            <path id="Path_8065" data-name="Path 8065" d="M29.418,250.914v-3.677h1.471a.735.735,0,0,0,.735-.735V243.56a.734.734,0,0,0-.248-.551l4.445-4.445a.736.736,0,0,0,0-1.04l-2.206-2.206a.735.735,0,0,0-.52-.215h0a.735.735,0,0,0-.521.22l-1.484,1.511-1.148-1.148a.736.736,0,0,0-1.04,0l-4.933,4.933H21.7a.735.735,0,0,0-.735.735v1.471H12.135v-1.1a1.459,1.459,0,0,1,0-1.471v-1.1a1.473,1.473,0,0,0-1.471-1.471H4.78a1.473,1.473,0,0,0-1.471,1.471v1.1a1.459,1.459,0,0,1,0,1.471v1.1H.735A.735.735,0,0,0,0,243.56V246.5a.735.735,0,0,0,.735.735H2.206v3.677H0v1.471H36.037v-1.471Zm-6.987-8.826H24.27a.735.735,0,0,0,.52-.215l4.628-4.628.638.638-4.845,4.941h-2.78v-.736ZM4.78,239.147h5.884v1.1H4.78Zm0,2.574h5.884v1.1H4.78Zm-.368,9.193H3.677v-3.677h.735Zm21.328,0H5.884v-3.677H25.741Zm2.206,0h-.735v-3.677h.735Zm-1.471-5.148H1.471V244.3h24.05a.736.736,0,0,0,.525-.221l5.574-5.685,1.48-1.507,1.162,1.161-4.78,4.78H27.948V244.3h2.206v1.471H26.476Z" transform="translate(0 -220.761)" fill="#033d61"/>
            <path id="Path_8066" data-name="Path 8066" d="M305,37.888l-1.029,1.029,1.04,1.04,1.029-1.029a3.29,3.29,0,0,0,1.025.426v1.554h1.471V39.354a3.289,3.289,0,0,0,1.025-.426l1.029,1.029,1.04-1.04L310.6,37.888a3.291,3.291,0,0,0,.426-1.025h1.554V35.392h-1.554a3.291,3.291,0,0,0-.426-1.025l1.029-1.029-1.04-1.04-1.029,1.029a3.288,3.288,0,0,0-1.025-.426V31.347h-1.471V32.9a3.289,3.289,0,0,0-1.025.426L305.011,32.3l-1.04,1.04L305,34.367a3.292,3.292,0,0,0-.426,1.025H303.02v1.471h1.554A3.292,3.292,0,0,0,305,37.888Zm2.8-3.6a1.839,1.839,0,1,1-1.839,1.839A1.841,1.841,0,0,1,307.8,34.289Z" transform="translate(-281.692 -31.347)" fill="#033d61"/>
            <path id="Path_8067" data-name="Path 8067" d="M75.349,100.736a.736.736,0,0,1,.735.735h1.471a.735.735,0,0,1,1.471,0H80.5a2.2,2.2,0,0,0-3.677-1.643,2.2,2.2,0,0,0-3.677,1.643h1.471A.736.736,0,0,1,75.349,100.736Z" transform="translate(-67.995 -94.485)" fill="#033d61"/>
            <path id="Path_8068" data-name="Path 8068" d="M135.837,153.716h1.471a.735.735,0,1,1,1.471,0h1.471a.735.735,0,1,1,1.471,0h1.471a2.2,2.2,0,0,0-3.677-1.643,2.2,2.2,0,0,0-3.677,1.643Z" transform="translate(-126.276 -143.052)" fill="#033d61"/>
          </g>
        </g>
      </g>
    </g>
    <g id="business-partnership" transform="translate(2370.303 2314)">
      <path id="Path_8101" data-name="Path 8101" d="M0,34H8.962V47.443H0Z" transform="translate(0 -34)" fill="#033d61"/>
      <path id="Path_8102" data-name="Path 8102" d="M24.648,47.942a.747.747,0,1,1,1.11-1l6.316,7.02,1.838-2.047-6.984-7.685L23.995,45.7a6.291,6.291,0,0,1-2.838.672,6.364,6.364,0,0,1-2.016-.329l-.861-.286a3.332,3.332,0,0,1-.919-5.848L24.1,34.971,23.32,34H14V48.264l9.234,7.491a2.693,2.693,0,0,0,2.849.41,1.967,1.967,0,0,0,.482-.329L20.94,50.211A.747.747,0,1,1,22,49.155l7.256,7.256a2.24,2.24,0,0,0,1.246-.7l.571-.636Z" transform="translate(-3.544 -34)" fill="#033d61"/>
      <path id="Path_8103" data-name="Path 8103" d="M42.818,34H29.131l-9.7,7.111a1.839,1.839,0,0,0,.506,3.226l.863.287a4.825,4.825,0,0,0,3.71-.264l3.945-1.972,7.437,8.18L42.818,47.8Z" transform="translate(-4.73 -34)" fill="#033d61"/>
      <path id="Path_8104" data-name="Path 8104" d="M53,34h8.215V47.443H53Z" transform="translate(-13.418 -34)" fill="#033d61"/>
    </g>
    <g id="Group_1500" data-name="Group 1500" transform="translate(3080.5 187.5) rotate(90)">
      <line id="Line_24-2" data-name="Line 24" x2="363" transform="translate(1729.5 687.5)" fill="none" stroke="#033d61" stroke-width="1"/>
      <g id="Polygon_1-2" data-name="Polygon 1" transform="translate(2099.5 683.5) rotate(90)" fill="#033d61">
        <path d="M 7.138411045074463 6.5 L 0.8615883588790894 6.5 L 3.999999761581421 1.007779955863953 L 7.138411045074463 6.5 Z" stroke="none"/>
        <path d="M 3.999999761581421 2.015560150146484 L 1.723176956176758 6 L 6.276822566986084 6 L 3.999999761581421 2.015560150146484 M 3.999999761581421 0 L 8 7 L -4.76837158203125e-07 7 L 3.999999761581421 0 Z" stroke="none" fill="#033d61"/>
      </g>
    </g>
    <g id="Group_1501" data-name="Group 1501" transform="translate(3070.5 187.5) rotate(90)">
      <line id="Line_24-3" data-name="Line 24" x2="363" transform="translate(1736.5 687.5)" fill="none" stroke="#00b5be" stroke-width="1"/>
      <g id="Polygon_2-2" data-name="Polygon 2" transform="translate(1729.5 691.5) rotate(-90)" fill="#00b5be">
        <path d="M 7.138411045074463 6.5 L 0.8615883588790894 6.5 L 3.999999761581421 1.007779955863953 L 7.138411045074463 6.5 Z" stroke="none"/>
        <path d="M 3.999999761581421 2.015560150146484 L 1.723176956176758 6 L 6.276822566986084 6 L 3.999999761581421 2.015560150146484 M 3.999999761581421 0 L 8 7 L -4.76837158203125e-07 7 L 3.999999761581421 0 Z" stroke="none" fill="#00b5be"/>
      </g>
    </g>
    <text id="거래_" data-name="거래 " transform="translate(2408.859 2266)" fill="#033d61" font-size="10" font-family="NotoSansKR-Regular, Noto Sans KR"><tspan x="-10.32" y="0">거래 </tspan></text>
    <text id="상품공급" transform="translate(2358.859 1936)" fill="#00b5be" font-size="10" font-family="NotoSansKR-Regular, Noto Sans KR"><tspan x="-18.4" y="0">상품공급</tspan></text>
    <g id="Group_1503" data-name="Group 1503" transform="translate(2488.204 1926.35) rotate(90)">
      <line id="Line_24-4" data-name="Line 24" x2="134.787" transform="translate(5.729 3.102)" fill="none" stroke="#033d61" stroke-width="1"/>
      <g id="Polygon_2-3" data-name="Polygon 2" transform="translate(0 6.204) rotate(-90)" fill="#033d61">
        <path d="M 5.365117073059082 5.229284763336182 L 0.8393189907073975 5.229284763336182 L 3.10221791267395 1.050089716911316 L 5.365117073059082 5.229284763336182 Z" stroke="none"/>
        <path d="M 3.10221791267395 2.100203514099121 L 1.678655624389648 4.729284286499023 L 4.52578067779541 4.729284286499023 L 3.10221791267395 2.100203514099121 M 3.10221791267395 4.291534423828125e-06 L 6.204437732696533 5.729284763336182 L -1.9073486328125e-06 5.729284763336182 L 3.10221791267395 4.291534423828125e-06 Z" stroke="none" fill="#033d61"/>
      </g>
    </g>
    <g id="Group_1504" data-name="Group 1504" transform="translate(2478.204 1918.595) rotate(90)">
      <line id="Line_24-5" data-name="Line 24" x2="137.564" transform="translate(0 3.102)" fill="none" stroke="#033d61" stroke-width="1"/>
      <g id="Polygon_1-3" data-name="Polygon 1" transform="translate(143.369) rotate(90)" fill="#033d61">
        <path d="M 5.370369911193848 5.305757999420166 L 0.8340660333633423 5.305757999420166 L 3.10221791267395 1.060944437980652 L 5.370369911193848 5.305757999420166 Z" stroke="none"/>
        <path d="M 3.10221791267395 2.121909618377686 L 1.668144226074219 4.805757999420166 L 4.536291599273682 4.805757999420166 L 3.10221791267395 2.121909618377686 M 3.10221791267395 -1.9073486328125e-06 L 6.204437732696533 5.805757999420166 L -1.9073486328125e-06 5.805757999420166 L 3.10221791267395 -1.9073486328125e-06 Z" stroke="none" fill="#033d61"/>
      </g>
    </g>
    <text id="리워드_보상_할인" data-name="리워드 
보상/할인" transform="translate(2491 1952.699)" fill="#033d61" font-size="10" font-family="NotoSansKR-Regular, Noto Sans KR"><tspan x="0" y="0">리워드 </tspan><tspan x="0" y="15">보상/할인</tspan></text>
    <text id="결제_스테이킹" data-name="결제/스테이킹" transform="translate(2440 2036.699)" fill="#033d61" font-size="10" font-family="NotoSansKR-Regular, Noto Sans KR"><tspan x="-29.56" y="0">결제/스테이킹</tspan></text>
    <g id="Group_1505" data-name="Group 1505" transform="translate(2487.909 2136) rotate(90)">
      <line id="Line_24-6" data-name="Line 24" x2="136.627" transform="translate(0 2.954)" fill="none" stroke="#033d61" stroke-width="1"/>
      <g id="Polygon_1-4" data-name="Polygon 1" transform="translate(141.797) rotate(90)" fill="#033d61">
        <path d="M 5.046308040618896 4.66940450668335 L 0.8615871667861938 4.66940450668335 L 2.9539475440979 1.007782578468323 L 5.046308040618896 4.66940450668335 Z" stroke="none"/>
        <path d="M 2.9539475440979 2.015560626983643 L 1.723176956176758 4.16940450668335 L 4.184718132019043 4.16940450668335 L 2.9539475440979 2.015560626983643 M 2.9539475440979 4.291534423828125e-06 L 5.907897472381592 5.16940450668335 L -2.384185791015625e-06 5.16940450668335 L 2.9539475440979 4.291534423828125e-06 Z" stroke="none" fill="#033d61"/>
      </g>
    </g>
    <g id="Group_1506" data-name="Group 1506" transform="translate(2477.908 2144) rotate(90)">
      <line id="Line_24-7" data-name="Line 24" x2="137.372" transform="translate(5.169 2.954)" fill="none" stroke="#00b5be" stroke-width="1"/>
      <g id="Polygon_2-4" data-name="Polygon 2" transform="translate(0 5.908) rotate(-90)" fill="#00b5be">
        <path d="M 5.046308040618896 4.66940450668335 L 0.8615871667861938 4.66940450668335 L 2.9539475440979 1.007782578468323 L 5.046308040618896 4.66940450668335 Z" stroke="none"/>
        <path d="M 2.9539475440979 2.015560626983643 L 1.723176956176758 4.16940450668335 L 4.184718132019043 4.16940450668335 L 2.9539475440979 2.015560626983643 M 2.9539475440979 4.291534423828125e-06 L 5.907897472381592 5.16940450668335 L -2.384185791015625e-06 5.16940450668335 L 2.9539475440979 4.291534423828125e-06 Z" stroke="none" fill="#00b5be"/>
      </g>
    </g>
    <text id="정산_광고" data-name="정산/광고" transform="translate(2510 2246)" fill="#033d61" font-size="10" font-family="NotoSansKR-Regular, Noto Sans KR"><tspan x="-20.36" y="0">정산/광고</tspan></text>
    <text id="프리미엄_혜택" data-name="프리미엄 혜택" transform="translate(2441 2176.307)" fill="#00b5be" font-size="10" font-family="NotoSansKR-Regular, Noto Sans KR"><tspan x="-28.72" y="0">프리미엄 혜택</tspan></text>
    <g id="Group_1507" data-name="Group 1507" transform="translate(2293.777 2287.236) rotate(-90)">
      <line id="Line_24-8" data-name="Line 24" x2="134.517" transform="translate(0 3.332)" fill="none" stroke="#00b5be" stroke-width="1"/>
      <g id="Polygon_1-5" data-name="Polygon 1" transform="translate(139.236) rotate(90)" fill="#00b5be">
        <path d="M 5.69919490814209 4.219740867614746 L 0.96504807472229 4.219740867614746 L 3.332121610641479 0.8669289946556091 L 5.69919490814209 4.219740867614746 Z" stroke="none"/>
        <path d="M 3.332121610641479 1.733867168426514 L 1.93010139465332 3.719740867614746 L 4.73414134979248 3.719740867614746 L 3.332121610641479 1.733867168426514 M 3.332121610641479 9.5367431640625e-07 L 6.664241790771484 4.719740867614746 L 1.430511474609375e-06 4.719740867614746 L 3.332121610641479 9.5367431640625e-07 Z" stroke="none" fill="#00b5be"/>
      </g>
    </g>
    <text id="전략적_투자_거래" data-name="전략적 
투자 / 거래" transform="translate(2300.442 2186)" fill="#00b5be" font-size="10" font-family="NotoSansKR-Regular, Noto Sans KR"><tspan x="0" y="0">전략적 </tspan><tspan x="0" y="15">투자 / 거래</tspan></text>
    <g id="Group_1508" data-name="Group 1508" transform="translate(2308.461 1917.393) rotate(90)">
      <line id="Line_24-9" data-name="Line 24" x2="131.551" transform="translate(0 3.028)" fill="none" stroke="#033d61" stroke-width="1"/>
      <g id="Polygon_1-6" data-name="Polygon 1" transform="translate(136.85 0) rotate(90)" fill="#033d61">
        <path d="M 5.193493366241455 4.798198699951172 L 0.8615895509719849 4.798198699951172 L 3.027541399002075 1.007779598236084 L 5.193493366241455 4.798198699951172 Z" stroke="none"/>
        <path d="M 3.027541399002075 2.015560388565063 L 1.723177909851074 4.298198699951172 L 4.331904888153076 4.298198699951172 L 3.027541399002075 2.015560388565063 M 3.027541399002075 -9.5367431640625e-07 L 6.055081367492676 5.298198699951172 L 1.430511474609375e-06 5.298198699951172 L 3.027541399002075 -9.5367431640625e-07 Z" stroke="none" fill="#033d61"/>
      </g>
    </g>
    <g id="Group_1509" data-name="Group 1509" transform="translate(2298.621 1924.205) rotate(90)">
      <line id="Line_24-10" data-name="Line 24" x2="130.497" transform="translate(5.298 3.028)" fill="none" stroke="#00b5be" stroke-width="1"/>
      <g id="Polygon_2-5" data-name="Polygon 2" transform="translate(0 6.055) rotate(-90)" fill="#00b5be">
        <path d="M 5.193493366241455 4.798198699951172 L 0.8615895509719849 4.798198699951172 L 3.027541399002075 1.007779598236084 L 5.193493366241455 4.798198699951172 Z" stroke="none"/>
        <path d="M 3.027541399002075 2.015560388565063 L 1.723177909851074 4.298198699951172 L 4.331904888153076 4.298198699951172 L 3.027541399002075 2.015560388565063 M 3.027541399002075 -9.5367431640625e-07 L 6.055081367492676 5.298198699951172 L 1.430511474609375e-06 5.298198699951172 L 3.027541399002075 -9.5367431640625e-07 Z" stroke="none" fill="#00b5be"/>
      </g>
    </g>
    <text id="중개_공급" data-name="중개/공급" transform="translate(2331.246 1976.699)" fill="#033d61" font-size="10" font-family="NotoSansKR-Regular, Noto Sans KR"><tspan x="-20.36" y="0">중개/공급</tspan></text>
    <text id="투자_거래" data-name="투자/거래" transform="translate(2269.781 2014.811)" fill="#00b5be" font-size="10" font-family="NotoSansKR-Regular, Noto Sans KR"><tspan x="-20.36" y="0">투자/거래</tspan></text>
  </g>
</svg>
