<svg xmlns="http://www.w3.org/2000/svg" width="982" height="380" viewBox="0 0 982 380">
  <g id="Group_1412" data-name="Group 1412" transform="translate(-89 -58)">
    <g id="Group_1400" data-name="Group 1400" transform="translate(-137.5 -3478)">
      <g id="Polygon_15" data-name="Polygon 15" transform="translate(768.5 3536)" fill="#fff">
        <path d="M 125.4236450195312 144 L 42.57635879516602 144 L 1.155668258666992 72.5 L 42.57637786865234 1 L 125.4236450195312 1 L 166.8443298339844 72.5 L 125.4236450195312 144 Z" stroke="none"/>
        <path d="M 43.15277862548828 2 L 2.311370849609375 72.5 L 43.15275573730469 143 L 124.8472442626953 143 L 165.6886291503906 72.5 L 124.8472442626953 2 L 43.15277862548828 2 M 42.00002288818359 0 L 126 0 L 168 72.5 L 126 145 L 42 145 L 0 72.5 L 42.00002288818359 0 Z" stroke="none" fill="#00b5be"/>
      </g>
      <g id="Group_1364" data-name="Group 1364" transform="translate(819 3569.288)">
        <text id="뷰티" transform="translate(34 90.722)" fill="#033d61" font-size="16" font-family="Roboto-Regular, Roboto"><tspan x="-13.84" y="0">美容</tspan></text>
        <g id="outline" transform="translate(-17 -17.756)">
          <path id="Path_8044" data-name="Path 8044" d="M361.335,97.282V73.52l.468-2.34a93.2,93.2,0,0,0,1.8-18.014l3.525-8.813a4.283,4.283,0,0,0-1.594-5.13l-.081-.054a15.591,15.591,0,0,0-17.342,0l-.081.054a4.282,4.282,0,0,0-1.593,5.13l3.525,8.814a93.193,93.193,0,0,0,1.8,18.014l.468,2.34V97.282a4.548,4.548,0,0,0,9.1,0Zm-9.462-45.475-3.32-8.3a2,2,0,0,1,.744-2.394l.081-.054a13.324,13.324,0,0,1,14.82,0l.081.054a2,2,0,0,1,.744,2.394l-3.32,8.3h-2.391l.865-4.325a1.137,1.137,0,1,0-2.23-.446l-.953,4.771h-.41l-.955-4.771a1.137,1.137,0,1,0-2.23.446l.865,4.325Zm7.189,45.475a2.274,2.274,0,1,1-4.548,0V74.544h4.548Zm.206-25.011h-4.958L354,70.734a90.935,90.935,0,0,1-1.755-16.654h9.081q-.043,3.412-.345,6.821h-3.058a1.137,1.137,0,0,0,0,2.274h2.829q-.432,3.805-1.181,7.559Z" transform="translate(-283.225 -17.618)" fill="#033d61"/>
          <path id="Path_8045" data-name="Path 8045" d="M294.734,252.75l-2.23-.743a2.558,2.558,0,0,0-3.367,2.426V266.1A1.137,1.137,0,0,0,288,267.242v18.19a1.137,1.137,0,0,0,1.137,1.137h9.1a1.137,1.137,0,0,0,1.137-1.137v-18.19a1.137,1.137,0,0,0-1.137-1.137v-8.5A5.11,5.11,0,0,0,294.734,252.75Zm-3.323,1.683a.284.284,0,0,1,.374-.27l2.23.743a2.839,2.839,0,0,1,1.943,2.7v8.5h-4.548ZM297.1,284.3h-6.821V272.926H297.1Zm0-13.643h-6.821v-2.274H297.1Z" transform="translate(-233.346 -202.357)" fill="#033d61"/>
          <path id="Path_8046" data-name="Path 8046" d="M16,279.888v.568a9.674,9.674,0,0,0,9.664,9.664H42.717a9.674,9.674,0,0,0,9.664-9.664v-.568a1.137,1.137,0,0,0-1.137-1.137H48.572a15.916,15.916,0,1,0-28.763,0H17.137A1.137,1.137,0,0,0,16,279.888Zm18.19-21.6a13.644,13.644,0,0,1,11.816,20.464H43.289a11.371,11.371,0,1,0-18.194,0H22.374A13.644,13.644,0,0,1,34.19,258.287Zm1.6,4.691a9.025,9.025,0,0,1,2.689.933l-11.063,14.08a9.1,9.1,0,0,1-1.369-2.022ZM25.2,273.3a9.08,9.08,0,0,1,7.791-10.388Zm15.131-8.075a9.135,9.135,0,0,1,2.184,3.049s-8.169,10.41-8.2,10.474H29.708Zm-9.553,15.8H37.6a1.137,1.137,0,0,1,0,2.274H30.78a1.137,1.137,0,0,1,0-2.274Zm6.4-2.274,6.062-7.715c.028.294.044.592.044.894a9.052,9.052,0,0,1-3.082,6.821Zm-9.615,2.274a3.41,3.41,0,0,0,3.215,4.548H37.6a3.409,3.409,0,0,0,3.215-4.547h9.269a7.4,7.4,0,0,1-7.368,6.821H25.664a7.4,7.4,0,0,1-7.368-6.821Z" transform="translate(0 -205.908)" fill="#033d61"/>
          <path id="Path_8047" data-name="Path 8047" d="M240.506,94.626l1.822,1.215a6.064,6.064,0,0,1,2.056,2.33l.283.566a1.137,1.137,0,0,0,2.034,0l.283-.566a6.064,6.064,0,0,1,2.056-2.331l1.822-1.215a1.137,1.137,0,0,0-.271-2.025,6.082,6.082,0,0,1-3.828-3.828,1.137,1.137,0,0,0-2.157,0,6.082,6.082,0,0,1-3.828,3.828,1.137,1.137,0,0,0-.271,2.025Zm5.178-3a8.409,8.409,0,0,0,2.272,2.2l-.177.118a8.337,8.337,0,0,0-2.095,2,8.335,8.335,0,0,0-2.1-2l-.177-.118A8.409,8.409,0,0,0,245.684,91.629Z" transform="translate(-192.167 -61.765)" fill="#033d61"/>
          <path id="Path_8048" data-name="Path 8048" d="M162.591,140.6a6.082,6.082,0,0,1-3.828-3.828,1.137,1.137,0,0,0-2.157,0,6.082,6.082,0,0,1-3.828,3.828,1.137,1.137,0,0,0-.271,2.025l1.822,1.215a6.063,6.063,0,0,1,2.056,2.33l.283.566a1.137,1.137,0,0,0,2.034,0l.283-.566a6.064,6.064,0,0,1,2.056-2.331l1.822-1.215a1.137,1.137,0,0,0-.271-2.025Zm-2.812,1.347a8.337,8.337,0,0,0-2.1,2,8.335,8.335,0,0,0-2.1-2l-.177-.118a8.409,8.409,0,0,0,2.272-2.2,8.41,8.41,0,0,0,2.272,2.2Z" transform="translate(-116.672 -102.947)" fill="#033d61"/>
          <path id="Path_8049" data-name="Path 8049" d="M193.04,23.843l1.822-1.215a1.137,1.137,0,0,0-.271-2.024,6.082,6.082,0,0,1-3.828-3.828,1.137,1.137,0,0,0-2.157,0,6.082,6.082,0,0,1-3.828,3.828,1.137,1.137,0,0,0-.271,2.025l1.822,1.214a6.064,6.064,0,0,1,2.056,2.331l.283.566a1.137,1.137,0,0,0,2.034,0l.283-.566a6.064,6.064,0,0,1,2.056-2.331Zm-3.356.112a8.335,8.335,0,0,0-2.1-2l-.177-.118a8.409,8.409,0,0,0,2.272-2.2,8.41,8.41,0,0,0,2.272,2.2l-.177.118a8.337,8.337,0,0,0-2.1,2Z" transform="translate(-144.125)" fill="#033d61"/>
        </g>
      </g>
    </g>
    <g id="Group_1399" data-name="Group 1399" transform="translate(-543.5 -3400)">
      <g id="Polygon_15-2" data-name="Polygon 15" transform="translate(768.5 3536)" fill="#fff">
        <path d="M 125.4236450195312 144 L 42.57635879516602 144 L 1.155668258666992 72.5 L 42.57637786865234 1 L 125.4236450195312 1 L 166.8443298339844 72.5 L 125.4236450195312 144 Z" stroke="none"/>
        <path d="M 43.15277862548828 2 L 2.311370849609375 72.5 L 43.15275573730469 143 L 124.8472442626953 143 L 165.6886291503906 72.5 L 124.8472442626953 2 L 43.15277862548828 2 M 42.00002288818359 0 L 126 0 L 168 72.5 L 126 145 L 42 145 L 0 72.5 L 42.00002288818359 0 Z" stroke="none" fill="#00b5be"/>
      </g>
      <g id="Group_1375" data-name="Group 1375" transform="translate(819 3568.288)">
        <text id="의료" transform="translate(34 90.722)" fill="#033d61" font-size="16" font-family="Roboto-Regular, Roboto"><tspan x="-13.84" y="0">医疗</tspan></text>
        <g id="_004-healthcare" data-name="004-healthcare" transform="translate(0 -1.117)">
          <path id="Path_8040" data-name="Path 8040" d="M20.926,30.783a4.39,4.39,0,0,0-6.176-.044,4.324,4.324,0,0,0-1.205,2.226l-2.1-2.059a3.219,3.219,0,0,1-.935-1.868L8.921,17.111A4.48,4.48,0,0,0,0,17.7v17.13a6.934,6.934,0,0,0,1.644,4.481l5.615,6.62a1,1,0,1,0,1.519-1.289l-5.615-6.62a4.94,4.94,0,0,1-1.172-3.192V17.7a2.488,2.488,0,0,1,4.954-.328L8.532,29.3a5.22,5.22,0,0,0,1.516,3.029l4.72,4.62h0l4.468,4.373A1,1,0,1,0,20.629,39.9l-4.468-4.373a2.366,2.366,0,0,1-.01-3.371,2.384,2.384,0,0,1,3.352.024l9.216,9.389a6.628,6.628,0,0,1,1.909,4.67V67a1,1,0,1,0,1.992,0V46.237a8.609,8.609,0,0,0-2.479-6.065ZM11.837,48.249a1,1,0,0,0-1.519,1.289L15.123,55.2a3.362,3.362,0,0,1,.8,2.172V67a1,1,0,1,0,1.992,0v-9.63a5.357,5.357,0,0,0-1.27-3.461ZM32.495,26.58h3.011a2,2,0,0,0,2-2V19.3h5.276a2,2,0,0,0,2-2V14.293a2,2,0,0,0-2-2H37.505V7.018a2,2,0,0,0-2-2H32.495a2,2,0,0,0-2,2v5.276H25.219a2,2,0,0,0-2,2V17.3a2,2,0,0,0,2,2h5.276V24.58a2,2,0,0,0,2,2ZM25.211,17.3l.008-3.018h5.77a1.5,1.5,0,0,0,1.5-1.5l.008-5.778,3.018.008v5.77a1.5,1.5,0,0,0,1.5,1.5h5.77l.008.008-.008,3.018h-5.77a1.5,1.5,0,0,0-1.5,1.5l-.008,5.778-3.018-.008V18.809a1.5,1.5,0,0,0-1.5-1.5Zm22.822,5.747a1,1,0,0,0-1.768-.917,13.729,13.729,0,1,1,1.365-4.129,1,1,0,1,0,1.967.317,15.813,15.813,0,1,0-1.564,4.729Zm15.486-9.83a4.494,4.494,0,0,0-4.441,3.89L57.493,29.039a3.219,3.219,0,0,1-.935,1.868l-2.1,2.059a4.322,4.322,0,0,0-1.205-2.226,4.388,4.388,0,0,0-6.176.044l-9.216,9.389a8.609,8.609,0,0,0-2.479,6.065V67a1,1,0,0,0,1.992,0V46.237a6.628,6.628,0,0,1,1.909-4.67L48.5,32.178a2.385,2.385,0,0,1,3.352-.024,2.366,2.366,0,0,1-.01,3.371L47.371,39.9a1,1,0,0,0,1.393,1.423l4.468-4.373h0l4.72-4.62A5.219,5.219,0,0,0,59.468,29.3l1.586-11.927a2.488,2.488,0,0,1,4.954.328v17.13a4.94,4.94,0,0,1-1.172,3.192L51.358,53.914a5.357,5.357,0,0,0-1.27,3.461V67a1,1,0,1,0,1.992,0v-9.63a3.362,3.362,0,0,1,.8-2.172l13.478-15.89A6.934,6.934,0,0,0,68,34.831V17.7a4.485,4.485,0,0,0-4.48-4.48Z" fill="#033d61"/>
        </g>
      </g>
    </g>
    <g id="Group_1401" data-name="Group 1401" transform="translate(-409.5 -3478)">
      <g id="Polygon_15-3" data-name="Polygon 15" transform="translate(768.5 3536)" fill="#fff">
        <path d="M 125.4236450195312 144 L 42.57635879516602 144 L 1.155668258666992 72.5 L 42.57637786865234 1 L 125.4236450195312 1 L 166.8443298339844 72.5 L 125.4236450195312 144 Z" stroke="none"/>
        <path d="M 43.15277862548828 2 L 2.311370849609375 72.5 L 43.15275573730469 143 L 124.8472442626953 143 L 165.6886291503906 72.5 L 124.8472442626953 2 L 43.15277862548828 2 M 42.00002288818359 0 L 126 0 L 168 72.5 L 126 145 L 42 145 L 0 72.5 L 42.00002288818359 0 Z" stroke="none" fill="#00b5be"/>
      </g>
      <g id="Group_1372" data-name="Group 1372" transform="translate(819 3567.288)">
        <text id="여행" transform="translate(34 90.722)" fill="#033d61" font-size="16" font-family="Roboto-Regular, Roboto"><tspan x="-13.84" y="0">旅游</tspan></text>
        <g id="_003-world" data-name="003-world" transform="translate(-1 -7.352)">
          <g id="Group_1279" data-name="Group 1279" transform="translate(9.336 62.867)">
            <g id="Group_1278" data-name="Group 1278">
              <path id="Path_8017" data-name="Path 8017" d="M56.523,324.042q-.033-.03-.069-.057c-.71-.59-1.421-1.222-2.074-1.875a1.062,1.062,0,0,0-1.5,1.506,27.181,27.181,0,0,0,2.216,2.01,1.066,1.066,0,0,0,1.426-1.584Z" transform="translate(-52.569 -321.801)" fill="#033d61"/>
            </g>
          </g>
          <g id="Group_1281" data-name="Group 1281" transform="translate(0.219 33.455)">
            <g id="Group_1280" data-name="Group 1280">
              <path id="Path_8018" data-name="Path 8018" d="M3.151,156.257a1.066,1.066,0,0,0-1.413.91c-.213.973-.377,1.961-.5,2.948a1.066,1.066,0,0,0,.9,1.193h.135a1.065,1.065,0,0,0,1.059-.938c.114-.924.27-1.854.469-2.756A1.065,1.065,0,0,0,3.151,156.257Z" transform="translate(-1.232 -156.197)" fill="#033d61"/>
            </g>
          </g>
          <g id="Group_1283" data-name="Group 1283" transform="translate(4.467 56.608)">
            <g id="Group_1282" data-name="Group 1282">
              <path id="Path_8019" data-name="Path 8019" d="M28.676,289.413c-.547-.753-1.066-1.534-1.542-2.33a1.066,1.066,0,0,0-1.461-.371l0,0a1.066,1.066,0,0,0-.371,1.461l0,0c.511.852,1.066,1.691,1.655,2.494a1.066,1.066,0,0,0,1.719-1.257Z" transform="translate(-25.15 -286.562)" fill="#033d61"/>
            </g>
          </g>
          <g id="Group_1285" data-name="Group 1285" transform="translate(1.257 49.327)">
            <g id="Group_1284" data-name="Group 1284">
              <path id="Path_8020" data-name="Path 8020" d="M10.1,248.978c-.341-.86-.654-1.748-.916-2.643a1.066,1.066,0,0,0-1.32-.727l-.029.009a1.066,1.066,0,0,0-.71,1.321c.284.952.611,1.9.98,2.842a1.076,1.076,0,0,0,2-.8Z" transform="translate(-7.076 -245.566)" fill="#033d61"/>
            </g>
          </g>
          <g id="Group_1287" data-name="Group 1287" transform="translate(2.186 26.094)">
            <g id="Group_1286" data-name="Group 1286">
              <path id="Path_8021" data-name="Path 8021" d="M15.036,114.867a1.066,1.066,0,0,0-1.431.472c-.448.888-.86,1.8-1.222,2.735a1.064,1.064,0,0,0,1.98.78l0-.006a25.624,25.624,0,0,1,1.144-2.55A1.066,1.066,0,0,0,15.036,114.867Z" transform="translate(-12.309 -114.753)" fill="#033d61"/>
            </g>
          </g>
          <g id="Group_1289" data-name="Group 1289" transform="translate(0 41.51)">
            <g id="Group_1288" data-name="Group 1288">
              <path id="Path_8022" data-name="Path 8022" d="M2.36,205.368v0c-.114-.924-.192-1.861-.227-2.785A1.066,1.066,0,1,0,0,202.658a23.354,23.354,0,0,0,.242,2.984,1.066,1.066,0,0,0,1.03.916h.163A1.066,1.066,0,0,0,2.36,205.368Z" transform="translate(0 -201.553)" fill="#033d61"/>
            </g>
          </g>
          <g id="Group_1291" data-name="Group 1291" transform="translate(25.528 8.809)">
            <g id="Group_1290" data-name="Group 1290">
              <path id="Path_8023" data-name="Path 8023" d="M148.839,18.4a1.071,1.071,0,0,0-1.169-.963c-.987.1-1.982.242-2.962.433a1.07,1.07,0,1,0,.2,2.131l-.007-.028h.206c.916-.178,1.847-.313,2.771-.4A1.071,1.071,0,0,0,148.839,18.4Z" transform="translate(-143.738 -17.428)" fill="#033d61"/>
            </g>
          </g>
          <g id="Group_1293" data-name="Group 1293" transform="translate(5.964 19.492)">
            <g id="Group_1292" data-name="Group 1292">
              <path id="Path_8024" data-name="Path 8024" d="M37.16,77.85a1.072,1.072,0,0,0-1.513.092c-.654.746-1.279,1.534-1.861,2.344a1.066,1.066,0,0,0,.86,1.691v.014a1.065,1.065,0,0,0,.867-.44c.547-.753,1.13-1.492,1.741-2.188A1.072,1.072,0,0,0,37.16,77.85Z" transform="translate(-33.582 -77.58)" fill="#033d61"/>
            </g>
          </g>
          <g id="Group_1295" data-name="Group 1295" transform="translate(33.544 8.677)">
            <g id="Group_1294" data-name="Group 1294">
              <path id="Path_8025" data-name="Path 8025" d="M192.981,17C192,16.85,191,16.744,190,16.687a1.068,1.068,0,0,0-.128,2.131c.938.071,1.868.17,2.785.313h.163A1.068,1.068,0,0,0,192.981,17Z" transform="translate(-188.873 -16.685)" fill="#033d61"/>
            </g>
          </g>
          <g id="Group_1297" data-name="Group 1297" transform="translate(11.387 14.25)">
            <g id="Group_1296" data-name="Group 1296">
              <path id="Path_8026" data-name="Path 8026" d="M68.322,48.5a1.066,1.066,0,0,0-1.434-.265c-.817.561-1.62,1.172-2.387,1.8a1.067,1.067,0,1,0,1.364,1.641c.71-.6,1.463-1.165,2.231-1.691A1.066,1.066,0,0,0,68.322,48.5Z" transform="translate(-64.116 -48.064)" fill="#033d61"/>
            </g>
          </g>
          <g id="Group_1300" data-name="Group 1300" transform="translate(18.096 10.543)">
            <g id="Group_1299" data-name="Group 1299">
              <g id="Group_1298" data-name="Group 1298">
                <path id="Path_8027" data-name="Path 8027" d="M107.825,45.653h0Z" transform="translate(-106.754 -42.373)" fill="#033d61"/>
                <path id="Path_8028" data-name="Path 8028" d="M106.721,27.973a1.066,1.066,0,0,0-1.456-.694,26.623,26.623,0,0,0-2.756,1.158,1.06,1.06,0,1,0,.888,1.925c.838-.4,1.7-.76,2.579-1.08A1.066,1.066,0,0,0,106.721,27.973Z" transform="translate(-101.892 -27.189)" fill="#033d61"/>
              </g>
            </g>
          </g>
          <g id="Group_1302" data-name="Group 1302" transform="translate(30.782 71.967)">
            <g id="Group_1301" data-name="Group 1301">
              <path id="Path_8029" data-name="Path 8029" d="M178.348,374.044a1.068,1.068,0,0,0-1.133-1,26.3,26.3,0,0,1-2.8.064,1.066,1.066,0,1,0-.057,2.131h.9c.71,0,1.421,0,2.089-.064A1.068,1.068,0,0,0,178.348,374.044Z" transform="translate(-173.322 -373.044)" fill="#033d61"/>
            </g>
          </g>
          <g id="Group_1304" data-name="Group 1304" transform="translate(61.53 48.248)">
            <g id="Group_1303" data-name="Group 1303">
              <path id="Path_8030" data-name="Path 8030" d="M348.617,239.523a1.067,1.067,0,0,0-1.3.771c-.227.9-.5,1.8-.817,2.671a1.064,1.064,0,0,0,2.009.7v0c.334-.938.625-1.9.874-2.842A1.067,1.067,0,0,0,348.617,239.523Z" transform="translate(-346.447 -239.489)" fill="#033d61"/>
            </g>
          </g>
          <g id="Group_1306" data-name="Group 1306" transform="translate(62.356 32.395)">
            <g id="Group_1305" data-name="Group 1305">
              <path id="Path_8031" data-name="Path 8031" d="M353.8,153.914c-.163-.98-.369-1.968-.618-2.927a1.066,1.066,0,0,0-2.06.54c.234.9.426,1.819.583,2.735a1.066,1.066,0,0,0,1.037.874h.178A1.065,1.065,0,0,0,353.8,153.914Z" transform="translate(-351.099 -150.23)" fill="#033d61"/>
            </g>
          </g>
          <g id="Group_1308" data-name="Group 1308" transform="translate(7.597 6.948)">
            <g id="Group_1307" data-name="Group 1307">
              <path id="Path_8032" data-name="Path 8032" d="M104.767,23.849a1.033,1.033,0,0,0-.2-.293l-1.883-1.961a1.03,1.03,0,0,0-1.03-.256l-3.4,1.03-3.978-4.22,8.93-4.973a1.037,1.037,0,0,0,.305-1.669L101.006,9a1.037,1.037,0,0,0-1.03-.242L88.659,12.182,84.851,8.139a3.446,3.446,0,0,0-3.921-.931h-.064a4.191,4.191,0,0,0-2.28,2.28,3.839,3.839,0,0,0-.227.838l-.433-.149a1.067,1.067,0,1,0-.654,2.032c.547.178,1.094.377,1.641.583a4.091,4.091,0,0,0,.575.71L83.5,17.311l-1.151,3.8a25.034,25.034,0,1,0,5.293,5.1l1.819-3.282,4.22,3.978-1.016,3.36a1.03,1.03,0,0,0,.249,1.051S95,33.38,95.045,33.451a1.03,1.03,0,0,0,1.408-.375l.013-.023,2.778-5.094,5.015-2.735A1.037,1.037,0,0,0,104.767,23.849Zm-53.043,1.4a22.812,22.812,0,0,1,16.148-6.678q.711,0,1.421.043c4.028,3.715,2.842,7.1.142,10.159a49.866,49.866,0,0,1-5.115,4.717c-2.621,2.231-5.065,4.312-5.989,6.394-1.094,2.472-.291,4.71,4.127,6.664a11.614,11.614,0,0,1,3.879,2.316.114.114,0,0,0,.021.019l-.049.016a8.829,8.829,0,0,1-3.353.575c-5.356.227-9.171-3.2-12.134-5.847-2.131-1.9-3.9-3.474-5.74-3.488A22.812,22.812,0,0,1,51.724,25.253ZM90.79,41.436H90.8A22.9,22.9,0,0,1,75.019,63.2a7.453,7.453,0,0,1,.874-4.838,17.613,17.613,0,0,1,4.262-4.689c6.557-5.47,6.927-8.525,7.211-10.876.178-1.485.313-2.593,3.247-4.206A23.145,23.145,0,0,1,90.79,41.436Zm-1.321-7.687a22.665,22.665,0,0,1,.781,2.735c-4.468,2.273-4.667,3.893-4.937,6.1-.242,1.989-.554,4.589-6.479,9.534a19.431,19.431,0,0,0-4.76,5.278,9.421,9.421,0,0,0-1.066,6.344,22.889,22.889,0,0,1-27.976-21.5c1.13,0,2.593,1.343,4.39,2.941,3.254,2.906,7.417,6.614,13.619,6.394a10.655,10.655,0,0,0,4.262-.81,2.131,2.131,0,0,0,1.179-1.336,2.032,2.032,0,0,0-.511-1.854c-.668-.817-2.131-1.783-4.646-2.906-3.005-1.328-3.659-2.621-3.069-3.943.71-1.662,3-3.552,5.428-5.683a51.712,51.712,0,0,0,5.335-4.973c2.97-3.382,4.5-7.069,1.478-11.1a22.732,22.732,0,0,1,9.235,4.2L80.1,28.556a1.037,1.037,0,0,0,.249,1.051s2.65,2.629,2.735,2.678a1.03,1.03,0,0,0,1.408-.375l.013-.023,2.067-3.737A22.841,22.841,0,0,1,89.469,33.749ZM99,25.814l-.916.455a1.023,1.023,0,0,0-.469.476l-.455.924-1.769,3.2-.519-.568,1.03-3.4a1.03,1.03,0,0,0-.334-1.094l-5.605-5.278a1.03,1.03,0,0,0-1.457.013l-.028.03c-.071.078-5.115,9.164-5.115,9.164l-1.1-1.1L85.7,17.3a1.03,1.03,0,0,0-.334-1.1L80.9,12a1.478,1.478,0,0,1-.4-1.7,2.231,2.231,0,0,1,1.158-1.151h.036a1.478,1.478,0,0,1,1.662.426l4.262,4.5a1.03,1.03,0,0,0,1.051.284l11.367-3.431,1.1,1.1-9.022,4.959a1.03,1.03,0,0,0-.411,1.4l.013.023c.043.078,5.477,5.861,5.477,5.861a1.03,1.03,0,0,0,1.051.277l3.417-1.03.533.533Z" transform="translate(-42.775 -6.948)" fill="#033d61"/>
            </g>
          </g>
          <g id="Group_1310" data-name="Group 1310" transform="translate(57.946 55.622)">
            <g id="Group_1309" data-name="Group 1309">
              <path id="Path_8033" data-name="Path 8033" d="M329.395,281.161l-.047-.026a1.065,1.065,0,0,0-1.421.419c-.448.817-.938,1.62-1.463,2.387a1.068,1.068,0,0,0,1.748,1.229c.554-.824,1.08-1.684,1.563-2.55A1.066,1.066,0,0,0,329.395,281.161Z" transform="translate(-326.269 -281.013)" fill="#033d61"/>
            </g>
          </g>
          <g id="Group_1312" data-name="Group 1312" transform="translate(63.23 40.214)">
            <g id="Group_1311" data-name="Group 1311">
              <path id="Path_8034" data-name="Path 8034" d="M357.231,194.256a1.066,1.066,0,0,0-1.08,1.051c0,.014,0,.029,0,.043v.121c0,.931-.043,1.868-.128,2.8a1.066,1.066,0,0,0,.965,1.158h.1a1.066,1.066,0,0,0,1.073-.987c.092-.987.135-1.989.135-2.984v-.142A1.066,1.066,0,0,0,357.231,194.256Z" transform="translate(-356.019 -194.255)" fill="#033d61"/>
            </g>
          </g>
          <g id="Group_1314" data-name="Group 1314" transform="translate(22.877 70.815)">
            <g id="Group_1313" data-name="Group 1313">
              <path id="Path_8035" data-name="Path 8035" d="M132.959,367.24a22.01,22.01,0,0,1-2.728-.625,1.066,1.066,0,0,0-.707,2.011,1.081,1.081,0,0,0,.124.036c.952.27,1.932.5,2.913.71h.2a1.07,1.07,0,0,0,.2-2.131Z" transform="translate(-128.811 -366.555)" fill="#033d61"/>
            </g>
          </g>
          <g id="Group_1316" data-name="Group 1316" transform="translate(38.695 70.479)">
            <g id="Group_1315" data-name="Group 1315">
              <path id="Path_8036" data-name="Path 8036" d="M222.693,365.363a1.066,1.066,0,0,0-1.292-.656v.028a21.173,21.173,0,0,1-2.692.71,1.067,1.067,0,1,0,.469,2.082c.966-.22,1.939-.49,2.884-.8A1.066,1.066,0,0,0,222.693,365.363Z" transform="translate(-217.876 -364.665)" fill="#033d61"/>
            </g>
          </g>
          <g id="Group_1318" data-name="Group 1318" transform="translate(15.628 67.702)">
            <g id="Group_1317" data-name="Group 1317">
              <path id="Path_8037" data-name="Path 8037" d="M92.083,350.5c-.845-.419-1.677-.874-2.479-1.328a1.067,1.067,0,1,0-1.08,1.84c.86.5,1.748.973,2.65,1.421a1.068,1.068,0,0,0,.909-1.932Z" transform="translate(-87.997 -349.029)" fill="#033d61"/>
            </g>
          </g>
          <g id="Group_1320" data-name="Group 1320" transform="translate(52.705 62.044)">
            <g id="Group_1319" data-name="Group 1319">
              <path id="Path_8038" data-name="Path 8038" d="M300.6,317.45a1.066,1.066,0,0,0-1.487.049h.007a25.894,25.894,0,0,1-2,1.954,1.067,1.067,0,0,0,1.421,1.591c.71-.661,1.463-1.364,2.131-2.089A1.066,1.066,0,0,0,300.6,317.45Z" transform="translate(-296.758 -317.171)" fill="#033d61"/>
            </g>
          </g>
          <g id="Group_1322" data-name="Group 1322" transform="translate(46.152 67.119)">
            <g id="Group_1321" data-name="Group 1321">
              <path id="Path_8039" data-name="Path 8039" d="M264.375,346.265a1.066,1.066,0,0,0-1.461-.368l-.05.032V345.9c-.781.5-1.6.966-2.422,1.421a1.066,1.066,0,0,0,.973,1.9c.881-.455,1.755-.959,2.593-1.492A1.066,1.066,0,0,0,264.375,346.265Z" transform="translate(-259.861 -345.746)" fill="#033d61"/>
            </g>
          </g>
        </g>
      </g>
    </g>
    <g id="Group_1406" data-name="Group 1406" transform="translate(-1.5 -3399)">
      <g id="Polygon_15-4" data-name="Polygon 15" transform="translate(768.5 3536)" fill="#fff">
        <path d="M 125.4236450195312 144 L 42.57635879516602 144 L 1.155668258666992 72.5 L 42.57637786865234 1 L 125.4236450195312 1 L 166.8443298339844 72.5 L 125.4236450195312 144 Z" stroke="none"/>
        <path d="M 43.15277862548828 2 L 2.311370849609375 72.5 L 43.15275573730469 143 L 124.8472442626953 143 L 165.6886291503906 72.5 L 124.8472442626953 2 L 43.15277862548828 2 M 42.00002288818359 0 L 126 0 L 168 72.5 L 126 145 L 42 145 L 0 72.5 L 42.00002288818359 0 Z" stroke="none" fill="#00b5be"/>
      </g>
      <g id="Group_1365" data-name="Group 1365" transform="translate(819 3567.288)">
        <text id="금융" transform="translate(34 90.722)" fill="#033d61" font-size="16" font-family="Roboto-Regular, Roboto"><tspan x="-13.84" y="0">金融</tspan></text>
        <g id="_005-money" data-name="005-money" transform="translate(-0.007 -1.878)">
          <g id="Group_1324" data-name="Group 1324" transform="translate(17.35 52.698)">
            <g id="Group_1323" data-name="Group 1323">
              <path id="Path_8041" data-name="Path 8041" d="M72.357,452.748a2.548,2.548,0,1,0,.748,1.8A2.568,2.568,0,0,0,72.357,452.748Z" transform="translate(-68.003 -452.001)" fill="#033d61"/>
            </g>
          </g>
          <g id="Group_1326" data-name="Group 1326" transform="translate(52.821 23.013)">
            <g id="Group_1325" data-name="Group 1325">
              <path id="Path_8042" data-name="Path 8042" d="M456.808,180.755a2.543,2.543,0,1,0,.75,1.8A2.564,2.564,0,0,0,456.808,180.755Z" transform="translate(-452.454 -180.008)" fill="#033d61"/>
            </g>
          </g>
          <g id="Group_1328" data-name="Group 1328" transform="translate(0.007)">
            <g id="Group_1327" data-name="Group 1327">
              <path id="Path_8043" data-name="Path 8043" d="M67.618.389A1.329,1.329,0,0,0,66.679,0L34.007,0A1.328,1.328,0,0,0,32.679,1.33v3.8L20.089,8.5a1.328,1.328,0,0,0-.939,1.627l6.525,24.351L20.03,40.123a3.983,3.983,0,0,0-3.289-1.739H3.991A3.989,3.989,0,0,0,.007,42.369V64.017A3.989,3.989,0,0,0,3.991,68h12.75a3.991,3.991,0,0,0,3.867-3.026l1.579,1.377A6.691,6.691,0,0,0,26.586,68H66.679a1.328,1.328,0,0,0,1.328-1.328V1.328A1.329,1.329,0,0,0,67.618.389ZM18.069,64.017a1.33,1.33,0,0,1-1.328,1.328H3.991a1.33,1.33,0,0,1-1.328-1.328V42.369a1.33,1.33,0,0,1,1.328-1.328H9.038v15.3a1.328,1.328,0,0,0,2.656,0v-15.3h5.047a1.33,1.33,0,0,1,1.328,1.328V64.017Zm3.99-53.294L32.679,7.878V12.8l-.89.239a1.328,1.328,0,0,0-.939,1.627,3.58,3.58,0,0,1-2.529,4.38,1.328,1.328,0,0,0-.938,1.629l5.177,19.17H29.894L28.52,34.47A1.326,1.326,0,0,0,28.3,34ZM32.679,18.89V30.1l-2.422-8.97A6.222,6.222,0,0,0,32.679,18.89ZM51.759,65.345H26.586a4.036,4.036,0,0,1-2.653-.994l-3.207-2.8V43.185l5.8-5.8L27.576,41.5a1.328,1.328,0,0,0,1.287,1l26.112,0a1.859,1.859,0,1,1,0,3.719H41.595a1.328,1.328,0,1,0,0,2.656H59.132a1.859,1.859,0,1,1,0,3.719H41.595a1.328,1.328,0,1,0,0,2.656h14.7a1.859,1.859,0,0,1,0,3.719h-14.7a1.328,1.328,0,1,0,0,2.656H51.759a1.859,1.859,0,1,1,0,3.718Zm13.591,0H55.873a4.5,4.5,0,0,0,0-3.719h.417a4.513,4.513,0,0,0,4.036-6.537,4.512,4.512,0,0,0,2.43-7.044V31.213a1.328,1.328,0,0,0-2.656,0V46.326a4.516,4.516,0,0,0-.968-.106h-.044a4.513,4.513,0,0,0-4.113-6.375H52.839a6.356,6.356,0,1,0-4.994,0h-7.26V14.592A6.252,6.252,0,0,0,45.347,9.83h9.991A6.252,6.252,0,0,0,60.1,14.592v4.129a1.328,1.328,0,0,0,2.656,0V13.406a1.328,1.328,0,0,0-1.328-1.328A3.58,3.58,0,0,1,57.852,8.5a1.328,1.328,0,0,0-1.328-1.328H44.162A1.328,1.328,0,0,0,42.833,8.5a3.58,3.58,0,0,1-3.576,3.576,1.328,1.328,0,0,0-1.328,1.328v26.44H35.335V2.658H65.351ZM50.343,37.7a3.7,3.7,0,1,1,3.7-3.7A3.7,3.7,0,0,1,50.343,37.7Z" transform="translate(-0.007)" fill="#033d61"/>
            </g>
          </g>
        </g>
      </g>
    </g>
    <g id="Group_1409" data-name="Group 1409" transform="translate(134.5 -3321)">
      <g id="Polygon_15-5" data-name="Polygon 15" transform="translate(768.5 3536)" fill="#fff">
        <path d="M 125.4236450195312 144 L 42.57635879516602 144 L 1.155668258666992 72.5 L 42.57637786865234 1 L 125.4236450195312 1 L 166.8443298339844 72.5 L 125.4236450195312 144 Z" stroke="none"/>
        <path d="M 43.15277862548828 2 L 2.311370849609375 72.5 L 43.15275573730469 143 L 124.8472442626953 143 L 165.6886291503906 72.5 L 124.8472442626953 2 L 43.15277862548828 2 M 42.00002288818359 0 L 126 0 L 168 72.5 L 126 145 L 42 145 L 0 72.5 L 42.00002288818359 0 Z" stroke="none" fill="#00b5be"/>
      </g>
      <g id="Group_1366" data-name="Group 1366" transform="translate(819 3566.288)">
        <text id="교육" transform="translate(32.16 90.722)" fill="#033d61" font-size="16" font-family="Roboto-Regular, Roboto"><tspan x="-13.84" y="0">教育</tspan></text>
        <g id="Outline-2" data-name="Outline" transform="translate(-25 -20.241)">
          <path id="Path_8058" data-name="Path 8058" d="M96,48h2.354v2.354H96Z" transform="translate(-61.407 -27.292)" fill="#033d61"/>
          <path id="Path_8059" data-name="Path 8059" d="M128,48h2.354v2.354H128Z" transform="translate(-88.699 -27.292)" fill="#033d61"/>
          <path id="Path_8060" data-name="Path 8060" d="M160,48h2.354v2.354H160Z" transform="translate(-115.991 -27.292)" fill="#033d61"/>
          <path id="Path_8061" data-name="Path 8061" d="M96,160h2.354v2.354H96Z" transform="translate(-61.407 -122.813)" fill="#033d61"/>
          <path id="Path_8062" data-name="Path 8062" d="M96,192h2.354v11.77H96Z" transform="translate(-61.407 -150.105)" fill="#033d61"/>
          <path id="Path_8063" data-name="Path 8063" d="M24.124,76.555a1.177,1.177,0,0,0,1.053.651h4.255a9.08,9.08,0,0,0,1.081,8.945,1.177,1.177,0,0,0,.942.471H91.091a1.177,1.177,0,0,0,.942-1.883,6.7,6.7,0,0,1,0-8,1.177,1.177,0,0,0-.942-1.883H86.836a9.114,9.114,0,0,0-.009-7.084,4.714,4.714,0,0,0,4.264-4.687V59.55a1.177,1.177,0,0,0-1.177-1.177H86.382V20.708A4.713,4.713,0,0,0,81.674,16H34.593a4.713,4.713,0,0,0-4.708,4.708V58.373H26.354a1.177,1.177,0,0,0-1.177,1.177v3.531h2.354V60.727h20.7a2.823,2.823,0,0,1,2.009.832,5.162,5.162,0,0,0,3.674,1.522h8.441a5.162,5.162,0,0,0,3.674-1.522,2.823,2.823,0,0,1,2.009-.832h20.7v2.354a2.357,2.357,0,0,1-2.354,2.354H25.177a1.177,1.177,0,0,0-.942,1.883,6.7,6.7,0,0,1,0,8,1.177,1.177,0,0,0-.111,1.233Zm40.24-16.66a2.823,2.823,0,0,1-2.009.832H53.913a2.823,2.823,0,0,1-2.009-.832,5.162,5.162,0,0,0-3.674-1.522H32.239V20.708a2.357,2.357,0,0,1,2.354-2.354H81.674a2.357,2.357,0,0,1,2.354,2.354V58.373H68.038a5.162,5.162,0,0,0-3.674,1.522ZM27.833,72.5H50.959a6.641,6.641,0,0,1-.9,2.354H27.2a9.049,9.049,0,0,0,.633-2.354Zm49.3,2.354H60.941a9.115,9.115,0,0,0,0-7.062h16.19A6.715,6.715,0,0,1,77.131,74.851ZM63.566,84.268h-5.6a6.716,6.716,0,0,1,0-7.062h5.6A9.115,9.115,0,0,0,63.566,84.268ZM39.137,77.205h16.19a9.115,9.115,0,0,0,0,7.062H39.137a6.716,6.716,0,0,1,0-7.062ZM58.3,74.851H52.7a9.115,9.115,0,0,0,0-7.062h5.6A6.715,6.715,0,0,1,58.3,74.851ZM32.074,77.205h4.42a9.115,9.115,0,0,0,0,7.062h-4.42a6.716,6.716,0,0,1,0-7.062Zm34.134,7.062a6.638,6.638,0,0,1-.9-2.354H88.434a9.042,9.042,0,0,0,.633,2.354Zm22.226-4.708H65.309a6.638,6.638,0,0,1,.9-2.354H89.067a9.042,9.042,0,0,0-.633,2.354Zm-4.241-4.708h-4.42a9.115,9.115,0,0,0,0-7.062h4.42a6.716,6.716,0,0,1,0,7.062ZM29.885,67.789H50.059a6.641,6.641,0,0,1,.9,2.354H27.833a9.048,9.048,0,0,0-.633-2.354Z" fill="#033d61"/>
          <path id="Path_8064" data-name="Path 8064" d="M146.37,86.171V76.4l1.655-.736a1.177,1.177,0,0,0,0-2.151L126.839,64.1a1.179,1.179,0,0,0-.956,0L104.7,73.517a1.177,1.177,0,0,0,0,2.151l8.718,3.874V93.425a1.177,1.177,0,0,0,1.177,1.177A29.237,29.237,0,0,1,125.5,96.7l.421.168a1.177,1.177,0,0,0,.872,0l.422-.168a29.233,29.233,0,0,1,10.912-2.1,1.177,1.177,0,0,0,1.177-1.177V79.542l4.708-2.092v8.722l-2.294,6.881a1.177,1.177,0,0,0,1.117,1.549h4.708a1.177,1.177,0,0,0,1.117-1.549ZM126.361,66.464l7.213,3.206-4.764,2.382a3.539,3.539,0,1,0,1.054,2.1l6.439-3.22-.035-.069,8.38,3.725-18.288,8.128-18.288-8.128Zm1.177,8.128a1.177,1.177,0,1,1-1.177-1.177A1.177,1.177,0,0,1,127.538,74.592Zm9.416,17.677a31.551,31.551,0,0,0-10.593,2.243,31.551,31.551,0,0,0-10.593-2.243V80.589l10.115,4.5a1.177,1.177,0,0,0,.956,0l10.115-4.5Zm7.518-.021.721-2.163.721,2.163Z" transform="translate(-68.227 -40.937)" fill="#033d61"/>
        </g>
      </g>
    </g>
    <g id="Group_1402" data-name="Group 1402" transform="translate(-273.5 -3399)">
      <g id="Polygon_15-6" data-name="Polygon 15" transform="translate(768.5 3536)" fill="#fff">
        <path d="M 125.4236450195312 144 L 42.57635879516602 144 L 1.155668258666992 72.5 L 42.57637786865234 1 L 125.4236450195312 1 L 166.8443298339844 72.5 L 125.4236450195312 144 Z" stroke="none"/>
        <path d="M 43.15277862548828 2 L 2.311370849609375 72.5 L 43.15275573730469 143 L 124.8472442626953 143 L 165.6886291503906 72.5 L 124.8472442626953 2 L 43.15277862548828 2 M 42.00002288818359 0 L 126 0 L 168 72.5 L 126 145 L 42 145 L 0 72.5 L 42.00002288818359 0 Z" stroke="none" fill="#00b5be"/>
      </g>
      <g id="Group_1373" data-name="Group 1373" transform="translate(819 3561.288)">
        <text id="물류" transform="translate(32.16 90.722)" fill="#033d61" font-size="16" font-family="Roboto-Regular, Roboto"><tspan x="-13.84" y="0">物流</tspan></text>
        <g id="XMLID_677_" transform="translate(-0.869 -45.37)">
          <g id="XMLID_509_" transform="translate(0 54)">
            <path id="XMLID_535_" d="M66.672,83.639H64.435L60.757,72.851a1.328,1.328,0,0,0-1.257-.9H47.813V65.842a1.328,1.328,0,0,0-1.328-1.328H40.109V60.641A6.648,6.648,0,0,0,33.469,54H14.344A6.648,6.648,0,0,0,7.7,60.641v3.874H1.328A1.328,1.328,0,0,0,0,65.842v34a1.328,1.328,0,0,0,1.328,1.328H7.2a7.1,7.1,0,0,0,14.154,0h7.383a1.328,1.328,0,1,0,0-2.656H21.084A7.13,7.13,0,0,0,18.437,94.8H45.156v3.719H40.69a1.328,1.328,0,0,0,0,2.656h6.725a7.1,7.1,0,0,0,14.154,0h5.1A1.328,1.328,0,0,0,68,99.842V84.967A1.328,1.328,0,0,0,66.672,83.639Zm-1.328,5.844H62.156V86.3h3.187ZM58.55,74.608l3.079,9.031H47.813V74.608ZM27.892,56.656v6.451l-3.211-2.3a1.328,1.328,0,0,0-1.548,0l-3.211,2.3V56.656ZM10.359,60.641a3.989,3.989,0,0,1,3.984-3.984h2.924v9.037a1.328,1.328,0,0,0,2.1,1.079l4.539-3.253,4.539,3.253a1.328,1.328,0,0,0,2.1-1.079V56.656h2.92a3.989,3.989,0,0,1,3.984,3.984V79.766a3.989,3.989,0,0,1-3.984,3.984H14.344a3.989,3.989,0,0,1-3.984-3.984ZM14.277,105a4.449,4.449,0,1,1,4.449-4.449A4.454,4.454,0,0,1,14.277,105ZM7.471,98.514H2.656V94.8h7.461A7.131,7.131,0,0,0,7.471,98.514ZM2.656,92.139V67.171H7.7v12.6a6.648,6.648,0,0,0,6.641,6.641H33.469a6.648,6.648,0,0,0,6.641-6.641v-12.6h5.047V92.139ZM54.492,105a4.449,4.449,0,1,1,4.449-4.449A4.454,4.454,0,0,1,54.492,105ZM61.3,98.514a7.1,7.1,0,0,0-13.486-.387V86.3H59.5v4.516a1.328,1.328,0,0,0,1.328,1.328h4.516v6.375Z" transform="translate(0 -54)" fill="#033d61"/>
            <path id="XMLID_1762_" d="M207.7,232.331h4.206a1.33,1.33,0,1,0,0-2.659H207.7a1.33,1.33,0,1,0,0,2.659Z" transform="translate(-178.966 -206.342)" fill="#033d61"/>
            <path id="XMLID_1763_" d="M252.7,389.17a1.33,1.33,0,1,0,.94.39A1.334,1.334,0,0,0,252.7,389.17Z" transform="translate(-217.987 -344.666)" fill="#033d61"/>
          </g>
        </g>
      </g>
    </g>
    <g id="Group_1403" data-name="Group 1403" transform="translate(-679.5 -3321)">
      <g id="Polygon_15-7" data-name="Polygon 15" transform="translate(768.5 3536)" fill="#fff">
        <path d="M 125.4236450195312 144 L 42.57635879516602 144 L 1.155668258666992 72.5 L 42.57637786865234 1 L 125.4236450195312 1 L 166.8443298339844 72.5 L 125.4236450195312 144 Z" stroke="none"/>
        <path d="M 43.15277862548828 2 L 2.311370849609375 72.5 L 43.15275573730469 143 L 124.8472442626953 143 L 165.6886291503906 72.5 L 124.8472442626953 2 L 43.15277862548828 2 M 42.00002288818359 0 L 126 0 L 168 72.5 L 126 145 L 42 145 L 0 72.5 L 42.00002288818359 0 Z" stroke="none" fill="#00b5be"/>
      </g>
      <g id="Group_1374" data-name="Group 1374" transform="translate(819 3557.288)">
        <text id="리조트" transform="translate(34 90.722)" fill="#033d61" font-size="16" font-family="Roboto-Regular, Roboto"><tspan x="-20.76" y="0">度假村</tspan></text>
        <g id="_002-sun-bath" data-name="002-sun-bath" transform="translate(-1 -25.318)">
          <g id="Group_1330" data-name="Group 1330" transform="translate(0 31.347)">
            <g id="Group_1329" data-name="Group 1329">
              <path id="Path_8065" data-name="Path 8065" d="M56.5,265.473V258.41H59.33A1.413,1.413,0,0,0,60.742,257v-5.65a1.409,1.409,0,0,0-.476-1.058l8.538-8.538a1.413,1.413,0,0,0,0-2l-4.238-4.238a1.412,1.412,0,0,0-1-.414h-.006a1.413,1.413,0,0,0-1,.423l-2.851,2.9L57.5,236.222a1.413,1.413,0,0,0-2,0L46.031,245.7H41.672a1.413,1.413,0,0,0-1.413,1.413v2.825H23.308v-2.119a2.8,2.8,0,0,0-.382-1.413,2.8,2.8,0,0,0,.382-1.413v-2.119a2.828,2.828,0,0,0-2.825-2.825H9.182a2.828,2.828,0,0,0-2.825,2.825v2.119a2.8,2.8,0,0,0,.382,1.413,2.8,2.8,0,0,0-.382,1.413v2.119H1.413A1.413,1.413,0,0,0,0,251.347V257a1.413,1.413,0,0,0,1.413,1.413H4.238v7.063H0V268.3H69.218v-2.825Zm-13.42-16.951h3.531a1.413,1.413,0,0,0,1-.414l8.889-8.889,1.226,1.226-9.305,9.49h-5.34v-1.413Zm-33.9-5.65h11.3v2.119H9.182Zm0,4.944h11.3v2.119H9.182Zm-.706,17.658H7.063V258.41H8.476Zm40.966,0H11.3V258.41h38.14v7.063Zm4.238,0H52.267V258.41h1.413Zm-2.825-9.888H2.825V252.76H49.018a1.413,1.413,0,0,0,1.009-.424l10.707-10.919,2.843-2.9,2.231,2.231-9.182,9.182H53.679v2.825h4.238v2.825H50.854Z" transform="translate(0 -207.556)" fill="#033d61"/>
              <path id="Path_8066" data-name="Path 8066" d="M306.823,43.91l-1.977,1.977,2,2,1.977-1.977a6.319,6.319,0,0,0,1.969.818v2.985h2.825V46.726a6.319,6.319,0,0,0,1.969-.818l1.977,1.977,2-2-1.977-1.977a6.322,6.322,0,0,0,.818-1.969h2.985V39.116H318.4a6.318,6.318,0,0,0-.818-1.969l1.977-1.977-2-2-1.977,1.977a6.316,6.316,0,0,0-1.969-.818V31.347h-2.825v2.985a6.319,6.319,0,0,0-1.969.818l-1.977-1.977-2,2,1.977,1.977a6.323,6.323,0,0,0-.818,1.969H303.02v2.825h2.985A6.322,6.322,0,0,0,306.823,43.91ZM312.2,37a3.531,3.531,0,1,1-3.531,3.531A3.536,3.536,0,0,1,312.2,37Z" transform="translate(-262.054 -31.347)" fill="#033d61"/>
              <path id="Path_8067" data-name="Path 8067" d="M77.381,102.09a1.414,1.414,0,0,1,1.413,1.413h2.825a1.413,1.413,0,1,1,2.825,0h2.825a4.235,4.235,0,0,0-7.063-3.155,4.235,4.235,0,0,0-7.063,3.155h2.825A1.414,1.414,0,0,1,77.381,102.09Z" transform="translate(-63.255 -90.083)" fill="#033d61"/>
              <path id="Path_8068" data-name="Path 8068" d="M135.837,155.748h2.825a1.413,1.413,0,0,1,2.825,0h2.825a1.413,1.413,0,0,1,2.825,0h2.825a4.235,4.235,0,0,0-7.063-3.155,4.235,4.235,0,0,0-7.063,3.155Z" transform="translate(-117.473 -135.265)" fill="#033d61"/>
            </g>
          </g>
        </g>
      </g>
    </g>
    <g id="Group_1404" data-name="Group 1404" transform="translate(-137.5 -3321)">
      <g id="Polygon_15-8" data-name="Polygon 15" transform="translate(768.5 3536)" fill="#fff">
        <path d="M 125.4236450195312 144 L 42.57635879516602 144 L 1.155668258666992 72.5 L 42.57637786865234 1 L 125.4236450195312 1 L 166.8443298339844 72.5 L 125.4236450195312 144 Z" stroke="none"/>
        <path d="M 43.15277862548828 2 L 2.311370849609375 72.5 L 43.15275573730469 143 L 124.8472442626953 143 L 165.6886291503906 72.5 L 124.8472442626953 2 L 43.15277862548828 2 M 42.00002288818359 0 L 126 0 L 168 72.5 L 126 145 L 42 145 L 0 72.5 L 42.00002288818359 0 Z" stroke="none" fill="#00b5be"/>
      </g>
      <g id="Group_1276" data-name="Group 1276" transform="translate(819.527 3566.288)">
        <text id="음원" transform="translate(33.473 90.722)" fill="#033d61" font-size="16" font-family="Roboto-Regular, Roboto"><tspan x="-13.84" y="0">音源</tspan></text>
        <g id="XMLID_1123_" transform="translate(-1.527 -0.407)">
          <g id="XMLID_89_" transform="translate(0 0)">
            <path id="XMLID_1118_" d="M31.59,243.783a1.348,1.348,0,0,0-.37.052h0l-3.877,1.105a1.35,1.35,0,1,0,.74,2.6l2.157-.615V251.7L13.5,256.475v-4.782l2.9-.826a1.35,1.35,0,0,0-.74-2.6l-3.878,1.105h0a1.35,1.35,0,0,0-.98,1.3v17.172a6.747,6.747,0,1,0,2.7,5.4v-13.96l16.74-4.772V262.3a6.747,6.747,0,1,0,2.7,5.4V245.133a1.35,1.35,0,0,0-1.35-1.35ZM6.75,277.292a4.05,4.05,0,1,1,4.05-4.05A4.055,4.055,0,0,1,6.75,277.292Zm19.44-5.541a4.05,4.05,0,1,1,4.05-4.05A4.055,4.055,0,0,1,26.19,271.751Z" transform="translate(0 -210.873)" fill="#033d61"/>
            <path id="XMLID_2013_" d="M334.648.272a1.351,1.351,0,0,0-1.186-.219L319.368,4.116a1.35,1.35,0,0,0-.976,1.3V22.584a6.747,6.747,0,1,0,2.7,5.4V14.018l13.119-3.781a1.35,1.35,0,0,0,.976-1.3V1.351a1.35,1.35,0,0,0-.538-1.079ZM314.342,32.031a4.05,4.05,0,1,1,4.05-4.05A4.055,4.055,0,0,1,314.342,32.031ZM332.487,7.924l-11.395,3.284V6.429l11.395-3.284Z" transform="translate(-266.068 -0.001)" fill="#033d61"/>
            <path id="XMLID_2027_" d="M327.773,300.022l-6.519-.947-2.915-5.907a1.35,1.35,0,0,0-2.421,0L313,299.074l-6.519.947a1.35,1.35,0,0,0-.748,2.3l4.717,4.6-1.114,6.492a1.35,1.35,0,0,0,1.959,1.423l5.831-3.065,5.831,3.065a1.35,1.35,0,0,0,1.959-1.423l-1.114-6.492,4.717-4.6a1.35,1.35,0,0,0-.748-2.3Zm-6.362,5.463a1.349,1.349,0,0,0-.388,1.195l.771,4.5-4.038-2.123a1.35,1.35,0,0,0-1.256,0l-4.038,2.123.771-4.5a1.349,1.349,0,0,0-.388-1.195l-3.266-3.184,4.514-.656a1.35,1.35,0,0,0,1.016-.738l2.019-4.091,2.019,4.091a1.35,1.35,0,0,0,1.016.738l4.514.656Z" transform="translate(-264.109 -252.939)" fill="#033d61"/>
            <path id="XMLID_2031_" d="M5.752,12.245l-.894,5.21a1.35,1.35,0,0,0,1.959,1.423l4.679-2.46,4.679,2.46a1.35,1.35,0,0,0,1.959-1.423l-.894-5.21,3.785-3.69a1.35,1.35,0,0,0-.748-2.3l-5.231-.76L12.707.752a1.35,1.35,0,0,0-2.421,0L7.946,5.493l-5.231.76a1.35,1.35,0,0,0-.748,2.3ZM9.037,8.062a1.35,1.35,0,0,0,1.016-.738L11.5,4.4l1.443,2.924a1.35,1.35,0,0,0,1.016.738l3.226.469-2.334,2.276a1.35,1.35,0,0,0-.388,1.2l.551,3.213L12.124,13.7a1.349,1.349,0,0,0-1.256,0L7.982,15.216,8.533,12a1.35,1.35,0,0,0-.388-1.2L5.81,8.531Z" transform="translate(-1.349 0)" fill="#033d61"/>
            <path id="XMLID_2032_" d="M225.35,86.306a1.35,1.35,0,0,0-1.35,1.35v1.35a1.35,1.35,0,0,0,2.7,0v-1.35A1.35,1.35,0,0,0,225.35,86.306Z" transform="translate(-193.76 -74.655)" fill="#033d61"/>
            <path id="XMLID_2033_" d="M225.35,156.306a1.35,1.35,0,0,0-1.35,1.35v1.35a1.35,1.35,0,0,0,2.7,0v-1.35A1.35,1.35,0,0,0,225.35,156.306Z" transform="translate(-193.76 -135.205)" fill="#033d61"/>
            <path id="XMLID_2036_" d="M256.7,126.306h-1.35a1.35,1.35,0,1,0,0,2.7h1.35a1.35,1.35,0,0,0,0-2.7Z" transform="translate(-219.71 -109.255)" fill="#033d61"/>
            <path id="XMLID_2038_" d="M185.35,129.006h1.35a1.35,1.35,0,1,0,0-2.7h-1.35a1.35,1.35,0,0,0,0,2.7Z" transform="translate(-159.16 -109.255)" fill="#033d61"/>
            <path id="XMLID_2039_" d="M153.35,267.01a1.35,1.35,0,1,0-.954-.4A1.36,1.36,0,0,0,153.35,267.01Z" transform="translate(-131.48 -228.629)" fill="#033d61"/>
          </g>
        </g>
      </g>
    </g>
    <g id="Group_1407" data-name="Group 1407" transform="translate(-1.5 -3243)">
      <g id="Polygon_15-9" data-name="Polygon 15" transform="translate(768.5 3536)" fill="#fff">
        <path d="M 125.4236450195312 144 L 42.57635879516602 144 L 1.155668258666992 72.5 L 42.57637786865234 1 L 125.4236450195312 1 L 166.8443298339844 72.5 L 125.4236450195312 144 Z" stroke="none"/>
        <path d="M 43.15277862548828 2 L 2.311370849609375 72.5 L 43.15275573730469 143 L 124.8472442626953 143 L 165.6886291503906 72.5 L 124.8472442626953 2 L 43.15277862548828 2 M 42.00002288818359 0 L 126 0 L 168 72.5 L 126 145 L 42 145 L 0 72.5 L 42.00002288818359 0 Z" stroke="none" fill="#00b5be"/>
      </g>
      <g id="Group_1376" data-name="Group 1376" transform="translate(819 3570.288)">
        <text id="행사" transform="translate(32.16 90.722)" fill="#033d61" font-size="16" font-family="Roboto-Regular, Roboto"><tspan x="-13.84" y="0">事件</tspan></text>
        <g id="_008-party" data-name="008-party" transform="translate(-1.001 -2.051)">
          <path id="Path_8050" data-name="Path 8050" d="M64.027,81.877q.041-.015.081-.033c.245-.112.625-.258.829-.336l.17-.066h0a4.424,4.424,0,0,0,2.786-3.275,9.244,9.244,0,0,0-.787-5.16A30.641,30.641,0,0,1,79.3,74.788a6.373,6.373,0,0,0,1.965.332,4.4,4.4,0,0,0,3.025-1.133,4.57,4.57,0,0,0,1.3-4.4,5.2,5.2,0,0,0-3.77-3.784c-3.5-1.051-10.666-3.2-18.534.66-.771-1.048-1.6-2.084-2.455-3.084L74.746,51.824q.036-.03.069-.062a2.4,2.4,0,0,0,0-3.387l-4.328-4.322a2.4,2.4,0,0,0-3.387,0c-.022.022-.043.045-.063.069l-4.246,5.1a1.009,1.009,0,0,0,1.552,1.291l4.207-5.058a.382.382,0,0,1,.51.022L73.387,49.8a.379.379,0,0,1,.022.507L59.493,61.868q-.582-.637-1.17-1.245L58.3,60.6q-.639-.617-1.312-1.23l4.287-5.154a1.009,1.009,0,1,0-1.552-1.291l-4.25,5.11c-.932-.794-1.895-1.563-2.868-2.285,4.388-7.73,2.584-15.065,1.7-18.652a5.193,5.193,0,0,0-3.589-3.954,4.574,4.574,0,0,0-4.464,1.079A4.8,4.8,0,0,0,45.2,39.161a30.782,30.782,0,0,1,1.1,12.822,9.663,9.663,0,0,0-5.554-.948,4.424,4.424,0,0,0-3.275,2.785c-.013.031-.036.091-.066.169-.078.2-.224.583-.336.828-.012.027-.023.054-.033.082l-1.278,3.592,0,.011L33.6,64.557c0,.008,0,.015-.007.023l-3.1,8.721c0,.008-.007.015-.009.022l-.941,2.649L25.288,87.9c-.78,2.2-.546,4.042.638,5.082a3.469,3.469,0,0,0,2.7,1.088,7.19,7.19,0,0,0,2.379-.453l11.908-4.234,2.674-.949.022-.009,8.724-3.1.026-.008,6.06-2.155.011,0ZM81.24,67.739a3.151,3.151,0,0,1,2.382,2.3,2.584,2.584,0,0,1-.7,2.46,2.964,2.964,0,0,1-3.005.368,32.859,32.859,0,0,0-13.728-1.825,32.412,32.412,0,0,0-1.733-2.9C71.518,64.822,78.033,66.777,81.24,67.739Zm-34.087-29.1a2.958,2.958,0,0,1,.517-2.978,2.589,2.589,0,0,1,2.5-.573,3.149,3.149,0,0,1,2.177,2.493c.812,3.3,2.464,10.019-1.4,17-.913-.614-1.828-1.174-2.728-1.661a32.618,32.618,0,0,0-1.064-14.278ZM38.922,55.615c.134-.3.284-.688.366-.9l.044-.113,0-.006a2.4,2.4,0,0,1,1.821-1.582c1.324-.275,3.216.215,5.43,1.325a1,1,0,0,0,.159.079,32.136,32.136,0,0,1,3.873,2.38,1.007,1.007,0,0,0,.115.085l.014.007a54.649,54.649,0,0,1,6.138,5.151q.9.931,1.724,1.859l.008.01c.008.01.017.019.026.028a51.162,51.162,0,0,1,3.466,4.332,1,1,0,0,0,.107.15,31.05,31.05,0,0,1,2.439,4.034.993.993,0,0,0,.089.181c1,2.082,1.437,3.86,1.175,5.122a2.4,2.4,0,0,1-1.583,1.82l-.006,0-.113.044c-.214.082-.6.232-.9.366l-2.533.9c-1.337-4.283-5.067-8.95-7.291-11.471a1.009,1.009,0,0,0-1.514,1.336c3.536,4.007,6,7.884,6.9,10.812l-4.336,1.542a46.905,46.905,0,0,0-8.008-10.7l-.026-.026a46.928,46.928,0,0,0-10.7-8l1.542-4.332c3.056.943,7.217,3.636,11.357,7.377a1.009,1.009,0,1,0,1.353-1.5c-4.366-3.945-8.673-6.72-12.033-7.781Zm6.732,30.652a55.532,55.532,0,0,0-5.865-7.119l-.026-.026a55.55,55.55,0,0,0-7.123-5.861l2.477-6.96a46.214,46.214,0,0,1,9.972,7.525,46.2,46.2,0,0,1,7.528,9.965Zm-3.373,1.2L38.7,88.737A59.524,59.524,0,0,0,34.733,84.2l-.025-.025A59.507,59.507,0,0,0,30.17,80.21l1.26-3.545.511-1.436a54.364,54.364,0,0,1,6.409,5.333,54.342,54.342,0,0,1,5.335,6.4ZM30.333,91.715c-1.373.487-2.463.452-2.915-.094a1.011,1.011,0,0,0-.135-.135c-.545-.449-.58-1.537-.092-2.91l2.262-6.355c1.3,1.048,2.587,2.186,3.841,3.4,1.21,1.253,2.348,2.54,3.4,3.838Z" transform="translate(-21.491 -26.36)" fill="#033d61"/>
          <path id="Path_8051" data-name="Path 8051" d="M382.3,10.757l2.548,1.8a1.029,1.029,0,0,1,.055.213l.544,2.946A1.509,1.509,0,0,0,386.276,17a1.158,1.158,0,0,0,.44.087,1.864,1.864,0,0,0,1.084-.453l2.361-1.818a.607.607,0,0,1,.243-.066l2.962.394a1.552,1.552,0,0,0,1.494-.44,1.515,1.515,0,0,0,.082-1.524l-1.006-2.825a.993.993,0,0,1-.056-.207L395.185,7.3a1.536,1.536,0,0,0,.075-1.531,1.53,1.53,0,0,0-1.418-.591l-3.125.061L388.475,3.07a1.563,1.563,0,0,0-1.47-.527,1.561,1.561,0,0,0-1.011,1.189v0l-.853,3L382.4,8.247a1.528,1.528,0,0,0-.929,1.22,1.539,1.539,0,0,0,.832,1.291Zm3.9-2.3a1.608,1.608,0,0,0,.864-1.112l.63-2.216,1.588,1.539.059.058a1.616,1.616,0,0,0,1.285.54h.03L393,7.218l-.965,2.1a2.182,2.182,0,0,0,0,1.709l.711,2-2.067-.275a2.509,2.509,0,0,0-1.744.463l-1.659,1.277L386.89,12.4a2.217,2.217,0,0,0-.859-1.482l-1.885-1.332Z" transform="translate(-330.128 0)" fill="#033d61"/>
          <path id="Path_8052" data-name="Path 8052" d="M275.633,14.449l2.139,1.238a1.836,1.836,0,0,0,.914.242,2.144,2.144,0,0,0,1.641-.821l3.946-4.75a1.729,1.729,0,0,0,.362-1.421,2.023,2.023,0,0,0-.977-1.379l-3.934-2.273a2.033,2.033,0,0,0-1.688-.148,1.725,1.725,0,0,0-1.041,1.018l-2.143,5.786a2,2,0,0,0,.782,2.505Zm1.11-1.8,2.06-5.561,3.76,2.172-3.792,4.565a.434.434,0,0,1-.07.069l-1.983-1.148a.434.434,0,0,1,.025-.1Z" transform="translate(-237.727 -2.181)" fill="#033d61"/>
          <path id="Path_8053" data-name="Path 8053" d="M444.275,135.488a2.346,2.346,0,0,0-1.775-.821h-5.958a2.347,2.347,0,0,0-1.775.823,1.924,1.924,0,0,0-.448,1.584l1.365,7.98a2.3,2.3,0,0,0,2.223,2.065h3.231a2.3,2.3,0,0,0,2.223-2.067l1.361-7.979A1.924,1.924,0,0,0,444.275,135.488Zm-2.9,9.224c-.032.187-.13.389-.233.389h-3.231c-.115,0-.205-.227-.233-.388l-1.357-7.931a.347.347,0,0,1,.224-.1H442.5a.349.349,0,0,1,.225.1Z" transform="translate(-375.843 -114.379)" fill="#033d61"/>
          <path id="Path_8054" data-name="Path 8054" d="M5.687,151.185a2.164,2.164,0,0,0,.554-.073l3.117-.837a2.294,2.294,0,0,0,1.616-2.572l-.752-8.063a1.926,1.926,0,0,0-.847-1.415,2.34,2.34,0,0,0-1.922-.33L1.7,139.436a2.343,2.343,0,0,0-1.5,1.251,1.923,1.923,0,0,0-.022,1.648l3.385,7.356a2.383,2.383,0,0,0,2.127,1.494Zm-3.467-9.8h0l5.756-1.542a.339.339,0,0,1,.239.034l.747,8.013c.017.188-.024.406-.126.433l-3.117.837c-.111.03-.259-.167-.328-.315L2.03,141.535a.346.346,0,0,1,.191-.148Z" transform="translate(0 -117.104)" fill="#033d61"/>
          <path id="Path_8055" data-name="Path 8055" d="M303.461,421.68l-6.085-4.309a2.193,2.193,0,0,0-2.9.108l-2.1,2.1a2.19,2.19,0,0,0-.11,2.9l4.311,6.082a1.851,1.851,0,0,0,1.381.776c.06.005.121.008.181.008a2.247,2.247,0,0,0,1.573-.651l3.88-3.878a2.239,2.239,0,0,0,.644-1.754A1.848,1.848,0,0,0,303.461,421.68Zm-1.3,1.707-3.88,3.878a.237.237,0,0,1-.113.057l-4.263-6.013a.431.431,0,0,1-.108-.3l2.1-2.1.018,0a.546.546,0,0,1,.284.116l6.013,4.258a.236.236,0,0,1-.056.112Z" transform="translate(-252.504 -358.609)" fill="#033d61"/>
          <path id="Path_8056" data-name="Path 8056" d="M37.707,11.582a.771.771,0,0,1-.067.271L36.546,14.92a1.564,1.564,0,0,0,.077,1.571,1.588,1.588,0,0,0,1.551.445l3.2-.428a.726.726,0,0,1,.33.085l2.571,1.986a1.909,1.909,0,0,0,1.11.468,1.186,1.186,0,0,0,.448-.089,1.569,1.569,0,0,0,.851-1.323l.587-3.195a.7.7,0,0,1,.083-.277l2.786-1.97A1.575,1.575,0,0,0,51,10.864a1.581,1.581,0,0,0-.966-1.247L47.032,7.959l-.938-3.288A1.616,1.616,0,0,0,45.06,3.433a1.618,1.618,0,0,0-1.517.553l-2.4,2.325-.057.056L37.658,6.3a1.58,1.58,0,0,0-1.466.6,1.57,1.57,0,0,0,.089,1.584Zm3.41-3.2a1.637,1.637,0,0,0,1.362-.559l1.894-1.835L45.1,8.535A1.657,1.657,0,0,0,46,9.693l2.35,1.3-2.155,1.524a2.291,2.291,0,0,0-.905,1.557l-.441,2.4-1.912-1.477a2.7,2.7,0,0,0-1.555-.5,2.075,2.075,0,0,0-.266.017l-2.39.32.819-2.3a2.282,2.282,0,0,0,0-1.794l-1.1-2.4Z" transform="translate(-31.159 -0.769)" fill="#033d61"/>
          <path id="Path_8057" data-name="Path 8057" d="M410.8,362.413l-3.339-.826-1.757-2.934a1.615,1.615,0,0,0-1.317-.93h0a1.621,1.621,0,0,0-1.321.926v0l-1.719,2.87-.04.067-3.342.826a1.367,1.367,0,0,0-.762,2.466l2.183,2.628a.8.8,0,0,1,0,.281l-.258,3.249a1.562,1.562,0,0,0,.474,1.5,1.6,1.6,0,0,0,1.62.034l2.986-1.245a.714.714,0,0,1,.342,0l3,1.25a2.316,2.316,0,0,0,.865.209,1.2,1.2,0,0,0,.74-.243,1.568,1.568,0,0,0,.481-1.5l-.263-3.251a.731.731,0,0,1,.006-.282l2.186-2.627a1.573,1.573,0,0,0,.492-1.5A1.59,1.59,0,0,0,410.8,362.413Zm-2.969,3.8a2.278,2.278,0,0,0-.467,1.735l.2,2.438-2.233-.93a2.623,2.623,0,0,0-1.891,0l-2.231.93.194-2.44a2.275,2.275,0,0,0-.466-1.732l-1.694-2.04,2.61-.645a1.647,1.647,0,0,0,1.176-.893l1.356-2.264,1.309,2.185.047.08a1.645,1.645,0,0,0,1.174.892l2.615.647Z" transform="translate(-343.271 -307.415)" fill="#033d61"/>
        </g>
      </g>
    </g>
    <g id="Group_1405" data-name="Group 1405" transform="translate(-409.5 -3321)">
      <g id="Polygon_15-10" data-name="Polygon 15" transform="translate(768.5 3536)" fill="#fff">
        <path d="M 125.4236450195312 144 L 42.57635879516602 144 L 1.155668258666992 72.5 L 42.57637786865234 1 L 125.4236450195312 1 L 166.8443298339844 72.5 L 125.4236450195312 144 Z" stroke="none"/>
        <path d="M 43.15277862548828 2 L 2.311370849609375 72.5 L 43.15275573730469 143 L 124.8472442626953 143 L 165.6886291503906 72.5 L 124.8472442626953 2 L 43.15277862548828 2 M 42.00002288818359 0 L 126 0 L 168 72.5 L 126 145 L 42 145 L 0 72.5 L 42.00002288818359 0 Z" stroke="none" fill="#00b5be"/>
      </g>
    </g>
    <text id="공연" transform="translate(441.66 330.01)" fill="#033d61" font-size="16" font-family="Roboto-Regular, Roboto"><tspan x="-13.84" y="0">表演</tspan></text>
    <g id="_001-movie-tickets" data-name="001-movie-tickets" transform="translate(409.5 240.551)">
      <path id="Path_8005" data-name="Path 8005" d="M122.7,199.8a1.481,1.481,0,1,0-1.047-.434A1.491,1.491,0,0,0,122.7,199.8Zm0,0" transform="translate(-105.194 -170.815)" fill="#033d61"/>
      <path id="Path_8006" data-name="Path 8006" d="M259.919,201.1a1.483,1.483,0,1,0,.433,1.047A1.494,1.494,0,0,0,259.919,201.1Zm0,0" transform="translate(-223.365 -174.138)" fill="#033d61"/>
      <path id="Path_8007" data-name="Path 8007" d="M293.872,168.625a1.481,1.481,0,1,0-1.048-.434A1.491,1.491,0,0,0,293.872,168.625Zm0,0" transform="translate(-253.738 -143.764)" fill="#033d61"/>
      <path id="Path_8008" data-name="Path 8008" d="M64.016,32.671H60.31l6.523-6.523a3.985,3.985,0,0,0,0-5.635L60.916,14.6a1.329,1.329,0,0,0-1.878,0A3.984,3.984,0,0,1,53.4,8.962a1.328,1.328,0,0,0,0-1.878L47.487,1.167a3.984,3.984,0,0,0-5.635,0L19.917,23.1A1.328,1.328,0,0,0,21.8,24.981L43.731,3.045a1.328,1.328,0,0,1,1.878,0L50.68,8.116a6.643,6.643,0,0,0,9.2,9.2l5.071,5.071a1.33,1.33,0,0,1,0,1.878l-8.4,8.4H50.731l4.364-4.364a1.329,1.329,0,0,0,0-1.878L41.571,12.906a1.328,1.328,0,0,0-1.879,0L19.927,32.671H3.984A3.989,3.989,0,0,0,0,36.656v8.367a1.328,1.328,0,0,0,1.328,1.328,3.984,3.984,0,1,1,0,7.969A1.328,1.328,0,0,0,0,55.648v8.367A3.989,3.989,0,0,0,3.984,68H64.016A3.989,3.989,0,0,0,68,64.015V55.648a1.328,1.328,0,0,0-1.328-1.328,3.984,3.984,0,1,1,0-7.969A1.328,1.328,0,0,0,68,45.023V36.656A3.989,3.989,0,0,0,64.016,32.671ZM40.631,15.723,52.277,27.369l-5.3,5.3H41.715l3.894-3.894A1.328,1.328,0,0,0,43.731,26.9l-5.772,5.772H23.684Zm24.712,28.1a6.642,6.642,0,0,0,0,13.015v7.172a1.33,1.33,0,0,1-1.328,1.328H3.984a1.33,1.33,0,0,1-1.328-1.328V56.843a6.642,6.642,0,0,0,0-13.015V36.656a1.329,1.329,0,0,1,1.328-1.328H64.016a1.329,1.329,0,0,1,1.328,1.328Zm0,0" fill="#033d61"/>
      <path id="Path_8009" data-name="Path 8009" d="M199.027,347.523a1.48,1.48,0,1,0-1.047.434A1.493,1.493,0,0,0,199.027,347.523Zm0,0" transform="translate(-170.524 -299.39)" fill="#033d61"/>
      <path id="Path_8010" data-name="Path 8010" d="M298.027,347.523a1.48,1.48,0,1,0-1.047.434A1.493,1.493,0,0,0,298.027,347.523Zm0,0" transform="translate(-256.437 -299.39)" fill="#033d61"/>
      <path id="Path_8011" data-name="Path 8011" d="M248.527,347.523a1.48,1.48,0,1,0-1.047.434A1.493,1.493,0,0,0,248.527,347.523Zm0,0" transform="translate(-213.48 -299.39)" fill="#033d61"/>
      <path id="Path_8012" data-name="Path 8012" d="M148.48,347.957a1.481,1.481,0,1,0-1.047-.434A1.492,1.492,0,0,0,148.48,347.957Zm0,0" transform="translate(-127.568 -299.39)" fill="#033d61"/>
      <path id="Path_8013" data-name="Path 8013" d="M347.527,347.523a1.48,1.48,0,1,0-1.047.434A1.493,1.493,0,0,0,347.527,347.523Zm0,0" transform="translate(-299.393 -299.39)" fill="#033d61"/>
      <path id="Path_8014" data-name="Path 8014" d="M148.48,395.957h29.312a1.48,1.48,0,0,0,0-2.961H148.48a1.48,1.48,0,0,0,0,2.961Zm0,0" transform="translate(-129.136 -341.045)" fill="#033d61"/>
      <path id="Path_8015" data-name="Path 8015" d="M184.8,441a1.481,1.481,0,1,0,1.047.434A1.492,1.492,0,0,0,184.8,441Zm0,0" transform="translate(-159.087 -383.507)" fill="#033d61"/>
      <path id="Path_8016" data-name="Path 8016" d="M132.929,297H95.24a1.376,1.376,0,0,0-1.24,1.48v21.318a1.376,1.376,0,0,0,1.24,1.48H100.4a1.5,1.5,0,0,0,0-2.961H96.48V299.957h35.21v18.357H111.562a1.5,1.5,0,0,0,0,2.961h21.367a1.376,1.376,0,0,0,1.24-1.48V298.477A1.376,1.376,0,0,0,132.929,297Zm0,0" transform="translate(-80.084 -260.825)" fill="#033d61"/>
    </g>
  </g>
</svg>
