<svg xmlns="http://www.w3.org/2000/svg" xmlns:xlink="http://www.w3.org/1999/xlink" width="1029" height="597" viewBox="0 0 1029 597">
  <defs>
    <filter id="Rectangle_1703" x="839" y="36" width="190" height="541" filterUnits="userSpaceOnUse">
      <feOffset dy="3" input="SourceAlpha"/>
      <feGaussianBlur stdDeviation="10" result="blur"/>
      <feFlood flood-opacity="0.161"/>
      <feComposite operator="in" in2="blur"/>
      <feComposite in="SourceGraphic"/>
    </filter>
    <filter id="Rectangle_1704" x="428" y="0" width="272" height="226" filterUnits="userSpaceOnUse">
      <feOffset dy="3" input="SourceAlpha"/>
      <feGaussianBlur stdDeviation="10" result="blur-2"/>
      <feFlood flood-opacity="0.161"/>
      <feComposite operator="in" in2="blur-2"/>
      <feComposite in="SourceGraphic"/>
    </filter>
    <filter id="Ellipse_122" x="456" y="381" width="217" height="216" filterUnits="userSpaceOnUse">
      <feOffset dy="3" input="SourceAlpha"/>
      <feGaussianBlur stdDeviation="10" result="blur-3"/>
      <feFlood flood-opacity="0.161"/>
      <feComposite operator="in" in2="blur-3"/>
      <feComposite in="SourceGraphic"/>
    </filter>
    <filter id="Ellipse_123" x="40" y="325" width="217" height="217" filterUnits="userSpaceOnUse">
      <feOffset dy="3" input="SourceAlpha"/>
      <feGaussianBlur stdDeviation="10" result="blur-4"/>
      <feFlood flood-opacity="0.161"/>
      <feComposite operator="in" in2="blur-4"/>
      <feComposite in="SourceGraphic"/>
    </filter>
    <filter id="Ellipse_123-2" x="40" y="55" width="217" height="217" filterUnits="userSpaceOnUse">
      <feOffset dy="3" input="SourceAlpha"/>
      <feGaussianBlur stdDeviation="10" result="blur-5"/>
      <feFlood flood-opacity="0.161"/>
      <feComposite operator="in" in2="blur-5"/>
      <feComposite in="SourceGraphic"/>
    </filter>
    <filter id="Rectangle_1705" x="0" y="0" width="296" height="597" filterUnits="userSpaceOnUse">
      <feOffset dy="3" input="SourceAlpha"/>
      <feGaussianBlur stdDeviation="10" result="blur-6"/>
      <feFlood flood-opacity="0.161"/>
      <feComposite operator="in" in2="blur-6"/>
      <feComposite in="SourceGraphic"/>
    </filter>
  </defs>
  <g id="Group_1518" data-name="Group 1518" transform="translate(-394 -3171)">
    <g id="Group_1454" data-name="Group 1454" transform="translate(-671.5 2588)">
      <line id="Line_24" data-name="Line 24" x2="185.01" transform="translate(1736.5 687.5)" fill="none" stroke="#033d61" stroke-width="1"/>
      <g id="Polygon_1" data-name="Polygon 1" transform="translate(1928.51 683.5) rotate(90)" fill="#033d61">
        <path d="M 7.138411045074463 6.5 L 0.8615883588790894 6.5 L 3.999999761581421 1.007779955863953 L 7.138411045074463 6.5 Z" stroke="none"/>
        <path d="M 3.999999761581421 2.015560150146484 L 1.723176956176758 6 L 6.276822566986084 6 L 3.999999761581421 2.015560150146484 M 3.999999761581421 0 L 8 7 L -4.76837158203125e-07 7 L 3.999999761581421 0 Z" stroke="none" fill="#033d61"/>
      </g>
    </g>
    <g id="Group_1455" data-name="Group 1455" transform="translate(-659.5 2602.5)">
      <line id="Line_24-2" data-name="Line 24" x2="186.018" transform="translate(1736.5 687.5)" fill="none" stroke="#00b5be" stroke-width="1"/>
      <g id="Polygon_2" data-name="Polygon 2" transform="translate(1729.5 691.5) rotate(-90)" fill="#00b5be">
        <path d="M 7.138411045074463 6.5 L 0.8615883588790894 6.5 L 3.999999761581421 1.007779955863953 L 7.138411045074463 6.5 Z" stroke="none"/>
        <path d="M 3.999999761581421 2.015560150146484 L 1.723176956176758 6 L 6.276822566986084 6 L 3.999999761581421 2.015560150146484 M 3.999999761581421 0 L 8 7 L -4.76837158203125e-07 7 L 3.999999761581421 0 Z" stroke="none" fill="#00b5be"/>
      </g>
    </g>
    <text id="Settlement_Adverstising" data-name="Settlement / Adverstising" transform="translate(1156.859 3262.551)" fill="#033d61" font-size="14" font-family="Roboto-Regular, Roboto"><tspan x="-78.815" y="0">Settlement / Adverstising</tspan></text>
    <text id="Premium" transform="translate(1167 3312)" fill="#00b5be" font-size="14" font-family="Roboto-Regular, Roboto"><tspan x="-28.256" y="0">Premium</tspan></text>
    <g id="Group_1456" data-name="Group 1456" transform="translate(-1059.5 2588)">
      <line id="Line_24-3" data-name="Line 24" x2="173.794" transform="translate(1736.887 687.5)" fill="none" stroke="#033d61" stroke-width="1"/>
      <g id="Polygon_2-2" data-name="Polygon 2" transform="translate(1729.5 691.5) rotate(-90)" fill="#033d61">
        <path d="M 7.160679340362549 6.88734245300293 L 0.8393202424049377 6.88734245300293 L 3.999999761581421 1.050089120864868 L 7.160679340362549 6.88734245300293 Z" stroke="none"/>
        <path d="M 3.999999761581421 2.100203990936279 L 1.678656101226807 6.38734245300293 L 6.321343421936035 6.38734245300293 L 3.999999761581421 2.100203990936279 M 3.999999761581421 2.86102294921875e-06 L 8 7.38734245300293 L -4.76837158203125e-07 7.38734245300293 L 3.999999761581421 2.86102294921875e-06 Z" stroke="none" fill="#033d61"/>
      </g>
    </g>
    <g id="Group_1457" data-name="Group 1457" transform="translate(-1076.5 2602.5)">
      <line id="Line_24-4" data-name="Line 24" x2="177.374" transform="translate(1736.5 687.5)" fill="none" stroke="#033d61" stroke-width="1"/>
      <g id="Polygon_1-2" data-name="Polygon 1" transform="translate(1921.36 683.5) rotate(90)" fill="#033d61">
        <path d="M 7.165931701660156 6.985940933227539 L 0.8340680003166199 6.985940933227539 L 3.999999761581421 1.060947060585022 L 7.165931701660156 6.985940933227539 Z" stroke="none"/>
        <path d="M 3.999999761581421 2.121912002563477 L 1.668146133422852 6.485940933227539 L 6.33185338973999 6.485940933227539 L 3.999999761581421 2.121912002563477 M 3.999999761581421 9.5367431640625e-07 L 8 7.485940933227539 L -4.76837158203125e-07 7.485940933227539 L 3.999999761581421 9.5367431640625e-07 Z" stroke="none" fill="#033d61"/>
      </g>
    </g>
    <text id="Reward_Discount" data-name="Reward / Discount" transform="translate(760 3262.551)" fill="#033d61" font-size="14" font-family="Roboto-Regular, Roboto"><tspan x="-57.251" y="0">Reward / Discount</tspan></text>
    <text id="Payment_Staking" data-name="Payment / Staking" transform="translate(752 3313)" fill="#033d61" font-size="14" font-family="Roboto-Regular, Roboto"><tspan x="-57.073" y="0">Payment / Staking</tspan></text>
    <g id="Group_1458" data-name="Group 1458" transform="translate(3000.506 4344.5) rotate(180)">
      <line id="Line_24-5" data-name="Line 24" x2="212.65" transform="translate(1736.5 687.5)" fill="none" stroke="#00b5be" stroke-width="1"/>
      <g id="Polygon_1-3" data-name="Polygon 1" transform="translate(1956.506 683.5) rotate(90)" fill="#00b5be">
        <path d="M 7.158962726593018 6.855921268463135 L 0.841036856174469 6.855921268463135 L 3.999999761581421 1.046651721000671 L 7.158962726593018 6.855921268463135 Z" stroke="none"/>
        <path d="M 3.999999761581421 2.093283653259277 L 1.682064056396484 6.355921268463135 L 6.317935466766357 6.355921268463135 L 3.999999761581421 2.093283653259277 M 3.999999761581421 1.430511474609375e-06 L 8 7.355921268463135 L -4.76837158203125e-07 7.355921268463135 L 3.999999761581421 1.430511474609375e-06 Z" stroke="none" fill="#00b5be"/>
      </g>
    </g>
    <text id="Strategic_Investment_Transaction" data-name="Strategic Investment / Transaction" transform="translate(1151 3644.551)" fill="#00b5be" font-size="14" font-family="Roboto-Regular, Roboto"><tspan x="-107.164" y="0">Strategic Investment / Transaction</tspan></text>
    <g id="Group_1459" data-name="Group 1459" transform="translate(-1075.5 2966)">
      <line id="Line_24-6" data-name="Line 24" x2="201.172" transform="translate(1736.5 687.5)" fill="none" stroke="#033d61" stroke-width="1"/>
      <g id="Polygon_1-4" data-name="Polygon 1" transform="translate(1944.672 683.5) rotate(90)" fill="#033d61">
        <path d="M 7.138411045074463 6.5 L 0.8615883588790894 6.5 L 3.999999761581421 1.007779955863953 L 7.138411045074463 6.5 Z" stroke="none"/>
        <path d="M 3.999999761581421 2.015560150146484 L 1.723176956176758 6 L 6.276822566986084 6 L 3.999999761581421 2.015560150146484 M 3.999999761581421 0 L 8 7 L -4.76837158203125e-07 7 L 3.999999761581421 0 Z" stroke="none" fill="#033d61"/>
      </g>
    </g>
    <g id="Group_1460" data-name="Group 1460" transform="translate(-1059.5 2979)">
      <line id="Line_24-7" data-name="Line 24" x2="204.157" transform="translate(1736.5 687.5)" fill="none" stroke="#00b5be" stroke-width="1"/>
      <g id="Polygon_2-3" data-name="Polygon 2" transform="translate(1729.5 691.5) rotate(-90)" fill="#00b5be">
        <path d="M 7.138411045074463 6.5 L 0.8615883588790894 6.5 L 3.999999761581421 1.007779955863953 L 7.138411045074463 6.5 Z" stroke="none"/>
        <path d="M 3.999999761581421 2.015560150146484 L 1.723176956176758 6 L 6.276822566986084 6 L 3.999999761581421 2.015560150146484 M 3.999999761581421 0 L 8 7 L -4.76837158203125e-07 7 L 3.999999761581421 0 Z" stroke="none" fill="#00b5be"/>
      </g>
    </g>
    <text id="Intermediary_Supply" data-name="Intermediary / Supply" transform="translate(765 3640.551)" fill="#033d61" font-size="14" font-family="Roboto-Regular, Roboto"><tspan x="-66.397" y="0">Intermediary / Supply</tspan></text>
    <text id="Investment_Transaction" data-name="Investment / Transaction" transform="translate(776 3689.551)" fill="#00b5be" font-size="14" font-family="Roboto-Regular, Roboto"><tspan x="-77.667" y="0">Investment / Transaction</tspan></text>
    <g transform="matrix(1, 0, 0, 1, 394, 3171)" filter="url(#Rectangle_1703)">
      <g id="Rectangle_1703-2" data-name="Rectangle 1703" transform="translate(869 63)" fill="#fff" stroke="#00b5be" stroke-width="1">
        <rect width="130" height="481" rx="15" stroke="none"/>
        <rect x="0.5" y="0.5" width="129" height="480" rx="14.5" fill="none"/>
      </g>
    </g>
    <g id="Group_1461" data-name="Group 1461" transform="translate(1295.631 3565.942)">
      <text id="Alliance" transform="translate(32.369 90.712)" fill="#033d61" font-size="16" font-family="Roboto-Regular, Roboto"><tspan x="-28.234" y="0">Alliance</tspan></text>
    </g>
    <g transform="matrix(1, 0, 0, 1, 394, 3171)" filter="url(#Rectangle_1704)">
      <rect id="Rectangle_1704-2" data-name="Rectangle 1704" width="212" height="166" rx="15" transform="translate(458 27)" fill="#033d61"/>
    </g>
    <g id="Group_1463" data-name="Group 1463" transform="translate(239 3221)">
      <g transform="matrix(1, 0, 0, 1, 155, -50)" filter="url(#Ellipse_122)">
        <g id="Ellipse_122-2" data-name="Ellipse 122" transform="translate(486 408)" fill="#fff" stroke="#00b5be" stroke-width="1">
          <ellipse cx="78.5" cy="78" rx="78.5" ry="78" stroke="none"/>
          <ellipse cx="78.5" cy="78" rx="78" ry="77.5" fill="none"/>
        </g>
      </g>
      <g id="Group_1025" data-name="Group 1025" transform="translate(686.792 389)">
        <g id="museum" transform="translate(-0.792 0)">
          <path id="Path_7231" data-name="Path 7231" d="M247.347,120.693a1.347,1.347,0,1,0-.952-.395A1.357,1.357,0,0,0,247.347,120.693Zm0,0" transform="translate(-213.347 -102.337)" fill="#00b5be"/>
          <path id="Path_7232" data-name="Path 7232" d="M66.672,60.03H65.078V56.046a1.328,1.328,0,0,0-1.328-1.328h-.8v-2.1a3.48,3.48,0,0,0-2.125-3.2V44.934a1.328,1.328,0,0,0-2.656,0V49.14H55.516V30.28h2.656v4.3a1.328,1.328,0,0,0,2.656,0v-4.57a3.481,3.481,0,0,0,2.125-3.2V24.7h.8a1.328,1.328,0,0,0,1.328-1.328V18.327h.133a1.328,1.328,0,0,0,.6-2.515L34.6.14A1.328,1.328,0,0,0,33.4.14L2.193,15.812a1.328,1.328,0,0,0,.6,2.515h.133v5.047A1.328,1.328,0,0,0,4.25,24.7h.8v2.1a3.48,3.48,0,0,0,2.125,3.2V49.413a3.48,3.48,0,0,0-2.125,3.2v2.1h-.8a1.328,1.328,0,0,0-1.328,1.328V60.03H1.328A1.328,1.328,0,0,0,0,61.358v5.313A1.328,1.328,0,0,0,1.328,68H66.672A1.328,1.328,0,0,0,68,66.671V61.358a1.328,1.328,0,0,0-1.328-1.328ZM59.478,51.8a.82.82,0,0,1,.819.819v2.1H53.391v-2.1a.82.82,0,0,1,.819-.819ZM47.724,54.718v-2.1a3.481,3.481,0,0,0-2.125-3.2V30.008a3.481,3.481,0,0,0,2.125-3.2V24.7h3.011v2.1a3.48,3.48,0,0,0,2.125,3.2V49.413a3.48,3.48,0,0,0-2.125,3.2v2.1Zm-15.229,0v-2.1a3.481,3.481,0,0,0-2.125-3.2V30.008a3.482,3.482,0,0,0,2.125-3.2V24.7h3.011v2.1a3.48,3.48,0,0,0,2.125,3.2V49.413a3.48,3.48,0,0,0-2.125,3.2v2.1Zm-15.229,0v-2.1a3.48,3.48,0,0,0-2.125-3.2V30.008a3.481,3.481,0,0,0,2.125-3.2V24.7h3.011v2.1a3.48,3.48,0,0,0,2.125,3.2V49.413a3.48,3.48,0,0,0-2.125,3.2v2.1ZM9.828,30.28h2.656V49.14H9.828Zm15.229,0h2.656V49.14H25.057ZM29.839,26.8a.82.82,0,0,1-.819.819H23.751a.82.82,0,0,1-.819-.819V24.7h6.906v2.1Zm-6.906,25.81a.82.82,0,0,1,.819-.819H29.02a.82.82,0,0,1,.819.819v2.1H22.932ZM40.286,30.28h2.656V49.14H40.286ZM45.068,26.8a.82.82,0,0,1-.819.819H38.98a.82.82,0,0,1-.819-.819V24.7h6.906Zm-6.906,25.81a.82.82,0,0,1,.819-.819h5.268a.82.82,0,0,1,.819.819v2.1H38.162v-2.1ZM60.3,26.8a.82.82,0,0,1-.819.819H54.209a.82.82,0,0,1-.819-.819V24.7H60.3ZM27.4,18.327a1.328,1.328,0,1,0,0-2.656H8.394L34,2.814,59.606,15.671H41.039a1.328,1.328,0,0,0,0,2.656H62.422v3.719H5.578V18.327ZM14.609,24.7v2.1a.82.82,0,0,1-.819.819H8.522A.82.82,0,0,1,7.7,26.8V24.7ZM7.7,52.615a.82.82,0,0,1,.819-.819h5.268a.82.82,0,0,1,.819.819v2.1H7.7ZM5.578,57.374H62.422V60.03H5.578Zm59.766,7.969H2.656V62.687H65.344Zm0,0" transform="translate(0 0.001)" fill="#00b5be"/>
          <path id="Path_7233" data-name="Path 7233" d="M439.347,289a1.347,1.347,0,1,0,.952.395A1.357,1.357,0,0,0,439.347,289Zm0,0" transform="translate(-379.965 -250.639)" fill="#00b5be"/>
        </g>
        <text id="Exchange" transform="translate(33.208 90.722)" fill="#00b5be" font-size="16" font-family="Roboto-Regular, Roboto"><tspan x="-34.52" y="0">Exchange</tspan></text>
      </g>
    </g>
    <g id="Group_1464" data-name="Group 1464" transform="translate(-1059.29 2807.5)">
      <line id="Line_24-8" data-name="Line 24" x2="586.21" transform="translate(1736.5 687.5)" fill="none" stroke="#00b5be" stroke-width="1"/>
      <g id="Polygon_2-4" data-name="Polygon 2" transform="translate(1729.29 691.5) rotate(-90)" fill="#00b5be">
        <path d="M 7.138411045074463 6.5 L 0.8615883588790894 6.5 L 3.999999761581421 1.007779955863953 L 7.138411045074463 6.5 Z" stroke="none"/>
        <path d="M 3.999999761581421 2.015560150146484 L 1.723176956176758 6 L 6.276822566986084 6 L 3.999999761581421 2.015560150146484 M 3.999999761581421 0 L 8 7 L -4.76837158203125e-07 7 L 3.999999761581421 0 Z" stroke="none" fill="#00b5be"/>
      </g>
    </g>
    <g id="Group_1465" data-name="Group 1465" transform="translate(-1076 2782)">
      <line id="Line_24-9" data-name="Line 24" x2="582.859" transform="translate(1736.5 687.5)" fill="none" stroke="#033d61" stroke-width="1"/>
      <g id="Polygon_1-5" data-name="Polygon 1" transform="translate(2326.359 683.5) rotate(90)" fill="#033d61">
        <path d="M 7.138411045074463 6.5 L 0.8615883588790894 6.5 L 3.999999761581421 1.007779955863953 L 7.138411045074463 6.5 Z" stroke="none"/>
        <path d="M 3.999999761581421 2.015560150146484 L 1.723176956176758 6 L 6.276822566986084 6 L 3.999999761581421 2.015560150146484 M 3.999999761581421 0 L 8 7 L -4.76837158203125e-07 7 L 3.999999761581421 0 Z" stroke="none" fill="#033d61"/>
      </g>
    </g>
    <g id="Group_1466" data-name="Group 1466" transform="translate(60 2962)">
      <g transform="matrix(1, 0, 0, 1, 334, 209)" filter="url(#Ellipse_123)">
        <g id="Ellipse_123-3" data-name="Ellipse 123" transform="translate(227 352) rotate(90)" fill="#fff" stroke="#033d61" stroke-width="1">
          <circle cx="78.5" cy="78.5" r="78.5" stroke="none"/>
          <circle cx="78.5" cy="78.5" r="78" fill="none"/>
        </g>
      </g>
      <g id="Group_1470" data-name="Group 1470" transform="translate(450.399 593.555)">
        <text id="User" transform="translate(32.6 84.55)" fill="#033d61" font-size="16" font-family="Roboto-Regular, Roboto"><tspan x="-16.258" y="0">User</tspan></text>
        <g id="user-2" data-name="user" transform="translate(7.601 9.445)">
          <g id="Group_1453" data-name="Group 1453" transform="translate(0)">
            <path id="Path_8100" data-name="Path 8100" d="M49.979,42.934a1.957,1.957,0,0,0-3.832.8,2.045,2.045,0,0,1-.415,1.714,1.988,1.988,0,0,1-1.566.744H5.94a1.989,1.989,0,0,1-1.566-.744,2.045,2.045,0,0,1-.415-1.714A21.625,21.625,0,0,1,24.534,26.608q.258.01.519.01t.521-.01a21.531,21.531,0,0,1,17.389,9.557,1.957,1.957,0,1,0,3.251-2.18A25.459,25.459,0,0,0,33.022,23.963a13.309,13.309,0,1,0-15.931,0A25.457,25.457,0,0,0,.127,42.934,5.946,5.946,0,0,0,5.94,50.105H44.166a5.946,5.946,0,0,0,5.813-7.171ZM15.658,13.309a9.395,9.395,0,1,1,9.87,9.383q-.237,0-.476,0t-.474,0A9.406,9.406,0,0,1,15.658,13.309Z" transform="translate(0)" fill="#033d61"/>
          </g>
        </g>
      </g>
    </g>
    <g id="Group_1467" data-name="Group 1467" transform="translate(60 2692)">
      <g transform="matrix(1, 0, 0, 1, 334, 479)" filter="url(#Ellipse_123-2)">
        <g id="Ellipse_123-4" data-name="Ellipse 123" transform="translate(227 82) rotate(90)" fill="#fff" stroke="#033d61" stroke-width="1">
          <circle cx="78.5" cy="78.5" r="78.5" stroke="none"/>
          <circle cx="78.5" cy="78.5" r="78" fill="none"/>
        </g>
      </g>
      <g id="Group_936" data-name="Group 936" transform="translate(450.399 593.555)">
        <text id="User-3" data-name="User" transform="translate(32.6 84.55)" fill="#033d61" font-size="16" font-family="Roboto-Regular, Roboto"><tspan x="-16.258" y="0">User</tspan></text>
        <g id="user-4" data-name="user" transform="translate(7.601 9.445)">
          <g id="Group_1453-2" data-name="Group 1453" transform="translate(0)">
            <path id="Path_8100-2" data-name="Path 8100" d="M49.979,42.934a1.957,1.957,0,0,0-3.832.8,2.045,2.045,0,0,1-.415,1.714,1.988,1.988,0,0,1-1.566.744H5.94a1.989,1.989,0,0,1-1.566-.744,2.045,2.045,0,0,1-.415-1.714A21.625,21.625,0,0,1,24.534,26.608q.258.01.519.01t.521-.01a21.531,21.531,0,0,1,17.389,9.557,1.957,1.957,0,1,0,3.251-2.18A25.459,25.459,0,0,0,33.022,23.963a13.309,13.309,0,1,0-15.931,0A25.457,25.457,0,0,0,.127,42.934,5.946,5.946,0,0,0,5.94,50.105H44.166a5.946,5.946,0,0,0,5.813-7.171ZM15.658,13.309a9.395,9.395,0,1,1,9.87,9.383q-.237,0-.476,0t-.474,0A9.406,9.406,0,0,1,15.658,13.309Z" transform="translate(0)" fill="#033d61"/>
          </g>
        </g>
      </g>
    </g>
    <g id="Group_1468" data-name="Group 1468" transform="translate(1230.5 1697.5) rotate(90)">
      <line id="Line_24-10" data-name="Line 24" x2="65" transform="translate(1736.5 687.5)" fill="none" stroke="#033d61" stroke-width="1"/>
      <g id="Polygon_1-6" data-name="Polygon 1" transform="translate(1808.5 683.5) rotate(90)" fill="#033d61">
        <path d="M 7.138411045074463 6.5 L 0.8615883588790894 6.5 L 3.999999761581421 1.007779955863953 L 7.138411045074463 6.5 Z" stroke="none"/>
        <path d="M 3.999999761581421 2.015560150146484 L 1.723176956176758 6 L 6.276822566986084 6 L 3.999999761581421 2.015560150146484 M 3.999999761581421 0 L 8 7 L -4.76837158203125e-07 7 L 3.999999761581421 0 Z" stroke="none" fill="#033d61"/>
      </g>
      <g id="Polygon_2-5" data-name="Polygon 2" transform="translate(1729.5 691.5) rotate(-90)" fill="#033d61">
        <path d="M 7.138411045074463 6.5 L 0.8615883588790894 6.5 L 3.999999761581421 1.007779955863953 L 7.138411045074463 6.5 Z" stroke="none"/>
        <path d="M 3.999999761581421 2.015560150146484 L 1.723176956176758 6 L 6.276822566986084 6 L 3.999999761581421 2.015560150146484 M 3.999999761581421 0 L 8 7 L -4.76837158203125e-07 7 L 3.999999761581421 0 Z" stroke="none" fill="#033d61"/>
      </g>
    </g>
    <g transform="matrix(1, 0, 0, 1, 394, 3171)" filter="url(#Rectangle_1705)">
      <g id="Rectangle_1705-2" data-name="Rectangle 1705" transform="translate(30 27)" fill="none" stroke="#033d61" stroke-width="1" stroke-dasharray="4">
        <rect width="236" height="537" rx="15" stroke="none"/>
        <rect x="0.5" y="0.5" width="235" height="536" rx="14.5" fill="none"/>
      </g>
    </g>
    <rect id="Rectangle_1706" data-name="Rectangle 1706" width="95" height="24" transform="translate(1072 3458)" fill="#faf9f7"/>
    <text id="Transaction" transform="translate(1120 3475)" fill="#033d61" font-size="16" font-family="Roboto-Regular, Roboto"><tspan x="-41.992" y="0">Transaction</tspan></text>
    <g id="Group_1469" data-name="Group 1469" transform="translate(-880.001 2421)">
      <rect id="Rectangle_1702" data-name="Rectangle 1702" width="116" height="24" transform="translate(1615 1063)" fill="#faf9f7"/>
      <text id="Product_supply" data-name="Product supply" transform="translate(1673 1080)" fill="#00b5be" font-size="16" font-family="Roboto-Regular, Roboto"><tspan x="-53.18" y="0">Product supply</tspan></text>
    </g>
    <g id="Group_1471" data-name="Group 1471" transform="translate(-882.24 1443.354)">
      <g id="Group_1462" data-name="Group 1462" transform="translate(1811.764 1813.496)">
        <g id="Group_481" data-name="Group 481" transform="translate(7.646 0)">
          <path id="Path_5978" data-name="Path 5978" d="M508.411,201.6H504.58l-11.025,24.5h4.853l8.045-18.708h.085l8.046,18.708h4.853Z" transform="translate(-431.105 -201.574)" fill="#ebebeb"/>
          <path id="Path_5979" data-name="Path 5979" d="M385.649,205.192V201.53H355.861c-6.159,0-9.72,2.913-9.72,7.046,0,3.489,2.766,6.2,7.919,6.775,1.55.169,2.6.3,3.938.44,2.682.272,3.9,1.558,3.9,3.251,0,2-2.221,3.354-5.907,3.354H344.732l-8.8-20.841H332.1l-11.025,24.5h4.852l8.046-18.708h.085l8.046,18.708h4.179l-.015-.035,9.68.03c6.411,0,10.475-2.574,10.475-7.012,0-3.285-2.6-6.4-8.17-6.944-1.425-.136-2.556-.271-3.352-.373-3.017-.373-4.232-1.727-4.232-3.083,0-2.3,2.221-3.455,4.986-3.455l17.1,0v20.868h4.6V205.191Z" transform="translate(-321.072 -201.53)" fill="#ebebeb"/>
        </g>
        <path id="Path_8105" data-name="Path 8105" d="M9.159,11.99V17H7.471V4.2h4.72a4.742,4.742,0,0,1,3.292,1.072,3.635,3.635,0,0,1,1.191,2.839,3.587,3.587,0,0,1-1.165,2.87,4.954,4.954,0,0,1-3.335,1.006Zm0-1.38h3.032a3.035,3.035,0,0,0,2.074-.637,2.328,2.328,0,0,0,.721-1.841A2.4,2.4,0,0,0,14.265,6.3a2.843,2.843,0,0,0-1.978-.712H9.159Zm11.364,5.01h6.064V17H18.826V4.2h1.7Zm15.223-1.96H30.384L29.18,17H27.44L32.326,4.2H33.8L38.7,17H36.967Zm-4.852-1.389h4.351l-2.18-5.985Zm17.235-6.68H44.016V17H42.337V5.592h-4.1V4.2h9.9Zm8.956,5.757h-5.37V17H50.028V4.2h7.928V5.592h-6.24V9.969h5.37Zm12.735-.334a7.916,7.916,0,0,1-.633,3.283,4.793,4.793,0,0,1-1.793,2.14,4.948,4.948,0,0,1-7.2-2.123,7.6,7.6,0,0,1-.664-3.186v-.923a7.822,7.822,0,0,1,.642-3.261,4.745,4.745,0,0,1,4.5-2.918,4.961,4.961,0,0,1,2.711.743,4.784,4.784,0,0,1,1.806,2.153,7.955,7.955,0,0,1,.633,3.283Zm-1.679-.826a5.738,5.738,0,0,0-.914-3.494A3.015,3.015,0,0,0,64.67,5.478a2.982,2.982,0,0,0-2.518,1.217,5.62,5.62,0,0,0-.945,3.379v.94a5.746,5.746,0,0,0,.927,3.467,3.249,3.249,0,0,0,5.084.07,5.714,5.714,0,0,0,.923-3.415Zm8.9,1.635H74.039V17h-1.7V4.2h4.236a5.014,5.014,0,0,1,3.327.984,3.542,3.542,0,0,1,1.165,2.865,3.445,3.445,0,0,1-.646,2.083,3.856,3.856,0,0,1-1.8,1.327l3.006,5.432V17H79.823Zm-3.006-1.38h2.593a2.928,2.928,0,0,0,2-.65,2.2,2.2,0,0,0,.743-1.74,2.314,2.314,0,0,0-.708-1.819,3,3,0,0,0-2.043-.642H74.039ZM85.615,4.2,89.8,14.645,93.982,4.2H96.17V17H94.483V12.017l.158-5.379L90.44,17H89.148L84.955,6.664l.167,5.353V17H83.435V4.2Z" transform="translate(0 27.316)" fill="#fcfeff"/>
      </g>
      <g id="Group_482" data-name="Group 482" transform="translate(1765.24 1812.646)">
        <path id="Path_5980" data-name="Path 5980" d="M203.309,205.122c0,.05.006.1.008.147v-.284C203.314,205.03,203.309,205.076,203.309,205.122Z" transform="translate(-203.309 -200.834)" fill="#ebebeb"/>
        <path id="Path_5981" data-name="Path 5981" d="M248.784,200.986c0-.029,0-.057-.005-.086a4.285,4.285,0,0,0-4.257-4.2l-.026,0-.027,0-14.9,0,14.7,36.232h-3.077l-11.748-28.461h-6.714L213.982,225.8h-3.076l10-24.266h7.412l-1.967-4.833-18.5.006c-.081-.005-.162-.013-.244-.013s-.166.008-.248.013a4.282,4.282,0,0,0-4.034,4.138v.284l.047,27.837a7.306,7.306,0,0,0,2.824,6.168l.76.441,2.2-5.58h7.832l2.378-5.594H223.7l-2.1-5.456,4.476-11.048L236.5,232.936h-3.146l-7.2-17.342-1.4,3.355,3.287,8.393h-6.853l-2.308,5.663h-7.693l-1.725,4.027.727.421,12.881,7.333a5.723,5.723,0,0,0,5.693,0l17.647-10.148c2.426-1.366,2.342-5.633,2.342-5.633l.029-27.929C248.78,201.045,248.784,201.016,248.784,200.986Z" transform="translate(-203.316 -196.698)" fill="#ebebeb"/>
      </g>
    </g>
    <g id="Group_1401" data-name="Group 1401" transform="translate(515.066 -97.372)">
      <g id="Group_1372" data-name="Group 1372" transform="translate(789.933 3549.372)">
        <g id="_003-world" data-name="003-world" transform="translate(0 0)">
          <g id="Group_1279" data-name="Group 1279" transform="translate(6.177 36.993)">
            <g id="Group_1278" data-name="Group 1278">
              <path id="Path_8017" data-name="Path 8017" d="M55.185,323.284q-.022-.02-.046-.038c-.47-.39-.94-.808-1.372-1.241a.7.7,0,0,0-.992,1,17.975,17.975,0,0,0,1.466,1.33.7.7,0,0,0,.943-1.048Z" transform="translate(-52.569 -321.801)" fill="#033d61"/>
            </g>
          </g>
          <g id="Group_1281" data-name="Group 1281" transform="translate(0.145 17.536)">
            <g id="Group_1280" data-name="Group 1280">
              <path id="Path_8018" data-name="Path 8018" d="M2.5,156.236a.7.7,0,0,0-.935.6c-.141.644-.249,1.3-.329,1.95a.7.7,0,0,0,.6.79h.089a.7.7,0,0,0,.7-.62c.075-.611.179-1.227.31-1.824A.7.7,0,0,0,2.5,156.236Z" transform="translate(-1.232 -156.197)" fill="#033d61"/>
            </g>
          </g>
          <g id="Group_1283" data-name="Group 1283" transform="translate(2.955 32.853)">
            <g id="Group_1282" data-name="Group 1282">
              <path id="Path_8019" data-name="Path 8019" d="M27.483,288.448c-.362-.5-.7-1.015-1.02-1.541a.7.7,0,0,0-.966-.246h0a.7.7,0,0,0-.246.966v0c.338.564.7,1.119,1.1,1.65a.7.7,0,0,0,1.137-.832Z" transform="translate(-25.15 -286.562)" fill="#033d61"/>
            </g>
          </g>
          <g id="Group_1285" data-name="Group 1285" transform="translate(0.831 28.036)">
            <g id="Group_1284" data-name="Group 1284">
              <path id="Path_8020" data-name="Path 8020" d="M9.074,247.823c-.226-.569-.432-1.156-.606-1.748a.705.705,0,0,0-.873-.481l-.02.006a.7.7,0,0,0-.47.874c.188.63.4,1.26.649,1.88a.712.712,0,0,0,1.321-.531Z" transform="translate(-7.076 -245.566)" fill="#033d61"/>
            </g>
          </g>
          <g id="Group_1287" data-name="Group 1287" transform="translate(1.446 12.666)">
            <g id="Group_1286" data-name="Group 1286">
              <path id="Path_8021" data-name="Path 8021" d="M14.113,114.829a.705.705,0,0,0-.947.313c-.3.587-.569,1.194-.808,1.809a.7.7,0,0,0,1.31.516v0a16.952,16.952,0,0,1,.757-1.687A.705.705,0,0,0,14.113,114.829Z" transform="translate(-12.309 -114.753)" fill="#033d61"/>
            </g>
          </g>
          <g id="Group_1289" data-name="Group 1289" transform="translate(0 22.865)">
            <g id="Group_1288" data-name="Group 1288">
              <path id="Path_8022" data-name="Path 8022" d="M1.561,204.077v0c-.075-.611-.127-1.231-.15-1.842a.705.705,0,0,0-1.41.052,15.45,15.45,0,0,0,.16,1.974.7.7,0,0,0,.681.606H.95A.7.7,0,0,0,1.561,204.077Z" transform="translate(0 -201.553)" fill="#033d61"/>
            </g>
          </g>
          <g id="Group_1291" data-name="Group 1291" transform="translate(16.888 1.231)">
            <g id="Group_1290" data-name="Group 1290">
              <path id="Path_8023" data-name="Path 8023" d="M147.113,18.068a.708.708,0,0,0-.773-.637c-.653.066-1.311.16-1.96.287a.708.708,0,0,0,.132,1.41l0-.019h.136c.606-.117,1.222-.207,1.833-.268A.708.708,0,0,0,147.113,18.068Z" transform="translate(-143.738 -17.428)" fill="#033d61"/>
            </g>
          </g>
          <g id="Group_1293" data-name="Group 1293" transform="translate(3.946 8.299)">
            <g id="Group_1292" data-name="Group 1292">
              <path id="Path_8024" data-name="Path 8024" d="M35.949,77.758a.709.709,0,0,0-1,.061c-.432.493-.846,1.015-1.231,1.551a.7.7,0,0,0,.569,1.119V80.5a.7.7,0,0,0,.573-.291c.362-.5.747-.987,1.151-1.448A.709.709,0,0,0,35.949,77.758Z" transform="translate(-33.582 -77.58)" fill="#033d61"/>
            </g>
          </g>
          <g id="Group_1295" data-name="Group 1295" transform="translate(22.191 1.144)">
            <g id="Group_1294" data-name="Group 1294">
              <path id="Path_8025" data-name="Path 8025" d="M191.591,16.893c-.649-.1-1.311-.169-1.969-.207a.706.706,0,0,0-.085,1.41c.62.047,1.236.113,1.842.207h.108a.707.707,0,0,0,.1-1.41Z" transform="translate(-188.873 -16.685)" fill="#033d61"/>
            </g>
          </g>
          <g id="Group_1297" data-name="Group 1297" transform="translate(7.533 4.831)">
            <g id="Group_1296" data-name="Group 1296">
              <path id="Path_8026" data-name="Path 8026" d="M66.9,48.351a.705.705,0,0,0-.949-.175c-.54.371-1.072.775-1.579,1.194a.706.706,0,1,0,.9,1.086c.47-.395.968-.771,1.476-1.119A.7.7,0,0,0,66.9,48.351Z" transform="translate(-64.116 -48.064)" fill="#033d61"/>
            </g>
          </g>
          <g id="Group_1300" data-name="Group 1300" transform="translate(11.972 2.378)">
            <g id="Group_1299" data-name="Group 1299">
              <g id="Group_1298" data-name="Group 1298">
                <path id="Path_8027" data-name="Path 8027" d="M107.818,45.652h0Z" transform="translate(-107.109 -43.483)" fill="#033d61"/>
                <path id="Path_8028" data-name="Path 8028" d="M105.087,27.708a.7.7,0,0,0-.963-.459,17.612,17.612,0,0,0-1.823.766.7.7,0,1,0,.587,1.274c.555-.263,1.128-.5,1.706-.714A.7.7,0,0,0,105.087,27.708Z" transform="translate(-101.892 -27.189)" fill="#033d61"/>
              </g>
            </g>
          </g>
          <g id="Group_1302" data-name="Group 1302" transform="translate(20.364 43.014)">
            <g id="Group_1301" data-name="Group 1301">
              <path id="Path_8029" data-name="Path 8029" d="M176.647,373.706a.706.706,0,0,0-.75-.66,17.4,17.4,0,0,1-1.852.042.705.705,0,0,0-.038,1.41h.6c.47,0,.94,0,1.382-.042A.706.706,0,0,0,176.647,373.706Z" transform="translate(-173.322 -373.044)" fill="#033d61"/>
            </g>
          </g>
          <g id="Group_1304" data-name="Group 1304" transform="translate(40.705 27.322)">
            <g id="Group_1303" data-name="Group 1303">
              <path id="Path_8030" data-name="Path 8030" d="M347.883,239.511a.706.706,0,0,0-.858.51c-.15.6-.334,1.189-.54,1.767a.7.7,0,0,0,1.329.463v0c.221-.62.414-1.255.578-1.88A.706.706,0,0,0,347.883,239.511Z" transform="translate(-346.447 -239.489)" fill="#033d61"/>
            </g>
          </g>
          <g id="Group_1306" data-name="Group 1306" transform="translate(41.252 16.835)">
            <g id="Group_1305" data-name="Group 1305">
              <path id="Path_8031" data-name="Path 8031" d="M352.888,152.667c-.108-.649-.244-1.3-.409-1.936a.7.7,0,0,0-1.363.357c.155.592.282,1.2.385,1.809a.7.7,0,0,0,.686.578h.117A.7.7,0,0,0,352.888,152.667Z" transform="translate(-351.099 -150.23)" fill="#033d61"/>
            </g>
          </g>
          <g id="Group_1308" data-name="Group 1308" transform="translate(5.026 0)">
            <g id="Group_1307" data-name="Group 1307">
              <path id="Path_8032" data-name="Path 8032" d="M83.786,18.128a.683.683,0,0,0-.134-.194l-1.245-1.3a.681.681,0,0,0-.681-.169l-2.246.681-2.632-2.792,5.908-3.29a.686.686,0,0,0,.2-1.1L81.3,8.3a.686.686,0,0,0-.681-.16L73.13,10.41,70.61,7.736a2.279,2.279,0,0,0-2.594-.616h-.042a2.773,2.773,0,0,0-1.509,1.509,2.54,2.54,0,0,0-.15.555l-.287-.1a.706.706,0,1,0-.432,1.344c.362.117.724.249,1.086.385a2.706,2.706,0,0,0,.381.47L69.718,13.8l-.761,2.514a16.562,16.562,0,1,0,3.5,3.374l1.2-2.171,2.792,2.632-.672,2.223a.681.681,0,0,0,.164.7s1.377,1.363,1.41,1.41a.682.682,0,0,0,.931-.248l.009-.015,1.838-3.37,3.318-1.809A.686.686,0,0,0,83.786,18.128ZM48.7,19.058A15.091,15.091,0,0,1,59.378,14.64q.47,0,.94.028c2.665,2.458,1.88,4.7.094,6.721a32.99,32.99,0,0,1-3.384,3.121c-1.734,1.476-3.351,2.853-3.962,4.23-.724,1.636-.193,3.116,2.731,4.408a7.684,7.684,0,0,1,2.566,1.532.075.075,0,0,0,.014.013l-.032.011a5.841,5.841,0,0,1-2.218.381c-3.544.15-6.067-2.115-8.027-3.868-1.41-1.255-2.58-2.3-3.8-2.308A15.091,15.091,0,0,1,48.7,19.058ZM74.539,29.764h0a15.152,15.152,0,0,1-10.438,14.4,4.93,4.93,0,0,1,.578-3.2,11.652,11.652,0,0,1,2.82-3.1c4.338-3.619,4.582-5.64,4.77-7.2.118-.982.207-1.715,2.148-2.782A15.31,15.31,0,0,1,74.539,29.764Zm-.874-5.085a14.992,14.992,0,0,1,.517,1.809c-2.956,1.5-3.088,2.575-3.266,4.037-.16,1.316-.367,3.036-4.286,6.307a12.854,12.854,0,0,0-3.149,3.492,6.232,6.232,0,0,0-.7,4.2A15.142,15.142,0,0,1,44.268,30.295c.747,0,1.715.888,2.9,1.946,2.152,1.922,4.907,4.375,9.009,4.23A7.049,7.049,0,0,0,59,35.934a1.41,1.41,0,0,0,.78-.884,1.344,1.344,0,0,0-.338-1.227A8.778,8.778,0,0,0,56.37,31.9c-1.988-.879-2.42-1.734-2.03-2.608.47-1.1,1.983-2.35,3.591-3.76a34.21,34.21,0,0,0,3.529-3.29c1.965-2.237,2.975-4.676.978-7.346a15.039,15.039,0,0,1,6.11,2.778l-1.081,3.567a.686.686,0,0,0,.164.7s1.753,1.739,1.809,1.772a.682.682,0,0,0,.931-.248l.009-.015,1.368-2.472A15.11,15.11,0,0,1,73.665,24.678Zm6.3-5.25-.606.3a.677.677,0,0,0-.31.315l-.3.611L77.58,22.77l-.343-.376.681-2.251a.681.681,0,0,0-.221-.724L73.99,15.927a.681.681,0,0,0-.964.009l-.019.02c-.047.052-3.384,6.063-3.384,6.063L68.9,21.29l2.275-7.5a.681.681,0,0,0-.221-.728L68,10.288A.978.978,0,0,1,67.73,9.16,1.476,1.476,0,0,1,68.5,8.4h.023a.978.978,0,0,1,1.1.282l2.82,2.98a.681.681,0,0,0,.7.188l7.52-2.27.728.728-5.969,3.28a.681.681,0,0,0-.272.925l.009.015c.028.052,3.623,3.877,3.623,3.877a.681.681,0,0,0,.7.183l2.261-.681.352.352Z" transform="translate(-42.775 -6.948)" fill="#033d61"/>
            </g>
          </g>
          <g id="Group_1310" data-name="Group 1310" transform="translate(38.335 32.201)">
            <g id="Group_1309" data-name="Group 1309">
              <path id="Path_8033" data-name="Path 8033" d="M328.337,281.111l-.031-.017a.7.7,0,0,0-.94.277c-.3.54-.62,1.072-.968,1.579a.707.707,0,0,0,1.156.813c.367-.545.714-1.114,1.034-1.687A.7.7,0,0,0,328.337,281.111Z" transform="translate(-326.269 -281.013)" fill="#033d61"/>
            </g>
          </g>
          <g id="Group_1312" data-name="Group 1312" transform="translate(41.83 22.007)">
            <g id="Group_1311" data-name="Group 1311">
              <path id="Path_8034" data-name="Path 8034" d="M356.821,194.255a.705.705,0,0,0-.715.7c0,.01,0,.019,0,.029v.08c0,.616-.028,1.236-.085,1.852a.7.7,0,0,0,.638.766h.067a.7.7,0,0,0,.71-.653c.061-.653.089-1.316.089-1.974v-.094A.7.7,0,0,0,356.821,194.255Z" transform="translate(-356.019 -194.255)" fill="#033d61"/>
            </g>
          </g>
          <g id="Group_1314" data-name="Group 1314" transform="translate(15.135 42.252)">
            <g id="Group_1313" data-name="Group 1313">
              <path id="Path_8035" data-name="Path 8035" d="M131.555,367.008a14.55,14.55,0,0,1-1.8-.414.705.705,0,0,0-.468,1.33.713.713,0,0,0,.082.023c.63.179,1.278.334,1.927.47h.132a.708.708,0,0,0,.132-1.41Z" transform="translate(-128.811 -366.555)" fill="#033d61"/>
            </g>
          </g>
          <g id="Group_1316" data-name="Group 1316" transform="translate(25.599 42.03)">
            <g id="Group_1315" data-name="Group 1315">
              <path id="Path_8036" data-name="Path 8036" d="M221.063,365.127a.7.7,0,0,0-.855-.434v.019a14.006,14.006,0,0,1-1.781.47.706.706,0,0,0,.31,1.377c.639-.146,1.283-.324,1.908-.526A.7.7,0,0,0,221.063,365.127Z" transform="translate(-217.876 -364.665)" fill="#033d61"/>
            </g>
          </g>
          <g id="Group_1318" data-name="Group 1318" transform="translate(10.339 40.192)">
            <g id="Group_1317" data-name="Group 1317">
              <path id="Path_8037" data-name="Path 8037" d="M90.7,350c-.559-.277-1.109-.578-1.64-.879a.706.706,0,1,0-.714,1.217c.569.334,1.156.644,1.753.94A.706.706,0,0,0,90.7,350Z" transform="translate(-87.997 -349.029)" fill="#033d61"/>
            </g>
          </g>
          <g id="Group_1320" data-name="Group 1320" transform="translate(34.867 36.449)">
            <g id="Group_1319" data-name="Group 1319">
              <path id="Path_8038" data-name="Path 8038" d="M299.3,317.355a.7.7,0,0,0-.984.033h0a17.124,17.124,0,0,1-1.325,1.292.706.706,0,1,0,.94,1.053c.47-.437.968-.9,1.41-1.382A.705.705,0,0,0,299.3,317.355Z" transform="translate(-296.758 -317.171)" fill="#033d61"/>
            </g>
          </g>
          <g id="Group_1322" data-name="Group 1322" transform="translate(30.532 39.807)">
            <g id="Group_1321" data-name="Group 1321">
              <path id="Path_8039" data-name="Path 8039" d="M262.847,346.089a.705.705,0,0,0-.967-.243l-.033.021v-.019c-.517.329-1.057.639-1.6.94a.705.705,0,0,0,.644,1.255c.583-.3,1.161-.634,1.715-.987A.705.705,0,0,0,262.847,346.089Z" transform="translate(-259.861 -345.746)" fill="#033d61"/>
            </g>
          </g>
        </g>
      </g>
    </g>
    <g id="_001-movie-tickets" data-name="001-movie-tickets" transform="translate(1306 3374)">
      <path id="Path_8005" data-name="Path 8005" d="M122.166,198.73a.947.947,0,1,0-.67-.278A.954.954,0,0,0,122.166,198.73Zm0,0" transform="translate(-110.966 -180.187)" fill="#033d61"/>
      <path id="Path_8006" data-name="Path 8006" d="M259.008,200.942a.949.949,0,1,0,.277.67A.956.956,0,0,0,259.008,200.942Zm0,0" transform="translate(-235.62 -183.691)" fill="#033d61"/>
      <path id="Path_8007" data-name="Path 8007" d="M293.339,167.559a.947.947,0,1,0-.67-.277A.954.954,0,0,0,293.339,167.559Zm0,0" transform="translate(-267.659 -151.652)" fill="#033d61"/>
      <path id="Path_8008" data-name="Path 8008" d="M40.96,20.9H38.589l4.174-4.174a2.55,2.55,0,0,0,0-3.605L38.977,9.34a.85.85,0,0,0-1.2,0A2.549,2.549,0,0,1,34.17,5.734a.849.849,0,0,0,0-1.2L30.385.747a2.549,2.549,0,0,0-3.605,0L12.744,14.782a.85.85,0,0,0,1.2,1.2L27.981,1.949a.849.849,0,0,1,1.2,0l3.245,3.245a4.251,4.251,0,0,0,5.89,5.89l3.245,3.245a.851.851,0,0,1,0,1.2L36.186,20.9H32.46l2.792-2.792a.85.85,0,0,0,0-1.2L26.6,8.258a.85.85,0,0,0-1.2,0L12.75,20.9H2.549A2.552,2.552,0,0,0,0,23.454v5.354a.85.85,0,0,0,.85.85,2.549,2.549,0,1,1,0,5.1.85.85,0,0,0-.85.85V40.96a2.552,2.552,0,0,0,2.549,2.549H40.96A2.552,2.552,0,0,0,43.51,40.96V35.606a.85.85,0,0,0-.85-.85,2.549,2.549,0,1,1,0-5.1.85.85,0,0,0,.85-.85V23.454A2.552,2.552,0,0,0,40.96,20.9ZM26,10.061l7.451,7.451L30.056,20.9H26.691l2.491-2.492a.85.85,0,0,0-1.2-1.2L24.288,20.9H15.154ZM41.81,28.043a4.25,4.25,0,0,0,0,8.327V40.96a.851.851,0,0,1-.85.85H2.549a.851.851,0,0,1-.85-.85V36.371a4.25,4.25,0,0,0,0-8.327V23.454a.851.851,0,0,1,.85-.85H40.96a.851.851,0,0,1,.85.85Zm0,0" fill="#033d61"/>
      <path id="Path_8009" data-name="Path 8009" d="M198.117,346.613a.947.947,0,1,0-.67.278A.955.955,0,0,0,198.117,346.613Zm0,0" transform="translate(-179.879 -315.815)" fill="#033d61"/>
      <path id="Path_8010" data-name="Path 8010" d="M297.117,346.613a.947.947,0,1,0-.67.278A.955.955,0,0,0,297.117,346.613Zm0,0" transform="translate(-270.505 -315.815)" fill="#033d61"/>
      <path id="Path_8011" data-name="Path 8011" d="M247.617,346.613a.947.947,0,1,0-.67.278A.955.955,0,0,0,247.617,346.613Zm0,0" transform="translate(-225.192 -315.815)" fill="#033d61"/>
      <path id="Path_8012" data-name="Path 8012" d="M147.947,346.891a.947.947,0,1,0-.67-.278A.955.955,0,0,0,147.947,346.891Zm0,0" transform="translate(-134.566 -315.815)" fill="#033d61"/>
      <path id="Path_8013" data-name="Path 8013" d="M346.617,346.613a.947.947,0,1,0-.67.278A.955.955,0,0,0,346.617,346.613Zm0,0" transform="translate(-315.819 -315.815)" fill="#033d61"/>
      <path id="Path_8014" data-name="Path 8014" d="M147.947,394.891H166.7a.947.947,0,0,0,0-1.894H147.947a.947.947,0,1,0,0,1.894Zm0,0" transform="translate(-135.57 -359.755)" fill="#033d61"/>
      <path id="Path_8015" data-name="Path 8015" d="M184.268,441a.948.948,0,1,0,.67.278A.955.955,0,0,0,184.268,441Zm0,0" transform="translate(-167.814 -404.212)" fill="#033d61"/>
      <path id="Path_8016" data-name="Path 8016" d="M118.909,297H94.793a.88.88,0,0,0-.793.947v13.64a.881.881,0,0,0,.793.947h3.3a.962.962,0,0,0,0-1.894H95.587V298.891h22.529v11.746H105.237a.962.962,0,0,0,0,1.894h13.672a.881.881,0,0,0,.793-.947v-13.64A.88.88,0,0,0,118.909,297Zm0,0" transform="translate(-85.096 -273.852)" fill="#033d61"/>
    </g>
    <g id="_002-sun-bath" data-name="002-sun-bath" transform="translate(1302.999 3499.654)">
      <g id="Group_1330" data-name="Group 1330" transform="translate(0 31.347)">
        <g id="Group_1329" data-name="Group 1329">
          <path id="Path_8065" data-name="Path 8065" d="M40.533,256.888v-5.067h2.027a1.013,1.013,0,0,0,1.013-1.013v-4.053a1.011,1.011,0,0,0-.342-.759l6.125-6.125a1.014,1.014,0,0,0,0-1.433l-3.04-3.04a1.013,1.013,0,0,0-.716-.3h0a1.013,1.013,0,0,0-.718.3l-2.045,2.082-1.582-1.582a1.014,1.014,0,0,0-1.433,0l-6.8,6.8H29.893a1.013,1.013,0,0,0-1.013,1.013v2.027H16.72v-1.52a2.01,2.01,0,0,1,0-2.027v-1.52a2.029,2.029,0,0,0-2.027-2.027H6.587a2.029,2.029,0,0,0-2.027,2.027v1.52a2.01,2.01,0,0,1,0,2.027v1.52H1.013A1.013,1.013,0,0,0,0,246.755v4.053a1.013,1.013,0,0,0,1.013,1.013H3.04v5.067H0v2.027H49.653v-2.027Zm-9.626-12.16h2.533a1.013,1.013,0,0,0,.716-.3l6.377-6.377.879.879-6.675,6.807H30.906v-1.013Zm-24.32-4.053h8.107v1.52H6.587Zm0,3.547h8.107v1.52H6.587ZM6.08,256.888H5.067v-5.067H6.08Zm29.386,0H8.107v-5.067h27.36Zm3.04,0H37.493v-5.067h1.013ZM36.479,249.8H2.027v-2.027H35.162a1.014,1.014,0,0,0,.724-.3l7.68-7.833,2.04-2.077,1.6,1.6-6.587,6.587H38.506v2.027h3.04V249.8H36.479Z" transform="translate(0 -215.342)" fill="#033d61"/>
          <path id="Path_8066" data-name="Path 8066" d="M305.748,40.359l-1.418,1.418,1.433,1.433,1.418-1.418a4.533,4.533,0,0,0,1.412.587V44.52h2.027V42.379a4.533,4.533,0,0,0,1.412-.587l1.418,1.418,1.433-1.433-1.418-1.418a4.534,4.534,0,0,0,.587-1.412h2.141V36.92h-2.142a4.533,4.533,0,0,0-.586-1.412l1.418-1.418-1.433-1.433-1.418,1.418a4.53,4.53,0,0,0-1.412-.587V31.347h-2.027v2.142a4.532,4.532,0,0,0-1.412.587l-1.418-1.418L304.33,34.09l1.418,1.418a4.536,4.536,0,0,0-.587,1.412H303.02v2.027h2.142A4.535,4.535,0,0,0,305.748,40.359Zm3.859-4.959a2.533,2.533,0,1,1-2.533,2.533A2.536,2.536,0,0,1,309.607,35.4Z" transform="translate(-273.634 -31.347)" fill="#033d61"/>
          <path id="Path_8067" data-name="Path 8067" d="M76.183,101.292A1.014,1.014,0,0,1,77.2,102.3h2.027a1.013,1.013,0,1,1,2.027,0h2.027a3.038,3.038,0,0,0-5.067-2.263,3.038,3.038,0,0,0-5.067,2.263H75.17A1.014,1.014,0,0,1,76.183,101.292Z" transform="translate(-66.05 -92.678)" fill="#033d61"/>
          <path id="Path_8068" data-name="Path 8068" d="M135.837,154.55h2.027a1.013,1.013,0,0,1,2.027,0h2.027a1.013,1.013,0,0,1,2.027,0h2.027a3.038,3.038,0,0,0-5.067-2.263,3.038,3.038,0,0,0-5.067,2.263Z" transform="translate(-122.664 -139.857)" fill="#033d61"/>
        </g>
      </g>
    </g>
    <g id="XMLID_1123_" transform="translate(1305.999 3295)">
      <g id="XMLID_89_" transform="translate(0 0)">
        <path id="XMLID_1118_" d="M20.107,243.783a.858.858,0,0,0-.235.033h0l-2.468.7a.859.859,0,1,0,.471,1.653l1.373-.391v3.044L8.593,251.861v-3.043l1.844-.526a.859.859,0,0,0-.471-1.653l-2.468.7h0a.859.859,0,0,0-.624.826V259.1a4.295,4.295,0,1,0,1.719,3.435v-8.885l10.655-3.037v4.961a4.295,4.295,0,1,0,1.719,3.435V244.642A.859.859,0,0,0,20.107,243.783ZM4.3,265.111a2.578,2.578,0,1,1,2.578-2.578A2.581,2.581,0,0,1,4.3,265.111Zm12.373-3.527a2.578,2.578,0,1,1,2.578-2.578A2.581,2.581,0,0,1,16.67,261.584Z" transform="translate(0 -222.836)" fill="#033d61"/>
        <path id="XMLID_2013_" d="M324.813.174a.86.86,0,0,0-.755-.139L315.087,2.62a.859.859,0,0,0-.621.826v10.93a4.295,4.295,0,1,0,1.719,3.435V8.923l8.35-2.406a.859.859,0,0,0,.621-.826V.86a.859.859,0,0,0-.343-.687ZM311.888,20.388a2.578,2.578,0,1,1,2.578-2.578A2.581,2.581,0,0,1,311.888,20.388ZM323.437,5.044l-7.253,2.09V4.092L323.437,2Z" transform="translate(-281.162 -0.001)" fill="#033d61"/>
        <path id="XMLID_2027_" d="M319.614,297.257l-4.149-.6-1.856-3.76a.859.859,0,0,0-1.541,0l-1.856,3.76-4.149.6a.859.859,0,0,0-.476,1.466l3,2.927-.709,4.132a.859.859,0,0,0,1.247.906l3.711-1.951,3.711,1.951a.859.859,0,0,0,1.247-.906l-.709-4.132,3-2.927a.859.859,0,0,0-.476-1.466Zm-4.049,3.477a.859.859,0,0,0-.247.761l.491,2.862L313.239,303a.859.859,0,0,0-.8,0l-2.57,1.351.491-2.862a.859.859,0,0,0-.247-.761l-2.079-2.027,2.873-.418a.859.859,0,0,0,.647-.47l1.285-2.6,1.285,2.6a.859.859,0,0,0,.647.47l2.873.418Z" transform="translate(-279.092 -267.289)" fill="#033d61"/>
        <path id="XMLID_2031_" d="M4.228,7.794,3.659,11.11a.859.859,0,0,0,1.247.906L7.884,10.45l2.978,1.566a.859.859,0,0,0,1.247-.906L11.54,7.794l2.409-2.348a.859.859,0,0,0-.476-1.466L10.143,3.5,8.654.479a.859.859,0,0,0-1.541,0L5.624,3.5l-3.33.484a.859.859,0,0,0-.476,1.466ZM6.319,5.132a.859.859,0,0,0,.647-.47L7.884,2.8,8.8,4.662a.859.859,0,0,0,.647.47l2.054.3L10.017,6.879a.859.859,0,0,0-.247.761l.351,2.045L8.284,8.719a.859.859,0,0,0-.8,0l-1.837.966L6,7.639a.859.859,0,0,0-.247-.761L4.265,5.43Z" transform="translate(-1.425 0)" fill="#033d61"/>
        <path id="XMLID_2032_" d="M224.859,86.306a.859.859,0,0,0-.859.859v.859a.859.859,0,0,0,1.719,0v-.859A.859.859,0,0,0,224.859,86.306Z" transform="translate(-204.753 -78.89)" fill="#033d61"/>
        <path id="XMLID_2033_" d="M224.859,156.306a.859.859,0,0,0-.859.859v.859a.859.859,0,0,0,1.719,0v-.859A.859.859,0,0,0,224.859,156.306Z" transform="translate(-204.753 -142.875)" fill="#033d61"/>
        <path id="XMLID_2036_" d="M255.719,126.306h-.859a.859.859,0,0,0,0,1.719h.859a.859.859,0,0,0,0-1.719Z" transform="translate(-232.175 -115.453)" fill="#033d61"/>
        <path id="XMLID_2038_" d="M184.859,128.025h.859a.859.859,0,1,0,0-1.719h-.859a.859.859,0,0,0,0,1.719Z" transform="translate(-168.19 -115.453)" fill="#033d61"/>
        <path id="XMLID_2039_" d="M152.859,266.029a.859.859,0,1,0-.608-.252A.866.866,0,0,0,152.859,266.029Z" transform="translate(-138.939 -241.599)" fill="#033d61"/>
      </g>
    </g>
    <g id="business-partnership" transform="translate(1304 3575)">
      <path id="Path_8101" data-name="Path 8101" d="M0,34H8.962V47.443H0Z" transform="translate(0 0)" fill="#033d61"/>
      <path id="Path_8102" data-name="Path 8102" d="M24.648,47.942a.747.747,0,1,1,1.11-1l6.316,7.02,1.838-2.047-6.984-7.685L23.995,45.7a6.291,6.291,0,0,1-2.838.672,6.364,6.364,0,0,1-2.016-.329l-.861-.286a3.332,3.332,0,0,1-.919-5.848L24.1,34.971,23.32,34H14V48.264l9.234,7.491a2.693,2.693,0,0,0,2.849.41,1.967,1.967,0,0,0,.482-.329L20.94,50.211A.747.747,0,1,1,22,49.155l7.256,7.256a2.24,2.24,0,0,0,1.246-.7l.571-.636Z" transform="translate(-3.544)" fill="#033d61"/>
      <path id="Path_8103" data-name="Path 8103" d="M42.818,34H29.131l-9.7,7.111a1.839,1.839,0,0,0,.506,3.226l.863.287a4.825,4.825,0,0,0,3.71-.264l3.945-1.972,7.437,8.18L42.818,47.8Z" transform="translate(-4.73 0)" fill="#033d61"/>
      <path id="Path_8104" data-name="Path 8104" d="M53,34h8.215V47.443H53Z" transform="translate(-13.418 0)" fill="#033d61"/>
    </g>
  </g>
</svg>
