<?xml version="1.0" encoding="utf-8"?>
<!-- Generator: Adobe Illustrator 19.1.0, SVG Export Plug-In . SVG Version: 6.00 Build 0)  -->
<svg version="1.1" id="Layer_1" xmlns="http://www.w3.org/2000/svg" xmlns:xlink="http://www.w3.org/1999/xlink" x="0px" y="0px"
	 width="187" height="58" viewBox="0 0 187 58" style="enable-background:new 0 0 187 58;" xml:space="preserve">
<style type="text/css">
	.st0{fill:#F5C63A;}
</style>
<g>
	<path class="st0" d="M145.2,23.4h-3.4c-0.7,0-1.2,0.5-1.2,1.2v16.2c0,0.7,0.5,1.2,1.2,1.2h3.4c0.7,0,1.2-0.5,1.2-1.2V24.6
		C146.4,24,145.9,23.4,145.2,23.4z"/>
	<path class="st0" d="M145.2,16.1h-3.4c-0.7,0-1.2,0.5-1.2,1.2v2.4c0,0.7,0.5,1.2,1.2,1.2h3.4c0.7,0,1.2-0.5,1.2-1.2v-2.4
		C146.4,16.6,145.9,16.1,145.2,16.1z"/>
	<path class="st0" d="M106.2,23.4h-3.4c-0.7,0-1.2,0.5-1.2,1.2v16.2c0,0.7,0.5,1.2,1.2,1.2h3.4c0.7,0,1.2-0.5,1.2-1.2V24.6
		C107.4,24,106.8,23.4,106.2,23.4z"/>
	<path class="st0" d="M106.2,16.1h-3.4c-0.7,0-1.2,0.5-1.2,1.2v2.4c0,0.7,0.5,1.2,1.2,1.2h3.4c0.7,0,1.2-0.5,1.2-1.2v-2.4
		C107.4,16.6,106.8,16.1,106.2,16.1z"/>
	<path class="st0" d="M59.9,28.8c0,0,2.5-0.6,4-2.6c0.4-0.7,1.7-2,1.7-5c0-1.5-0.7-3.4-1.8-4.6c-1.1-1.5-3.4-2.6-5.4-2.7
		c-2.2-0.1-15.7,0-15.7,0c-1.1,0-2.1,0.9-2.1,2.1v26.4c0,1.1,0.9,2.1,2.1,2.1c0,0,14.1,0,15.7,0s4.3-1.1,5.9-3.3
		c0.8-1.1,1.3-2.7,1.3-4.1c0.1-1.4-0.3-2.8-0.8-3.7c-0.6-1.2-2-3.2-4.8-3.9C59.7,29.1,59.6,28.9,59.9,28.8z M57.9,35.2
		c-0.1,0.2-0.4,0.3-0.4,0.3h-9c0,0-0.5-0.1-0.8-0.4c-0.2-0.3-0.3-0.9-0.3-0.9v-11c0,0,0-0.4,0.2-0.7c0.2-0.2,0.6-0.2,0.6-0.2h8.9
		c0,0,0.4,0.1,0.6,0.4c0.1,0.2,0,0.6,0,0.6l-5.1,5.1c0,0-0.2,0.3-0.1,0.6c0,0.2,0.2,0.4,0.2,0.4l5.1,5.2C57.7,34.7,58,35,57.9,35.2z
		"/>
	<path class="st0" d="M96.2,30.1c-1-0.9-3.3-1.7-3.3-1.7s2.1-0.7,3.2-2.2c0.9-1.3,1.2-2.5,1.1-4.5c-0.1-1.5-0.7-3.4-2.8-4.7
		c-2-1.2-5.3-1.3-5.3-1.3H76.3c0,0-0.5,0.1-0.7,0.2c-0.3,0.3-0.4,0.7-0.4,0.7v1.6c0,0,0,0.6,0.3,0.9c0.2,0.2,0.6,0.3,0.6,0.3h11.5
		c0,0,1.5,0,2.6,1c0.6,0.6,0.9,1.7,0.9,2.5c0,0.7-0.1,1.8-0.9,2.4c-1,0.9-2.3,1-2.3,1h-5.7c0,0-0.4,0-0.7-0.3
		c-0.2-0.2-0.4-0.5-0.4-0.5v-3.9c0,0,0-0.4-0.3-0.8c-0.2-0.2-0.6-0.3-0.6-0.3h-4.1c0,0-0.3,0.1-0.6,0.3c-0.2,0.2-0.3,0.6-0.3,0.6
		v14.7c0,0,0.1,0.5,0.3,0.7c0.3,0.2,0.6,0.3,0.6,0.3h4c0,0,0.5-0.1,0.7-0.3c0.2-0.3,0.2-0.7,0.2-0.7v-4.5c0,0,0.1-0.4,0.3-0.7
		c0.3-0.3,0.6-0.3,0.6-0.3h6.7c0,0,1.7,0.2,2.4,1c0.9,1,1.1,2,1.1,2.8c0,1-0.2,2.3-1,3c-0.9,0.9-2.7,1-2.7,1H76.3c0,0-0.4,0-0.7,0.3
		s-0.3,0.6-0.3,0.6V41c0,0,0,0.5,0.3,0.8c0.2,0.3,0.7,0.3,0.7,0.3h13.6c0,0,4,0,6.5-2.1c1.5-1.3,1.9-3.6,1.8-5.1
		C98.1,32.5,97.3,31.1,96.2,30.1z"/>
	<path class="st0" d="M127.5,27.7c0,0-0.2-0.4-0.2-0.8s0.3-0.8,0.3-0.8l9.2-9.6c0,0,0.2-0.4,0-0.6c-0.2-0.2-0.5-0.1-0.5-0.1h-5.7
		c0,0-0.5,0-0.9,0.3c-0.6,0.4-0.9,0.7-0.9,0.7l-9.4,10.6c0,0-0.3,0.3-0.5,0.2c-0.2-0.1-0.3-0.4-0.3-0.4V16.8c0,0,0-0.4-0.3-0.8
		c-0.2-0.2-0.8-0.3-0.8-0.3h-3.7c0,0-0.4,0.1-0.7,0.3c-0.3,0.3-0.3,0.7-0.3,0.7v24c0,0,0,0.7,0.3,1s0.9,0.4,0.9,0.4h3.9
		c0,0,0.3-0.1,0.6-0.4c0.2-0.3,0.2-0.7,0.2-0.7v-4.5c0,0,0-0.6,0.2-1c0.2-0.5,0.4-0.9,0.4-0.9l2.8-3c0,0,0.4-0.4,0.7-0.3
		c0.5,0,0.8,0.4,0.8,0.4l7.1,9.5c0,0,0.4,0.4,0.7,0.5c0.5,0.2,0.9,0.2,0.9,0.2h4.8c0,0,0.3,0,0.4-0.2c0.1-0.3,0-0.5,0-0.5
		L127.5,27.7z"/>
</g>
</svg>
