<?xml version="1.0" encoding="utf-8"?>
<!-- Generator: Adobe Illustrator 19.1.0, SVG Export Plug-In . SVG Version: 6.00 Build 0)  -->
<svg version="1.1" id="Layer_1" xmlns="http://www.w3.org/2000/svg" xmlns:xlink="http://www.w3.org/1999/xlink" x="0px" y="0px"
	 width="198" height="58" viewBox="0 0 198 58" style="enable-background:new 0 0 198 58;" xml:space="preserve">
<style type="text/css">
	.st0{fill:#1E2538;}
	.st1{fill:#78899E;}
</style>
<g>
	<path class="st0" d="M39,25.8c-1-1.8-3-2.8-5.3-2.8c-4,0-7.1,3-7.7,6.9c-0.6,3.9,1.7,6.8,5.7,6.8c2.1,0,4.4-1,6-2.6l-1.3,7.8
		c-2.3,0.7-3.9,1.2-5.9,1.2c-3.5,0-6.6-1.3-8.8-3.7c-2.3-2.5-3.1-5.7-2.5-9.4c0.5-3.4,2.4-6.7,5.1-9.1c2.8-2.5,6.6-4,10.1-4
		c2.1,0,3.9,0.5,5.7,1.3L39,25.8z"/>
	<path class="st0" d="M56.9,42.4h-6l0.3-1.9h-0.1c-1.3,1.7-3.5,2.5-5.5,2.5c-5,0-7.9-4.2-7.1-9.1c0.8-4.9,4.9-9,9.9-9
		c2,0,3.9,0.7,4.9,2.2l0.3-1.7h6L56.9,42.4z M44.7,33.9c-0.4,2.1,0.8,3.8,3.2,3.8c2.4,0,4.1-1.7,4.5-3.8c0.3-2.1-0.8-3.8-3.3-3.8
		C46.7,30.1,45,31.8,44.7,33.9z"/>
	<path class="st0" d="M72.2,29.8C71.3,29.3,70.1,29,69,29c-0.7,0-1.9,0.3-2.1,1.2c-0.2,1.2,1.7,1.3,2.5,1.5c2.7,0.6,4.6,1.9,4.1,5
		c-0.7,4.5-5.1,6.3-9,6.3c-2.4,0-4.7-0.7-6.5-2l2.8-4.2c1.1,0.9,3,1.7,4.5,1.7c0.8,0,1.9-0.4,2.1-1.3c0.2-1.3-1.7-1.4-3.5-1.9
		c-1.8-0.5-3.5-1.4-3.1-4.5c0.7-4.2,4.7-6,8.4-6c1.9,0,3.8,0.3,5.4,1.1L72.2,29.8z"/>
	<path class="st0" d="M84.3,14.9l-2,12.6h0.1c1.7-1.8,3.5-2.7,5.9-2.7c4.3,0,5.9,2.8,5.3,7.1l-1.7,10.4h-6l1.4-8.7
		c0.3-2,0.3-4-2.1-4c-2.4,0-3.5,2-3.8,4l-1.4,8.7h-6l4.3-27.4L84.3,14.9L84.3,14.9z"/>
	<path class="st0" d="M99.7,42.4h-6l2.7-17h6L99.7,42.4z M103.8,18.9c-0.3,1.8-2.1,3.4-3.9,3.4c-1.8,0-3.1-1.5-2.8-3.4
		c0.3-1.8,2.1-3.4,3.9-3.4S104.1,17.1,103.8,18.9z"/>
	<path class="st0" d="M120.3,34.9h-12.7c-0.4,2.4,0.7,3.8,3.2,3.8c1.3,0,2.3-0.4,3.1-1.6h5.8c-0.8,2-2.2,3.4-3.9,4.4
		c-1.7,1-3.7,1.4-5.7,1.4c-5.6,0-9.3-3.2-8.4-9c0.9-5.7,5.3-9.1,10.8-9.1c5.9,0,8.7,3.6,7.8,9.4L120.3,34.9z M115.3,31.4
		c0-1.6-1.4-2.7-3-2.7c-1.8,0-3.3,0.9-4,2.7H115.3z"/>
	<path class="st0" d="M128.1,28.2L128.1,28.2c1.6-2.1,3.7-3,6-3h1.2l-0.9,5.8c-0.8-0.5-1.6-0.6-2.5-0.6c-3.3,0-4.5,2.2-5,5.1
		l-1.1,6.8h-6l2.7-17h6L128.1,28.2z"/>
	<path class="st1" d="M152.2,34.9h-12.7c-0.4,2.4,0.7,3.8,3.2,3.8c1.3,0,2.3-0.4,3.1-1.6h5.8c-0.8,2-2.2,3.4-3.9,4.4
		c-1.7,1-3.7,1.4-5.7,1.4c-5.6,0-9.3-3.2-8.4-9c0.9-5.7,5.3-9.1,10.8-9.1c5.9,0,8.7,3.6,7.8,9.4L152.2,34.9z M147.1,31.4
		c0-1.6-1.4-2.7-3-2.7c-1.8,0-3.3,0.9-4,2.7H147.1z"/>
	<path class="st1" d="M164.7,29.8c-0.8-0.5-2.1-0.8-3.1-0.8c-0.7,0-1.9,0.3-2.1,1.2c-0.2,1.2,1.7,1.3,2.5,1.5c2.7,0.6,4.6,1.9,4.1,5
		c-0.7,4.5-5.1,6.3-9,6.3c-2.4,0-4.7-0.7-6.5-2l2.8-4.2c1.1,0.9,3,1.7,4.5,1.7c0.8,0,1.9-0.4,2.1-1.3c0.2-1.3-1.7-1.4-3.5-1.9
		c-1.8-0.5-3.5-1.4-3.1-4.5c0.7-4.2,4.7-6,8.4-6c1.9,0,3.8,0.3,5.4,1.1L164.7,29.8z"/>
	<path class="st1" d="M172.8,42.4h-6l1.9-12h-1.9l0.8-5h2l0.8-5.1h6l-0.8,5.1h3.4l-0.8,5h-3.4L172.8,42.4z"/>
</g>
</svg>
