<svg xmlns="http://www.w3.org/2000/svg" width="340" height="375.569" viewBox="0 0 340 375.569">
  <g id="Group_1779" data-name="Group 1779" transform="translate(-1265 -11831.428)">
    <g id="Group_1763" data-name="Group 1763" transform="translate(1265.095 11941.888)">
      <g id="Group_430" data-name="Group 430" transform="translate(-0.095 0.06)">
        <g id="Group_428" data-name="Group 428">
          <path id="Path_5936" data-name="Path 5936" d="M338.505,285.774a77.053,77.053,0,1,1,77.052-77.053A77.14,77.14,0,0,1,338.505,285.774Zm0-153.512a76.46,76.46,0,1,0,76.459,76.459A76.546,76.546,0,0,0,338.505,132.262Z" transform="translate(-261.453 -131.669)" fill="#00b5be"/>
        </g>
        <circle id="Ellipse_119" data-name="Ellipse 119" cx="59.459" cy="59.459" r="59.459" transform="translate(17.593 17.594)" fill="#fff"/>
      </g>
      <g id="Group_497" data-name="Group 497" transform="translate(55.718 45.489)">
        <g id="Group_431" data-name="Group 431" transform="translate(12.114 51.217)">
          <text id="자산" transform="translate(-2.927 9)" fill="#033d61" font-size="14" font-family="Roboto-Bold, Roboto" font-weight="700"><tspan x="0" y="0">资产</tspan></text>
        </g>
        <g id="asset" transform="translate(0 0)">
          <path id="Path_2526" data-name="Path 2526" d="M394.81,417.4a1.4,1.4,0,1,1-1.4-1.4A1.4,1.4,0,0,1,394.81,417.4Zm0,0" transform="translate(-357.155 -379.476)" fill="#0041e8"/>
          <path id="Path_2527" data-name="Path 2527" d="M41.436,22.054l-.993-.653V11.94a7.764,7.764,0,0,0-6.7-7.648L35.4,1.016a.7.7,0,0,0-.032-.685A.711.711,0,0,0,34.766,0H26.252a.711.711,0,0,0-.606.331.7.7,0,0,0-.032.685l1.655,3.276a7.764,7.764,0,0,0-6.693,7.648V21.4l-.99.653a2.522,2.522,0,0,0-1.139,2.111,2.478,2.478,0,0,0,.28,1.124H15.609V13.345h3.548v-1.4H15.172L9.653,7.023h9.96l.672.544.9-1.087-.868-.7a.713.713,0,0,0-.449-.159H7.8a.718.718,0,0,0-.227.041.691.691,0,0,0-.064.031.721.721,0,0,0-.146.088c-.01.008-.023.011-.033.02L.235,12.12A.7.7,0,0,0,0,12.642V25.988A6.339,6.339,0,0,0,4.54,32.037a2.972,2.972,0,0,0-.993,2.213V34.4a2.979,2.979,0,0,0,1.674,2.683l8.273,4.094a9.347,9.347,0,0,0,4.125.963H41.861a.706.706,0,0,0,.71-.7V31.607a.706.706,0,0,0-.71-.7H40.19a6.285,6.285,0,0,0,2.381-4.917.691.691,0,0,0-.343-.587,2.482,2.482,0,0,0,.343-1.239A2.521,2.521,0,0,0,41.436,22.054ZM19.866,24.161a1.121,1.121,0,0,1,.507-.938l1.306-.862a.7.7,0,0,0,.316-.588V11.94A6.361,6.361,0,0,1,28.38,5.618a.711.711,0,0,0,.606-.331.7.7,0,0,0,.032-.685L27.4,1.4h6.218L32,4.6a.7.7,0,0,0,.031.683.712.712,0,0,0,.6.333,6.361,6.361,0,0,1,6.386,6.321v9.833a.7.7,0,0,0,.316.584l1.306.862a1.122,1.122,0,0,1,.459,1.263,1.138,1.138,0,0,1-1.087.8H21.005a1.135,1.135,0,0,1-1.139-1.124ZM1.419,12.955,7.8,7.266l6.386,5.689v12.33H10.642V20.368a.706.706,0,0,0-.71-.7H5.676a.706.706,0,0,0-.71.7v4.917H1.419Zm7.8,12.33H6.385V21.071H9.223Zm5.065,9.165L9.567,32.309h5.017a2.73,2.73,0,0,0-.3,2.141Zm-.16,5.472L5.856,35.827a1.582,1.582,0,0,1-.89-1.425V34.25A1.587,1.587,0,0,1,5.7,32.907,1.62,1.62,0,0,1,7.245,32.8l8.068,3.658a.721.721,0,0,0,.3.064h7.1a.7.7,0,1,0,0-1.4H17.028a1.4,1.4,0,1,1,0-2.81h5.44a.713.713,0,0,0,.339-.086l.182-.1a9.551,9.551,0,0,1,8.939-.1v8.714H17.619a7.894,7.894,0,0,1-3.49-.816Zm27.023-7.612v8.429h-7.8V32.309Zm-4.967-1.4H32.813a10.972,10.972,0,0,0-10.5-.013l-5.284.013H6.385A4.959,4.959,0,0,1,1.469,26.69H41.1A4.959,4.959,0,0,1,36.185,30.9Zm0,0" transform="translate(0 0.001)" fill="#0041e8"/>
          <path id="Path_2529" data-name="Path 2529" d="M64.7,156.917h2.81a.7.7,0,0,0,.7-.7V152.7a.7.7,0,0,0-.7-.7H64.7a.7.7,0,0,0-.7.7v3.512A.7.7,0,0,0,64.7,156.917Zm.7-3.512h1.4v2.107H65.4Zm0,0" transform="translate(-58.381 -138.655)" fill="#0041e8"/>
          <circle id="Ellipse_71" data-name="Ellipse 71" cx="6.449" cy="6.449" r="6.449" transform="translate(24.121 9.321)" fill="#cdd8df"/>
          <path id="Path_2530" data-name="Path 2530" d="M29.166,11a7.166,7.166,0,1,0,7.166,7.166A7.166,7.166,0,0,0,29.166,11Zm0,12.9A5.733,5.733,0,1,1,34.9,18.166,5.733,5.733,0,0,1,29.166,23.9Z" transform="translate(1.404 -2.435)" fill="#0041e8"/>
          <path id="Path_2531" data-name="Path 2531" d="M850.5,546.7l-2.115,4.944a.363.363,0,0,0-.037.222q.041.235.341.235h.534l.074.417H847l-.074-.417a.9.9,0,0,0,.667-.248,2.577,2.577,0,0,0,.484-.769l3.168-7.248h.508l2.227,8.265h.978l.073.417H851l-.073-.417h.952Z" transform="translate(-820.227 -533.211)" fill="#0041e8"/>
        </g>
      </g>
    </g>
    <g id="Group_1766" data-name="Group 1766" transform="translate(1481.198 11928.045) rotate(146)">
      <g id="Group_456" data-name="Group 456" transform="translate(4.494 5.946)">
        <rect id="Rectangle_135" data-name="Rectangle 135" width="83.674" height="1.566" fill="#00b5be"/>
      </g>
      <path id="Path_5967" data-name="Path 5967" d="M257.167,249.139a6.729,6.729,0,1,0,6.728-6.73A6.729,6.729,0,0,0,257.167,249.139Z" transform="translate(-175.729 -242.409)" fill="#fff" stroke="#00b5be" stroke-width="1"/>
      <path id="Path_5968" data-name="Path 5968" d="M205.167,248.331a4.493,4.493,0,1,0,4.493-4.495A4.495,4.495,0,0,0,205.167,248.331Z" transform="translate(-205.167 -241.601)" fill="#fff"/>
    </g>
    <g id="Group_1777" data-name="Group 1777" transform="translate(1478.271 11992.329) rotate(163)">
      <g id="Group_456-2" data-name="Group 456" transform="translate(4.494 5.946)">
        <rect id="Rectangle_135-2" data-name="Rectangle 135" width="56.054" height="1.566" fill="#00b5be"/>
      </g>
      <path id="Path_5967-2" data-name="Path 5967" d="M257.167,249.139a6.729,6.729,0,1,0,6.728-6.73A6.729,6.729,0,0,0,257.167,249.139Z" transform="translate(-203.349 -242.409)" fill="#fff" stroke="#00b5be" stroke-width="1"/>
      <path id="Path_5968-2" data-name="Path 5968" d="M205.167,248.331a4.493,4.493,0,1,0,4.493-4.495A4.495,4.495,0,0,0,205.167,248.331Z" transform="translate(-205.167 -241.601)" fill="#fff"/>
    </g>
    <g id="Group_1778" data-name="Group 1778" transform="translate(1474.336 12056.289) rotate(-163)">
      <g id="Group_456-3" data-name="Group 456" transform="translate(4.494 5.946)">
        <rect id="Rectangle_135-3" data-name="Rectangle 135" width="56.054" height="1.566" transform="translate(0 0.001)" fill="#00b5be"/>
      </g>
      <path id="Path_5967-3" data-name="Path 5967" d="M0,6.728a6.729,6.729,0,1,1,6.728,6.73A6.729,6.729,0,0,1,0,6.728Z" transform="translate(53.818 0.001)" fill="#fff" stroke="#00b5be" stroke-width="1"/>
      <path id="Path_5968-3" data-name="Path 5968" d="M0,4.492A4.493,4.493,0,1,1,4.493,8.987,4.495,4.495,0,0,1,0,4.492Z" transform="translate(0 2.237)" fill="#fff"/>
    </g>
    <g id="Group_1776" data-name="Group 1776" transform="translate(1473.672 12120.511) rotate(-146)">
      <g id="Group_456-4" data-name="Group 456" transform="translate(4.494 5.946)">
        <rect id="Rectangle_135-4" data-name="Rectangle 135" width="83.675" height="1.566" transform="translate(0 0.001)" fill="#00b5be"/>
      </g>
      <path id="Path_5967-4" data-name="Path 5967" d="M0,6.728a6.729,6.729,0,1,1,6.728,6.73A6.729,6.729,0,0,1,0,6.728Z" transform="translate(81.438 0.001)" fill="#fff" stroke="#00b5be" stroke-width="1"/>
      <path id="Path_5968-4" data-name="Path 5968" d="M0,4.492A4.493,4.493,0,1,1,4.493,8.987,4.495,4.495,0,0,1,0,4.492Z" transform="translate(0 2.237)" fill="#fff"/>
    </g>
    <g id="Group_1764" data-name="Group 1764" transform="matrix(0.731, -0.682, 0.682, 0.731, 1365, 11948.199)">
      <g id="Group_435" data-name="Group 435" transform="translate(6.728 5.946)">
        <rect id="Rectangle_127" data-name="Rectangle 127" width="118.499" height="1.566" fill="#00b5be"/>
      </g>
      <path id="Path_5941" data-name="Path 5941" d="M497.032,249.139a6.729,6.729,0,1,1-6.728-6.73A6.729,6.729,0,0,1,497.032,249.139Z" transform="translate(-483.574 -242.409)" fill="#fff" stroke="#00b5be" stroke-width="1"/>
      <path id="Path_5942" data-name="Path 5942" d="M547.415,248.331a4.492,4.492,0,1,1-4.492-4.495A4.494,4.494,0,0,1,547.415,248.331Z" transform="translate(-417.695 -241.601)" fill="#fff"/>
    </g>
    <g id="Group_1774" data-name="Group 1774" transform="translate(1374.178 12080.484) rotate(43)">
      <g id="Group_435-2" data-name="Group 435" transform="translate(6.728 5.946)">
        <rect id="Rectangle_127-2" data-name="Rectangle 127" width="118.499" height="1.566" transform="translate(0 0)" fill="#00b5be"/>
      </g>
      <path id="Path_5941-2" data-name="Path 5941" d="M13.458,6.728a6.729,6.729,0,1,0-6.728,6.73A6.729,6.729,0,0,0,13.458,6.728Z" transform="translate(0 0)" fill="#fff" stroke="#00b5be" stroke-width="1"/>
      <path id="Path_5942-2" data-name="Path 5942" d="M8.985,4.492A4.492,4.492,0,1,0,4.493,8.986,4.494,4.494,0,0,0,8.985,4.492Z" transform="translate(120.736 2.237)" fill="#fff"/>
    </g>
    <g id="Group_1772" data-name="Group 1772" transform="translate(1279.452 12009.22)">
      <g id="Group_439" data-name="Group 439" transform="translate(209.205 14)">
        <rect id="Rectangle_128" data-name="Rectangle 128" width="100.396" height="1.173" transform="translate(14.343 27.834)" fill="#00b5be"/>
        <text id="실용성" transform="translate(29.343 10.718)" fill="#fff" font-size="14" font-family="Roboto-Regular, Roboto"><tspan x="0" y="13">实用性</tspan></text>
      </g>
      <g id="Group_440" data-name="Group 440" transform="translate(173.548 17.78)">
        <path id="Path_5948" data-name="Path 5948" d="M193.149,95.9a24.994,24.994,0,1,0,32.035,14.938A24.995,24.995,0,0,0,193.149,95.9Z" transform="translate(-176.698 -94.39)" fill="#f9fbfc"/>
      </g>
      <g id="Money-Exchange-Payment" transform="translate(184.548 28.781)">
        <circle id="Ellipse_17" data-name="Ellipse 17" cx="4.582" cy="4.582" r="4.582" transform="translate(10.381 4.69)" fill="#bddbff"/>
        <path id="Path_291" data-name="Path 291" d="M7.073,50.619v.509H3V44H7.073v6.619Z" transform="translate(-2.491 -23.462)" fill="#bddbff"/>
        <g id="Group_87" data-name="Group 87" transform="translate(0 0)">
          <path id="Path_292" data-name="Path 292" d="M31.239,40.923a1.987,1.987,0,0,0-2.726-.745l-4.248,2.5a1.994,1.994,0,0,0-1.813-1.2H16.547l-1.841-.626a7.329,7.329,0,0,0-2.366-.392h-.424a7.368,7.368,0,0,0-3.85,1.089l-.717.439H6.988a.5.5,0,0,0-.5-.509H2.5a.5.5,0,0,0-.5.509V49.12a.5.5,0,0,0,.5.509H6.49a.5.5,0,0,0,.5-.509h3.757a3.422,3.422,0,0,1,.408.024l5.947.713a7.188,7.188,0,0,0,.862.051,7.415,7.415,0,0,0,3.752-1.022l8.794-5.18a2.025,2.025,0,0,0,1-1.765,2.085,2.085,0,0,0-.267-1.018ZM5.991,48.611H3V42.5H5.991ZM30.01,42.824l-8.793,5.182a6.419,6.419,0,0,1-4,.841l-5.946-.713a4.412,4.412,0,0,0-.523-.033H6.988V43.01h.5a.491.491,0,0,0,.257-.073l.835-.509a6.386,6.386,0,0,1,3.337-.945h.424a6.366,6.366,0,0,1,2.051.34l1.918.653a.49.49,0,0,0,.158.026h5.986a1.019,1.019,0,0,1,0,2.037H14.97v1.018h7.483a2.006,2.006,0,0,0,1.971-1.795l4.586-2.7a.98.98,0,0,1,1,0,1.03,1.03,0,0,1,0,1.764Z" transform="translate(-2 -21.454)" fill="#0041e8"/>
          <path id="Path_294" data-name="Path 294" d="M27.091,11a5.091,5.091,0,1,0,5.091,5.091A5.091,5.091,0,0,0,27.091,11Zm0,9.165a4.073,4.073,0,1,1,4.073-4.073,4.073,4.073,0,0,1-4.073,4.073Z" transform="translate(-12.129 -6.676)" fill="#0041e8"/>
          <path id="Path_295" data-name="Path 295" d="M32.508,6.268l.78-.655-.6-.713a7.125,7.125,0,0,1,.687,13.9l.266.983a8.142,8.142,0,0,0-.866-15.9l.713-.6-.655-.779L31.182,3.9a.509.509,0,0,0-.063.717Z" transform="translate(-16.654 -2.507)" fill="#0041e8"/>
          <path id="Path_296" data-name="Path 296" d="M22.877,21.46l-.713.6.655.78,1.655-1.388a.509.509,0,0,0,.063-.717l-1.388-1.655-.78.655.6.713a7.125,7.125,0,0,1-.687-13.9l-.267-.983a8.142,8.142,0,0,0,.866,15.9Z" transform="translate(-9.074 -4.007)" fill="#0041e8"/>
          <path id="Path_297" data-name="Path 297" d="M50,20h1.018v1.018H50Z" transform="translate(-26.171 -11.28)" fill="#0041e8"/>
          <path id="Path_298" data-name="Path 298" d="M0,0H1.018V1.018H0Z" transform="translate(23.491 6.415) rotate(-15.009)" fill="#0041e8"/>
          <path id="Path_299" data-name="Path 299" d="M0,0H1.018V1.018H0Z" transform="matrix(0.866, -0.5, 0.5, 0.866, 22.47, 4.396)" fill="#0041e8"/>
          <path id="Path_300" data-name="Path 300" d="M0,0H1.018V1.018H0Z" transform="translate(20.932 2.571) rotate(-45)" fill="#0041e8"/>
          <path id="Path_301" data-name="Path 301" d="M0,0H1.018V1.018H0Z" transform="matrix(0.5, -0.866, 0.866, 0.5, 19.005, 1.226)" fill="#0041e8"/>
          <path id="Path_302" data-name="Path 302" d="M0,0H1.018V1.018H0Z" transform="translate(23.494 12.04) rotate(-74.991)" fill="#0041e8"/>
          <path id="Path_303" data-name="Path 303" d="M0,0H1.018V1.018H0Z" transform="matrix(0.5, -0.866, 0.866, 0.5, 22.467, 14.147)" fill="#0041e8"/>
          <path id="Path_304" data-name="Path 304" d="M0,0H1.018V1.018H0Z" transform="translate(20.937 15.935) rotate(-45)" fill="#0041e8"/>
          <path id="Path_305" data-name="Path 305" d="M0,0H1.018V1.018H0Z" transform="matrix(0.866, -0.5, 0.5, 0.866, 19.004, 17.24)" fill="#0041e8"/>
          <path id="Path_306" data-name="Path 306" d="M12,20h1.018v1.018H12Z" transform="translate(-7.015 -11.28)" fill="#0041e8"/>
          <path id="Path_307" data-name="Path 307" d="M0,0H1.018V1.018H0Z" transform="translate(5.197 7.14) rotate(-74.991)" fill="#0041e8"/>
          <path id="Path_308" data-name="Path 308" d="M0,0H1.018V1.018H0Z" transform="matrix(0.5, -0.866, 0.866, 0.5, 6.069, 4.765)" fill="#0041e8"/>
          <path id="Path_309" data-name="Path 309" d="M0,0H1.018V1.018H0Z" transform="translate(7.548 2.576) rotate(-45)" fill="#0041e8"/>
          <path id="Path_310" data-name="Path 310" d="M0,0H1.018V1.018H0Z" transform="matrix(0.866, -0.5, 0.5, 0.866, 9.535, 0.852)" fill="#0041e8"/>
          <path id="Path_311" data-name="Path 311" d="M0,0H1.018V1.018H0Z" transform="translate(5.198 11.32) rotate(-15.009)" fill="#0041e8"/>
          <path id="Path_312" data-name="Path 312" d="M0,0H1.018V1.018H0Z" transform="matrix(0.866, -0.5, 0.5, 0.866, 6.07, 13.776)" fill="#0041e8"/>
          <path id="Path_313" data-name="Path 313" d="M0,0H1.018V1.018H0Z" transform="translate(7.547 15.924) rotate(-45)" fill="#0041e8"/>
          <path id="Path_314" data-name="Path 314" d="M0,0H1.018V1.018H0Z" transform="matrix(0.5, -0.866, 0.866, 0.5, 9.535, 17.615)" fill="#0041e8"/>
          <path id="Path_2519" data-name="Path 2519" d="M849.466,545.869l-1.5,3.513a.258.258,0,0,0-.027.158q.029.167.242.167h.38l.052.3h-1.63l-.052-.3a.643.643,0,0,0,.474-.176,1.829,1.829,0,0,0,.344-.547l2.251-5.15h.361l1.582,5.873h.695l.052.3h-2.862l-.052-.3h.676Z" transform="translate(-834.784 -538.225)" fill="#0041e8"/>
        </g>
      </g>
    </g>
    <g id="Group_1773" data-name="Group 1773" transform="translate(1221.227 12059.752)">
      <g id="Group_454" data-name="Group 454" transform="translate(274.205 28.743)">
        <rect id="Rectangle_134" data-name="Rectangle 134" width="100.455" height="1.174" transform="translate(7.591 27.832)" fill="#00b5be"/>
        <text id="신용_담보_기능" data-name="신용, 담보 기능" transform="translate(20.591 5.714)" fill="#fff" font-size="14" font-family="Roboto-Regular, Roboto"><tspan x="0" y="13">可信用担保</tspan></text>
      </g>
      <g id="Group_455" data-name="Group 455" transform="translate(222.796 -21)">
        <path id="Path_5966" data-name="Path 5966" d="M147.171,227.628a25,25,0,1,0,34.815-6.138A25,25,0,0,0,147.171,227.628Z" transform="translate(-133.753 -163.719)" fill="#f9fbfc" stroke="#00b5be" stroke-width="1"/>
        <g id="analytics" transform="translate(21.896 64.248)">
          <path id="Path_348" data-name="Path 348" d="M20.141,5V6.841h-1.38a.923.923,0,0,0-.92.92V16.6a1.276,1.276,0,0,0-.322.373L16,20V6.841A1.841,1.841,0,0,1,17.841,5Z" transform="translate(-10.987 -3.62)" fill="#bddbff"/>
          <path id="Path_349" data-name="Path 349" d="M36.044,3.92V5.761a.923.923,0,0,1-.92.92h-9.2a.923.923,0,0,1-.92-.92V3H36.044Z" transform="translate(-15.93 -2.54)" fill="#bddbff"/>
          <path id="Path_350" data-name="Path 350" d="M36.407,6.824V26.882a1.832,1.832,0,0,1-1.841,1.824H18.92A1.849,1.849,0,0,1,18,28.46v-.21l.649-.857a3.452,3.452,0,0,0,.474-.853.92.92,0,0,0,.718.342h13.8a.919.919,0,0,0,.92-.912V7.735a.919.919,0,0,0-.92-.912h-1.38V5h2.3A1.832,1.832,0,0,1,36.407,6.824Z" transform="translate(-12.218 -3.62)" fill="#bddbff"/>
          <path id="Path_351" data-name="Path 351" d="M20.46,46.553v.3A3.6,3.6,0,0,1,20.2,48.2a.9.9,0,0,1-.2-.575V44.74l.143.322a3.632,3.632,0,0,1,.318,1.491Z" transform="translate(-13.154 -25.254)" fill="#bddbff"/>
          <g id="Group_90" data-name="Group 90" transform="translate(0 0)">
            <path id="Path_352" data-name="Path 352" d="M27.366,2.913H25.54V2.456A.456.456,0,0,0,25.084,2H14.129a.456.456,0,0,0-.456.456v.456H11.847A2.285,2.285,0,0,0,9.565,5.2v6.868a2.285,2.285,0,0,0-1.606.979L5.874,16.1A5,5,0,0,0,5,18.928v10a.456.456,0,0,0,.456.456h5.477a.456.456,0,0,0,.456-.456V27.509a2.225,2.225,0,0,0,.456.052H27.366a2.285,2.285,0,0,0,2.282-2.282V5.2a2.285,2.285,0,0,0-2.282-2.282Zm-12.781,0H24.627V5.2a.456.456,0,0,1-.456.456H15.042a.456.456,0,0,1-.456-.456Zm.456,3.652h9.129a1.369,1.369,0,0,0,1.285-.913h1a.456.456,0,0,1,.456.456V24.366a.456.456,0,0,1-.456.456H12.76a.445.445,0,0,1-.178-.041A4.09,4.09,0,0,0,12.76,23.6v-.294a4.1,4.1,0,0,0-.352-1.666l-.228-.508,2.115-4.3A1.822,1.822,0,0,0,12.3,14.151V6.108a.456.456,0,0,1,.456-.456h1a1.369,1.369,0,0,0,1.285.913Zm-3.2-2.739h1.826v.913H12.76A1.369,1.369,0,0,0,11.39,6.108v8.57a1.929,1.929,0,0,0-.272.359l-.641,1.282V5.2a1.369,1.369,0,0,1,1.369-1.369ZM10.477,26.648v1.826H5.913V18.928a4.094,4.094,0,0,1,.715-2.316l2.085-3.058a1.364,1.364,0,0,1,.852-.561v5.15l-.959,1.91.817.411,2.5-4.993a.913.913,0,0,1,1.7.456.959.959,0,0,1-.137.483l-2.223,4.514a.479.479,0,0,0-.046.189v.016a.449.449,0,0,0,.057.22l.294.663a3.181,3.181,0,0,1,.274,1.3V23.6a3.213,3.213,0,0,1-.639,1.914l-.636.858a.456.456,0,0,0-.091.274Zm18.258-1.369a1.369,1.369,0,0,1-1.369,1.369H11.847a1.353,1.353,0,0,1-.312-.041l.406-.543a4.058,4.058,0,0,0,.285-.443,1.36,1.36,0,0,0,.534.114H26.453a1.369,1.369,0,0,0,1.369-1.369V6.108a1.369,1.369,0,0,0-1.369-1.369H25.54V3.826h1.826A1.369,1.369,0,0,1,28.736,5.2Z" transform="translate(-5 -2)" fill="#0041e8"/>
            <path id="Path_353" data-name="Path 353" d="M36,15h.92v.92H36Z" transform="translate(-21.854 -9.068)" fill="#0041e8"/>
            <path id="Path_354" data-name="Path 354" d="M40,15h.92v.92H40Z" transform="translate(-24.029 -9.068)" fill="#0041e8"/>
            <path id="Path_355" data-name="Path 355" d="M32,15h.92v.92H32Z" transform="translate(-19.68 -9.068)" fill="#0041e8"/>
            <path id="Path_356" data-name="Path 356" d="M32.459,26.491l1.055,1.055a.46.46,0,0,0,.651,0l1.975-1.975v.73h.92V24.46A.46.46,0,0,0,36.6,24H34.76v.92h.73l-1.65,1.65-1.055-1.055a.46.46,0,0,0-.651,0l-1.841,1.841.651.651Z" transform="translate(-18.783 -13.972)" fill="#0041e8"/>
            <path id="Path_357" data-name="Path 357" d="M27.46,28.823h8.283V27.9H27.92V21H27v7.363A.46.46,0,0,0,27.46,28.823Z" transform="translate(-17.002 -12.355)" fill="#0041e8"/>
            <path id="Path_358" data-name="Path 358" d="M28,42h2.761v.92H28Z" transform="translate(-17.512 -23.747)" fill="#0041e8"/>
            <path id="Path_359" data-name="Path 359" d="M36,42h4.6v.92H36Z" transform="translate(-21.876 -23.747)" fill="#0041e8"/>
            <path id="Path_360" data-name="Path 360" d="M28,46h8.283v.92H28Z" transform="translate(-17.544 -25.922)" fill="#0041e8"/>
          </g>
        </g>
      </g>
    </g>
    <g id="Group_1768" data-name="Group 1768" transform="translate(1450.706 11712.288)">
      <g id="Group_460" data-name="Group 460" transform="translate(44.823 116.48)">
        <rect id="Rectangle_136" data-name="Rectangle 136" width="101" height="1.174" transform="translate(7.769 27.833)" fill="#00b5be"/>
        <text id="교환의_유용성" data-name="교환의 유용성" transform="translate(23.769 7.717)" fill="#fff" font-size="14" font-family="Roboto-Regular, Roboto"><tspan x="0" y="13">互换可用性</tspan></text>
      </g>
      <g id="Group_461" data-name="Group 461" transform="translate(68.035)">
        <path id="Path_5973" data-name="Path 5973" d="M547.176,95.925a25.35,25.35,0,1,1-32.491,15.151A25.35,25.35,0,0,1,547.176,95.925Z" transform="translate(-578.889 25.322)" fill="#f9fbfc" stroke="#00b5be" stroke-width="1"/>
        <g id="Exchange" transform="translate(-56.881 128.8)">
          <path id="Path_274" data-name="Path 274" d="M50.771,44.131A4.661,4.661,0,0,0,47.713,43a4.718,4.718,0,1,0,3.058,1.131Z" transform="translate(-20.211 -20.211)" fill="#bddbff"/>
          <path id="Path_275" data-name="Path 275" d="M46.571,5a1.579,1.579,0,0,0-1.309.7A1.606,1.606,0,0,0,45,6.571a1.571,1.571,0,0,0,2.88.869,1.6,1.6,0,0,0,.262-.869A1.571,1.571,0,0,0,46.571,5Z" transform="translate(-21.432 -3.429)" fill="#bddbff"/>
          <path id="Path_276" data-name="Path 276" d="M32.71,25.047v6.284a1.05,1.05,0,0,1-1.047,1.047H18.047A1.05,1.05,0,0,1,17,31.331V25.047A1.05,1.05,0,0,1,18.047,24H31.663A1.05,1.05,0,0,1,32.71,25.047Zm-5.76,3.142a2.095,2.095,0,1,0-2.095,2.095A2.095,2.095,0,0,0,26.95,28.189Z" transform="translate(-8.486 -11.82)" fill="#bddbff"/>
          <path id="Path_277" data-name="Path 277" d="M14.571,53a1.564,1.564,0,0,0-1.309.7,1.6,1.6,0,0,0-.262.869,1.574,1.574,0,0,0,2.88.875,1.606,1.606,0,0,0,.262-.875A1.571,1.571,0,0,0,14.571,53Z" transform="translate(-6.971 -24.974)" fill="#bddbff"/>
          <path id="Path_278" data-name="Path 278" d="M11.293,4.653a4.71,4.71,0,1,0-6.64,6.64,4.661,4.661,0,0,0,3.058,1.131,4.713,4.713,0,0,0,4.713-4.713,4.661,4.661,0,0,0-1.131-3.058Z" transform="translate(-2.474 -2.474)" fill="#bddbff"/>
          <g id="Group_86" data-name="Group 86" transform="translate(0 0)">
            <path id="Path_279" data-name="Path 279" d="M33.134,25.422a16.1,16.1,0,0,0,1.6-7.052,16.332,16.332,0,0,0-5.6-12.326,2.174,2.174,0,0,0-3.53-2.352A16.38,16.38,0,0,0,18.369,2a16.1,16.1,0,0,0-7.052,1.6A5.454,5.454,0,1,0,3.6,11.317,16.1,16.1,0,0,0,2,18.369,16.332,16.332,0,0,0,7.6,30.7a2.174,2.174,0,0,0,3.53,2.352,16.38,16.38,0,0,0,7.236,1.692,16.1,16.1,0,0,0,7.052-1.6,5.454,5.454,0,1,0,7.713-7.713ZM27.1,4.183a1.091,1.091,0,1,1-1.091,1.091A1.091,1.091,0,0,1,27.1,4.183ZM3.091,7.456a4.365,4.365,0,1,1,4.365,4.365A4.365,4.365,0,0,1,3.091,7.456Zm6.548,25.1a1.091,1.091,0,1,1,1.091-1.091A1.091,1.091,0,0,1,9.639,32.556Zm8.73,1.091a15.057,15.057,0,0,1-6.657-1.532A2.167,2.167,0,0,0,8.24,29.8,15.246,15.246,0,0,1,3.091,18.369a15.024,15.024,0,0,1,1.385-6.347,5.45,5.45,0,0,0,7.545-7.545,15.236,15.236,0,0,1,13,.146A2.167,2.167,0,0,0,28.5,6.935a15.246,15.246,0,0,1,5.149,11.434,15.024,15.024,0,0,1-1.385,6.347,5.45,5.45,0,0,0-7.545,7.545A15.024,15.024,0,0,1,18.369,33.647Zm10.913,0a4.365,4.365,0,1,1,4.365-4.365A4.365,4.365,0,0,1,29.282,33.647Z" transform="translate(-2 -2)" fill="#0041e8"/>
            <path id="Path_280" data-name="Path 280" d="M28,11.047a10.485,10.485,0,0,1,10.4,9.29l-.77-.646-.673.8,1.7,1.428a.524.524,0,0,0,.738-.064l1.428-1.7-.8-.673-.584.7A11.526,11.526,0,0,0,23.6,10.868l.4.968a10.4,10.4,0,0,1,4-.79Z" transform="translate(-10.97 -5.81)" fill="#0041e8"/>
            <path id="Path_281" data-name="Path 281" d="M21.52,38.481a10.48,10.48,0,0,1-9.688-14.463l-.968-.4A11.527,11.527,0,0,0,21.52,39.529a11.648,11.648,0,0,0,2.169-.2l-.2-1.029a10.578,10.578,0,0,1-1.973.185Z" transform="translate(-5.81 -10.979)" fill="#0041e8"/>
            <path id="Path_282" data-name="Path 282" d="M37.732,50.858l.3,1a10.741,10.741,0,0,0,1.059-.373l-.4-.969C38.382,50.646,38.058,50.76,37.732,50.858Z" transform="translate(-18.199 -23.792)" fill="#0041e8"/>
            <path id="Path_283" data-name="Path 283" d="M17.695,32.426H32.381a1.636,1.636,0,0,0,1.695-1.571V24.571A1.636,1.636,0,0,0,32.381,23H17.695A1.636,1.636,0,0,0,16,24.571v6.284A1.636,1.636,0,0,0,17.695,32.426Zm-.565-7.855a.545.545,0,0,1,.565-.524H32.381a.545.545,0,0,1,.565.524v6.284a.545.545,0,0,1-.565.524H17.695a.545.545,0,0,1-.565-.524Z" transform="translate(-8.669 -11.344)" fill="#0041e8"/>
            <path id="Path_284" data-name="Path 284" d="M29.618,32.237A2.618,2.618,0,1,0,27,29.618,2.618,2.618,0,0,0,29.618,32.237Zm0-4.189a1.571,1.571,0,1,1-1.571,1.571A1.571,1.571,0,0,1,29.618,28.047Z" transform="translate(-13.249 -13.249)" fill="#0041e8"/>
            <path id="Path_285" data-name="Path 285" d="M21.047,28.047h1.047V27H20.524a.524.524,0,0,0-.524.524v1.571h1.047Z" transform="translate(-10.15 -13.32)" fill="#0041e8"/>
            <path id="Path_286" data-name="Path 286" d="M41.047,29.095h1.047V27.524A.524.524,0,0,0,41.571,27H40v1.047h1.047Z" transform="translate(-19.206 -13.32)" fill="#0041e8"/>
            <path id="Path_287" data-name="Path 287" d="M20.524,35.095h1.571V34.047H21.047V33H20v1.571A.524.524,0,0,0,20.524,35.095Z" transform="translate(-10.15 -16.036)" fill="#0041e8"/>
            <path id="Path_288" data-name="Path 288" d="M42.095,34.571V33H41.047v1.047H40v1.047h1.571A.524.524,0,0,0,42.095,34.571Z" transform="translate(-19.206 -16.036)" fill="#0041e8"/>
            <path id="Path_290" data-name="Path 290" d="M49.571,47.571h1.047a.524.524,0,0,1,.524.524h1.047a1.571,1.571,0,0,0-1.571-1.571V46H49.571v.524a1.571,1.571,0,0,0,0,3.142h1.047a.524.524,0,0,1,0,1.047H49.571a.524.524,0,0,1-.524-.524H48a1.571,1.571,0,0,0,1.571,1.571v.524h1.047V51.76a1.571,1.571,0,0,0,0-3.142H49.571a.524.524,0,1,1,0-1.047Z" transform="translate(-22.593 -21.64)" fill="#0041e8"/>
            <path id="Path_2520" data-name="Path 2520" d="M849.675,546.036l-1.626,3.8a.279.279,0,0,0-.029.171q.032.181.263.181h.411l.057.321h-1.764l-.057-.321a.7.7,0,0,0,.513-.19,1.98,1.98,0,0,0,.372-.592l2.436-5.574h.391l1.712,6.356h.752l.057.321h-3.1l-.056-.321h.732Z" transform="translate(-844.401 -542.393)" fill="#0041e8"/>
          </g>
        </g>
      </g>
    </g>
    <g id="Group_448" data-name="Group 448" transform="translate(1267.18 12111.333)">
      <g id="Group_444" data-name="Group 444" transform="translate(249.92 41.719)">
        <rect id="Rectangle_130" data-name="Rectangle 130" width="100.436" height="1.175" transform="translate(-13.238 27.832)" fill="#00b5be"/>
        <text id="무한_확장성" data-name="무한 확장성" transform="translate(-1.238 9.304)" fill="#fff" font-size="14" font-family="Roboto-Regular, Roboto"><tspan x="0" y="13">无限扩展性</tspan></text>
      </g>
      <g id="Group_445" data-name="Group 445" transform="translate(186.682 45.667)">
        <path id="Path_5954" data-name="Path 5954" d="M185.057,361.906a25,25,0,1,0,25-25A25,25,0,0,0,185.057,361.906Z" transform="translate(-185.057 -336.906)" fill="#f9fbfc"/>
      </g>
      <g id="Investment" transform="translate(197.682 56.667)">
        <path id="Path_315" data-name="Path 315" d="M30.178,14.245v4.686l-2.666.333A11.1,11.1,0,0,1,26.2,22.422l1.649,2.118-3.313,3.313L22.423,26.2a11.053,11.053,0,0,1-3.022,1.27V26.9h.469a.937.937,0,1,0,0-1.874v-.609a1.82,1.82,0,0,1,.806-1.537,7.5,7.5,0,1,0-8.186-.009,1.87,1.87,0,0,1,.82,1.574v.581a.937.937,0,1,0,0,1.874h.469v.576a11.053,11.053,0,0,1-3.022-1.27L8.637,27.852,5.324,24.539l1.649-2.118a11.1,11.1,0,0,1-1.307-3.158L3,18.931V14.245l2.666-.333a11.1,11.1,0,0,1,1.307-3.158L5.324,8.637,8.637,5.324l2.118,1.649a11.106,11.106,0,0,1,3.158-1.307L14.246,3h4.686l.333,2.666a11.106,11.106,0,0,1,3.158,1.307l2.118-1.649,3.313,3.313L26.2,10.755a11.1,11.1,0,0,1,1.307,3.158Z" transform="translate(-2.531 -2.531)" fill="#bddbff"/>
        <path id="Path_316" data-name="Path 316" d="M30.5,50a.938.938,0,1,1,0,1.876H23.938a.938.938,0,1,1,0-1.876Z" transform="translate(-13.162 -27.511)" fill="#bddbff"/>
        <path id="Path_317" data-name="Path 317" d="M26,54v1.407a1.883,1.883,0,0,0,1.876,1.876h1.876a1.883,1.883,0,0,0,1.876-1.876V54Z" transform="translate(-14.756 -29.635)" fill="#bddbff"/>
        <g id="Group_88" data-name="Group 88" transform="translate(0 0)">
          <path id="Path_319" data-name="Path 319" d="M29.705,13.25l-2.35-.293a11.583,11.583,0,0,0-1.115-2.7l1.453-1.866a.469.469,0,0,0-.038-.619L24.341,4.462a.469.469,0,0,0-.619-.038L21.856,5.876a11.582,11.582,0,0,0-2.7-1.115l-.293-2.35A.469.469,0,0,0,18.4,2H13.715a.469.469,0,0,0-.465.41l-.293,2.35a11.582,11.582,0,0,0-2.7,1.115L8.394,4.424a.469.469,0,0,0-.619.038L4.462,7.775a.469.469,0,0,0-.038.619L5.876,10.26a11.582,11.582,0,0,0-1.115,2.7l-2.35.293a.469.469,0,0,0-.41.464V18.4a.469.469,0,0,0,.41.465l2.35.293a11.582,11.582,0,0,0,1.115,2.7L4.424,23.722a.469.469,0,0,0,.038.619l3.313,3.313a.469.469,0,0,0,.619.038L10.26,26.24a11.481,11.481,0,0,0,2.517,1.054v.478a2.35,2.35,0,0,0,2.343,2.343H17a2.35,2.35,0,0,0,2.343-2.343v-.478a11.481,11.481,0,0,0,2.518-1.055l1.866,1.453a.469.469,0,0,0,.619-.038l3.313-3.313a.469.469,0,0,0,.038-.619L26.24,21.855a11.582,11.582,0,0,0,1.115-2.7l2.35-.293a.469.469,0,0,0,.41-.464V13.715A.469.469,0,0,0,29.705,13.25ZM18.87,23.884v.141H13.246v-.113a2.328,2.328,0,0,0-1.031-1.968,7.029,7.029,0,1,1,7.675.009,2.282,2.282,0,0,0-1.021,1.932ZM12.453,25.1a.448.448,0,0,1,.325-.135h6.56a.469.469,0,0,1,.469.469.456.456,0,0,1-.143.334.448.448,0,0,1-.325.135h-6.56a.469.469,0,0,1-.469-.469.456.456,0,0,1,.143-.334Zm5.667,3.52A1.4,1.4,0,0,1,17,29.179H15.121a1.412,1.412,0,0,1-1.406-1.406v-.937H18.4v.937A1.4,1.4,0,0,1,18.12,28.616ZM29.179,17.987l-2.256.281a.469.469,0,0,0-.4.353,10.643,10.643,0,0,1-1.252,3.026.469.469,0,0,0,.03.532l1.4,1.792L23.972,26.7,22.18,25.3a.469.469,0,0,0-.532-.03,10.352,10.352,0,0,1-.954.507,1.39,1.39,0,0,0,.05-.351,1.406,1.406,0,0,0-.937-1.32v-.227a1.369,1.369,0,0,1,.593-1.147,7.966,7.966,0,1,0-8.7-.008,1.415,1.415,0,0,1,.609,1.183v.2a1.336,1.336,0,0,0-.519.325,1.362,1.362,0,0,0-.368,1.348,10.544,10.544,0,0,1-.954-.508.469.469,0,0,0-.532.03L8.144,26.7,5.417,23.972l1.4-1.792a.469.469,0,0,0,.03-.532A10.643,10.643,0,0,1,5.59,18.622a.469.469,0,0,0-.4-.353l-2.256-.282V14.129l2.256-.281a.469.469,0,0,0,.4-.353,10.649,10.649,0,0,1,1.252-3.026.469.469,0,0,0-.03-.532l-1.4-1.792L8.144,5.417l1.792,1.4a.469.469,0,0,0,.532.03A10.649,10.649,0,0,1,13.494,5.59a.469.469,0,0,0,.353-.4l.282-2.256h3.858l.281,2.256a.469.469,0,0,0,.353.4,10.649,10.649,0,0,1,3.026,1.252.469.469,0,0,0,.532-.03l1.792-1.4L26.7,8.144,25.3,9.936a.469.469,0,0,0-.03.532,10.649,10.649,0,0,1,1.252,3.026.469.469,0,0,0,.4.353l2.256.281Z" transform="translate(-2 -2)" fill="#0041e8"/>
          <path id="Path_320" data-name="Path 320" d="M31,10h.938v.938H31Z" transform="translate(-17.411 -6.248)" fill="#0041e8"/>
          <path id="Path_321" data-name="Path 321" d="M0,0H.938V.938H0Z" transform="translate(6.435 7.1) rotate(-45)" fill="#0041e8"/>
          <path id="Path_322" data-name="Path 322" d="M10,31h.938v.938H10Z" transform="translate(-6.248 -17.411)" fill="#0041e8"/>
          <path id="Path_323" data-name="Path 323" d="M0,0H.938V.938H0Z" transform="translate(6.434 21.014) rotate(-45)" fill="#0041e8"/>
          <path id="Path_324" data-name="Path 324" d="M0,0H.938V.938H0Z" transform="translate(20.348 21.016) rotate(-45)" fill="#0041e8"/>
          <path id="Path_325" data-name="Path 325" d="M52,31h.938v.938H52Z" transform="translate(-28.573 -17.411)" fill="#0041e8"/>
          <path id="Path_326" data-name="Path 326" d="M0,0H.938V.938H0Z" transform="translate(20.35 7.102) rotate(-45)" fill="#0041e8"/>
          <path id="Path_327" data-name="Path 327" d="M31,20h.938v.938H31Z" transform="translate(-17.411 -11.565)" fill="#0041e8"/>
          <path id="Path_328" data-name="Path 328" d="M0,0H.938V.938H0Z" transform="matrix(0.866, -0.5, 0.5, 0.866, 10.84, 9.423)" fill="#0041e8"/>
          <path id="Path_329" data-name="Path 329" d="M0,0H.938V.938H0Z" transform="matrix(0.5, -0.866, 0.866, 0.5, 8.953, 11.652)" fill="#0041e8"/>
          <path id="Path_330" data-name="Path 330" d="M20,31h.938v.938H20Z" transform="translate(-11.565 -17.411)" fill="#0041e8"/>
          <path id="Path_331" data-name="Path 331" d="M0,0H.938V.938H0Z" transform="matrix(0.866, -0.5, 0.5, 0.866, 8.954, 16.461)" fill="#0041e8"/>
          <path id="Path_332" data-name="Path 332" d="M0,0H.938V.938H0Z" transform="matrix(0.5, -0.866, 0.866, 0.5, 10.84, 18.696)" fill="#0041e8"/>
          <path id="Path_333" data-name="Path 333" d="M31,42h.938v.938H31Z" transform="translate(-17.411 -23.256)" fill="#0041e8"/>
          <path id="Path_334" data-name="Path 334" d="M0,0H.938V.938H0Z" transform="matrix(0.866, -0.5, 0.5, 0.866, 15.994, 18.35)" fill="#0041e8"/>
          <path id="Path_335" data-name="Path 335" d="M0,0H.938V.938H0Z" transform="matrix(0.5, -0.866, 0.866, 0.5, 17.881, 16.807)" fill="#0041e8"/>
          <path id="Path_336" data-name="Path 336" d="M42,31h.938v.938H42Z" transform="translate(-23.256 -17.411)" fill="#0041e8"/>
          <path id="Path_337" data-name="Path 337" d="M0,0H.938V.938H0Z" transform="matrix(0.866, -0.5, 0.5, 0.866, 17.881, 11.307)" fill="#0041e8"/>
          <path id="Path_338" data-name="Path 338" d="M0,0H.938V.938H0Z" transform="matrix(0.5, -0.866, 0.866, 0.5, 15.995, 9.768)" fill="#0041e8"/>
          <path id="Path_2523" data-name="Path 2523" d="M849.287,545.725l-1.4,3.265a.239.239,0,0,0-.025.147q.027.155.225.155h.353l.049.276h-1.515l-.049-.276a.6.6,0,0,0,.44-.164,1.7,1.7,0,0,0,.319-.508l2.092-4.787h.336l1.47,5.459h.646l.049.276h-2.661l-.048-.276h.628Z" transform="translate(-835.288 -532.881)" fill="#0041e8"/>
        </g>
      </g>
    </g>
    <g id="Group_1765" data-name="Group 1765" transform="translate(1425.576 11919.575)">
      <g id="Group_433" data-name="Group 433" transform="translate(77.107 -25.582)">
        <rect id="Rectangle_126" data-name="Rectangle 126" width="101.275" height="1.174" transform="translate(0.317 27.832)" fill="#00b5be"/>
        <text id="가치_증대" data-name="가치 증대" transform="translate(16.317 5.714)" fill="#fff" font-size="14" font-family="Roboto-Regular, Roboto"><tspan x="0" y="13">价值增长</tspan></text>
      </g>
      <g id="Group_1770" data-name="Group 1770" transform="translate(-72 -68)">
        <g id="Group_434" data-name="Group 434" transform="translate(99.425 46.425)">
          <path id="Path_5940" data-name="Path 5940" d="M592.686,227.628a25,25,0,1,1-34.815-6.138A25,25,0,0,1,592.686,227.628Z" transform="translate(-547.209 -216.966)" fill="#f9fbfc"/>
        </g>
        <g id="analytics_2_" data-name="analytics (2)" transform="translate(110.919 57.92)">
          <path id="Path_361" data-name="Path 361" d="M36,43h1.764v2.645H36Z" transform="translate(-21.006 -24.919)" fill="#bddbff"/>
          <path id="Path_362" data-name="Path 362" d="M28,45h1.764v1.764H28Z" transform="translate(-16.534 -26.037)" fill="#bddbff"/>
          <path id="Path_363" data-name="Path 363" d="M56.011,53.516a1.764,1.764,0,0,1-1.248,3.011H53V53h1.764A1.775,1.775,0,0,1,56.011,53.516Z" transform="translate(-30.508 -30.508)" fill="#bddbff"/>
          <path id="Path_364" data-name="Path 364" d="M44,40h1.764v3.968H44Z" transform="translate(-25.478 -23.242)" fill="#bddbff"/>
          <path id="Path_365" data-name="Path 365" d="M6.527,5.645V21.518H4.764A1.761,1.761,0,0,0,3,23.282V4.764A1.764,1.764,0,0,1,4.764,3H6.527Z" transform="translate(-2.559 -2.559)" fill="#bddbff"/>
          <g id="Group_91" data-name="Group 91" transform="translate(0 0)">
            <path id="Path_366" data-name="Path 366" d="M34.464,28.764a.441.441,0,0,0-.441-.441H32.259a.441.441,0,0,0-.441.441v7.5h-.882v-4.85a.441.441,0,0,0-.441-.441H28.732a.441.441,0,0,0-.441.441v4.85h-.882V33.173a.441.441,0,0,0-.441-.441H25.2a.441.441,0,0,0-.441.441v3.086h-.882V27H23v9.7a.441.441,0,0,0,.441.441H35.786v-.882H34.464Zm-.882.441v3.086H32.7V29.2ZM32.7,33.173h.882v3.086H32.7ZM30.055,31.85v1.764h-.882V31.85ZM29.173,34.5h.882v1.764h-.882Zm-2.645-.882V34.5h-.882v-.882Zm-.882,1.764h.882v.882h-.882Z" transform="translate(-13.737 -15.973)" fill="#0041e8"/>
            <path id="Path_367" data-name="Path 367" d="M34.132,28.505v.7h.882V27.441A.441.441,0,0,0,34.573,27H32.809v.882h.7L30.293,31.1l.623.623Z" transform="translate(-17.815 -15.974)" fill="#0041e8"/>
            <path id="Path_368" data-name="Path 368" d="M26.255,4.646H6.41V2.441A.441.441,0,0,0,5.969,2H4.205A2.208,2.208,0,0,0,2,4.205V22.727a2.208,2.208,0,0,0,2.205,2.205H24.05v3.087a.441.441,0,0,0,.441.441h1.764a2.208,2.208,0,0,0,2.205-2.205V6.851A2.208,2.208,0,0,0,26.255,4.646ZM2.882,4.205A1.323,1.323,0,0,1,4.205,2.882H5.528v17.64H4.205a2.2,2.2,0,0,0-1.323.441ZM4.205,24.05a1.323,1.323,0,0,1,0-2.646H5.969a.441.441,0,0,0,.441-.441V5.528H26.255a1.323,1.323,0,0,1,1.323,1.323V24.5a2.182,2.182,0,0,0-1.323-.452Zm22.05,3.528H24.932V24.932h1.323a1.323,1.323,0,1,1,0,2.646Z" transform="translate(-2 -2)" fill="#0041e8"/>
            <path id="Path_370" data-name="Path 370" d="M32,21h5.291v.882H32Z" transform="translate(-18.769 -12.621)" fill="#0041e8"/>
            <path id="Path_371" data-name="Path 371" d="M32,17h1.764v.882H32Z" transform="translate(-18.77 -10.385)" fill="#0041e8"/>
            <path id="Path_372" data-name="Path 372" d="M38,17h2.645v.882H38Z" transform="translate(-22.123 -10.385)" fill="#0041e8"/>
            <path id="Path_2521" data-name="Path 2521" d="M849.148,545.614l-1.314,3.073a.225.225,0,0,0-.023.138q.026.146.212.146h.332l.046.259h-1.426l-.046-.259a.562.562,0,0,0,.414-.154,1.6,1.6,0,0,0,.3-.478l1.969-4.505h.316l1.384,5.137h.608l.046.259h-2.5l-.046-.259h.591Z" transform="translate(-840.157 -539.381)" fill="#0041e8"/>
          </g>
        </g>
      </g>
    </g>
    <g id="Group_1767" data-name="Group 1767" transform="translate(1378.395 11937.237)">
      <g id="Group_449" data-name="Group 449" transform="translate(116.562 21.046)">
        <rect id="Rectangle_132" data-name="Rectangle 132" width="101" height="1.171" transform="translate(8.043 27.833)" fill="#00b5be"/>
        <text id="가치_안정성" data-name="가치 안정성" transform="translate(24.043 3.717)" fill="#fff" font-size="14" font-family="Roboto-Regular, Roboto"><tspan x="0" y="13">价值稳定性</tspan></text>
      </g>
      <g id="Group_1771" data-name="Group 1771" transform="translate(-3 12)">
        <g id="Group_450" data-name="Group 450" transform="translate(77.605 13.052)">
          <path id="Path_5960" data-name="Path 5960" d="M554.8,361.906a25,25,0,1,1-25-25A25,25,0,0,1,554.8,361.906Z" transform="translate(-504.804 -336.906)" fill="#f9fbfc" stroke="#00b5be" stroke-width="1"/>
        </g>
        <g id="Money-Protection-Smartphone" transform="translate(94.605 25.052)">
          <path id="Path_339" data-name="Path 339" d="M30.6,23.69V26.2A5.07,5.07,0,0,1,28,30.632l-1.2.663-1.2-.663A5.07,5.07,0,0,1,23,26.2V23.69L26.8,22Z" transform="translate(-18.73 -13.475)" fill="#bddbff"/>
          <path id="Path_340" data-name="Path 340" d="M30.76,3v.845a.848.848,0,0,1-.845.845h-5.07A.848.848,0,0,1,24,3.845V3Z" transform="translate(-19.307 -2.578)" fill="#bddbff"/>
          <g id="Group_89" data-name="Group 89" transform="translate(0 0)">
            <path id="Path_341" data-name="Path 341" d="M27.021,2h-11.9A2.127,2.127,0,0,0,13,4.124V25.368a2.127,2.127,0,0,0,2.124,2.124h11.9a2.127,2.127,0,0,0,2.124-2.124V4.124A2.127,2.127,0,0,0,27.021,2ZM18.1,2.85h5.948v.425a.425.425,0,0,1-.425.425h-5.1a.425.425,0,0,1-.425-.425ZM28.3,25.368a1.275,1.275,0,0,1-1.275,1.275h-11.9a1.275,1.275,0,0,1-1.275-1.275V4.124A1.275,1.275,0,0,1,15.124,2.85h2.124v.425a1.275,1.275,0,0,0,1.275,1.275h5.1A1.275,1.275,0,0,0,24.9,3.275V2.85h2.124A1.275,1.275,0,0,1,28.3,4.124Z" transform="translate(-13 -2)" fill="#0041e8"/>
            <path id="Path_342" data-name="Path 342" d="M30.54,23.112a.422.422,0,0,0-.254-.386l-3.843-1.69a.431.431,0,0,0-.347,0l-3.843,1.69a.422.422,0,0,0-.254.386v2.509a5.486,5.486,0,0,0,2.855,4.8l1.207.664a.431.431,0,0,0,.415,0l1.207-.664a5.486,5.486,0,0,0,2.855-4.8Zm-.854,2.509a4.643,4.643,0,0,1-2.416,4.063l-1,.55-1-.549a4.643,4.643,0,0,1-2.416-4.063V23.387l3.416-1.5,3.416,1.5Z" transform="translate(-18.198 -12.897)" fill="#0041e8"/>
            <path id="Path_344" data-name="Path 344" d="M41.69,15H40v.845h1.267v1.267h.845v-1.69A.422.422,0,0,0,41.69,15Z" transform="translate(-28.519 -9.474)" fill="#0041e8"/>
            <path id="Path_345" data-name="Path 345" d="M19.845,15.845h1.267V15h-1.69a.422.422,0,0,0-.422.422v1.69h.845Z" transform="translate(-16.449 -9.474)" fill="#0041e8"/>
            <path id="Path_346" data-name="Path 346" d="M41.267,45.267H40v.845h1.69a.422.422,0,0,0,.422-.422V44h-.845Z" transform="translate(-28.519 -26.147)" fill="#0041e8"/>
            <path id="Path_347" data-name="Path 347" d="M19.845,44H19v1.69a.422.422,0,0,0,.422.422h1.69v-.845H19.845Z" transform="translate(-16.449 -26.147)" fill="#0041e8"/>
            <path id="Path_2522" data-name="Path 2522" d="M849.067,545.549l-1.266,2.96a.218.218,0,0,0-.022.133q.025.141.2.141h.32l.044.25h-1.374l-.044-.25a.541.541,0,0,0,.4-.148,1.544,1.544,0,0,0,.29-.461l1.9-4.34h.3l1.333,4.949h.586l.044.25H849.37l-.044-.25h.57Z" transform="translate(-841.204 -533.777)" fill="#0041e8"/>
          </g>
        </g>
      </g>
    </g>
  </g>
</svg>
