<svg xmlns="http://www.w3.org/2000/svg" xmlns:xlink="http://www.w3.org/1999/xlink" width="1340.119" height="617.687" viewBox="0 0 1340.119 617.687">
  <defs>
    <linearGradient id="linear-gradient" x1="0.5" x2="0.5" y2="1" gradientUnits="objectBoundingBox">
      <stop offset="0" stop-color="#033d61"/>
      <stop offset="1" stop-color="#0042ff"/>
    </linearGradient>
  </defs>
  <g id="Group_2916" data-name="Group 2916" transform="translate(-291 -1265.304)">
    <g id="Group_432" data-name="Group 432" transform="translate(717.791 1351.562)">
      <g id="Group_430" data-name="Group 430" transform="translate(0 0)">
        <g id="Group_428" data-name="Group 428">
          <path id="Path_5936" data-name="Path 5936" d="M484.581,577.928c-123.033,0-223.128-100.1-223.128-223.13s100.1-223.129,223.128-223.129S707.71,231.764,707.71,354.8,607.615,577.928,484.581,577.928Zm0-444.542c-122.087,0-221.412,99.326-221.412,221.412s99.324,221.414,221.412,221.414S705.993,476.885,705.993,354.8,606.669,133.386,484.581,133.386Z" transform="translate(-261.453 -131.669)" fill="#fff"/>
        </g>
        <g id="Group_429" data-name="Group 429" transform="translate(20.911 20.911)">
          <path id="Path_5937" data-name="Path 5937" d="M474.327,546.761c-111.5,0-202.218-90.714-202.218-202.218s90.714-202.217,202.218-202.217,202.218,90.716,202.218,202.217S585.831,546.761,474.327,546.761Zm0-402.718c-110.556,0-200.5,89.945-200.5,200.5s89.945,200.5,200.5,200.5,200.5-89.943,200.5-200.5S584.885,144.043,474.327,144.043Z" transform="translate(-272.11 -142.326)" fill="#fff"/>
        </g>
        <circle id="Ellipse_119" data-name="Ellipse 119" cx="172.181" cy="172.181" r="172.181" transform="matrix(0.973, -0.232, 0.232, 0.973, 15.677, 95.628)" fill="#fff" opacity="0.8"/>
      </g>
      <g id="Group_497" data-name="Group 497" transform="translate(161.597 131.555)">
        <g id="Group_431" data-name="Group 431" transform="translate(16.805 147.551)">
          <text id="자산" transform="translate(20.808 26)" fill="#033d61" font-size="28" font-family="Roboto-Bold, Roboto" font-weight="700"><tspan x="0" y="0">资产</tspan></text>
        </g>
        <g id="asset" transform="translate(-0.388 0)">
          <path id="Path_2526" data-name="Path 2526" d="M400.136,420.068A4.068,4.068,0,1,1,396.068,416,4.068,4.068,0,0,1,400.136,420.068Zm0,0" transform="translate(-291.095 -310.234)" fill="#033d61"/>
          <path id="Path_2527" data-name="Path 2527" d="M119.99,63.866l-2.876-1.891v-27.4A22.483,22.483,0,0,0,97.722,12.429l4.8-9.487a2.016,2.016,0,0,0-.093-1.983A2.059,2.059,0,0,0,100.677,0H76.021a2.059,2.059,0,0,0-1.756.959,2.016,2.016,0,0,0-.093,1.983l4.793,9.487A22.483,22.483,0,0,0,59.584,34.577V61.964l-2.866,1.892a7.3,7.3,0,0,0-3.3,6.112,7.175,7.175,0,0,0,.81,3.255H45.2V38.645H55.475V34.577H43.936L27.955,20.339H56.8l1.945,1.574,2.6-3.148L58.83,16.731a2.065,2.065,0,0,0-1.3-.46H22.585a2.079,2.079,0,0,0-.656.118,2,2,0,0,0-.187.089,2.088,2.088,0,0,0-.421.256c-.029.023-.065.031-.094.057L.68,35.1A2.027,2.027,0,0,0,0,36.611V75.256A18.357,18.357,0,0,0,13.149,92.774a8.605,8.605,0,0,0-2.876,6.408v.441a8.626,8.626,0,0,0,4.847,7.769l23.957,11.856a27.067,27.067,0,0,0,11.946,2.789h70.2A2.044,2.044,0,0,0,123.278,120V91.528a2.044,2.044,0,0,0-2.055-2.034h-4.841a18.2,18.2,0,0,0,6.9-14.238,2,2,0,0,0-.994-1.7,7.189,7.189,0,0,0,.994-3.588,7.3,7.3,0,0,0-3.288-6.1Zm-62.461,6.1A3.247,3.247,0,0,1,59,67.25l3.781-2.5a2.028,2.028,0,0,0,.914-1.7V34.577A18.421,18.421,0,0,1,82.185,16.271a2.059,2.059,0,0,0,1.756-.959,2.016,2.016,0,0,0,.093-1.983L79.346,4.067H97.352l-4.678,9.261a2.016,2.016,0,0,0,.09,1.978,2.061,2.061,0,0,0,1.749.964A18.421,18.421,0,0,1,113,34.577V63.052a2.029,2.029,0,0,0,.914,1.692l3.781,2.5a3.248,3.248,0,0,1,1.33,3.658,3.294,3.294,0,0,1-3.149,2.324H60.827a3.285,3.285,0,0,1-3.3-3.255ZM4.109,37.516,22.6,21.041,41.092,37.516V73.222H30.819V58.984a2.044,2.044,0,0,0-2.055-2.034H16.437a2.044,2.044,0,0,0-2.055,2.034V73.222H4.109Zm22.6,35.707H18.491v-12.2H26.71ZM41.378,99.761l-13.672-6.2H42.235a7.9,7.9,0,0,0-.857,6.2Zm-.462,15.845L16.958,103.749a4.58,4.58,0,0,1-2.576-4.127v-.441a4.594,4.594,0,0,1,2.138-3.889,4.691,4.691,0,0,1,4.461-.307l23.363,10.593a2.088,2.088,0,0,0,.857.187H65.748a2.034,2.034,0,1,0,0-4.068H49.311a4.068,4.068,0,1,1,0-8.136H65.064a2.065,2.065,0,0,0,.982-.248l.526-.282a27.659,27.659,0,0,1,25.887-.295v25.233H51.022a22.859,22.859,0,0,1-10.107-2.364Zm78.253-22.044v24.408h-22.6V93.562Zm-14.382-4.068H95.021a31.771,31.771,0,0,0-30.409-.037l-15.3.037H18.492A14.361,14.361,0,0,1,4.255,77.29H119.023a14.361,14.361,0,0,1-14.237,12.2Zm0,0" transform="translate(0 0.001)" fill="url(#linear-gradient)"/>
          <path id="Path_2529" data-name="Path 2529" d="M66.034,166.238H74.17A2.034,2.034,0,0,0,76.2,164.2v-10.17A2.034,2.034,0,0,0,74.17,152H66.034A2.034,2.034,0,0,0,64,154.034V164.2A2.034,2.034,0,0,0,66.034,166.238Zm2.034-10.17h4.068v6.1H68.068Zm0,0" transform="translate(-47.728 -113.354)" fill="#033d61"/>
          <circle id="Ellipse_71" data-name="Ellipse 71" cx="18.676" cy="18.676" r="18.676" transform="translate(69.85 26.99)" fill="#cdd8df"/>
          <path id="Path_2530" data-name="Path 2530" d="M42.751,11A20.751,20.751,0,1,0,63.5,31.751,20.751,20.751,0,0,0,42.751,11Zm0,37.352a16.6,16.6,0,1,1,16.6-16.6,16.6,16.6,0,0,1-16.6,16.6Z" transform="translate(45.775 13.803)" fill="#033d61"/>
          <path id="Path_2531" data-name="Path 2531" d="M857.269,552.128l-6.124,14.317a1.052,1.052,0,0,0-.108.643q.12.682.989.681h1.547l.213,1.208h-6.644l-.213-1.208a2.617,2.617,0,0,0,1.93-.717,7.463,7.463,0,0,0,1.4-2.228l9.173-20.99H860.9l6.448,23.934h2.831l.213,1.208H858.731l-.213-1.208h2.755Z" transform="translate(-769.605 -513.073)" fill="#033d61"/>
        </g>
      </g>
    </g>
    <g id="Group_433" data-name="Group 433" transform="translate(1424.119 1557)">
      <rect id="Rectangle_126" data-name="Rectangle 126" width="206" height="1.322" transform="translate(-0.119 38.401)" fill="#fff"/>
      <text id="VALUE_EXTENSIBILITY" data-name="VALUE  EXTENSIBILITY" transform="translate(0 19)" fill="#fff" font-size="20" font-family="Roboto-Regular, Roboto"><tspan x="0" y="0" xml:space="preserve">VALUE  EXTENSIBILITY</tspan></text>
      <text id="가치_증대" data-name="가치 증대" transform="translate(67.881 68.201)" fill="#fff" font-size="19" font-family="Roboto-Regular, Roboto"><tspan x="0" y="0">价值增长</tspan></text>
    </g>
    <g id="Group_434" data-name="Group 434" transform="translate(1266.56 1507)">
      <path id="Path_5938" data-name="Path 5938" d="M668.544,240.889a69.943,69.943,0,1,1-97.413-17.179A69.943,69.943,0,0,1,668.544,240.889Z" transform="translate(-541.298 -211.056)" fill="#f9fbfc" opacity="0.4"/>
      <path id="Path_5939" data-name="Path 5939" d="M668.544,240.889a69.943,69.943,0,1,1-97.413-17.179A69.943,69.943,0,0,1,668.544,240.889Z" transform="translate(-541.298 -211.056)" fill="none" stroke="#f9fbfc" stroke-miterlimit="10" stroke-width="1" opacity="0.4"/>
      <path id="Path_5940" data-name="Path 5940" d="M653.36,241.852A58.35,58.35,0,1,1,572.1,227.524,58.351,58.351,0,0,1,653.36,241.852Z" transform="translate(-535.611 -205.368)" fill="#f9fbfc"/>
    </g>
    <g id="Group_436" data-name="Group 436" transform="translate(1153.589 1568.78)">
      <g id="Group_435" data-name="Group 435" transform="translate(8.43 7.45)">
        <rect id="Rectangle_127" data-name="Rectangle 127" width="104.836" height="1.962" fill="#fff"/>
      </g>
      <path id="Path_5941" data-name="Path 5941" d="M500.435,250.841a8.431,8.431,0,1,1-8.43-8.432A8.431,8.431,0,0,1,500.435,250.841Z" transform="translate(-483.574 -242.409)" fill="#fff"/>
      <path id="Path_5942" data-name="Path 5942" d="M549.687,249.467a5.629,5.629,0,1,1-5.627-5.631A5.63,5.63,0,0,1,549.687,249.467Z" transform="translate(-430.792 -241.036)" fill="#fff"/>
    </g>
    <g id="analytics_2_" data-name="analytics (2)" transform="translate(1305.399 1545.761)">
      <path id="Path_361" data-name="Path 361" d="M36,43h4.18v6.27H36Z" transform="translate(-0.464 -0.147)" fill="#bddbff"/>
      <path id="Path_362" data-name="Path 362" d="M28,45h4.18v4.18H28Z" transform="translate(-0.825 -0.057)" fill="#bddbff"/>
      <path id="Path_363" data-name="Path 363" d="M60.137,54.223A4.18,4.18,0,0,1,57.18,61.36H53V53h4.18A4.206,4.206,0,0,1,60.137,54.223Z" transform="translate(0.305 0.305)" fill="#bddbff"/>
      <path id="Path_364" data-name="Path 364" d="M44,40h4.18v9.4H44Z" transform="translate(-0.103 -0.282)" fill="#bddbff"/>
      <path id="Path_365" data-name="Path 365" d="M11.36,9.27V46.888H7.18A4.175,4.175,0,0,0,3,51.068V7.18A4.18,4.18,0,0,1,7.18,3h4.18Z" transform="translate(-1.955 -1.955)" fill="#bddbff"/>
      <g id="Group_91" data-name="Group 91" transform="translate(0 0)">
        <path id="Path_366" data-name="Path 366" d="M50.169,31.18a1.045,1.045,0,0,0-1.045-1.045h-4.18A1.045,1.045,0,0,0,43.9,31.18V48.944h-2.09V37.449A1.045,1.045,0,0,0,40.764,36.4h-4.18a1.045,1.045,0,0,0-1.045,1.045V48.944h-2.09V41.629A1.045,1.045,0,0,0,32.4,40.584h-4.18a1.045,1.045,0,0,0-1.045,1.045v7.315H25.09V27H23V49.989a1.045,1.045,0,0,0,1.045,1.045H53.3v-2.09H50.169Zm-2.09,1.045v7.315h-2.09V32.225Zm-2.09,9.4h2.09v7.315h-2.09Zm-6.27-3.135v4.18h-2.09v-4.18Zm-2.09,6.27h2.09v4.18h-2.09Zm-6.27-2.09v2.09H29.27v-2.09Zm-2.09,4.18h2.09v2.09H29.27Z" transform="translate(-1.047 -0.868)" fill="#033d61"/>
        <path id="Path_367" data-name="Path 367" d="M39.391,30.567v1.657h2.09v-4.18A1.045,1.045,0,0,0,40.436,27h-4.18v2.09h1.657l-7.621,7.621,1.478,1.478Z" transform="translate(-0.721 -0.87)" fill="#033d61"/>
        <path id="Path_368" data-name="Path 368" d="M59.484,8.271H12.452V3.045A1.045,1.045,0,0,0,11.406,2H7.226A5.232,5.232,0,0,0,2,7.226v43.9a5.232,5.232,0,0,0,5.226,5.226H54.258v7.316A1.045,1.045,0,0,0,55.3,64.71h4.181a5.232,5.232,0,0,0,5.226-5.226V13.5A5.232,5.232,0,0,0,59.484,8.271ZM4.09,7.226A3.135,3.135,0,0,1,7.226,4.09h3.135V45.9H7.226A5.2,5.2,0,0,0,4.09,46.942ZM7.226,54.258a3.135,3.135,0,0,1,0-6.271h4.181a1.045,1.045,0,0,0,1.045-1.045V10.361H59.484A3.135,3.135,0,0,1,62.619,13.5V55.33a5.171,5.171,0,0,0-3.135-1.072Zm52.258,8.361H56.348V56.348h3.135a3.135,3.135,0,1,1,0,6.271Z" transform="translate(-2 -2)" fill="#033d61"/>
        <path id="Path_370" data-name="Path 370" d="M32,21H44.539v2.09H32Z" transform="translate(-0.643 -1.142)" fill="#033d61"/>
        <path id="Path_371" data-name="Path 371" d="M32,17h4.18v2.09H32Z" transform="translate(-0.645 -1.322)" fill="#033d61"/>
        <path id="Path_372" data-name="Path 372" d="M38,17h6.27v2.09H38Z" transform="translate(-0.373 -1.322)" fill="#033d61"/>
        <path id="Path_2521" data-name="Path 2521" d="M852.189,548.053l-3.115,7.283a.535.535,0,0,0-.055.327q.061.347.5.347h.787l.109.615h-3.38l-.108-.615a1.331,1.331,0,0,0,.982-.365,3.8,3.8,0,0,0,.712-1.133l4.666-10.677h.749l3.28,12.175h1.44l.108.615h-5.934l-.108-.615h1.4Z" transform="translate(-830.878 -533.28)" fill="#033d61"/>
      </g>
    </g>
    <g id="Group_439" data-name="Group 439" transform="translate(359.939 1320)">
      <rect id="Rectangle_128" data-name="Rectangle 128" width="159.803" height="1.47" transform="translate(2.06 32.038)" fill="#fff"/>
      <text id="UTILITY_USABILITY" data-name="UTILITY USABILITY" transform="translate(0.06 18)" fill="#fff" font-size="19" font-family="Roboto-Regular, Roboto"><tspan x="0" y="0">UTILITY USABILITY</tspan></text>
      <text id="실용성" transform="translate(57.061 60.546)" fill="#fff" font-size="19" font-family="Roboto-Regular, Roboto"><tspan x="0" y="0">实用性</tspan></text>
    </g>
    <g id="Group_440" data-name="Group 440" transform="translate(539.88 1266)">
      <path id="Path_5946" data-name="Path 5946" d="M216.824,92.716a69.946,69.946,0,1,0,89.653,41.8A69.945,69.945,0,0,0,216.824,92.716Z" transform="translate(-170.785 -88.479)" fill="#f9fbfc" opacity="0.4"/>
      <path id="Path_5947" data-name="Path 5947" d="M216.824,92.716a69.946,69.946,0,1,0,89.653,41.8A69.945,69.945,0,0,0,216.824,92.716Z" transform="translate(-170.785 -88.479)" fill="none" stroke="#f9fbfc" stroke-miterlimit="10" stroke-width="1" opacity="0.4"/>
      <path id="Path_5948" data-name="Path 5948" d="M215.1,97.924A58.35,58.35,0,1,0,289.889,132.8,58.35,58.35,0,0,0,215.1,97.924Z" transform="translate(-165.097 -82.791)" fill="#f9fbfc"/>
    </g>
    <g id="Group_442" data-name="Group 442" transform="translate(665.2 1364.478)">
      <g id="Group_441" data-name="Group 441" transform="translate(4.985 4.887)">
        <rect id="Rectangle_129" data-name="Rectangle 129" width="1.962" height="113.892" transform="translate(0 1.477) rotate(-48.839)" fill="#fff"/>
      </g>
      <path id="Path_5949" data-name="Path 5949" d="M276.947,183.491a8.431,8.431,0,1,1,8.43,8.432A8.431,8.431,0,0,1,276.947,183.491Z" transform="translate(-193.999 -102.907)" fill="#fff"/>
      <path id="Path_5950" data-name="Path 5950" d="M234.674,143.917a5.63,5.63,0,1,1,5.628,5.63A5.63,5.63,0,0,1,234.674,143.917Z" transform="translate(-234.674 -138.289)" fill="#fff"/>
    </g>
    <g id="Money-Exchange-Payment" transform="translate(572.455 1301.446)">
      <circle id="Ellipse_17" data-name="Ellipse 17" cx="11.501" cy="11.501" r="11.501" transform="translate(26.054 11.772)" fill="#bddbff"/>
      <path id="Path_291" data-name="Path 291" d="M13.223,60.612V61.89H3V44H13.223V60.612Z" transform="translate(-1.722 7.547)" fill="#bddbff"/>
      <g id="Group_87" data-name="Group 87" transform="translate(0 0)">
        <path id="Path_292" data-name="Path 292" d="M75.386,42.453a4.986,4.986,0,0,0-6.842-1.871l-10.662,6.28a5,5,0,0,0-4.55-3H38.511L33.89,42.287a18.4,18.4,0,0,0-5.938-.984H26.887a18.494,18.494,0,0,0-9.663,2.732l-1.8,1.1H14.52a1.265,1.265,0,0,0-1.252-1.278H3.252A1.265,1.265,0,0,0,2,45.137v17.89a1.265,1.265,0,0,0,1.252,1.278H13.268a1.265,1.265,0,0,0,1.252-1.278h9.429a8.591,8.591,0,0,1,1.024.061L39.9,64.878a18.036,18.036,0,0,0,2.165.128A18.61,18.61,0,0,0,51.48,62.44l22.071-13a5.083,5.083,0,0,0,2.5-4.429,5.232,5.232,0,0,0-.67-2.556Zm-63.37,19.3H4.5V46.415h7.512ZM72.3,47.225,50.229,60.231a16.109,16.109,0,0,1-10.044,2.111L25.262,60.553a11.075,11.075,0,0,0-1.313-.082H14.52V47.693h1.252a1.233,1.233,0,0,0,.645-.183l2.1-1.278a16.028,16.028,0,0,1,8.375-2.373h1.064a15.977,15.977,0,0,1,5.147.853l4.813,1.638a1.229,1.229,0,0,0,.4.065H53.332a2.556,2.556,0,0,1,0,5.112H34.552v2.556h18.78a5.036,5.036,0,0,0,4.948-4.5L69.791,42.8a2.46,2.46,0,0,1,2.5,0,2.586,2.586,0,0,1,.006,4.428Z" transform="translate(-2 6.41)" fill="#033d61"/>
        <path id="Path_294" data-name="Path 294" d="M34.779,11A12.779,12.779,0,1,0,47.558,23.779,12.779,12.779,0,0,0,34.779,11Zm0,23A10.223,10.223,0,1,1,45,23.779,10.223,10.223,0,0,1,34.779,34Z" transform="translate(2.775 -0.147)" fill="#033d61"/>
        <path id="Path_295" data-name="Path 295" d="M34.785,11.945,36.742,10.3l-1.5-1.789a17.881,17.881,0,0,1,1.725,34.893l.668,2.468a20.435,20.435,0,0,0-2.172-39.91l1.789-1.5L35.609,2.507,31.456,5.992a1.278,1.278,0,0,0-.157,1.8Z" transform="translate(5.005 -2.507)" fill="#033d61"/>
        <path id="Path_296" data-name="Path 296" d="M33.262,45.463l-1.789,1.5,1.643,1.958,4.153-3.485a1.278,1.278,0,0,0,.157-1.8l-3.485-4.153-1.958,1.643,1.5,1.789A17.881,17.881,0,0,1,31.758,8.03l-.67-2.468a20.435,20.435,0,0,0,2.172,39.91Z" transform="translate(1.382 -1.658)" fill="#033d61"/>
        <path id="Path_297" data-name="Path 297" d="M50,20h2.556v2.556H50Z" transform="translate(9.807 1.885)" fill="#033d61"/>
        <path id="Path_298" data-name="Path 298" d="M0,0H2.556V2.556H0Z" transform="translate(58.96 16.101) rotate(-15.009)" fill="#033d61"/>
        <path id="Path_299" data-name="Path 299" d="M0,0H2.554V2.554H0Z" transform="matrix(0.866, -0.5, 0.5, 0.866, 56.396, 11.033)" fill="#033d61"/>
        <path id="Path_300" data-name="Path 300" d="M0,0H2.556V2.556H0Z" transform="translate(52.537 6.452) rotate(-45)" fill="#033d61"/>
        <path id="Path_301" data-name="Path 301" d="M0,0H2.556V2.556H0Z" transform="matrix(0.5, -0.866, 0.866, 0.5, 47.698, 3.077)" fill="#033d61"/>
        <path id="Path_302" data-name="Path 302" d="M0,0H2.556V2.556H0Z" transform="translate(58.965 30.22) rotate(-74.991)" fill="#033d61"/>
        <path id="Path_303" data-name="Path 303" d="M0,0H2.554V2.554H0Z" transform="matrix(0.5, -0.866, 0.866, 0.5, 56.388, 35.507)" fill="#033d61"/>
        <path id="Path_304" data-name="Path 304" d="M0,0H2.556V2.556H0Z" transform="translate(52.548 39.995) rotate(-45)" fill="#033d61"/>
        <path id="Path_305" data-name="Path 305" d="M0,0H2.556V2.556H0Z" transform="matrix(0.866, -0.5, 0.5, 0.866, 47.696, 43.27)" fill="#033d61"/>
        <path id="Path_306" data-name="Path 306" d="M12,20h2.556v2.556H12Z" transform="translate(0.511 1.885)" fill="#033d61"/>
        <path id="Path_307" data-name="Path 307" d="M0,0H2.556V2.556H0Z" transform="translate(13.043 17.92) rotate(-74.991)" fill="#033d61"/>
        <path id="Path_308" data-name="Path 308" d="M0,0H2.556V2.556H0Z" transform="matrix(0.5, -0.866, 0.866, 0.5, 15.232, 11.96)" fill="#033d61"/>
        <path id="Path_309" data-name="Path 309" d="M0,0H2.556V2.556H0Z" transform="translate(18.945 6.465) rotate(-45)" fill="#033d61"/>
        <path id="Path_310" data-name="Path 310" d="M0,0H2.556V2.556H0Z" transform="matrix(0.866, -0.5, 0.5, 0.866, 23.932, 2.139)" fill="#033d61"/>
        <path id="Path_311" data-name="Path 311" d="M0,0H2.556V2.556H0Z" transform="translate(13.045 28.412) rotate(-15.009)" fill="#033d61"/>
        <path id="Path_312" data-name="Path 312" d="M0,0H2.556V2.556H0Z" transform="matrix(0.866, -0.5, 0.5, 0.866, 15.235, 34.575)" fill="#033d61"/>
        <path id="Path_313" data-name="Path 313" d="M0,0H2.556V2.556H0Z" transform="translate(18.942 39.967) rotate(-45)" fill="#033d61"/>
        <path id="Path_314" data-name="Path 314" d="M0,0H2.556V2.556H0Z" transform="matrix(0.5, -0.866, 0.866, 0.5, 23.931, 44.212)" fill="#033d61"/>
        <path id="Path_2519" data-name="Path 2519" d="M853.3,548.941l-3.771,8.816a.646.646,0,0,0-.067.4q.074.42.609.42h.953l.131.744H847.06l-.131-.744a1.612,1.612,0,0,0,1.189-.442,4.592,4.592,0,0,0,.862-1.372l5.649-12.926h.907l3.97,14.739h1.744l.131.744H854.2l-.131-.744h1.7Z" transform="translate(-816.448 -529.756)" fill="#033d61"/>
      </g>
    </g>
    <g id="Group_444" data-name="Group 444" transform="translate(297.411 1795)">
      <rect id="Rectangle_130" data-name="Rectangle 130" width="237" height="1.947" transform="translate(0 33.127)" fill="#fff"/>
      <text id="EXPANSION_AVAILABILITY" data-name="EXPANSION AVAILABILITY" transform="translate(0 19)" fill="#fff" font-size="20" font-family="Roboto-Regular, Roboto"><tspan x="0" y="0">EXPANSION AVAILABILITY</tspan></text>
      <text id="무한_확장성" data-name="무한 확장성" transform="translate(75 62.201)" fill="#fff" font-size="19" font-family="Roboto-Regular, Roboto"><tspan x="0" y="0">无限扩展性</tspan></text>
    </g>
    <g id="Group_445" data-name="Group 445" transform="translate(556.167 1742)">
      <path id="Path_5952" data-name="Path 5952" d="M179.148,400.942A69.944,69.944,0,1,0,249.09,331,69.942,69.942,0,0,0,179.148,400.942Z" transform="translate(-179.148 -330.996)" fill="#f9fbfc" opacity="0.4"/>
      <path id="Path_5953" data-name="Path 5953" d="M179.148,400.942A69.944,69.944,0,1,0,249.09,331,69.942,69.942,0,0,0,179.148,400.942Z" transform="translate(-179.148 -330.996)" fill="none" stroke="#f9fbfc" stroke-miterlimit="10" stroke-width="1" opacity="0.4"/>
      <path id="Path_5954" data-name="Path 5954" d="M185.057,395.256a58.35,58.35,0,1,0,58.348-58.35A58.347,58.347,0,0,0,185.057,395.256Z" transform="translate(-173.462 -325.309)" fill="#f9fbfc"/>
    </g>
    <g id="Group_447" data-name="Group 447" transform="translate(673.282 1702.186)">
      <g id="Group_446" data-name="Group 446" transform="translate(5.099 7.602)">
        <rect id="Rectangle_131" data-name="Rectangle 131" width="100.608" height="1.963" transform="translate(0 54.336) rotate(-32.689)" fill="#fff"/>
      </g>
      <path id="Path_5955" data-name="Path 5955" d="M280.518,318.827a8.431,8.431,0,1,0,8.43-8.43A8.429,8.429,0,0,0,280.518,318.827Z" transform="translate(-198.646 -310.397)" fill="#fff"/>
      <path id="Path_5956" data-name="Path 5956" d="M238.793,345.143a5.63,5.63,0,1,0,5.63-5.629A5.632,5.632,0,0,0,238.793,345.143Z" transform="translate(-238.793 -282.381)" fill="#fff"/>
    </g>
    <g id="Investment" transform="translate(593.754 1780.053)">
      <path id="Path_315" data-name="Path 315" d="M65.644,28.92v10.8l-6.146.767a25.6,25.6,0,0,1-3.013,7.279l3.8,4.882-7.636,7.636-4.882-3.8A25.477,25.477,0,0,1,40.8,59.408V58.08h1.08a2.16,2.16,0,1,0,0-4.32v-1.4a4.2,4.2,0,0,1,1.858-3.542,17.281,17.281,0,1,0-18.869-.022,4.31,4.31,0,0,1,1.89,3.629V53.76a2.16,2.16,0,1,0,0,4.32h1.08v1.328a25.476,25.476,0,0,1-6.966-2.927l-4.882,3.8L8.357,52.647l3.8-4.882a25.6,25.6,0,0,1-3.013-7.279L3,39.72V28.92l6.146-.767a25.6,25.6,0,0,1,3.013-7.279l-3.8-4.882,7.636-7.636,4.882,3.8a25.6,25.6,0,0,1,7.28-3.013L28.922,3h10.8l.767,6.145a25.6,25.6,0,0,1,7.28,3.013l4.882-3.8,7.636,7.636-3.8,4.882A25.6,25.6,0,0,1,59.5,28.153Z" transform="translate(-1.919 -1.919)" fill="#bddbff"/>
      <path id="Path_316" data-name="Path 316" d="M40.294,50a2.162,2.162,0,1,1,0,4.324H25.162a2.162,2.162,0,0,1,0-4.324Z" transform="translate(-0.325 1.835)" fill="#bddbff"/>
      <path id="Path_317" data-name="Path 317" d="M26,54v3.243a4.34,4.34,0,0,0,4.324,4.324h4.324a4.34,4.34,0,0,0,4.324-4.324V54Z" transform="translate(-0.082 2.159)" fill="#bddbff"/>
      <g id="Group_88" data-name="Group 88" transform="translate(0 0)">
        <path id="Path_319" data-name="Path 319" d="M65.86,27.931l-5.418-.676a26.7,26.7,0,0,0-2.571-6.216l3.348-4.3a1.08,1.08,0,0,0-.089-1.427L53.495,7.674a1.08,1.08,0,0,0-1.427-.089l-4.3,3.348A26.7,26.7,0,0,0,41.55,8.363l-.676-5.418A1.08,1.08,0,0,0,39.8,2H29a1.08,1.08,0,0,0-1.071.946l-.676,5.418a26.7,26.7,0,0,0-6.216,2.571l-4.3-3.348a1.08,1.08,0,0,0-1.427.089L7.674,15.311a1.08,1.08,0,0,0-.089,1.427l3.348,4.3a26.7,26.7,0,0,0-2.571,6.216l-5.418.676A1.08,1.08,0,0,0,2,29V39.8a1.08,1.08,0,0,0,.946,1.071l5.418.676a26.7,26.7,0,0,0,2.571,6.216l-3.348,4.3A1.08,1.08,0,0,0,7.675,53.5l7.636,7.636a1.08,1.08,0,0,0,1.427.089l4.3-3.348a26.462,26.462,0,0,0,5.8,2.43v1.1a5.417,5.417,0,0,0,5.4,5.4h4.32a5.418,5.418,0,0,0,5.4-5.4V60.3a26.463,26.463,0,0,0,5.8-2.432l4.3,3.348A1.08,1.08,0,0,0,53.5,61.13l7.636-7.636a1.08,1.08,0,0,0,.089-1.427l-3.348-4.3a26.7,26.7,0,0,0,2.571-6.216l5.418-.676a1.08,1.08,0,0,0,.945-1.069V29A1.08,1.08,0,0,0,65.86,27.931ZM40.883,52.44v.324H27.922V52.5a5.367,5.367,0,0,0-2.376-4.536,16.2,16.2,0,1,1,17.691.022,5.26,5.26,0,0,0-2.354,4.452Zm-14.791,2.8a1.034,1.034,0,0,1,.75-.311H41.964A1.08,1.08,0,0,1,43.044,56a1.052,1.052,0,0,1-.331.769,1.034,1.034,0,0,1-.75.311H26.842A1.08,1.08,0,0,1,25.762,56a1.052,1.052,0,0,1,.331-.769Zm13.063,8.114a3.218,3.218,0,0,1-2.592,1.3h-4.32A3.255,3.255,0,0,1,29,61.405v-2.16H39.8v2.16A3.226,3.226,0,0,1,39.155,63.349Zm25.49-24.5-5.2.648a1.08,1.08,0,0,0-.915.814,24.532,24.532,0,0,1-2.886,6.974,1.08,1.08,0,0,0,.069,1.226l3.215,4.13-6.286,6.286-4.13-3.215a1.08,1.08,0,0,0-1.226-.069,23.86,23.86,0,0,1-2.2,1.17A3.2,3.2,0,0,0,45.2,56a3.24,3.24,0,0,0-2.16-3.042V52.44A3.156,3.156,0,0,1,44.41,49.8a18.362,18.362,0,1,0-20.052-.019,3.261,3.261,0,0,1,1.4,2.726v.457a3.078,3.078,0,0,0-1.2.749,3.139,3.139,0,0,0-.848,3.107,24.3,24.3,0,0,1-2.2-1.171,1.08,1.08,0,0,0-1.226.069l-4.13,3.215L9.876,52.644l3.215-4.13a1.08,1.08,0,0,0,.069-1.226,24.532,24.532,0,0,1-2.886-6.974A1.08,1.08,0,0,0,9.36,39.5l-5.2-.649V29.956l5.2-.648a1.08,1.08,0,0,0,.915-.814,24.545,24.545,0,0,1,2.886-6.974,1.08,1.08,0,0,0-.069-1.226L9.876,16.162l6.286-6.286,4.13,3.215a1.08,1.08,0,0,0,1.226.069,24.545,24.545,0,0,1,6.974-2.886,1.08,1.08,0,0,0,.814-.915l.649-5.2H38.85l.648,5.2a1.08,1.08,0,0,0,.814.915,24.545,24.545,0,0,1,6.974,2.886,1.08,1.08,0,0,0,1.226-.069l4.13-3.215,6.286,6.286-3.215,4.13a1.08,1.08,0,0,0-.069,1.226,24.545,24.545,0,0,1,2.886,6.974,1.08,1.08,0,0,0,.915.814l5.2.648Z" transform="translate(-2 -2)" fill="#033d61"/>
        <path id="Path_320" data-name="Path 320" d="M31,10h2.162v2.162H31Z" transform="translate(0.322 -1.353)" fill="#033d61"/>
        <path id="Path_321" data-name="Path 321" d="M0,0H2.162V2.162H0Z" transform="translate(14.833 16.365) rotate(-45)" fill="#033d61"/>
        <path id="Path_322" data-name="Path 322" d="M10,31h2.162v2.162H10Z" transform="translate(-1.353 0.322)" fill="#033d61"/>
        <path id="Path_323" data-name="Path 323" d="M0,0H2.162V2.162H0Z" transform="translate(14.829 48.437) rotate(-45)" fill="#033d61"/>
        <path id="Path_324" data-name="Path 324" d="M0,0H2.162V2.162H0Z" transform="translate(46.901 48.441) rotate(-45)" fill="#033d61"/>
        <path id="Path_325" data-name="Path 325" d="M52,31h2.162v2.162H52Z" transform="translate(1.997 0.322)" fill="#033d61"/>
        <path id="Path_326" data-name="Path 326" d="M0,0H2.162V2.162H0Z" transform="translate(46.905 16.369) rotate(-45)" fill="#033d61"/>
        <path id="Path_327" data-name="Path 327" d="M31,20h2.162v2.162H31Z" transform="translate(0.322 -0.559)" fill="#033d61"/>
        <path id="Path_328" data-name="Path 328" d="M0,0H2.162V2.162H0Z" transform="matrix(0.866, -0.5, 0.5, 0.866, 24.985, 21.719)" fill="#033d61"/>
        <path id="Path_329" data-name="Path 329" d="M0,0H2.162V2.162H0Z" transform="matrix(0.5, -0.866, 0.866, 0.5, 20.637, 26.858)" fill="#033d61"/>
        <path id="Path_330" data-name="Path 330" d="M20,31h2.162v2.162H20Z" transform="translate(-0.559 0.322)" fill="#033d61"/>
        <path id="Path_331" data-name="Path 331" d="M0,0H2.162V2.162H0Z" transform="matrix(0.866, -0.5, 0.5, 0.866, 20.639, 37.942)" fill="#033d61"/>
        <path id="Path_332" data-name="Path 332" d="M0,0H2.162V2.162H0Z" transform="matrix(0.5, -0.866, 0.866, 0.5, 24.986, 43.093)" fill="#033d61"/>
        <path id="Path_333" data-name="Path 333" d="M31,42h2.162v2.162H31Z" transform="translate(0.322 1.203)" fill="#033d61"/>
        <path id="Path_334" data-name="Path 334" d="M0,0H2.162V2.162H0Z" transform="matrix(0.866, -0.5, 0.5, 0.866, 36.865, 42.296)" fill="#033d61"/>
        <path id="Path_335" data-name="Path 335" d="M0,0H2.162V2.162H0Z" transform="matrix(0.5, -0.866, 0.866, 0.5, 41.214, 38.738)" fill="#033d61"/>
        <path id="Path_336" data-name="Path 336" d="M42,31h2.162v2.162H42Z" transform="translate(1.203 0.322)" fill="#033d61"/>
        <path id="Path_337" data-name="Path 337" d="M0,0H2.162V2.162H0Z" transform="matrix(0.866, -0.5, 0.5, 0.866, 41.215, 26.062)" fill="#033d61"/>
        <path id="Path_338" data-name="Path 338" d="M0,0H2.162V2.162H0Z" transform="matrix(0.5, -0.866, 0.866, 0.5, 36.868, 22.514)" fill="#033d61"/>
        <path id="Path_2523" data-name="Path 2523" d="M852.365,548.194l-3.219,7.526a.55.55,0,0,0-.057.338q.063.358.52.358h.813l.112.635h-3.493l-.112-.635a1.376,1.376,0,0,0,1.015-.377,3.928,3.928,0,0,0,.736-1.171l4.822-11.034h.774l3.389,12.582h1.488l.112.635h-6.132l-.112-.635h1.448Z" transform="translate(-820.096 -518.588)" fill="#033d61"/>
      </g>
    </g>
    <g id="Group_449" data-name="Group 449" transform="translate(1351.137 1796)">
      <rect id="Rectangle_132" data-name="Rectangle 132" width="148" height="1.213" transform="translate(0 32.494)" fill="#fff"/>
      <text id="STABILITY_ASTA" data-name="STABILITY ASTA" transform="translate(-0.137 19)" fill="#fff" font-size="20" font-family="Roboto-Regular, Roboto"><tspan x="0" y="0">STABILITY ASTA</tspan></text>
      <text id="가치_안정성" data-name="가치 안정성" transform="translate(30.863 60.201)" fill="#fff" font-size="19" font-family="Roboto-Regular, Roboto"><tspan x="0" y="0">价值稳定性</tspan></text>
    </g>
    <g id="Group_450" data-name="Group 450" transform="translate(1183.65 1742.604)">
      <path id="Path_5958" data-name="Path 5958" d="M638.782,400.942A69.944,69.944,0,1,1,568.84,331,69.942,69.942,0,0,1,638.782,400.942Z" transform="translate(-498.894 -330.996)" fill="#f9fbfc" opacity="0.4"/>
      <path id="Path_5959" data-name="Path 5959" d="M638.782,400.942A69.944,69.944,0,1,1,568.84,331,69.942,69.942,0,0,1,638.782,400.942Z" transform="translate(-498.894 -330.996)" fill="none" stroke="#f9fbfc" stroke-miterlimit="10" stroke-width="1" opacity="0.4"/>
      <path id="Path_5960" data-name="Path 5960" d="M621.5,395.256a58.349,58.349,0,1,1-58.348-58.35A58.346,58.346,0,0,1,621.5,395.256Z" transform="translate(-493.207 -325.309)" fill="#f9fbfc"/>
    </g>
    <g id="Group_452" data-name="Group 452" transform="translate(1107.772 1702.186)">
      <g id="Group_451" data-name="Group 451" transform="translate(7.9 7.602)">
        <rect id="Rectangle_133" data-name="Rectangle 133" width="1.964" height="100.608" transform="matrix(0.54, -0.842, 0.842, 0.54, 0, 1.653)" fill="#fff"/>
      </g>
      <path id="Path_5961" data-name="Path 5961" d="M477.083,318.827a8.43,8.43,0,1,1-8.43-8.43A8.428,8.428,0,0,1,477.083,318.827Z" transform="translate(-460.224 -310.397)" fill="#fff"/>
      <path id="Path_5962" data-name="Path 5962" d="M516.061,345.143a5.629,5.629,0,1,1-5.628-5.629A5.63,5.63,0,0,1,516.061,345.143Z" transform="translate(-417.329 -282.381)" fill="#fff"/>
    </g>
    <g id="Money-Protection-Smartphone" transform="translate(1237.926 1787.07)">
      <path id="Path_339" data-name="Path 339" d="M38.272,25.394v5.04a10.182,10.182,0,0,1-5.236,8.9l-2.4,1.331-2.4-1.332A10.181,10.181,0,0,1,23,30.433v-5.04L30.636,22Z" transform="translate(-14.425 -4.881)" fill="#bddbff"/>
      <path id="Path_340" data-name="Path 340" d="M37.575,3V4.7a1.7,1.7,0,0,1-1.7,1.7H25.7A1.7,1.7,0,0,1,24,4.7V3Z" transform="translate(-14.577 -2.152)" fill="#bddbff"/>
      <g id="Group_89" data-name="Group 89" transform="translate(0 0)">
        <path id="Path_341" data-name="Path 341" d="M41.155,2H17.266A4.271,4.271,0,0,0,13,6.266V48.925a4.271,4.271,0,0,0,4.266,4.266H41.155a4.271,4.271,0,0,0,4.266-4.266V6.266A4.271,4.271,0,0,0,41.155,2ZM23.238,3.706H35.183V4.56a.853.853,0,0,1-.853.853H24.091a.853.853,0,0,1-.853-.853ZM43.715,48.925a2.56,2.56,0,0,1-2.56,2.56H17.266a2.56,2.56,0,0,1-2.56-2.56V6.266a2.56,2.56,0,0,1,2.56-2.56h4.266V4.56a2.56,2.56,0,0,0,2.56,2.56H34.33a2.56,2.56,0,0,0,2.56-2.56V3.706h4.266a2.56,2.56,0,0,1,2.56,2.56Z" transform="translate(-13 -2)" fill="#033d61"/>
        <path id="Path_342" data-name="Path 342" d="M39.149,25.242a.848.848,0,0,0-.509-.776l-7.717-3.394a.866.866,0,0,0-.7,0l-7.717,3.394a.848.848,0,0,0-.509.775v5.039a11.016,11.016,0,0,0,5.734,9.639l2.424,1.333a.865.865,0,0,0,.833,0l2.424-1.333a11.016,11.016,0,0,0,5.734-9.639Zm-1.715,5.039a9.323,9.323,0,0,1-4.852,8.159l-2.008,1.1-2.008-1.1a9.323,9.323,0,0,1-4.852-8.159V25.794l6.86-3.017,6.86,3.017Z" transform="translate(-14.364 -4.729)" fill="#033d61"/>
        <path id="Path_344" data-name="Path 344" d="M43.394,15H40v1.7h2.545v2.545h1.7V15.848A.848.848,0,0,0,43.394,15Z" transform="translate(-16.944 -3.903)" fill="#033d61"/>
        <path id="Path_345" data-name="Path 345" d="M20.7,16.7h2.545V15H19.848a.848.848,0,0,0-.848.848v3.394h1.7Z" transform="translate(-13.877 -3.903)" fill="#033d61"/>
        <path id="Path_346" data-name="Path 346" d="M42.545,46.545H40v1.7h3.394a.848.848,0,0,0,.848-.848V44h-1.7Z" transform="translate(-16.944 -8.148)" fill="#033d61"/>
        <path id="Path_347" data-name="Path 347" d="M20.7,44H19v3.394a.848.848,0,0,0,.848.848h3.394v-1.7H20.7Z" transform="translate(-13.877 -8.148)" fill="#033d61"/>
        <path id="Path_2522" data-name="Path 2522" d="M851.223,547.278l-2.543,5.945a.437.437,0,0,0-.045.267q.05.283.411.283h.642l.089.5h-2.759l-.089-.5a1.087,1.087,0,0,0,.8-.3,3.1,3.1,0,0,0,.582-.925l3.809-8.716h.612l2.677,9.939h1.176l.088.5H851.83l-.088-.5h1.144Z" transform="translate(-835.432 -523.638)" fill="#033d61"/>
      </g>
    </g>
    <g id="Group_2914" data-name="Group 2914" transform="translate(-0.731 41.787)">
      <rect id="Rectangle_134" data-name="Rectangle 134" width="167" height="1.371" transform="translate(291.731 1550.628)" fill="#fff"/>
      <text id="CREDIT_ASSURANCE" data-name="CREDIT ASSURANCE" transform="translate(291.731 1535.213)" fill="#fff" font-size="18" font-family="Roboto-Regular, Roboto"><tspan x="0" y="0">CREDIT ASSURANCE</tspan></text>
      <text id="신용_담보_기능" data-name="신용, 담보 기능" transform="translate(319.731 1580.414)" fill="#fff" font-size="19" font-family="Roboto-Regular, Roboto"><tspan x="0" y="0">可信用担保</tspan></text>
    </g>
    <g id="Group_455" data-name="Group 455" transform="translate(473.029 1507.259)">
      <path id="Path_5964" data-name="Path 5964" d="M149.393,240.889a69.943,69.943,0,1,0,97.415-17.179A69.942,69.942,0,0,0,149.393,240.889Z" transform="translate(-136.738 -211.056)" fill="#f9fbfc" opacity="0.4"/>
      <path id="Path_5965" data-name="Path 5965" d="M149.393,240.889a69.943,69.943,0,1,0,97.415-17.179A69.942,69.942,0,0,0,149.393,240.889Z" transform="translate(-136.738 -211.056)" fill="none" stroke="#f9fbfc" stroke-miterlimit="10" stroke-width="1" opacity="0.4"/>
      <path id="Path_5966" data-name="Path 5966" d="M153.2,241.852a58.35,58.35,0,1,0,81.264-14.328A58.349,58.349,0,0,0,153.2,241.852Z" transform="translate(-130.926 -204.775)" fill="#f9fbfc"/>
      <g id="analytics" transform="translate(40.538 37.249)">
        <path id="Path_348" data-name="Path 348" d="M25.773,5V9.343H22.515a2.178,2.178,0,0,0-2.172,2.172V32.364a3.011,3.011,0,0,0-.76.88L16,40.4V9.343A4.343,4.343,0,0,1,20.343,5Z" transform="translate(-4.171 -1.742)" fill="#bddbff"/>
        <path id="Path_349" data-name="Path 349" d="M51.061,5.172V9.515a2.178,2.178,0,0,1-2.172,2.172H27.172A2.178,2.178,0,0,1,25,9.515V3H51.061Z" transform="translate(-3.598 -1.914)" fill="#bddbff"/>
        <path id="Path_350" data-name="Path 350" d="M61.434,9.3V56.636a4.323,4.323,0,0,1-4.343,4.3H20.172A4.363,4.363,0,0,1,18,60.358v-.495l1.531-2.022a8.146,8.146,0,0,0,1.118-2.012,2.172,2.172,0,0,0,1.694.807H54.919a2.168,2.168,0,0,0,2.172-2.151V11.454A2.168,2.168,0,0,0,54.919,9.3H51.662V5h5.429A4.323,4.323,0,0,1,61.434,9.3Z" transform="translate(-4.357 -1.742)" fill="#bddbff"/>
        <path id="Path_351" data-name="Path 351" d="M21.086,49.018v.706a8.49,8.49,0,0,1-.608,3.171A2.13,2.13,0,0,1,20,51.537v-6.8l.337.76A8.571,8.571,0,0,1,21.086,49.018Z" transform="translate(-3.846 1.242)" fill="#bddbff"/>
        <g id="Group_90" data-name="Group 90" transform="translate(0 0)">
          <path id="Path_352" data-name="Path 352" d="M57.778,4.154H53.469V3.077A1.077,1.077,0,0,0,52.392,2H26.542a1.077,1.077,0,0,0-1.077,1.077V4.154H21.156A5.392,5.392,0,0,0,15.771,9.54V25.747a5.391,5.391,0,0,0-3.789,2.309l-4.92,7.217A11.8,11.8,0,0,0,5,41.946v23.6a1.077,1.077,0,0,0,1.077,1.077H19a1.077,1.077,0,0,0,1.077-1.077V62.195a5.25,5.25,0,0,0,1.077.123H57.778a5.392,5.392,0,0,0,5.385-5.385V9.54a5.392,5.392,0,0,0-5.385-5.385Zm-30.159,0h23.7V9.54a1.077,1.077,0,0,1-1.077,1.077H28.7A1.077,1.077,0,0,1,27.619,9.54ZM28.7,12.771H50.238a3.231,3.231,0,0,0,3.033-2.154h2.352A1.077,1.077,0,0,1,56.7,11.694V54.778a1.077,1.077,0,0,1-1.077,1.077H23.311a1.05,1.05,0,0,1-.419-.1,9.651,9.651,0,0,0,.419-2.781v-.695a9.663,9.663,0,0,0-.832-3.931l-.539-1.2,4.991-10.141a4.3,4.3,0,0,0-4.7-6.341V11.694a1.077,1.077,0,0,1,1.077-1.077h2.352A3.231,3.231,0,0,0,28.7,12.771Zm-7.54-6.463h4.308V8.463H23.311a3.231,3.231,0,0,0-3.231,3.231V31.917a4.553,4.553,0,0,0-.641.847l-1.513,3.024V9.54a3.231,3.231,0,0,1,3.231-3.231ZM17.925,60.163v4.308H7.154V41.946a9.66,9.66,0,0,1,1.687-5.464l4.92-7.217a3.219,3.219,0,0,1,2.01-1.324V40.094L13.509,44.6l1.927.969L21.33,33.788a2.154,2.154,0,0,1,4.022,1.077,2.262,2.262,0,0,1-.323,1.14L19.782,46.658a1.131,1.131,0,0,0-.108.445v.038a1.06,1.06,0,0,0,.135.52l.694,1.564a7.505,7.505,0,0,1,.646,3.058v.695a7.581,7.581,0,0,1-1.508,4.516l-1.5,2.024a1.077,1.077,0,0,0-.215.646Zm43.084-3.231a3.231,3.231,0,0,1-3.231,3.231H21.156a3.192,3.192,0,0,1-.737-.1l.959-1.282a9.577,9.577,0,0,0,.672-1.045,3.21,3.21,0,0,0,1.26.269H55.624a3.231,3.231,0,0,0,3.231-3.231V11.694a3.231,3.231,0,0,0-3.231-3.231H53.469V6.308h4.308A3.231,3.231,0,0,1,61.009,9.54Z" transform="translate(-5 -2)" fill="#033d61"/>
          <path id="Path_353" data-name="Path 353" d="M36,15h2.172v2.172H36Z" transform="translate(-2.62 -1.002)" fill="#033d61"/>
          <path id="Path_354" data-name="Path 354" d="M40,15h2.172v2.172H40Z" transform="translate(-2.313 -1.002)" fill="#033d61"/>
          <path id="Path_355" data-name="Path 355" d="M32,15h2.172v2.172H32Z" transform="translate(-2.927 -1.002)" fill="#033d61"/>
          <path id="Path_356" data-name="Path 356" d="M35.4,29.879l2.49,2.49a1.086,1.086,0,0,0,1.535,0l4.662-4.662v1.722h2.172V25.086A1.086,1.086,0,0,0,45.177,24H40.833v2.172h1.722l-3.894,3.894-2.49-2.49a1.086,1.086,0,0,0-1.535,0l-4.343,4.343,1.535,1.535Z" transform="translate(-3.133 -0.337)" fill="#033d61"/>
          <path id="Path_357" data-name="Path 357" d="M28.086,39.46H47.631V37.288H29.172V21H27V38.374A1.086,1.086,0,0,0,28.086,39.46Z" transform="translate(-3.408 -0.601)" fill="#033d61"/>
          <path id="Path_358" data-name="Path 358" d="M28,42h6.515v2.172H28Z" transform="translate(-3.252 1.072)" fill="#033d61"/>
          <path id="Path_359" data-name="Path 359" d="M36,42H46.859v2.172H36Z" transform="translate(-2.672 1.072)" fill="#033d61"/>
          <path id="Path_360" data-name="Path 360" d="M28,46H47.545v2.172H28Z" transform="translate(-3.327 1.379)" fill="#033d61"/>
        </g>
      </g>
    </g>
    <g id="Group_457" data-name="Group 457" transform="translate(607.301 1568.78)">
      <g id="Group_456" data-name="Group 456" transform="translate(5.631 7.45)">
        <rect id="Rectangle_135" data-name="Rectangle 135" width="104.836" height="1.962" fill="#fff"/>
      </g>
      <path id="Path_5967" data-name="Path 5967" d="M257.167,250.841a8.431,8.431,0,1,0,8.43-8.432A8.431,8.431,0,0,0,257.167,250.841Z" transform="translate(-155.133 -242.409)" fill="#fff"/>
      <path id="Path_5968" data-name="Path 5968" d="M205.167,249.467a5.63,5.63,0,1,0,5.63-5.631A5.632,5.632,0,0,0,205.167,249.467Z" transform="translate(-205.167 -241.036)" fill="#fff"/>
    </g>
    <g id="Group_460" data-name="Group 460" transform="translate(1356.622 1320)">
      <rect id="Rectangle_136" data-name="Rectangle 136" width="103" height="0.846" transform="translate(-5.622 32.679)" fill="#fff"/>
      <text id="EXCHANGE" transform="translate(-5.622 19)" fill="#fff" font-size="20" font-family="Roboto-Regular, Roboto"><tspan x="0" y="0">EXCHANGE</tspan></text>
      <text id="교환의_유용성" data-name="교환의 유용성" transform="translate(-5.622 60.203)" fill="#fff" font-size="19" font-family="Roboto-Regular, Roboto"><tspan x="0" y="0">互换可用性</tspan></text>
    </g>
    <g id="Group_461" data-name="Group 461" transform="translate(1200.021 1266.739)">
      <path id="Path_5971" data-name="Path 5971" d="M601.126,92.716a69.946,69.946,0,1,1-89.653,41.8A69.946,69.946,0,0,1,601.126,92.716Z" transform="translate(-507.237 -88.479)" fill="#f9fbfc" opacity="0.4"/>
      <path id="Path_5972" data-name="Path 5972" d="M601.126,92.716a69.946,69.946,0,1,1-89.653,41.8A69.946,69.946,0,0,1,601.126,92.716Z" transform="translate(-507.237 -88.479)" fill="none" stroke="#f9fbfc" stroke-miterlimit="10" stroke-width="1" opacity="0.4"/>
      <path id="Path_5973" data-name="Path 5973" d="M591.47,97.924A58.349,58.349,0,1,1,516.683,132.8,58.35,58.35,0,0,1,591.47,97.924Z" transform="translate(-501.548 -82.791)" fill="#f9fbfc"/>
      <g id="Exchange-2" data-name="Exchange" transform="translate(31.995 32.517)">
        <path id="Path_274" data-name="Path 274" d="M60.888,45.6A10.728,10.728,0,0,0,53.848,43a10.86,10.86,0,1,0,7.039,2.6Z" transform="translate(9.455 9.455)" fill="#bddbff"/>
        <path id="Path_275" data-name="Path 275" d="M48.616,5A3.635,3.635,0,0,0,45.6,6.6,3.7,3.7,0,0,0,45,8.616a3.616,3.616,0,0,0,6.629,2,3.687,3.687,0,0,0,.6-2A3.616,3.616,0,0,0,48.616,5Z" transform="translate(9.247 -1.384)" fill="#bddbff"/>
        <path id="Path_276" data-name="Path 276" d="M53.161,26.411V40.875a2.418,2.418,0,0,1-2.411,2.411H19.411A2.418,2.418,0,0,1,17,40.875V26.411A2.418,2.418,0,0,1,19.411,24H50.75A2.418,2.418,0,0,1,53.161,26.411ZM39.9,33.643a4.821,4.821,0,1,0-4.821,4.821A4.821,4.821,0,0,0,39.9,33.643Z" transform="translate(2.598 4.036)" fill="#bddbff"/>
        <path id="Path_277" data-name="Path 277" d="M16.616,53A3.6,3.6,0,0,0,13.6,54.615a3.687,3.687,0,0,0-.6,2,3.622,3.622,0,0,0,6.629,2.013,3.7,3.7,0,0,0,.6-2.013A3.616,3.616,0,0,0,16.616,53Z" transform="translate(0.877 11.508)" fill="#bddbff"/>
        <path id="Path_278" data-name="Path 278" d="M22.094,6.81A10.842,10.842,0,1,0,6.81,22.094a10.728,10.728,0,0,0,7.039,2.6A10.848,10.848,0,0,0,24.7,13.849a10.728,10.728,0,0,0-2.6-7.039Z" transform="translate(-1.795 -1.795)" fill="#bddbff"/>
        <g id="Group_86" data-name="Group 86" transform="translate(0 0)">
          <path id="Path_279" data-name="Path 279" d="M73.664,55.911a37.06,37.06,0,0,0,3.692-16.233,37.592,37.592,0,0,0-12.9-28.372,5,5,0,0,0-8.125-5.413A37.7,37.7,0,0,0,39.678,2,37.06,37.06,0,0,0,23.445,5.693,12.553,12.553,0,1,0,5.692,23.445,37.06,37.06,0,0,0,2,39.678,37.592,37.592,0,0,0,14.9,68.05a5,5,0,0,0,8.125,5.413,37.7,37.7,0,0,0,16.655,3.893,37.06,37.06,0,0,0,16.233-3.692A12.553,12.553,0,1,0,73.664,55.911ZM59.773,7.024a2.512,2.512,0,1,1-2.512,2.512A2.512,2.512,0,0,1,59.773,7.024ZM4.512,14.559A10.048,10.048,0,1,1,14.559,24.607,10.048,10.048,0,0,1,4.512,14.559ZM19.583,72.333A2.512,2.512,0,1,1,22.1,69.821,2.512,2.512,0,0,1,19.583,72.333Zm20.1,2.512a34.656,34.656,0,0,1-15.322-3.525A4.988,4.988,0,0,0,16.364,66,35.092,35.092,0,0,1,4.512,39.678,34.582,34.582,0,0,1,7.7,25.068,12.544,12.544,0,0,0,25.068,7.7,35.068,35.068,0,0,1,55,8.037a4.988,4.988,0,0,0,7.992,5.323A35.092,35.092,0,0,1,74.845,39.678a34.583,34.583,0,0,1-3.189,14.61A12.544,12.544,0,0,0,54.289,71.656,34.583,34.583,0,0,1,39.678,74.845Zm25.119,0A10.048,10.048,0,1,1,74.845,64.8,10.048,10.048,0,0,1,64.8,74.845Z" transform="translate(-2 -2)" fill="#033d61"/>
          <path id="Path_280" data-name="Path 280" d="M33.725,12.411A24.134,24.134,0,0,1,57.667,33.8L55.9,32.308l-1.55,1.847,3.917,3.287a1.205,1.205,0,0,0,1.7-.148l3.287-3.917L61.4,31.826l-1.344,1.6A26.53,26.53,0,0,0,23.6,12l.921,2.229a23.949,23.949,0,0,1,9.2-1.818Z" transform="translate(5.471 -0.357)" fill="#033d61"/>
          <path id="Path_281" data-name="Path 281" d="M36.518,57.828a24.122,24.122,0,0,1-22.3-33.291l-2.229-.918a26.532,26.532,0,0,0,24.528,36.62,26.811,26.811,0,0,0,4.993-.469L41.06,57.4a24.349,24.349,0,0,1-4.542.427Z" transform="translate(-0.357 5.475)" fill="#033d61"/>
          <path id="Path_282" data-name="Path 282" d="M37.732,51.3l.689,2.309a24.719,24.719,0,0,0,2.437-.859l-.915-2.231C39.228,50.812,38.483,51.075,37.732,51.3Z" transform="translate(7.227 10.999)" fill="#033d61"/>
          <path id="Path_283" data-name="Path 283" d="M19.9,44.7H53.706a3.766,3.766,0,0,0,3.9-3.616V26.616A3.766,3.766,0,0,0,53.706,23H19.9A3.766,3.766,0,0,0,16,26.616V41.08A3.766,3.766,0,0,0,19.9,44.7Zm-1.3-18.08a1.255,1.255,0,0,1,1.3-1.205H53.706a1.255,1.255,0,0,1,1.3,1.205V41.08a1.255,1.255,0,0,1-1.3,1.205H19.9a1.255,1.255,0,0,1-1.3-1.205Z" transform="translate(0.875 3.83)" fill="#033d61"/>
          <path id="Path_284" data-name="Path 284" d="M33.027,39.054A6.027,6.027,0,1,0,27,33.027,6.027,6.027,0,0,0,33.027,39.054Zm0-9.643a3.616,3.616,0,1,1-3.616,3.616A3.616,3.616,0,0,1,33.027,29.411Z" transform="translate(4.652 4.652)" fill="#033d61"/>
          <path id="Path_285" data-name="Path 285" d="M22.411,29.411h2.411V27H21.205A1.205,1.205,0,0,0,20,28.205v3.616h2.411Z" transform="translate(2.672 4.489)" fill="#033d61"/>
          <path id="Path_286" data-name="Path 286" d="M42.411,31.821h2.411V28.205A1.205,1.205,0,0,0,43.616,27H40v2.411h2.411Z" transform="translate(7.863 4.489)" fill="#033d61"/>
          <path id="Path_287" data-name="Path 287" d="M21.205,37.821h3.616V35.411H22.411V33H20v3.616A1.205,1.205,0,0,0,21.205,37.821Z" transform="translate(2.672 6.046)" fill="#033d61"/>
          <path id="Path_288" data-name="Path 288" d="M44.821,36.616V33H42.411v2.411H40v2.411h3.616A1.205,1.205,0,0,0,44.821,36.616Z" transform="translate(7.863 6.046)" fill="#033d61"/>
          <path id="Path_290" data-name="Path 290" d="M51.616,49.616h2.411a1.205,1.205,0,0,1,1.205,1.205h2.411a3.616,3.616,0,0,0-3.616-3.616V46H51.616v1.205a3.616,3.616,0,1,0,0,7.232h2.411a1.205,1.205,0,1,1,0,2.411H51.616a1.205,1.205,0,0,1-1.205-1.205H48a3.616,3.616,0,0,0,3.616,3.616v1.205h2.411V59.259a3.616,3.616,0,0,0,0-7.232H51.616a1.205,1.205,0,1,1,0-2.411Z" transform="translate(10.482 10.071)" fill="#033d61"/>
          <path id="Path_2520" data-name="Path 2520" d="M853.25,548.9l-3.743,8.751a.642.642,0,0,0-.066.393q.074.417.6.416h.946l.13.739h-4.061l-.13-.739a1.6,1.6,0,0,0,1.18-.438,4.557,4.557,0,0,0,.856-1.362l5.607-12.83h.9l3.941,14.63h1.731l.13.739h-7.131l-.13-.739H855.7Z" transform="translate(-841.11 -540.516)" fill="#033d61"/>
        </g>
      </g>
    </g>
    <g id="Group_463" data-name="Group 463" transform="translate(1114.779 1364.477)">
      <g id="Group_462" data-name="Group 462" transform="translate(7.785 4.887)">
        <rect id="Rectangle_137" data-name="Rectangle 137" width="113.892" height="1.962" transform="translate(0 74.961) rotate(-41.161)" fill="#fff"/>
      </g>
      <path id="Path_5974" data-name="Path 5974" d="M480.656,183.491a8.431,8.431,0,1,0-8.43,8.432A8.431,8.431,0,0,0,480.656,183.491Z" transform="translate(-463.795 -102.907)" fill="#fff"/>
      <path id="Path_5975" data-name="Path 5975" d="M520.18,143.917a5.629,5.629,0,1,0-5.628,5.63A5.63,5.63,0,0,0,520.18,143.917Z" transform="translate(-420.373 -138.289)" fill="#fff"/>
    </g>
  </g>
</svg>
