<?xml version="1.0" encoding="utf-8"?>
<!-- Generator: Adobe Illustrator 25.2.3, SVG Export Plug-In . SVG Version: 6.00 Build 0)  -->
<svg version="1.1" id="레이어_1" xmlns="http://www.w3.org/2000/svg" xmlns:xlink="http://www.w3.org/1999/xlink" x="0px"
	 y="0px" viewBox="0 0 758 1078.2" style="enable-background:new 0 0 758 1078.2;" xml:space="preserve">
<style type="text/css">
	.st0{fill:#0D2836;}
	.st1{font-family:'NotoSans-Light';}
	.st2{font-size:14px;}
	.st3{fill:#00B5BE;}
	.st4{font-family:'NotoSansCJKkr-Black-KSCpc-EUC-H';}
	.st5{font-size:16px;}
	.st6{fill:url(#Rectangle_1917-2_1_);}
	.st7{fill:url(#Rectangle_1924-2_1_);}
	.st8{fill:none;stroke:#033D61;}
	.st9{fill:#FFFFFF;}
	.st10{fill:#033D61;}
	.st11{fill:#033D61;stroke:#033D61;stroke-width:0.5;stroke-miterlimit:10;}
	.st12{font-family:'Roboto-Regular';}
	.st13{font-size:18px;}
</style>
<g>
	<text transform="matrix(1 0 0 1 455 398.127)" class="st0 st1 st2">- Change CI as ASTA</text>
	<text transform="matrix(1 0 0 1 455 420.127)" class="st0 st1 st2">- Implement Stable Coin </text>
	<text transform="matrix(1 0 0 1 455 442.127)" class="st0 st1 st2">  Inter-working System</text>
</g>
<g>
	<text transform="matrix(1 0 0 1 455 366.127)" class="st3 st4 st5">4Q</text>
</g>
<g transform="matrix(1, 0, 0, 1, 211, 404.67)">
	
		<linearGradient id="Rectangle_1917-2_1_" gradientUnits="userSpaceOnUse" x1="-82.1573" y1="407.9133" x2="-81.1693" y2="407.9133" gradientTransform="matrix(740 0 0 -12 60607 4635.624)">
		<stop  offset="0" style="stop-color:#0067A7"/>
		<stop  offset="0.222" style="stop-color:#008C98"/>
		<stop  offset="1" style="stop-color:#033D61"/>
	</linearGradient>
	<path id="Rectangle_1917-2" class="st6" d="M-196-265.3h728c3.3,0,6,2.7,6,6l0,0c0,3.3-2.7,6-6,6h-728c-3.3,0-6-2.7-6-6l0,0
		C-202-262.6-199.3-265.3-196-265.3z"/>
</g>
<g transform="matrix(1, 0, 0, 1, 211, 404.67)">
	
		<linearGradient id="Rectangle_1924-2_1_" gradientUnits="userSpaceOnUse" x1="-82.1573" y1="407.9133" x2="-81.1693" y2="407.9133" gradientTransform="matrix(740 0 0 -12 60607 4998.624)">
		<stop  offset="0" style="stop-color:#0067A7"/>
		<stop  offset="0.222" style="stop-color:#008C98"/>
		<stop  offset="1" style="stop-color:#033D61"/>
	</linearGradient>
	<path id="Rectangle_1924-2" class="st7" d="M-196,97.7h728c3.3,0,6,2.7,6,6l0,0c0,3.3-2.7,6-6,6h-728c-3.3,0-6-2.7-6-6l0,0
		C-202,100.4-199.3,97.7-196,97.7z"/>
</g>
<g>
	<text transform="matrix(1 0 0 1 149.5 250.425)" class="st0 st1 st2">- Initiate developing the </text>
	<text transform="matrix(1 0 0 1 149.5 272.425)" class="st0 st1 st2">  project for real-life virtual</text>
	<text transform="matrix(1 0 0 1 149.5 294.425)" class="st0 st1 st2">  asset platform</text>
</g>
<g id="Group_2836" transform="translate(1015.677 -381) rotate(90)">
	<path id="Path_10293" class="st8" d="M534.8,901.7h51.3"/>
	<g transform="matrix(0, -1, 1, 0, 795.67, 714.68)">
		<g id="Ellipse_194-13" transform="translate(130 228.62) rotate(180)">
			<circle class="st9" cx="317" cy="430.7" r="16"/>
			<circle class="st8" cx="317" cy="430.7" r="15.5"/>
		</g>
	</g>
	<g id="Ellipse_198" transform="translate(1016.287 592.677) rotate(90)">
		<circle class="st10" cx="309" cy="422.7" r="8"/>
		<circle class="st8" cx="309" cy="422.7" r="7.5"/>
	</g>
</g>
<g>
	<text transform="matrix(1 0 0 1 149.5 219.485)" class="st3 st4 st5">3Q</text>
</g>
<g>
	<text transform="matrix(1 0 0 1 455 233.23)" class="st0 st1 st2">- Strategic alliance with KDAX exchange</text>
	<text transform="matrix(1 0 0 1 455 255.23)" class="st0 st1 st2">- Establish Mainnet and Alpha type</text>
	<text transform="matrix(1 0 0 1 455 277.23)" class="st0 st1 st2">- Complete developing Wallet 1.0v </text>
	<text transform="matrix(1 0 0 1 453 299.23)" class="st0 st1 st2">   and Distribute</text>
	<text transform="matrix(1 0 0 1 455 321.23)" class="st0 st1 st2">- The first official release</text>
</g>
<g>
	<text transform="matrix(1 0 0 1 455 202.334)" class="st3 st4 st5">1Q</text>
</g>
<g transform="matrix(1, 0, 0, 1, 211, 404.67)">
	<g id="Rectangle_1919-2" transform="translate(73 130.33)">
		<path class="st9" d="M-205-404.7h71c3.3,0,6,2.7,6,6v18c0,3.3-2.7,6-6,6h-71c-3.3,0-6-2.7-6-6v-18C-211-402-208.3-404.7-205-404.7
			z"/>
		<path class="st8" d="M-205-404.2h71c3,0,5.5,2.5,5.5,5.5v18c0,3-2.5,5.5-5.5,5.5h-71c-3,0-5.5-2.5-5.5-5.5v-18
			C-210.5-401.7-208-404.2-205-404.2z"/>
	</g>
</g>
<g>
	<text transform="matrix(1 0 0 1 88.5 152.334)" class="st11 st12 st13">2017Y</text>
</g>
<g transform="matrix(1, 0, 0, 1, 211, 404.67)">
	<g id="Rectangle_1920-2" transform="translate(250 130.33)">
		<path class="st9" d="M-205-404.7h71c3.3,0,6,2.7,6,6v18c0,3.3-2.7,6-6,6h-71c-3.3,0-6-2.7-6-6v-18C-211-402-208.3-404.7-205-404.7
			z"/>
		<path class="st8" d="M-205-404.2h71c3,0,5.5,2.5,5.5,5.5v18c0,3-2.5,5.5-5.5,5.5h-71c-3,0-5.5-2.5-5.5-5.5v-18
			C-210.5-401.7-208-404.2-205-404.2z"/>
	</g>
</g>
<g>
	<text transform="matrix(1 0 0 1 265 152.334)" class="st11 st12 st13">2018Y</text>
</g>
<g id="Group_2864" transform="translate(-98.677 1484.5) rotate(-90)">
	<path id="Path_10293-2" class="st8" d="M1354.2,389.7h92.3"/>
	<g transform="matrix(0, 1, -1, 0, 1079.83, 309.68)">
		<g id="Ellipse_194-14" transform="translate(275 6)">
			<circle class="st9" cx="-195" cy="-388.7" r="16"/>
			<circle class="st8" cx="-195" cy="-388.7" r="15.5"/>
		</g>
	</g>
	<g id="Ellipse_198-2" transform="translate(1065.834 592.677) rotate(90)">
		<circle class="st10" cx="-203" cy="-396.7" r="8"/>
		<circle class="st8" cx="-203" cy="-396.7" r="7.5"/>
	</g>
</g>
<g>
	<text transform="matrix(1 0 0 1 327 58.94)" class="st0 st1 st2">- Establish a prototype</text>
</g>
<g>
	<text transform="matrix(1 0 0 1 327 26)" class="st3 st4 st5">2Q</text>
</g>
<g id="Group_2866" transform="translate(-100 -10)">
	<path id="Path_10293-3" class="st8" d="M519.5,169.5v49.1"/>
	<g transform="matrix(1, 0, 0, 1, 311, 414.67)">
		<g id="Ellipse_194-15" transform="translate(435.5 228.33) rotate(180)">
			<circle class="st9" cx="227" cy="420.7" r="16"/>
			<circle class="st8" cx="227" cy="420.7" r="15.5"/>
		</g>
	</g>
	<g id="Ellipse_198-3" transform="translate(738.5 635) rotate(180)">
		<circle class="st10" cx="219" cy="412.7" r="8"/>
		<circle class="st8" cx="219" cy="412.7" r="7.5"/>
	</g>
</g>
<g id="Group_2867" transform="translate(-100 82.522)">
	<path id="Path_10293-4" class="st8" d="M519.5,146.6v135.1"/>
	<g transform="matrix(1, 0, 0, 1, 311, 322.14)">
		<g id="Ellipse_194-16" transform="translate(435.5 378.23) rotate(180)">
			<circle class="st9" cx="227" cy="420.7" r="16"/>
			<circle class="st8" cx="227" cy="420.7" r="15.5"/>
		</g>
	</g>
	<g id="Ellipse_198-4" transform="translate(738.5 692.374) rotate(180)">
		<circle class="st10" cx="219" cy="412.7" r="8"/>
		<circle class="st8" cx="219" cy="412.7" r="7.5"/>
	</g>
</g>
<g transform="matrix(1, 0, 0, 1, 211, 404.67)">
	<g id="Rectangle_1921-2" transform="translate(378 130.33)">
		<path class="st9" d="M-205-404.7h71c3.3,0,6,2.7,6,6v18c0,3.3-2.7,6-6,6h-71c-3.3,0-6-2.7-6-6v-18C-211-402-208.3-404.7-205-404.7
			z"/>
		<path class="st8" d="M-205-404.2h71c3,0,5.5,2.5,5.5,5.5v18c0,3-2.5,5.5-5.5,5.5h-71c-3,0-5.5-2.5-5.5-5.5v-18
			C-210.5-401.7-208-404.2-205-404.2z"/>
	</g>
</g>
<g>
	<text transform="matrix(1 0 0 1 393.5 152.334)" class="st11 st12 st13">2019Y</text>
</g>
<g transform="matrix(1, 0, 0, 1, 933, 51.67)">
	<g id="Rectangle_1922-2" transform="translate(73 493.33)">
		<path class="st9" d="M-927-51.7h71c3.3,0,6,2.7,6,6v18c0,3.3-2.7,6-6,6h-71c-3.3,0-6-2.7-6-6v-18C-933-49-930.3-51.7-927-51.7z"/>
		<path class="st8" d="M-927-51.2h71c3,0,5.5,2.5,5.5,5.5v18c0,3-2.5,5.5-5.5,5.5h-71c-3,0-5.5-2.5-5.5-5.5v-18
			C-932.5-48.7-930-51.2-927-51.2z"/>
	</g>
</g>
<g>
	<text transform="matrix(1 0 0 1 88.5 515.334)" class="st11 st12 st13">2020Y</text>
</g>
<g>
	<text transform="matrix(1 0 0 1 149 746.705)" class="st0 st1 st2">- Launch business affiliation of ASTA Platform</text>
	<text transform="matrix(1 0 0 1 149 768.705)" class="st0 st1 st2">- Develop affiliated business  App and </text>
	<text transform="matrix(1 0 0 1 146 790.705)" class="st0 st1 st2">   Payment Solution</text>
</g>
<g>
	<text transform="matrix(1 0 0 1 149 709.766)" class="st3 st4 st5">2Q</text>
</g>
<g id="Group_2868" transform="translate(-275.677 2137.813) rotate(-90)">
	<path id="Path_10293-5" class="st8" d="M1344.2,389.7h112.3"/>
	<g transform="matrix(0, 1, -1, 0, 1733.15, 486.68)">
		<g id="Ellipse_194-17" transform="translate(98 691.27)">
			<circle class="st9" cx="-195" cy="-388.7" r="16"/>
			<circle class="st8" cx="-195" cy="-388.7" r="15.5"/>
		</g>
	</g>
	<g id="Ellipse_198-5" transform="translate(1033.874 592.677) rotate(90)">
		<circle class="st10" cx="-203" cy="-396.7" r="8"/>
		<circle class="st8" cx="-203" cy="-396.7" r="7.5"/>
	</g>
</g>
<g>
	<text transform="matrix(1 0 0 1 149 630)" class="st0 st1 st2">- Expand the linked business affiliation</text>
	<text transform="matrix(1 0 0 1 149 652)" class="st0 st1 st2">- Complete developing Wallet 2.0v and</text>
	<text transform="matrix(1 0 0 1 149 674)" class="st0 st1 st2">  Distribute</text>
</g>
<g>
	<text transform="matrix(1 0 0 1 149 593.061)" class="st3 st4 st5">1Q</text>
</g>
<g id="Group_2869" transform="translate(-275.677 2091.292) rotate(-90)">
	<path id="Path_10293-6" class="st8" d="M1400.2,389.7h85.7"/>
	<g transform="matrix(0, 1, -1, 0, 1686.63, 486.68)">
		<g id="Ellipse_194-18" transform="translate(98 574.4)">
			<circle class="st9" cx="-195" cy="-388.7" r="16"/>
			<circle class="st8" cx="-195" cy="-388.7" r="15.5"/>
		</g>
	</g>
	<g id="Ellipse_198-6" transform="translate(1104.249 592.677) rotate(90)">
		<circle class="st10" cx="-203" cy="-396.7" r="8"/>
		<circle class="st8" cx="-203" cy="-396.7" r="7.5"/>
	</g>
	<path id="Path_10294" class="st8" d="M1516.3,389.7h51.6"/>
</g>
<g>
	<text transform="matrix(1 0 0 1 149 884.203)" class="st0 st1 st2">- Interconnect the Wallet and Ecosystem</text>
	<text transform="matrix(1 0 0 1 149 906.203)" class="st0 st1 st2">  through collaboration with exchanges</text>
</g>
<g>
	<text transform="matrix(1 0 0 1 149 859.264)" class="st3 st4 st5">3Q</text>
</g>
<g>
	<text transform="matrix(1 0 0 1 149 991.684)" class="st0 st1 st2">- Finalize ASTA Alliance 1st Group</text>
	<text transform="matrix(1 0 0 1 149 1013.684)" class="st0 st1 st2">- Develop Global Payment Inter-working</text>
</g>
<g>
	<text transform="matrix(1 0 0 1 149 960.744)" class="st3 st4 st5">4Q</text>
</g>
<g id="Group_2870" transform="translate(-405.5 625.273)">
	<path id="Path_10293-7" class="st8" d="M519.5,167.3v51.3"/>
	<g transform="matrix(1, 0, 0, 1, 616.5, -220.61)">
		<g id="Ellipse_194-19" transform="translate(130 867.61) rotate(180)">
			<circle class="st9" cx="227" cy="420.7" r="16"/>
			<circle class="st8" cx="227" cy="420.7" r="15.5"/>
		</g>
	</g>
	<g id="Ellipse_198-7" transform="translate(738.5 639) rotate(180)">
		<circle class="st10" cx="219" cy="412.7" r="8"/>
		<circle class="st8" cx="219" cy="412.7" r="7.5"/>
	</g>
</g>
<g id="Group_2871" transform="translate(-405.5 706.421)">
	<path id="Path_10293-8" class="st8" d="M519.5,161.3v101.5"/>
	<g transform="matrix(1, 0, 0, 1, 616.5, -301.75)">
		<g id="Ellipse_194-20" transform="translate(130 969.19) rotate(180)">
			<circle class="st9" cx="227" cy="420.7" r="16"/>
			<circle class="st8" cx="227" cy="420.7" r="15.5"/>
		</g>
	</g>
	<g id="Ellipse_198-8" transform="translate(738.5 658.491) rotate(180)">
		<circle class="st10" cx="219" cy="412.7" r="8"/>
		<circle class="st8" cx="219" cy="412.7" r="7.5"/>
	</g>
</g>
<g transform="matrix(1, 0, 0, 1, 873, 51.67)">
	<g id="Rectangle_1923-2" transform="translate(438 493.33)">
		<path class="st9" d="M-867-51.7h71c3.3,0,6,2.7,6,6v18c0,3.3-2.7,6-6,6h-71c-3.3,0-6-2.7-6-6v-18C-873-49-870.3-51.7-867-51.7z"/>
		<path class="st8" d="M-867-51.2h71c3,0,5.5,2.5,5.5,5.5v18c0,3-2.5,5.5-5.5,5.5h-71c-3,0-5.5-2.5-5.5-5.5v-18
			C-872.5-48.7-870-51.2-867-51.2z"/>
	</g>
</g>
<g>
	<text transform="matrix(1 0 0 1 454 515.334)" class="st11 st12 st13">2021Y</text>
</g>
<g>
	<text transform="matrix(1 0 0 1 515 761.73)" class="st0 st1 st2">- Develop the multi-swap function</text>
	<text transform="matrix(1 0 0 1 512 783.73)" class="st0 st1 st2">   of ASTA Wallet</text>
</g>
<g>
	<text transform="matrix(1 0 0 1 515 722.791)" class="st3 st4 st5">2Q</text>
</g>
<g id="Group_2903" transform="translate(89.823 2145.666) rotate(-90)">
	<g transform="matrix(0, 1, -1, 0, 1741, 121.18)">
		<g id="Ellipse_194-21" transform="translate(463.5 699.13)">
			<circle class="st9" cx="-195" cy="-391.7" r="16"/>
			<circle class="st8" cx="-195" cy="-391.7" r="15.5"/>
		</g>
	</g>
	<g id="Ellipse_198-9" transform="translate(1033.874 592.677) rotate(90)">
		<circle class="st10" cx="-203" cy="-399.7" r="8"/>
		<circle class="st8" cx="-203" cy="-399.7" r="7.5"/>
	</g>
</g>
<g>
	<text transform="matrix(1 0 0 1 515 631.025)" class="st0 st1 st2">- Finalize ASTA Wallet 3.0 and </text>
	<text transform="matrix(1 0 0 1 512 653.025)" class="st0 st1 st2">   start distribution</text>
	<text transform="matrix(1 0 0 1 515 675.025)" class="st0 st1 st2">- Launch THE ASTA </text>
	<text transform="matrix(1 0 0 1 515 697.025)" class="st0 st1 st2">  (mobile E-commerce platform)</text>
</g>
<g id="Group_2904" transform="translate(89.823 2095.799) rotate(-90)">
	<path id="Path_10293-9" class="st8" d="M1398.9,389.7h89.9"/>
	<g transform="matrix(0, 1, -1, 0, 1691.13, 121.18)">
		<g id="Ellipse_194-22" transform="translate(463.5 577.98)">
			<circle class="st9" cx="-195" cy="-391.7" r="16"/>
			<circle class="st8" cx="-195" cy="-391.7" r="15.5"/>
		</g>
	</g>
	<g id="Ellipse_198-10" transform="translate(1105.154 592.677) rotate(90)">
		<circle class="st10" cx="-203" cy="-399.7" r="8"/>
		<circle class="st8" cx="-203" cy="-399.7" r="7.5"/>
	</g>
	<path id="Path_10294-2" class="st8" d="M1520.8,389.7h51.6"/>
</g>
<g>
	<text transform="matrix(1 0 0 1 515 874.709)" class="st0 st1 st2">- Expansion of THE ASTA Affiliates </text>
	<text transform="matrix(1 0 0 1 522 896.709)" class="st0 st1 st2">(car rental, flight ticket)</text>
	<text transform="matrix(1 0 0 1 515 918.709)" class="st0 st1 st2">- THE ASTA Design Advancement</text>
</g>
<g>
	<text transform="matrix(1 0 0 1 515 1001.184)" class="st0 st1 st2"> - Launch the payment system </text>
	<text transform="matrix(1 0 0 1 512 1023.184)" class="st0 st1 st2">    of ASTA Wallet</text>
	<text transform="matrix(1 0 0 1 515 1045.184)" class="st0 st1 st2"> - THE ASTA System Advancement</text>
	<text transform="matrix(1 0 0 1 512 1066.184)" class="st0 st1 st2">    (PMS System Development)</text>
</g>
<g>
	<text transform="matrix(1 0 0 1 515 843.77)" class="st3 st4 st5">3Q</text>
</g>
<g>
	<text transform="matrix(1 0 0 1 515 970.244)" class="st3 st4 st5">4Q</text>
</g>
<g id="Group_2906" transform="translate(-39.5 641.342)">
	<path id="Path_10293-10" class="st8" d="M519.5,86.5v125"/>
	<g transform="matrix(1, 0, 0, 1, 250.5, -236.68)">
		<g id="Ellipse_194-23" transform="translate(496 855.88) rotate(180)">
			<circle class="st9" cx="227" cy="423.7" r="16"/>
			<circle class="st8" cx="227" cy="423.7" r="15.5"/>
		</g>
	</g>
	<g id="Ellipse_198-11" transform="translate(738.5 610.264) rotate(180)">
		<circle class="st10" cx="219" cy="415.7" r="8"/>
		<circle class="st8" cx="219" cy="415.7" r="7.5"/>
	</g>
</g>
<g id="Group_2980" transform="translate(-39.5 766.019)">
	<path id="Path_10293-11" class="st8" d="M519.5,86.5v125"/>
	<g transform="matrix(1, 0, 0, 1, 250.5, -361.35)">
		<g id="Ellipse_194-24" transform="translate(496 980.56) rotate(180)">
			<circle class="st9" cx="227" cy="423.7" r="16"/>
			<circle class="st8" cx="227" cy="423.7" r="15.5"/>
		</g>
	</g>
	<g id="Ellipse_198-12" transform="translate(738.5 610.264) rotate(180)">
		<circle class="st10" cx="219" cy="415.7" r="8"/>
		<circle class="st8" cx="219" cy="415.7" r="7.5"/>
	</g>
</g>
<g>
	<text transform="matrix(1 0 0 1 515 593.015)" class="st3 st4 st5">1Q</text>
</g>
</svg>
