<?xml version="1.0" encoding="utf-8"?>
<!-- Generator: Adobe Illustrator 25.2.3, SVG Export Plug-In . SVG Version: 6.00 Build 0)  -->
<svg version="1.1" id="레이어_1" xmlns="http://www.w3.org/2000/svg" xmlns:xlink="http://www.w3.org/1999/xlink" x="0px"
	 y="0px" viewBox="0 0 419 1511" style="enable-background:new 0 0 419 1511;" xml:space="preserve">
<style type="text/css">
	.st0{fill:url(#Rectangle_1917-2_1_);}
	.st1{fill:#0D2836;}
	.st2{font-family:'NotoSansCJKkr-Light-KSCpc-EUC-H';}
	.st3{font-size:14px;}
	.st4{fill:none;stroke:#033D61;}
	.st5{fill:#FFFFFF;}
	.st6{fill:#033D61;}
	.st7{fill:#00B5BE;}
	.st8{font-family:'NotoSansCJKkr-Black-KSCpc-EUC-H';}
	.st9{font-size:16px;}
	.st10{font-family:'Roboto-Regular';}
	.st11{font-size:18px;}
	.st12{fill:none;stroke:#033D61;stroke-width:0.5;stroke-miterlimit:10;}
	.st13{fill:url(#Rectangle_1925-2_1_);}
	.st14{fill:url(#Rectangle_1926-2_1_);}
	.st15{fill:url(#Rectangle_1924-2_1_);}
	.st16{enable-background:new    ;}
</style>
<g transform="matrix(1, 0, 0, 1, 302, 289)">
	
		<linearGradient id="Rectangle_1917-2_1_" gradientUnits="userSpaceOnUse" x1="-1025.683" y1="843.0025" x2="-1024.6949" y2="843.0025" gradientTransform="matrix(400 0 0 -12 409988 9932.3301)">
		<stop  offset="0" style="stop-color:#0067A7"/>
		<stop  offset="0.222" style="stop-color:#008C98"/>
		<stop  offset="1" style="stop-color:#033D61"/>
	</linearGradient>
	<path id="Rectangle_1917-2" class="st0" d="M-286-189.7h388c3.3,0,6,2.7,6,6l0,0c0,3.3-2.7,6-6,6h-388c-3.3,0-6-2.7-6-6l0,0
		C-292-187-289.3-189.7-286-189.7z"/>
</g>
<g>
	<text transform="matrix(1 0 0 1 150.5 210.425)" class="st1 st2 st3">- 실생활 가상자산 플랫폼 개발을 </text>
	<text transform="matrix(1 0 0 1 153.02 232.425)" class="st1 st2 st3">  위한 프로젝트 발의</text>
</g>
<g id="Group_2836" transform="translate(1017.677 -546.666) rotate(90)">
	<path id="Path_10293" class="st4" d="M660.5,902.2h51.3"/>
	<g transform="matrix(0, -1, 1, 0, 835.67, 715.68)">
		<g id="Ellipse_194-13" transform="translate(131 188.62) rotate(180)">
			<circle class="st5" cx="317.5" cy="305" r="16"/>
			<circle class="st4" cx="317.5" cy="305" r="15.5"/>
		</g>
	</g>
	<g id="Ellipse_198" transform="translate(1016.287 592.677) rotate(90)">
		<circle class="st6" cx="309.5" cy="297" r="8"/>
		<circle class="st4" cx="309.5" cy="297" r="7.5"/>
	</g>
</g>
<g>
	<text transform="matrix(1 0 0 1 150.5 179.485)" class="st7 st8 st9">3Q</text>
</g>
<g transform="matrix(1, 0, 0, 1, 302, 289)">
	<g id="Rectangle_1919-2" transform="translate(74 90.33)">
		<path class="st5" d="M-296-289h71c3.3,0,6,2.7,6,6v18c0,3.3-2.7,6-6,6h-71c-3.3,0-6-2.7-6-6v-18C-302-286.3-299.3-289-296-289z"/>
		<path class="st4" d="M-296-288.5h71c3,0,5.5,2.5,5.5,5.5v18c0,3-2.5,5.5-5.5,5.5h-71c-3,0-5.5-2.5-5.5-5.5v-18
			C-301.5-286-299-288.5-296-288.5z"/>
	</g>
</g>
<g>
	<text transform="matrix(1 0 0 1 89.5 112.334)" class="st6 st10 st11">2017Y</text>
	<text transform="matrix(1 0 0 1 89.5 112.334)" class="st12 st10 st11">2017Y</text>
</g>
<g transform="matrix(1, 0, 0, 1, 302, 289)">
	<g id="Rectangle_1920-2" transform="translate(211 90.33)">
		<path class="st5" d="M-296-289h71c3.3,0,6,2.7,6,6v18c0,3.3-2.7,6-6,6h-71c-3.3,0-6-2.7-6-6v-18C-302-286.3-299.3-289-296-289z"/>
		<path class="st4" d="M-296-288.5h71c3,0,5.5,2.5,5.5,5.5v18c0,3-2.5,5.5-5.5,5.5h-71c-3,0-5.5-2.5-5.5-5.5v-18
			C-301.5-286-299-288.5-296-288.5z"/>
	</g>
</g>
<g>
	<text transform="matrix(1 0 0 1 226 112.334)" class="st6 st10 st11">2018Y</text>
	<text transform="matrix(1 0 0 1 226 112.334)" class="st12 st10 st11">2018Y</text>
</g>
<g id="Group_2864" transform="translate(-46.677 1328.834) rotate(-90)">
	<path id="Path_10293-2" class="st4" d="M1237.9,299.2h84.9"/>
	<g transform="matrix(0, 1, -1, 0, 1039.83, 348.68)">
		<g id="Ellipse_194-14" transform="translate(236 6)">
			<circle class="st5" cx="-285.5" cy="-273" r="16"/>
			<circle class="st4" cx="-285.5" cy="-273" r="15.5"/>
		</g>
	</g>
	<g id="Ellipse_198-2" transform="translate(1025.834 592.677) rotate(90)">
		<circle class="st6" cx="-293.5" cy="-281" r="8"/>
		<circle class="st4" cx="-293.5" cy="-281" r="7.5"/>
	</g>
</g>
<g>
	<text transform="matrix(1 0 0 1 288 51.607)" class="st1 st2 st3">- 프로토타입 구축</text>
</g>
<g>
	<text transform="matrix(1 0 0 1 288 18.668)" class="st7 st8 st9">2Q</text>
</g>
<g transform="matrix(1, 0, 0, 1, 302, 289)">
	
		<linearGradient id="Rectangle_1925-2_1_" gradientUnits="userSpaceOnUse" x1="-1025.683" y1="843.0025" x2="-1024.6949" y2="843.0025" gradientTransform="matrix(400 0 0 -12 409988 10091.3301)">
		<stop  offset="0" style="stop-color:#0067A7"/>
		<stop  offset="0.222" style="stop-color:#008C98"/>
		<stop  offset="1" style="stop-color:#033D61"/>
	</linearGradient>
	<path id="Rectangle_1925-2" class="st13" d="M-286-30.7h388c3.3,0,6,2.7,6,6l0,0c0,3.3-2.7,6-6,6h-388c-3.3,0-6-2.7-6-6l0,0
		C-292-28-289.3-30.7-286-30.7z"/>
</g>
<g>
	<text transform="matrix(1 0 0 1 147.517 492.283)" class="st1 st2 st3">- ASTA로 CI 변경</text>
	<text transform="matrix(1 0 0 1 147.517 514.283)" class="st1 st2 st3">- 가치고정형 코인(Stable Coin) 연동</text>
	<text transform="matrix(1 0 0 1 147.517 531.083)" class="st1 st2 st3">  </text>
	<text transform="matrix(1 0 0 1 153.717 531.083)" class="st1 st2 st3"> </text>
	<text transform="matrix(1 0 0 1 155.717 531.083)" class="st1 st2 st3">시스템 구현</text>
</g>
<g>
	<text transform="matrix(1 0 0 1 147.517 466.283)" class="st7 st8 st9">4Q</text>
</g>
<g>
	<text transform="matrix(1 0 0 1 149 370.23)" class="st1 st2 st3">- KDAX 거래소와 전략적 제휴 </text>
	<text transform="matrix(1 0 0 1 149 392.23)" class="st1 st2 st3">- 자체 메인넷 및 알파타입 구축</text>
	<text transform="matrix(1 0 0 1 149 414.23)" class="st1 st2 st3">- 월렛(Wallet) 1.0v 개발 완료 및 배포 </text>
	<text transform="matrix(1 0 0 1 149 436.23)" class="st1 st2 st3">- 첫 정식 릴리즈</text>
</g>
<g>
	<text transform="matrix(1 0 0 1 149 341.334)" class="st7 st8 st9">1Q</text>
</g>
<g id="Group_2866" transform="translate(-315 -6.666)">
	<path id="Path_10293-3" class="st4" d="M428.5,283v51.3"/>
	<g transform="matrix(1, 0, 0, 1, 617, 295.67)">
		<g id="Ellipse_194-15" transform="translate(129.5 351.33) rotate(180)">
			<circle class="st5" cx="318" cy="305" r="16"/>
			<circle class="st4" cx="318" cy="305" r="15.5"/>
		</g>
	</g>
	<g id="Ellipse_198-3" transform="translate(738.5 639) rotate(180)">
		<circle class="st6" cx="310" cy="297" r="8"/>
		<circle class="st4" cx="310" cy="297" r="7.5"/>
	</g>
</g>
<g id="Group_2867" transform="translate(-316.483 96.286)">
	<path id="Path_10293-4" class="st4" d="M430,255v123"/>
	<g transform="matrix(1, 0, 0, 1, 618.48, 192.71)">
		<g id="Ellipse_194-16" transform="translate(128.02 474.32) rotate(180)">
			<circle class="st5" cx="316.5" cy="305" r="16"/>
			<circle class="st4" cx="316.5" cy="305" r="15.5"/>
		</g>
	</g>
	<g id="Ellipse_198-4" transform="translate(738.5 659.034) rotate(180)">
		<circle class="st6" cx="308.5" cy="297" r="8"/>
		<circle class="st4" cx="308.5" cy="297" r="7.5"/>
	</g>
</g>
<g transform="matrix(1, 0, 0, 1, 302, 289)">
	<g id="Rectangle_1921-2" transform="translate(72 249.33)">
		<path class="st5" d="M-296-289h71c3.3,0,6,2.7,6,6v18c0,3.3-2.7,6-6,6h-71c-3.3,0-6-2.7-6-6v-18C-302-286.3-299.3-289-296-289z"/>
		<path class="st4" d="M-296-288.5h71c3,0,5.5,2.5,5.5,5.5v18c0,3-2.5,5.5-5.5,5.5h-71c-3,0-5.5-2.5-5.5-5.5v-18
			C-301.5-286-299-288.5-296-288.5z"/>
	</g>
</g>
<g>
	<text transform="matrix(1 0 0 1 87.5 271.334)" class="st6 st10 st11">2019Y</text>
	<text transform="matrix(1 0 0 1 87.5 271.334)" class="st12 st10 st11">2019Y</text>
</g>
<g transform="matrix(1, 0, 0, 1, 302, 289)">
	
		<linearGradient id="Rectangle_1926-2_1_" gradientUnits="userSpaceOnUse" x1="-1025.683" y1="843.0025" x2="-1024.6949" y2="843.0025" gradientTransform="matrix(400 0 0 -12 409988 10399.3301)">
		<stop  offset="0" style="stop-color:#0067A7"/>
		<stop  offset="0.222" style="stop-color:#008C98"/>
		<stop  offset="1" style="stop-color:#033D61"/>
	</linearGradient>
	<path id="Rectangle_1926-2" class="st14" d="M-286,277.3h388c3.3,0,6,2.7,6,6l0,0c0,3.3-2.7,6-6,6h-388c-3.3,0-6-2.7-6-6l0,0
		C-292,280-289.3,277.3-286,277.3z"/>
</g>
<g transform="matrix(1, 0, 0, 1, 934, -12.33)">
	<g id="Rectangle_1922-2" transform="translate(72 557.33)">
		<path class="st5" d="M-928,12.3h71c3.3,0,6,2.7,6,6v18c0,3.3-2.7,6-6,6h-71c-3.3,0-6-2.7-6-6v-18C-934,15-931.3,12.3-928,12.3z"/>
		<path class="st4" d="M-928,12.8h71c3,0,5.5,2.5,5.5,5.5v18c0,3-2.5,5.5-5.5,5.5h-71c-3,0-5.5-2.5-5.5-5.5v-18
			C-933.5,15.3-931,12.8-928,12.8z"/>
	</g>
</g>
<g>
	<text transform="matrix(1 0 0 1 87.5 579.334)" class="st6 st10 st11">2020Y</text>
	<text transform="matrix(1 0 0 1 87.5 579.334)" class="st12 st10 st11">2020Y</text>
</g>
<g>
	<text transform="matrix(1 0 0 1 149.5 782.705)" class="st1 st2 st3">- ASTA 플랫폼 제휴사업 런칭 </text>
	<text transform="matrix(1 0 0 1 149.5 804.705)" class="st1 st2 st3">- 제휴사업 App 및 결제 솔루션 개발 </text>
</g>
<g>
	<text transform="matrix(1 0 0 1 149.5 745.766)" class="st7 st8 st9">2Q</text>
</g>
<g id="Group_2868" transform="translate(-185.677 2107.107) rotate(-90)">
	<path id="Path_10293-5" class="st4" d="M1235.5,299.2h112.3"/>
	<g transform="matrix(0, 1, -1, 0, 1818.11, 487.68)">
		<g id="Ellipse_194-17" transform="translate(97 724.27)">
			<circle class="st5" cx="-285.5" cy="-270" r="16"/>
			<circle class="st4" cx="-285.5" cy="-270" r="15.5"/>
		</g>
	</g>
	<g id="Ellipse_198-5" transform="translate(1085.834 592.677) rotate(90)">
		<circle class="st6" cx="-293.5" cy="-278" r="8"/>
		<circle class="st4" cx="-293.5" cy="-278" r="7.5"/>
	</g>
</g>
<g>
	<text transform="matrix(1 0 0 1 149.5 684)" class="st1 st2 st3">- 연계사업 제휴 확장</text>
	<text transform="matrix(1 0 0 1 149.5 706)" class="st1 st2 st3">- 월렛(Wallet) 2.0v 개발 완료 및 배포 </text>
</g>
<g>
	<text transform="matrix(1 0 0 1 149.5 647.061)" class="st7 st8 st9">1Q</text>
</g>
<g id="Group_2869" transform="translate(-186.66 2013.726) rotate(-90)">
	<path id="Path_10293-6" class="st4" d="M1286.5,300.2h80.7"/>
	<g transform="matrix(0, 1, -1, 0, 1724.73, 488.66)">
		<g id="Ellipse_194-18" transform="translate(96.02 626.45)">
			<circle class="st5" cx="-284.5" cy="-270" r="16"/>
			<circle class="st4" cx="-284.5" cy="-270" r="15.5"/>
		</g>
	</g>
	<g id="Ellipse_198-6" transform="translate(1090.563 592.677) rotate(90)">
		<circle class="st6" cx="-292.5" cy="-278" r="8"/>
		<circle class="st4" cx="-292.5" cy="-278" r="7.5"/>
	</g>
	<path id="Path_10294" class="st4" d="M1384.3,300.2h42.1"/>
</g>
<g>
	<text transform="matrix(1 0 0 1 145.5 881.203)" class="st1 st2 st3">- 거래소들과의 협업을 통한 지갑</text>
	<text transform="matrix(1 0 0 1 145.5 898.003)" class="st1 st2 st3">  </text>
	<text transform="matrix(1 0 0 1 151.7 898.003)" class="st1 st2 st3"> </text>
	<text transform="matrix(1 0 0 1 153.7 898.003)" class="st1 st2 st3">및 시스템 생태계 연동</text>
</g>
<g>
	<text transform="matrix(1 0 0 1 145.5 856.264)" class="st7 st8 st9">3Q</text>
</g>
<g>
	<text transform="matrix(1 0 0 1 145.5 981.684)" class="st1 st2 st3">- 가상자산 복합 결재 서비스 구축</text>
	<text transform="matrix(1 0 0 1 145.5 1003.684)" class="st1 st2 st3">- 여행/숙박 플랫폼 ASTATOUR 오픈 </text>
</g>
<g>
	<text transform="matrix(1 0 0 1 145.5 950.744)" class="st7 st8 st9">4Q</text>
</g>
<g id="Group_2870" transform="translate(-315.5 513.607)">
	<g transform="matrix(1, 0, 0, 1, 617.5, -224.61)">
		<g id="Ellipse_194-19" transform="translate(129 871.61) rotate(180)">
			<circle class="st5" cx="318" cy="302" r="16"/>
			<circle class="st4" cx="318" cy="302" r="15.5"/>
		</g>
	</g>
	<g id="Ellipse_198-7" transform="translate(738.5 639) rotate(180)">
		<circle class="st6" cx="310" cy="294" r="8"/>
		<circle class="st4" cx="310" cy="294" r="7.5"/>
	</g>
</g>
<g id="Group_2871" transform="translate(-315.5 594.629)">
	<path id="Path_10293-7" class="st4" d="M429,280v90.9"/>
	<g transform="matrix(1, 0, 0, 1, 617.5, -305.63)">
		<g id="Ellipse_194-20" transform="translate(129 962.5) rotate(180)">
			<circle class="st5" cx="317.5" cy="302" r="16"/>
			<circle class="st4" cx="317.5" cy="302" r="15.5"/>
		</g>
	</g>
	<g id="Ellipse_198-8" transform="translate(738.5 648.875) rotate(180)">
		<circle class="st6" cx="309.5" cy="294" r="8"/>
		<circle class="st4" cx="309.5" cy="294" r="7.5"/>
	</g>
</g>
<g transform="matrix(1, 0, 0, 1, 302, 289)">
	
		<linearGradient id="Rectangle_1924-2_1_" gradientUnits="userSpaceOnUse" x1="-1025.683" y1="843.0034" x2="-1024.6949" y2="843.0034" gradientTransform="matrix(400 0 0 -12 409987 10889.54)">
		<stop  offset="0" style="stop-color:#0067A7"/>
		<stop  offset="0.222" style="stop-color:#008C98"/>
		<stop  offset="1" style="stop-color:#033D61"/>
	</linearGradient>
	<path id="Rectangle_1924-2" class="st15" d="M-287,767.5h388c3.3,0,6,2.7,6,6l0,0c0,3.3-2.7,6-6,6h-388c-3.3,0-6-2.7-6-6l0,0
		C-293,770.2-290.3,767.5-287,767.5z"/>
</g>
<g transform="matrix(1, 0, 0, 1, 1239, -501.54)">
	<g id="Rectangle_1923-2" transform="translate(72 1046.54)">
		<path class="st5" d="M-1233,501.5h71c3.3,0,6,2.7,6,6v18c0,3.3-2.7,6-6,6h-71c-3.3,0-6-2.7-6-6v-18
			C-1239,504.2-1236.3,501.5-1233,501.5z"/>
		<path class="st4" d="M-1233,502h71c3,0,5.5,2.5,5.5,5.5v18c0,3-2.5,5.5-5.5,5.5h-71c-3,0-5.5-2.5-5.5-5.5v-18
			C-1238.5,504.5-1236,502-1233,502z"/>
	</g>
</g>
<g>
	<text transform="matrix(1 0 0 1 88 1068.5349)" class="st6 st10 st11">2021Y</text>
	<text transform="matrix(1 0 0 1 88 1068.5349)" class="st12 st10 st11">2021Y</text>
</g>
<g>
	<text transform="matrix(1 0 0 1 147.5 1270.854)" class="st1 st2 st3">- 월렛 Multi SWAP 기능 개발 </text>
</g>
<g>
	<text transform="matrix(1 0 0 1 147.5 1233.915)" class="st7 st8 st9">2Q</text>
</g>
<g>
	<text transform="matrix(1 0 0 1 147.5 1371.9659)" class="st1 st2 st3">- THE ASTA 제휴사 확대(렌터카, 항공권) </text>
	<text transform="matrix(1 0 0 1 147.5 1393.9659)" class="st1 st2 st3">- THE ASTA 디자인 고도화 </text>
</g>
<g>
	<text transform="matrix(1 0 0 1 147.5 1335.561)" class="st7 st8 st9">3Q</text>
</g>
<g>
	<text transform="matrix(1 0 0 1 147.5 1174.976)" class="st1 st2 st3">- 월렛(Wallet) 3.0v 개발 완료 및 배포</text>
	<text transform="matrix(1 0 0 1 147.5 1196.976)" class="st1 st2 st3">- THE ASTA(모바일 구매 플랫폼) 런칭 </text>
</g>
<g>
	<text transform="matrix(1 0 0 1 147.5 1138.377)" class="st7 st8 st9">1Q</text>
</g>
<g id="Group_2872" transform="translate(-313 793.535)">
	<path id="Path_10293-8" class="st4" d="M426.5,283v51.3"/>
	<g transform="matrix(1, 0, 0, 1, 615, -504.54)">
		<g id="Ellipse_194-21" transform="translate(131.5 1151.54) rotate(180)">
			<circle class="st5" cx="320" cy="305" r="16"/>
			<circle class="st4" cx="320" cy="305" r="15.5"/>
		</g>
	</g>
	<g id="Ellipse_198-9" transform="translate(738.5 639) rotate(180)">
		<circle class="st6" cx="312" cy="297" r="8"/>
		<circle class="st4" cx="312" cy="297" r="7.5"/>
	</g>
</g>
<g id="Group_2873" transform="translate(401.5 1440.535)">
	<path id="Path_10293-9" class="st4" d="M-288-289v85.8"/>
	<g transform="matrix(1, 0, 0, 1, -99.5, -1151.54)">
		<g id="Ellipse_194-22" transform="translate(131.5 1247.32) rotate(180)">
			<circle class="st5" cx="320" cy="305" r="16"/>
			<circle class="st4" cx="320" cy="305" r="15.5"/>
		</g>
	</g>
	<g id="Ellipse_198-10" transform="translate(24 87.781) rotate(180)">
		<circle class="st6" cx="312" cy="297" r="8"/>
		<circle class="st4" cx="312" cy="297" r="7.5"/>
	</g>
</g>
<g id="Group_2874" transform="translate(401.5 1554.51)">
	<path id="Path_10293-10" class="st4" d="M-288-307.7v96.5"/>
	<g transform="matrix(1, 0, 0, 1, -99.5, -1265.51)">
		<g id="Ellipse_194-23" transform="translate(131.5 1341.99) rotate(180)">
			<circle class="st5" cx="320" cy="300.7" r="16"/>
			<circle class="st4" cx="320" cy="300.7" r="15.5"/>
		</g>
	</g>
	<g id="Ellipse_198-11" transform="translate(24 68.477) rotate(180)">
		<circle class="st6" cx="312" cy="292.7" r="8"/>
		<circle class="st4" cx="312" cy="292.7" r="7.5"/>
	</g>
</g>
<g>
	<text transform="matrix(1 0 0 1 152 1458.011)" class="st1 st2 st3">- 월렛 결제시스템 런칭</text>
	<text transform="matrix(1 0 0 1 151.9998 1480.011)" class="st16"><tspan x="0" y="0" class="st1 st2 st3">- THE ASTA 시스템 고도화</tspan><tspan x="0" y="16.8" class="st1 st2 st3">  (PMS 시스템 개발)</tspan></text>
</g>
<g>
	<text transform="matrix(1 0 0 1 152 1435.071)" class="st7 st8 st9">4Q</text>
</g>
<g id="Group_2906" transform="translate(-311.5 1065.082)">
	<path id="Path_10293-11" class="st4" d="M425,281.3v101.5"/>
	<g transform="matrix(1, 0, 0, 1, 613.5, -776.08)">
		<g id="Ellipse_194-24" transform="translate(133 1443.51) rotate(180)">
			<circle class="st5" cx="321.5" cy="300.7" r="16"/>
			<circle class="st4" cx="321.5" cy="300.7" r="15.5"/>
		</g>
	</g>
	<g id="Ellipse_198-12" transform="translate(738.5 658.491) rotate(180)">
		<circle class="st6" cx="313.5" cy="291.8" r="8"/>
		<circle class="st4" cx="313.5" cy="291.8" r="7.5"/>
	</g>
</g>
</svg>
