<?xml version="1.0" encoding="utf-8"?>
<!-- Generator: Adobe Illustrator 25.2.3, SVG Export Plug-In . SVG Version: 6.00 Build 0)  -->
<svg version="1.1" id="레이어_1" xmlns="http://www.w3.org/2000/svg" xmlns:xlink="http://www.w3.org/1999/xlink" x="0px"
	 y="0px" viewBox="0 0 1319 589.7" style="enable-background:new 0 0 1319 589.7;" xml:space="preserve">
<style type="text/css">
	.st0{fill:#0D2836;}
	.st1{font-family:'NotoSans-Light';}
	.st2{font-size:14px;}
	.st3{fill:#00B5BE;}
	.st4{font-family:'NotoSansCJKkr-Black-KSCpc-EUC-H';}
	.st5{font-size:16px;}
	.st6{enable-background:new    ;}
	.st7{letter-spacing:-1;}
	.st8{fill:url(#Rectangle_1917-2_1_);}
	.st9{fill:none;stroke:#033D61;}
	.st10{fill:#FFFFFF;}
	.st11{fill:#033D61;}
	.st12{fill:#033D61;stroke:#033D61;stroke-width:0.5;stroke-miterlimit:10;}
	.st13{font-family:'Roboto-Regular';}
	.st14{font-size:18px;}
</style>
<text transform="matrix(1 0 0 1 779 179.551)" class="st0 st1 st2">- Launch business affiliation of</text>
<text transform="matrix(1 0 0 1 779 201.551)" class="st0 st1 st2">  ASTA Platform</text>
<text transform="matrix(1 0 0 1 779 223.551)" class="st0 st1 st2">- Develop affiliated business App </text>
<text transform="matrix(1 0 0 1 779 245.551)" class="st0 st1 st2">  and Payment Solution</text>
<g>
	<text transform="matrix(1 0 0 1 779 157.171)" class="st3 st4 st5">2Q</text>
</g>
<text transform="matrix(1 0 0 1 779 55.4131)" class="st0 st1 st2">- Expand the linked business</text>
<text transform="matrix(1 0 0 1 779 77.4131)" class="st6"><tspan x="0" y="0" class="st0 st1 st2">  </tspan><tspan x="7.3" y="0" class="st0 st1 st2 st7"> </tspan><tspan x="9" y="0" class="st0 st1 st2">affiliation</tspan></text>
<text transform="matrix(1 0 0 1 779 99.4131)" class="st0 st1 st2">- Complete developing</text>
<text transform="matrix(1 0 0 1 779 121.4131)" class="st6"><tspan x="0" y="0" class="st0 st1 st2">  </tspan><tspan x="7.3" y="0" class="st0 st1 st2 st7"> </tspan><tspan x="9" y="0" class="st0 st1 st2">Wallet 2.0v and Distribute</tspan></text>
<g>
	<text transform="matrix(1 0 0 1 779 28.4731)" class="st3 st4 st5">1Q</text>
</g>
<text transform="matrix(1 0 0 1 779 384.237)" class="st0 st1 st2">- Interconnect the Wallet and </text>
<text transform="matrix(1 0 0 1 779 406.237)" class="st6"><tspan x="0" y="0" class="st0 st1 st2">  </tspan><tspan x="7.3" y="0" class="st0 st1 st2 st7"> </tspan><tspan x="9" y="0" class="st0 st1 st2">Ecosystem through </tspan></text>
<text transform="matrix(1 0 0 1 779 428.237)" class="st6"><tspan x="0" y="0" class="st0 st1 st2">  </tspan><tspan x="7.3" y="0" class="st0 st1 st2 st7"> </tspan><tspan x="9" y="0" class="st0 st1 st2">collaboration with exchanges</tspan></text>
<g>
	<text transform="matrix(1 0 0 1 779 359.297)" class="st3 st4 st5">3Q</text>
</g>
<text transform="matrix(1 0 0 1 1080 510.706)" class="st0 st1 st2"> - Launch the payment system </text>
<text transform="matrix(1 0 0 1 1080 531.6497)" class="st6"><tspan x="0" y="0" class="st0 st1 st2">  </tspan><tspan x="7.3" y="0" class="st0 st1 st2 st7"> </tspan><tspan x="9" y="0" class="st0 st1 st2">of ASTA Wallet</tspan></text>
<text transform="matrix(1 0 0 1 1080 552.5934)" class="st0 st1 st2"> - THE ASTA System Advancement</text>
<g>
	<text transform="matrix(1 0 0 1 1080 481.767)" class="st3 st4 st5">4Q</text>
</g>
<text transform="matrix(1 0 0 1 1080 384.2372)" class="st0 st1 st2">- Expansion of THE ASTA Affiliates </text>
<text transform="matrix(1 0 0 1 1080 406.2372)" class="st6"><tspan x="0" y="0" class="st0 st1 st2">  </tspan><tspan x="7.3" y="0" class="st0 st1 st2 st7"> </tspan><tspan x="9" y="0" class="st0 st1 st2">(car rental, flight ticket)</tspan></text>
<text transform="matrix(1 0 0 1 1080 428.2372)" class="st0 st1 st2">- THE ASTA Design Advancement</text>
<text transform="matrix(1 0 0 1 1080 192.415)" class="st0 st1 st2">- Develop the multi-swap function </text>
<text transform="matrix(1 0 0 1 1080 214.415)" class="st6"><tspan x="0" y="0" class="st0 st1 st2">  </tspan><tspan x="7.3" y="0" class="st0 st1 st2 st7"> </tspan><tspan x="9" y="0" class="st0 st1 st2">of ASTA Wallet</tspan></text>
<g>
	<text transform="matrix(1 0 0 1 1080 353.939)" class="st3 st4 st5">3Q</text>
</g>
<g>
	<text transform="matrix(1 0 0 1 1080 166.816)" class="st3 st4 st5">2Q</text>
</g>
<text transform="matrix(1 0 0 1 465 529.537)" class="st0 st1 st2">- Change CI as ASTA</text>
<text transform="matrix(1 0 0 1 465 551.537)" class="st0 st1 st2">- Implement Stable Coin </text>
<text transform="matrix(1 0 0 1 465 573.537)" class="st6"><tspan x="0" y="0" class="st0 st1 st2">  </tspan><tspan x="7.3" y="0" class="st0 st1 st2 st7"> </tspan><tspan x="9" y="0" class="st0 st1 st2">Inter-working System</tspan></text>
<g>
	<text transform="matrix(1 0 0 1 465 497.537)" class="st3 st4 st5">4Q</text>
</g>
<g transform="matrix(1, 0, 0, 1, 301, 282.36)">
	
		<linearGradient id="Rectangle_1917-2_1_" gradientUnits="userSpaceOnUse" x1="108.7016" y1="265.89" x2="109.6896" y2="265.89" gradientTransform="matrix(1300 0 0 -12 -141582 3185.9612)">
		<stop  offset="0" style="stop-color:#0067A7"/>
		<stop  offset="0.222" style="stop-color:#008C98"/>
		<stop  offset="1" style="stop-color:#033D61"/>
	</linearGradient>
	<path id="Rectangle_1917-2" class="st8" d="M-286-10.7h1288c3.3,0,6,2.7,6,6l0,0c0,3.3-2.7,6-6,6H-286c-3.3,0-6-2.7-6-6l0,0
		C-292-8-289.3-10.7-286-10.7z"/>
</g>
<text transform="matrix(1 0 0 1 149.5 382.732)" class="st0 st1 st2">- Initiate developing the</text>
<text transform="matrix(1 0 0 1 149.5 404.732)" class="st0 st1 st2">  project for real-life virtual </text>
<text transform="matrix(1 0 0 1 149.5 426.732)" class="st0 st1 st2">  asset platform</text>
<g id="Group_2836" transform="translate(1015.677 -381) rotate(90)">
	<path id="Path_10293" class="st9" d="M667.1,901.7h51.3"/>
	<g transform="matrix(0, -1, 1, 0, 663.36, 714.68)">
		<g id="Ellipse_194-13" transform="translate(130 360.93) rotate(180)">
			<circle class="st10" cx="317" cy="298.4" r="16"/>
			<circle class="st9" cx="317" cy="298.4" r="15.5"/>
		</g>
	</g>
	<g id="Ellipse_198" transform="translate(1016.287 592.677) rotate(90)">
		<circle class="st11" cx="309" cy="290.4" r="8"/>
		<circle class="st9" cx="309" cy="290.4" r="7.5"/>
	</g>
</g>
<g>
	<text transform="matrix(1 0 0 1 149.5 351.792)" class="st3 st4 st5">3Q</text>
</g>
<text transform="matrix(1 0 0 1 465 385.537)" class="st0 st1 st2">- Strategic alliance with KDAX exchange</text>
<text transform="matrix(1 0 0 1 465 405.537)" class="st0 st1 st2">- Establish Mainnet and Alpha type</text>
<text transform="matrix(1 0 0 1 465 425.537)" class="st0 st1 st2">- Complete developing Wallet 1.0v </text>
<text transform="matrix(1 0 0 1 465 445.537)" class="st6"><tspan x="0" y="0" class="st0 st1 st2">  </tspan><tspan x="7.3" y="0" class="st0 st1 st2 st7"> </tspan><tspan x="9" y="0" class="st0 st1 st2">and Distribute</tspan></text>
<text transform="matrix(1 0 0 1 465 465.537)" class="st0 st1 st2">- The first official release</text>
<g>
	<text transform="matrix(1 0 0 1 465 354.641)" class="st3 st4 st5">1Q</text>
</g>
<text transform="matrix(1 0 0 1 779 518.717)" class="st0 st1 st2">- Finalize ASTA Alliance 1st Group</text>
<text transform="matrix(1 0 0 1 779 540.717)" class="st0 st1 st2">- Develop Global Payment </text>
<text transform="matrix(1 0 0 1 779 562.717)" class="st6"><tspan x="0" y="0" class="st0 st1 st2">  </tspan><tspan x="7.3" y="0" class="st0 st1 st2 st7"> </tspan><tspan x="9" y="0" class="st0 st1 st2">Inter-working System</tspan></text>
<g>
	<text transform="matrix(1 0 0 1 779 487.778)" class="st3 st4 st5">4Q</text>
</g>
<g transform="matrix(1, 0, 0, 1, 301, 282.36)">
	<g id="Rectangle_1919-2" transform="translate(73 262.64)">
		<path class="st10" d="M-295-282.4h71c3.3,0,6,2.7,6,6v18c0,3.3-2.7,6-6,6h-71c-3.3,0-6-2.7-6-6v-18
			C-301-279.7-298.3-282.4-295-282.4z"/>
		<path class="st9" d="M-295-281.9h71c3,0,5.5,2.5,5.5,5.5v18c0,3-2.5,5.5-5.5,5.5h-71c-3,0-5.5-2.5-5.5-5.5v-18
			C-300.5-279.4-298-281.9-295-281.9z"/>
	</g>
</g>
<g>
	<text transform="matrix(1 0 0 1 88.5 284.641)" class="st12 st13 st14">2017Y</text>
</g>
<g transform="matrix(1, 0, 0, 1, 301, 282.36)">
	<g id="Rectangle_1920-2" transform="translate(230 262.64)">
		<path class="st10" d="M-295-282.4h71c3.3,0,6,2.7,6,6v18c0,3.3-2.7,6-6,6h-71c-3.3,0-6-2.7-6-6v-18
			C-301-279.7-298.3-282.4-295-282.4z"/>
		<path class="st9" d="M-295-281.9h71c3,0,5.5,2.5,5.5,5.5v18c0,3-2.5,5.5-5.5,5.5h-71c-3,0-5.5-2.5-5.5-5.5v-18
			C-300.5-279.4-298-281.9-295-281.9z"/>
	</g>
</g>
<g>
	<text transform="matrix(1 0 0 1 245 284.641)" class="st12 st13 st14">2018Y</text>
</g>
<g id="Group_2864" transform="translate(-28.677 1494.5) rotate(-90)">
	<path id="Path_10293-2" class="st9" d="M1231.9,299.7h92.3"/>
	<g transform="matrix(0, 1, -1, 0, 1212.14, 329.68)">
		<g id="Ellipse_194-14" transform="translate(255 138.31)">
			<circle class="st10" cx="-285" cy="-266.4" r="16"/>
			<circle class="st9" cx="-285" cy="-266.4" r="15.5"/>
		</g>
	</g>
	<g id="Ellipse_198-2" transform="translate(1065.834 592.677) rotate(90)">
		<circle class="st11" cx="-293" cy="-274.4" r="8"/>
		<circle class="st9" cx="-293" cy="-274.4" r="7.5"/>
	</g>
</g>
<text transform="matrix(1 0 0 1 307 191.247)" class="st0 st1 st2">- Establish a prototype</text>
<g>
	<text transform="matrix(1 0 0 1 307 158.307)" class="st3 st4 st5">2Q</text>
</g>
<g id="Group_2866">
	<path id="Path_10293-3" class="st9" d="M429.5,289.6v51.3"/>
	<g transform="matrix(1, 0, 0, 1, 301, 282.36)">
		<g id="Ellipse_194-15" transform="translate(445.5 364.64) rotate(180)">
			<circle class="st10" cx="317" cy="298.4" r="16"/>
			<circle class="st9" cx="317" cy="298.4" r="15.5"/>
		</g>
	</g>
	<g id="Ellipse_198-3" transform="translate(738.5 639) rotate(180)">
		<circle class="st11" cx="309" cy="290.4" r="8"/>
		<circle class="st9" cx="309" cy="290.4" r="7.5"/>
	</g>
</g>
<g id="Group_2867" transform="translate(0 83)">
	<path id="Path_10293-4" class="st9" d="M429.5,281.2v110.5"/>
	<g transform="matrix(1, 0, 0, 1, 301, 199.36)">
		<g id="Ellipse_194-16" transform="translate(445.5 506.78) rotate(180)">
			<circle class="st10" cx="317" cy="298.4" r="16"/>
			<circle class="st9" cx="317" cy="298.4" r="15.5"/>
		</g>
	</g>
	<g id="Ellipse_198-4" transform="translate(738.5 698.137) rotate(180)">
		<circle class="st11" cx="309" cy="290.4" r="8"/>
		<circle class="st9" cx="309" cy="290.4" r="7.5"/>
	</g>
</g>
<g transform="matrix(1, 0, 0, 1, 301, 282.36)">
	<g id="Rectangle_1921-2" transform="translate(388 262.64)">
		<path class="st10" d="M-295-282.4h71c3.3,0,6,2.7,6,6v18c0,3.3-2.7,6-6,6h-71c-3.3,0-6-2.7-6-6v-18
			C-301-279.7-298.3-282.4-295-282.4z"/>
		<path class="st9" d="M-295-281.9h71c3,0,5.5,2.5,5.5,5.5v18c0,3-2.5,5.5-5.5,5.5h-71c-3,0-5.5-2.5-5.5-5.5v-18
			C-300.5-279.4-298-281.9-295-281.9z"/>
	</g>
</g>
<g transform="matrix(1, 0, 0, 1, 301, 282.36)">
	<g id="Rectangle_1922-2" transform="translate(705 262.64)">
		<path class="st10" d="M-295-282.4h71c3.3,0,6,2.7,6,6v18c0,3.3-2.7,6-6,6h-71c-3.3,0-6-2.7-6-6v-18
			C-301-279.7-298.3-282.4-295-282.4z"/>
		<path class="st9" d="M-295-281.9h71c3,0,5.5,2.5,5.5,5.5v18c0,3-2.5,5.5-5.5,5.5h-71c-3,0-5.5-2.5-5.5-5.5v-18
			C-300.5-279.4-298-281.9-295-281.9z"/>
	</g>
</g>
<g>
	<text transform="matrix(1 0 0 1 403.5 284.641)" class="st12 st13 st14">2019Y</text>
</g>
<g>
	<text transform="matrix(1 0 0 1 720.5 284.641)" class="st12 st13 st14">2020Y</text>
</g>
<g id="Group_2868" transform="translate(446.823 1452.773) rotate(-90)">
	<path id="Path_10293-5" class="st9" d="M1189.3,299.7H1300"/>
	<g transform="matrix(0, 1, -1, 0, 1170.41, -145.82)">
		<g id="Ellipse_194-17" transform="translate(730.5 137.17)">
			<circle class="st10" cx="-285" cy="-266.4" r="16"/>
			<circle class="st9" cx="-285" cy="-266.4" r="15.5"/>
		</g>
	</g>
	<g id="Ellipse_198-5" transform="translate(1025.243 592.677) rotate(90)">
		<circle class="st11" cx="-293" cy="-274.4" r="8"/>
		<circle class="st9" cx="-293" cy="-274.4" r="7.5"/>
	</g>
</g>
<g id="Group_2869" transform="translate(446.823 1350.031) rotate(-90)">
	<path id="Path_10293-6" class="st9" d="M1212.9,299.7H1328"/>
	<g transform="matrix(0, 1, -1, 0, 1067.67, -145.82)">
		<g id="Ellipse_194-18" transform="translate(730.5 6)">
			<circle class="st10" cx="-285" cy="-266.4" r="16"/>
			<circle class="st9" cx="-285" cy="-266.4" r="15.5"/>
		</g>
	</g>
	<g id="Ellipse_198-6" transform="translate(1053.672 592.677) rotate(90)">
		<circle class="st11" cx="-293" cy="-274.4" r="8"/>
		<circle class="st9" cx="-293" cy="-274.4" r="7.5"/>
	</g>
</g>
<g id="Group_2870" transform="translate(317 3)">
	<path id="Path_10293-7" class="st9" d="M429.5,289.6v51.3"/>
	<g transform="matrix(1, 0, 0, 1, -16, 279.36)">
		<g id="Ellipse_194-19" transform="translate(762.5 367.64) rotate(180)">
			<circle class="st10" cx="317" cy="298.4" r="16"/>
			<circle class="st9" cx="317" cy="298.4" r="15.5"/>
		</g>
	</g>
	<g id="Ellipse_198-7" transform="translate(738.5 639) rotate(180)">
		<circle class="st11" cx="309" cy="290.4" r="8"/>
		<circle class="st9" cx="309" cy="290.4" r="7.5"/>
	</g>
</g>
<g id="Group_2871" transform="translate(317 82.554)">
	<path id="Path_10293-8" class="st9" d="M429.5,283.6v131.9"/>
	<g transform="matrix(1, 0, 0, 1, -16, 199.81)">
		<g id="Ellipse_194-20" transform="translate(762.5 498.09) rotate(180)">
			<circle class="st10" cx="317" cy="298.4" r="16"/>
			<circle class="st9" cx="317" cy="298.4" r="15.5"/>
		</g>
	</g>
	<g id="Ellipse_198-8" transform="translate(738.5 689.896) rotate(180)">
		<circle class="st11" cx="309" cy="290.4" r="8"/>
		<circle class="st9" cx="309" cy="290.4" r="7.5"/>
	</g>
</g>
<g transform="matrix(1, 0, 0, 1, 301, 282.36)">
	<g id="Rectangle_1923-2" transform="translate(1010 262.64)">
		<path class="st10" d="M-295-282.4h71c3.3,0,6,2.7,6,6v18c0,3.3-2.7,6-6,6h-71c-3.3,0-6-2.7-6-6v-18
			C-301-279.7-298.3-282.4-295-282.4z"/>
		<path class="st9" d="M-295-281.9h71c3,0,5.5,2.5,5.5,5.5v18c0,3-2.5,5.5-5.5,5.5h-71c-3,0-5.5-2.5-5.5-5.5v-18
			C-300.5-279.4-298-281.9-295-281.9z"/>
	</g>
</g>
<g>
	<text transform="matrix(1 0 0 1 1026 284.641)" class="st12 st13 st14">2021Y</text>
</g>
<g id="Group_2872" transform="translate(622.5 2.456)">
	<path id="Path_10293-9" class="st9" d="M429.5,289.6v51.3"/>
	<g transform="matrix(1, 0, 0, 1, -321.5, 279.9)">
		<g id="Ellipse_194-21" transform="translate(1068 367.1) rotate(180)">
			<circle class="st10" cx="317" cy="298.4" r="16"/>
			<circle class="st9" cx="317" cy="298.4" r="15.5"/>
		</g>
	</g>
	<g id="Ellipse_198-9" transform="translate(738.5 639) rotate(180)">
		<circle class="st11" cx="309" cy="290.4" r="8"/>
		<circle class="st9" cx="309" cy="290.4" r="7.5"/>
	</g>
</g>
<g id="Group_2873" transform="translate(1337 648.697)">
	<path id="Path_10293-10" class="st9" d="M-285-282.4v114.7"/>
	<g transform="matrix(1, 0, 0, 1, -1036, -366.34)">
		<g id="Ellipse_194-22" transform="translate(1068 491.04) rotate(180)">
			<circle class="st10" cx="317" cy="298.4" r="16"/>
			<circle class="st9" cx="317" cy="298.4" r="15.5"/>
		</g>
	</g>
	<g id="Ellipse_198-10" transform="translate(24 116.699) rotate(180)">
		<circle class="st11" cx="309" cy="290.4" r="8"/>
		<circle class="st9" cx="309" cy="290.4" r="7.5"/>
	</g>
</g>
<text transform="matrix(1 0 0 1 1080 62.9431)" class="st0 st1 st2">- Finalize ASTA Wallet 3.0 and </text>
<text transform="matrix(1 0 0 1 1080 84.9431)" class="st6"><tspan x="0" y="0" class="st0 st1 st2">  </tspan><tspan x="7.3" y="0" class="st0 st1 st2 st7"> </tspan><tspan x="9" y="0" class="st0 st1 st2">start distribution</tspan></text>
<text transform="matrix(1 0 0 1 1080 106.9431)" class="st0 st1 st2">- Launch THE ASTA </text>
<text transform="matrix(1 0 0 1 1080 128.9431)" class="st0 st1 st2">  (mobile E-commerce platform)</text>
<g>
	<text transform="matrix(1 0 0 1 1080 35.0031)" class="st3 st4 st5">1Q</text>
</g>
<g id="Group_2902" transform="translate(752.323 1354.347) rotate(-90)">
	<path id="Path_10293-11" class="st9" d="M1211.5,299.7h105"/>
	<g transform="matrix(0, 1, -1, 0, 1071.99, -451.32)">
		<g id="Ellipse_194-23" transform="translate(1036 6)">
			<circle class="st10" cx="-285" cy="-257.4" r="16"/>
			<circle class="st9" cx="-285" cy="-257.4" r="15.5"/>
		</g>
	</g>
	<g id="Ellipse_198-11" transform="translate(1057.987 592.677) rotate(90)">
		<circle class="st11" cx="-293" cy="-265.4" r="8"/>
		<circle class="st9" cx="-293" cy="-265.4" r="7.5"/>
	</g>
</g>
<g id="Group_2979" transform="translate(751.823 1474.164) rotate(-90)">
	<path id="Path_10293-12" class="st9" d="M1211.5,299.7h105"/>
	<g transform="matrix(0, 1, -1, 0, 1191.8, -450.82)">
		<g id="Ellipse_194-24" transform="translate(1035.5 125.82)">
			<circle class="st10" cx="-285" cy="-249.4" r="16"/>
			<circle class="st9" cx="-285" cy="-249.4" r="15.5"/>
		</g>
	</g>
	<g id="Ellipse_198-12" transform="translate(1057.987 592.677) rotate(90)">
		<circle class="st11" cx="-293" cy="-257.4" r="8"/>
		<circle class="st9" cx="-293" cy="-257.4" r="7.5"/>
	</g>
</g>
<text transform="matrix(1 0 0 1 1080 573.537)"><tspan x="0" y="0" class="st0 st1 st2">  </tspan><tspan x="7.3" y="0" class="st0 st1 st2 st7"> </tspan><tspan x="9" y="0" class="st0 st1 st2">(PMS System Development)</tspan></text>
</svg>
