<?xml version="1.0" encoding="utf-8"?>
<!-- Generator: Adobe Illustrator 25.2.3, SVG Export Plug-In . SVG Version: 6.00 Build 0)  -->
<svg version="1.1" id="레이어_1" xmlns="http://www.w3.org/2000/svg" xmlns:xlink="http://www.w3.org/1999/xlink" x="0px"
	 y="0px" viewBox="0 0 1318 557.5" style="enable-background:new 0 0 1318 557.5;" xml:space="preserve">
<style type="text/css">
	.st0{fill:#0D2836;}
	.st1{font-family:'NotoSansCJKkr-Light-KSCpc-EUC-H';}
	.st2{font-size:14px;}
	.st3{fill:#00B5BE;}
	.st4{font-family:'NotoSansCJKkr-Black-KSCpc-EUC-H';}
	.st5{font-size:16px;}
	.st6{fill:url(#Rectangle_1917-2_1_);}
	.st7{fill:none;stroke:#033D61;}
	.st8{fill:#FFFFFF;}
	.st9{fill:#033D61;}
	.st10{font-family:'Roboto-Regular';}
	.st11{font-size:18px;}
	.st12{fill:none;stroke:#033D61;stroke-width:0.5;stroke-miterlimit:10;}
</style>
<g>
	<text transform="matrix(1 0 0 1 779 178.3687)" class="st0 st1 st2">- ASTA 플랫폼 제휴사업 런칭 </text>
	<text transform="matrix(1 0 0 1 779 200.3687)" class="st0 st1 st2">- 제휴사업 App 및 결제 솔루션 개발 </text>
	<text transform="matrix(1 0 0 1 779 141.4287)" class="st3 st4 st5">2Q</text>
	<text transform="matrix(1 0 0 1 779 61.4897)" class="st0 st1 st2">- 연계사업 제휴 확장</text>
	<text transform="matrix(1 0 0 1 779 83.4897)" class="st0 st1 st2">- 월렛(Wallet) 2.0v 개발 완료 및 배포 </text>
	<text transform="matrix(1 0 0 1 779 24.5497)" class="st3 st4 st5">1Q</text>
	<text transform="matrix(1 0 0 1 779 353.4947)" class="st0 st1 st2">- 거래소들과의 협업을 통한 지갑</text>
	<text transform="matrix(1 0 0 1 779 370.2947)" class="st0 st1 st2">  </text>
	<text transform="matrix(1 0 0 1 785.2 370.2947)" class="st0 st1 st2"> </text>
	<text transform="matrix(1 0 0 1 787.2 370.2947)" class="st0 st1 st2">및 시스템 생태계 연동</text>
	<text transform="matrix(1 0 0 1 779 328.5547)" class="st3 st4 st5">3Q</text>
	<text transform="matrix(1 0 0 1 1080 465.9747)" class="st0 st1 st2">- 월렛 결제시스템 런칭</text>
	<text transform="matrix(1 0 0 1 1080 487.9747)" class="st0 st1 st2">- THE ASTA 시스템 고도화</text>
	<text transform="matrix(1 0 0 1 1080 504.7747)" class="st0 st1 st2">  </text>
	<text transform="matrix(1 0 0 1 1086.2 504.7747)" class="st0 st1 st2"> </text>
	<text transform="matrix(1 0 0 1 1088.2 504.7747)" class="st0 st1 st2">(PMS 시스템 개발)</text>
	<text transform="matrix(1 0 0 1 1080 429.0357)" class="st3 st4 st5">4Q</text>
	<text transform="matrix(1 0 0 1 1080 359.7947)" class="st0 st1 st2">- THE ASTA 제휴사 확대(렌터카,</text>
	<text transform="matrix(1 0 0 1 1080 376.5947)" class="st0 st1 st2">  </text>
	<text transform="matrix(1 0 0 1 1086.2 376.5947)" class="st0 st1 st2"> </text>
	<text transform="matrix(1 0 0 1 1088.2 376.5947)" class="st0 st1 st2">항공권) </text>
	<text transform="matrix(1 0 0 1 1080 397.7947)" class="st0 st1 st2">- THE ASTA 디자인 고도화</text>
	<text transform="matrix(1 0 0 1 1080 323.1967)" class="st3 st4 st5">3Q</text>
	<text transform="matrix(1 0 0 1 465 498.7947)" class="st0 st1 st2">- ASTA</text>
	<text transform="matrix(1 0 0 1 506.7473 498.7947)" class="st0 st1 st2">로 CI 변경 </text>
	<text transform="matrix(1 0 0 1 465 520.7947)" class="st0 st1 st2">- 가치고정형 코인(Stable Coin) 연동</text>
	<text transform="matrix(1 0 0 1 465 537.5947)" class="st0 st1 st2">  </text>
	<text transform="matrix(1 0 0 1 471.2 537.5947)" class="st0 st1 st2"> </text>
	<text transform="matrix(1 0 0 1 473.2 537.5947)" class="st0 st1 st2">시스템 구현</text>
	<text transform="matrix(1 0 0 1 465 466.7947)" class="st3 st4 st5">4Q</text>
	
		<linearGradient id="Rectangle_1917-2_1_" gradientUnits="userSpaceOnUse" x1="9" y1="188.9" x2="1309" y2="188.9" gradientTransform="matrix(1 0 0 1 0 58)">
		<stop  offset="0" style="stop-color:#0067A7"/>
		<stop  offset="0.222" style="stop-color:#008C98"/>
		<stop  offset="1" style="stop-color:#033D61"/>
	</linearGradient>
	<path id="Rectangle_1917-2" class="st6" d="M15,240.9h1288c3.3,0,6,2.7,6,6l0,0c0,3.3-2.7,6-6,6H15c-3.3,0-6-2.7-6-6l0,0
		C9,243.6,11.7,240.9,15,240.9z"/>
	<text transform="matrix(1 0 0 1 149.5 351.9897)" class="st0 st1 st2">- 실생활 가상자산 플랫폼 개발을</text>
	<text transform="matrix(1 0 0 1 149.5 368.7897)" class="st0 st1 st2">  </text>
	<text transform="matrix(1 0 0 1 155.7 368.7897)" class="st0 st1 st2"> </text>
	<text transform="matrix(1 0 0 1 157.7 368.7897)" class="st0 st1 st2">위한 프로젝트 발의</text>
	<path id="Path_10293" class="st7" d="M114,255.4v51.3"/>
	<g id="Ellipse_194-13" transform="translate(130 330.93) rotate(180)">
		<circle class="st8" cx="16" cy="16.7" r="16"/>
		<circle class="st7" cx="16" cy="16.7" r="15.5"/>
	</g>
	<g id="Ellipse_198" transform="translate(1016.287 592.677) rotate(90)">
		<circle class="st9" cx="-278.5" cy="902.3" r="8"/>
		<circle class="st7" cx="-278.5" cy="902.3" r="7.5"/>
	</g>
	<text transform="matrix(1 0 0 1 149.5 321.0497)" class="st3 st4 st5">3Q</text>
	<text transform="matrix(1 0 0 1 465 354.7947)" class="st0 st1 st2">- KDAX 거래소와 전략적 제휴 </text>
	<text transform="matrix(1 0 0 1 465 376.7947)" class="st0 st1 st2">- 자체 메인넷 및 알파타입 구축</text>
	<text transform="matrix(1 0 0 1 465 398.7947)" class="st0 st1 st2">- 월렛(Wallet) 1.0v 개발 완료 및 배포 </text>
	<text transform="matrix(1 0 0 1 465 420.7947)" class="st0 st1 st2">- 첫 정식 릴리즈</text>
	<text transform="matrix(1 0 0 1 465 323.8987)" class="st3 st4 st5">1Q</text>
	<text transform="matrix(1 0 0 1 779 457.9747)" class="st0 st1 st2">- 가상자산 복합 결재 서비스 구축</text>
	<text transform="matrix(1 0 0 1 779 479.9747)" class="st0 st1 st2">- 여행/숙박 플랫폼 ASTATOUR 오픈 </text>
	<text transform="matrix(1 0 0 1 779 427.0357)" class="st3 st4 st5">4Q</text>
	<g id="Rectangle_1919-2" transform="translate(73 232.64)">
		<path class="st8" d="M6-0.7h71c3.3,0,6,2.7,6,6v18c0,3.3-2.7,6-6,6H6c-3.3,0-6-2.7-6-6v-18C0,1.9,2.7-0.7,6-0.7z"/>
		<path class="st7" d="M6-0.2h71c3,0,5.5,2.5,5.5,5.5v18c0,3-2.5,5.5-5.5,5.5H6c-3,0-5.5-2.5-5.5-5.5v-18C0.5,2.2,3-0.2,6-0.2z"/>
	</g>
	<text transform="matrix(1 0 0 1 88.5 253.8987)" class="st9 st10 st11">2017Y</text>
	<text transform="matrix(1 0 0 1 88.5 253.8987)" class="st12 st10 st11">2017Y</text>
	<g id="Rectangle_1920-2" transform="translate(230 232.64)">
		<path class="st8" d="M6-0.7h71c3.3,0,6,2.7,6,6v18c0,3.3-2.7,6-6,6H6c-3.3,0-6-2.7-6-6v-18C0,1.9,2.7-0.7,6-0.7z"/>
		<path class="st7" d="M6-0.2h71c3,0,5.5,2.5,5.5,5.5v18c0,3-2.5,5.5-5.5,5.5H6c-3,0-5.5-2.5-5.5-5.5v-18C0.5,2.2,3-0.2,6-0.2z"/>
	</g>
	<g>
		<text transform="matrix(1 0 0 1 245 253.8987)" class="st9 st10 st11">2018Y</text>
		<text transform="matrix(1 0 0 1 245 253.8987)" class="st12 st10 st11">2018Y</text>
	</g>
	<path id="Path_10293-2" class="st7" d="M271,231.9v-92.3"/>
	<g id="Ellipse_194-14" transform="translate(255 108.31)">
		<circle class="st8" cx="16" cy="15.3" r="16"/>
		<circle class="st7" cx="16" cy="15.3" r="15.5"/>
	</g>
	<g id="Ellipse_198-2" transform="translate(1065.834 592.677) rotate(90)">
		<circle class="st9" cx="-469.1" cy="794.8" r="8"/>
		<circle class="st7" cx="-469.1" cy="794.8" r="7.5"/>
	</g>
	<text transform="matrix(1 0 0 1 307 160.5047)" class="st0 st1 st2">- 프로토타입 구축</text>
	<text transform="matrix(1 0 0 1 307 127.5647)" class="st3 st4 st5">2Q</text>
	<path id="Path_10293-3" class="st7" d="M429.5,258.9v51.3"/>
	<g id="Ellipse_194-15" transform="translate(445.5 334.64) rotate(180)">
		<circle class="st8" cx="16" cy="16.7" r="16"/>
		<circle class="st7" cx="16" cy="16.7" r="15.5"/>
	</g>
	<g id="Ellipse_198-3" transform="translate(738.5 639) rotate(180)">
		<circle class="st9" cx="309" cy="321.1" r="8"/>
		<circle class="st7" cx="309" cy="321.1" r="7.5"/>
	</g>
	<path id="Path_10293-4" class="st7" d="M429.5,333.5V444"/>
	<g id="Ellipse_194-16" transform="translate(445.5 476.78) rotate(180)">
		<circle class="st8" cx="16" cy="16.7" r="16"/>
		<circle class="st7" cx="16" cy="16.7" r="15.5"/>
	</g>
	<g id="Ellipse_198-4" transform="translate(738.5 698.137) rotate(180)">
		<circle class="st9" cx="309" cy="238.1" r="8"/>
		<circle class="st7" cx="309" cy="238.1" r="7.5"/>
	</g>
	<g id="Rectangle_1921-2" transform="translate(388 232.64)">
		<path class="st8" d="M6-0.7h71c3.3,0,6,2.7,6,6v18c0,3.3-2.7,6-6,6H6c-3.3,0-6-2.7-6-6v-18C0,1.9,2.7-0.7,6-0.7z"/>
		<path class="st7" d="M6-0.2h71c3,0,5.5,2.5,5.5,5.5v18c0,3-2.5,5.5-5.5,5.5H6c-3,0-5.5-2.5-5.5-5.5v-18C0.5,2.2,3-0.2,6-0.2z"/>
	</g>
	<g id="Rectangle_1922-2" transform="translate(705 232.64)">
		<path class="st8" d="M6-0.7h71c3.3,0,6,2.7,6,6v18c0,3.3-2.7,6-6,6H6c-3.3,0-6-2.7-6-6v-18C0,1.9,2.7-0.7,6-0.7z"/>
		<path class="st7" d="M6-0.2h71c3,0,5.5,2.5,5.5,5.5v18c0,3-2.5,5.5-5.5,5.5H6c-3,0-5.5-2.5-5.5-5.5v-18C0.5,2.2,3-0.2,6-0.2z"/>
	</g>
	<g>
		<text transform="matrix(1 0 0 1 403.5 253.8987)" class="st9 st10 st11">2019Y</text>
		<text transform="matrix(1 0 0 1 403.5 253.8987)" class="st12 st10 st11">2019Y</text>
	</g>
	<g>
		<text transform="matrix(1 0 0 1 720.5 253.8987)" class="st9 st10 st11">2020Y</text>
		<text transform="matrix(1 0 0 1 720.5 253.8987)" class="st12 st10 st11">2020Y</text>
	</g>
	<path id="Path_10293-5" class="st7" d="M746.5,232.3V120"/>
	<g id="Ellipse_194-17" transform="translate(730.5 122.81)">
		<circle class="st8" cx="16" cy="15.3" r="16"/>
		<circle class="st7" cx="16" cy="15.3" r="15.5"/>
	</g>
	<g id="Ellipse_198-5" transform="translate(1049.607 592.677) rotate(90)">
		<circle class="st9" cx="-454.6" cy="303.1" r="8"/>
		<circle class="st7" cx="-454.6" cy="303.1" r="7.5"/>
	</g>
	<path id="Path_10293-6" class="st7" d="M746.5,122.1V21.3"/>
	<g id="Ellipse_194-18" transform="translate(730.5 6)">
		<circle class="st8" cx="16" cy="15.3" r="16"/>
		<circle class="st7" cx="16" cy="15.3" r="15.5"/>
	</g>
	<g id="Ellipse_198-6" transform="translate(1043.459 592.677) rotate(90)">
		<circle class="st9" cx="-571.4" cy="297" r="8"/>
		<circle class="st7" cx="-571.4" cy="297" r="7.5"/>
	</g>
	<path id="Path_10293-7" class="st7" d="M746.5,261.9v51.3"/>
	<g id="Ellipse_194-19" transform="translate(762.5 337.64) rotate(180)">
		<circle class="st8" cx="16" cy="16.7" r="16"/>
		<circle class="st7" cx="16" cy="16.7" r="15.5"/>
	</g>
	<g id="Ellipse_198-7" transform="translate(738.5 639) rotate(180)">
		<circle class="st9" cx="-8" cy="318.1" r="8"/>
		<circle class="st7" cx="-8" cy="318.1" r="7.5"/>
	</g>
	<path id="Path_10293-8" class="st7" d="M746.5,335.4v106.4"/>
	<g id="Ellipse_194-20" transform="translate(762.5 442.54) rotate(180)">
		<circle class="st8" cx="16" cy="16.7" r="16"/>
		<circle class="st7" cx="16" cy="16.7" r="15.5"/>
	</g>
	<g id="Ellipse_198-8" transform="translate(738.5 664.343) rotate(180)">
		<circle class="st9" cx="-8" cy="238.5" r="8"/>
		<circle class="st7" cx="-8" cy="238.5" r="7.5"/>
	</g>
	<g id="Rectangle_1923-2" transform="translate(1010 232.64)">
		<path class="st8" d="M6-0.7h71c3.3,0,6,2.7,6,6v18c0,3.3-2.7,6-6,6H6c-3.3,0-6-2.7-6-6v-18C0,1.9,2.7-0.7,6-0.7z"/>
		<path class="st7" d="M6-0.2h71c3,0,5.5,2.5,5.5,5.5v18c0,3-2.5,5.5-5.5,5.5H6c-3,0-5.5-2.5-5.5-5.5v-18C0.5,2.2,3-0.2,6-0.2z"/>
	</g>
	<g>
		<text transform="matrix(1 0 0 1 1026 253.8987)" class="st9 st10 st11">2021Y</text>
		<text transform="matrix(1 0 0 1 1026 253.8987)" class="st12 st10 st11">2021Y</text>
	</g>
	<path id="Path_10293-9" class="st7" d="M1052,261.4v51.3"/>
	<g id="Ellipse_194-21" transform="translate(1068 337.1) rotate(180)">
		<circle class="st8" cx="16" cy="16.7" r="16"/>
		<circle class="st7" cx="16" cy="16.7" r="15.5"/>
	</g>
	<g id="Ellipse_198-9" transform="translate(738.5 639) rotate(180)">
		<circle class="st9" cx="-313.5" cy="318.6" r="8"/>
		<circle class="st7" cx="-313.5" cy="318.6" r="7.5"/>
	</g>
	<path id="Path_10293-10" class="st7" d="M1052,335.6v96.2"/>
	<g id="Ellipse_194-22" transform="translate(1068 442.56) rotate(180)">
		<circle class="st8" cx="16" cy="16.7" r="16"/>
		<circle class="st7" cx="16" cy="16.7" r="15.5"/>
	</g>
	<g id="Ellipse_198-10" transform="translate(24 98.218) rotate(180)">
		<circle class="st9" cx="-1028" cy="-327.6" r="8"/>
		<circle class="st7" cx="-1028" cy="-327.6" r="7.5"/>
	</g>
	<text transform="matrix(1 0 0 1 1080 203.8567)" class="st0 st1 st2">- 월렛 Multi SWAP 기능 개발 </text>
	<text transform="matrix(1 0 0 1 1080 166.9177)" class="st3 st4 st5">2Q</text>
	<text transform="matrix(1 0 0 1 1080 100.8417)" class="st0 st1 st2">- 월렛(Wallet) 3.0v 개발 완료 및 배포</text>
	<text transform="matrix(1 0 0 1 1080 122.8417)" class="st0 st1 st2">- THE ASTA(모바일 구매 플랫폼) 런칭 </text>
	<text transform="matrix(1 0 0 1 1080 63.9027)" class="st3 st4 st5">1Q</text>
	<path id="Path_10293-11" class="st7" d="M1052,231.3v-85.9"/>
	<g id="Ellipse_194-23" transform="translate(1036 148.28)">
		<circle class="st8" cx="16" cy="15.3" r="16"/>
		<circle class="st7" cx="16" cy="15.3" r="15.5"/>
	</g>
	<g id="Ellipse_198-11" transform="translate(1023.184 592.677) rotate(90)">
		<circle class="st9" cx="-429.1" cy="-28.8" r="8"/>
		<circle class="st7" cx="-429.1" cy="-28.8" r="7.5"/>
	</g>
	<path id="Path_10293-12" class="st7" d="M1052,148.7V59.4"/>
	<g id="Ellipse_194-24" transform="translate(1036 45.35)">
		<circle class="st8" cx="16" cy="15.3" r="16"/>
		<circle class="st7" cx="16" cy="15.3" r="15.5"/>
	</g>
	<g id="Ellipse_198-12" transform="translate(1042.279 592.677) rotate(90)">
		<circle class="st9" cx="-532.1" cy="-9.7" r="8"/>
		<circle class="st7" cx="-532.1" cy="-9.7" r="7.5"/>
	</g>
</g>
</svg>
