<?xml version="1.0" encoding="utf-8"?>
<!-- Generator: Adobe Illustrator 25.2.3, SVG Export Plug-In . SVG Version: 6.00 Build 0)  -->
<svg version="1.1" id="레이어_1" xmlns="http://www.w3.org/2000/svg" xmlns:xlink="http://www.w3.org/1999/xlink" x="0px"
	 y="0px" viewBox="0 0 1318 557.5" style="enable-background:new 0 0 1318 557.5;" xml:space="preserve">
<style type="text/css">
	.st0{fill:#0D2836;}
	.st1{font-family:'NotoSansCJKkr-Regular-KSCpc-EUC-H';}
	.st2{font-size:14px;}
	.st3{fill:#00B5BE;}
	.st4{font-family:'NotoSansCJKkr-Black-KSCpc-EUC-H';}
	.st5{font-size:16px;}
	.st6{font-size:13.5px;}
	.st7{fill:url(#Rectangle_1917-2_1_);}
	.st8{fill:none;stroke:#033D61;}
	.st9{fill:#FFFFFF;}
	.st10{fill:#033D61;}
	.st11{fill:#033D61;stroke:#033D61;stroke-width:0.5;stroke-miterlimit:10;}
	.st12{font-family:'Roboto-Regular';}
	.st13{font-size:18px;}
</style>
<text transform="matrix(1 0 0 1 779 179.111)" class="st0 st1 st2">- 开展ASTA平台的事业合作</text>
<text transform="matrix(1 0 0 1 779 201.111)" class="st0 st1 st2">- 开发相关事业的应用及支付方案</text>
<g>
	<text transform="matrix(1 0 0 1 779 142.171)" class="st3 st4 st5">2Q</text>
</g>
<text transform="matrix(1 0 0 1 779 62.232)" class="st0 st1 st2">- 扩展相关事业的合作</text>
<text transform="matrix(1 0 0 1 779 84.232)" class="st0 st1 st2">- 钱包（Wallet）2.0版本开发完成及发布</text>
<g>
	<text transform="matrix(1 0 0 1 779 25.292)" class="st3 st4 st5">1Q</text>
</g>
<text transform="matrix(1 0 0 1 779 354.237)" class="st0 st1 st6">- 通过与交易所的合作联动钱包及生态系统</text>
<g>
	<text transform="matrix(1 0 0 1 779 329.297)" class="st3 st4 st5">3Q</text>
</g>
<text transform="matrix(1 0 0 1 1080 466.717)" class="st0 st1 st2">- 正式推出钱包支付系统</text>
<text transform="matrix(1 0 0 1 1080 488.717)" class="st0 st1 st2">- THE ASTA 系统升级(PMS 系统开发)</text>
<g>
	<text transform="matrix(1 0 0 1 1080 429.778)" class="st3 st4 st5">4Q</text>
</g>
<text transform="matrix(1 0 0 1 1080 360.537)" class="st0 st1 st2">- 扩大 ASTA 合作伙伴（租车，机票）</text>
<text transform="matrix(1 0 0 1 1080 382.537)" class="st0 st1 st2">- THE ASTA 设计升级</text>
<g>
	<text transform="matrix(1 0 0 1 1080 323.939)" class="st3 st4 st5">3Q</text>
</g>
<text transform="matrix(1 0 0 1 465 499.537)" class="st0 st1 st2">- CI更改为ASTA</text>
<text transform="matrix(1 0 0 1 465 521.537)" class="st0 st1 st2">- 联动稳定币（Stable Coin）</text>
<text transform="matrix(1 0 0 1 465 543.537)" class="st0 st1 st2">  来体现系统</text>
<g>
	<text transform="matrix(1 0 0 1 465 467.537)" class="st3 st4 st5">4Q</text>
</g>
<g transform="matrix(1, 0, 0, 1, 301, 312.36)">
	
		<linearGradient id="Rectangle_1917-2_1_" gradientUnits="userSpaceOnUse" x1="107.7024" y1="218.5567" x2="108.6904" y2="218.5567" gradientTransform="matrix(1300 0 0 -12 -140283 2557.9612)">
		<stop  offset="0" style="stop-color:#0067A7"/>
		<stop  offset="0.222" style="stop-color:#008C98"/>
		<stop  offset="1" style="stop-color:#033D61"/>
	</linearGradient>
	<path id="Rectangle_1917-2" class="st7" d="M-286-70.7h1288c3.3,0,6,2.7,6,6l0,0c0,3.3-2.7,6-6,6H-286c-3.3,0-6-2.7-6-6l0,0
		C-292-68-289.3-70.7-286-70.7z"/>
</g>
<text transform="matrix(1 0 0 1 149.5 352.732)" class="st0 st1 st2">- 现实生活数字货币平台的项目提议</text>
<g id="Group_2836" transform="translate(1015.677 -381) rotate(90)">
	<path id="Path_10293" class="st8" d="M637.1,901.7h51.3"/>
	<g transform="matrix(0, -1, 1, 0, 693.36, 714.68)">
		<g id="Ellipse_194-13" transform="translate(130 330.93) rotate(180)">
			<circle class="st9" cx="317" cy="328.4" r="16"/>
			<circle class="st8" cx="317" cy="328.4" r="15.5"/>
		</g>
	</g>
	<g id="Ellipse_198" transform="translate(1016.287 592.677) rotate(90)">
		<circle class="st10" cx="309" cy="320.4" r="8"/>
		<circle class="st8" cx="309" cy="320.4" r="7.5"/>
	</g>
</g>
<g>
	<text transform="matrix(1 0 0 1 149.5 321.792)" class="st3 st4 st5">3Q</text>
</g>
<text transform="matrix(1 0 0 1 465 355.537)" class="st0 st1 st2">- 与KDAX交易所战略合作</text>
<text transform="matrix(1 0 0 1 465 377.537)" class="st0 st1 st2">- 自体主网和Alfa型建构</text>
<text transform="matrix(1 0 0 1 465 399.537)" class="st0 st1 st2">- 钱包（Wallet）1.0版本开发完成及发布</text>
<text transform="matrix(1 0 0 1 465 421.537)" class="st0 st1 st2">- 首次正式发布</text>
<g>
	<text transform="matrix(1 0 0 1 465 324.641)" class="st3 st4 st5">1Q</text>
</g>
<text transform="matrix(1 0 0 1 779 458.717)" class="st0 st1 st2">- 构建数字货币混合支付</text>
<text transform="matrix(1 0 0 1 779 480.717)" class="st0 st1 st2">- 旅游/住宿平台ASTATOUR上线</text>
<g>
	<text transform="matrix(1 0 0 1 779 427.778)" class="st3 st4 st5">4Q</text>
</g>
<g transform="matrix(1, 0, 0, 1, 301, 312.36)">
	<g id="Rectangle_1919-2" transform="translate(73 232.64)">
		<path class="st9" d="M-295-312.4h71c3.3,0,6,2.7,6,6v18c0,3.3-2.7,6-6,6h-71c-3.3,0-6-2.7-6-6v-18
			C-301-309.7-298.3-312.4-295-312.4z"/>
		<path class="st8" d="M-295-311.9h71c3,0,5.5,2.5,5.5,5.5v18c0,3-2.5,5.5-5.5,5.5h-71c-3,0-5.5-2.5-5.5-5.5v-18
			C-300.5-309.4-298-311.9-295-311.9z"/>
	</g>
</g>
<g>
	<text transform="matrix(1 0 0 1 88.5 254.641)" class="st11 st12 st13">2017Y</text>
</g>
<g transform="matrix(1, 0, 0, 1, 301, 312.36)">
	<g id="Rectangle_1920-2" transform="translate(230 232.64)">
		<path class="st9" d="M-295-312.4h71c3.3,0,6,2.7,6,6v18c0,3.3-2.7,6-6,6h-71c-3.3,0-6-2.7-6-6v-18
			C-301-309.7-298.3-312.4-295-312.4z"/>
		<path class="st8" d="M-295-311.9h71c3,0,5.5,2.5,5.5,5.5v18c0,3-2.5,5.5-5.5,5.5h-71c-3,0-5.5-2.5-5.5-5.5v-18
			C-300.5-309.4-298-311.9-295-311.9z"/>
	</g>
</g>
<g>
	<text transform="matrix(1 0 0 1 245 254.641)" class="st11 st12 st13">2018Y</text>
</g>
<g id="Group_2864" transform="translate(-28.677 1494.5) rotate(-90)">
	<path id="Path_10293-2" class="st8" d="M1261.9,299.7h92.3"/>
	<g transform="matrix(0, 1, -1, 0, 1182.14, 329.68)">
		<g id="Ellipse_194-14" transform="translate(255 108.31)">
			<circle class="st9" cx="-285" cy="-296.4" r="16"/>
			<circle class="st8" cx="-285" cy="-296.4" r="15.5"/>
		</g>
	</g>
	<g id="Ellipse_198-2" transform="translate(1065.834 592.677) rotate(90)">
		<circle class="st10" cx="-293" cy="-304.4" r="8"/>
		<circle class="st8" cx="-293" cy="-304.4" r="7.5"/>
	</g>
</g>
<text transform="matrix(1 0 0 1 307 161.247)" class="st0 st1 st2">- 构建原型</text>
<g>
	<text transform="matrix(1 0 0 1 307 128.307)" class="st3 st4 st5">2Q</text>
</g>
<g id="Group_2866">
	<path id="Path_10293-3" class="st8" d="M429.5,259.6v51.3"/>
	<g transform="matrix(1, 0, 0, 1, 301, 312.36)">
		<g id="Ellipse_194-15" transform="translate(445.5 334.64) rotate(180)">
			<circle class="st9" cx="317" cy="328.4" r="16"/>
			<circle class="st8" cx="317" cy="328.4" r="15.5"/>
		</g>
	</g>
	<g id="Ellipse_198-3" transform="translate(738.5 639) rotate(180)">
		<circle class="st10" cx="309" cy="320.4" r="8"/>
		<circle class="st8" cx="309" cy="320.4" r="7.5"/>
	</g>
</g>
<g id="Group_2867" transform="translate(0 83)">
	<path id="Path_10293-4" class="st8" d="M429.5,251.2v110.5"/>
	<g transform="matrix(1, 0, 0, 1, 301, 229.36)">
		<g id="Ellipse_194-16" transform="translate(445.5 476.78) rotate(180)">
			<circle class="st9" cx="317" cy="328.4" r="16"/>
			<circle class="st8" cx="317" cy="328.4" r="15.5"/>
		</g>
	</g>
	<g id="Ellipse_198-4" transform="translate(738.5 698.137) rotate(180)">
		<circle class="st10" cx="309" cy="320.4" r="8"/>
		<circle class="st8" cx="309" cy="320.4" r="7.5"/>
	</g>
</g>
<g transform="matrix(1, 0, 0, 1, 301, 312.36)">
	<g id="Rectangle_1921-2" transform="translate(388 232.64)">
		<path class="st9" d="M-295-312.4h71c3.3,0,6,2.7,6,6v18c0,3.3-2.7,6-6,6h-71c-3.3,0-6-2.7-6-6v-18
			C-301-309.7-298.3-312.4-295-312.4z"/>
		<path class="st8" d="M-295-311.9h71c3,0,5.5,2.5,5.5,5.5v18c0,3-2.5,5.5-5.5,5.5h-71c-3,0-5.5-2.5-5.5-5.5v-18
			C-300.5-309.4-298-311.9-295-311.9z"/>
	</g>
</g>
<g transform="matrix(1, 0, 0, 1, 301, 312.36)">
	<g id="Rectangle_1922-2" transform="translate(705 232.64)">
		<path class="st9" d="M-295-312.4h71c3.3,0,6,2.7,6,6v18c0,3.3-2.7,6-6,6h-71c-3.3,0-6-2.7-6-6v-18
			C-301-309.7-298.3-312.4-295-312.4z"/>
		<path class="st8" d="M-295-311.9h71c3,0,5.5,2.5,5.5,5.5v18c0,3-2.5,5.5-5.5,5.5h-71c-3,0-5.5-2.5-5.5-5.5v-18
			C-300.5-309.4-298-311.9-295-311.9z"/>
	</g>
</g>
<g>
	<text transform="matrix(1 0 0 1 403.5 254.641)" class="st11 st12 st13">2019Y</text>
</g>
<g>
	<text transform="matrix(1 0 0 1 720.5 254.641)" class="st11 st12 st13">2020Y</text>
</g>
<g id="Group_2868" transform="translate(446.823 1492.773) rotate(-90)">
	<path id="Path_10293-5" class="st8" d="M1259.7,299.7h112.3"/>
	<g transform="matrix(0, 1, -1, 0, 1180.41, -145.82)">
		<g id="Ellipse_194-17" transform="translate(730.5 122.81)">
			<circle class="st9" cx="-285" cy="-296.4" r="16"/>
			<circle class="st8" cx="-285" cy="-296.4" r="15.5"/>
		</g>
	</g>
	<g id="Ellipse_198-5" transform="translate(1049.607 592.677) rotate(90)">
		<circle class="st10" cx="-293" cy="-304.4" r="8"/>
		<circle class="st8" cx="-293" cy="-304.4" r="7.5"/>
	</g>
</g>
<g id="Group_2869" transform="translate(446.823 1369.818) rotate(-90)">
	<path id="Path_10293-6" class="st8" d="M1247,299.7h100.8"/>
	<g transform="matrix(0, 1, -1, 0, 1057.46, -145.82)">
		<g id="Ellipse_194-18" transform="translate(730.5 6)">
			<circle class="st9" cx="-285" cy="-296.4" r="16"/>
			<circle class="st8" cx="-285" cy="-296.4" r="15.5"/>
		</g>
	</g>
	<g id="Ellipse_198-6" transform="translate(1043.459 592.677) rotate(90)">
		<circle class="st10" cx="-293" cy="-304.4" r="8"/>
		<circle class="st8" cx="-293" cy="-304.4" r="7.5"/>
	</g>
</g>
<g id="Group_2870" transform="translate(317 3)">
	<path id="Path_10293-7" class="st8" d="M429.5,259.6v51.3"/>
	<g transform="matrix(1, 0, 0, 1, -16, 309.36)">
		<g id="Ellipse_194-19" transform="translate(762.5 337.64) rotate(180)">
			<circle class="st9" cx="317" cy="328.4" r="16"/>
			<circle class="st8" cx="317" cy="328.4" r="15.5"/>
		</g>
	</g>
	<g id="Ellipse_198-7" transform="translate(738.5 639) rotate(180)">
		<circle class="st10" cx="309" cy="320.4" r="8"/>
		<circle class="st8" cx="309" cy="320.4" r="7.5"/>
	</g>
</g>
<g id="Group_2871" transform="translate(317 82.554)">
	<path id="Path_10293-8" class="st8" d="M429.5,253.6V360"/>
	<g transform="matrix(1, 0, 0, 1, -16, 229.81)">
		<g id="Ellipse_194-20" transform="translate(762.5 442.54) rotate(180)">
			<circle class="st9" cx="317" cy="328.4" r="16"/>
			<circle class="st8" cx="317" cy="328.4" r="15.5"/>
		</g>
	</g>
	<g id="Ellipse_198-8" transform="translate(738.5 664.343) rotate(180)">
		<circle class="st10" cx="309" cy="320.4" r="8"/>
		<circle class="st8" cx="309" cy="320.4" r="7.5"/>
	</g>
</g>
<g transform="matrix(1, 0, 0, 1, 301, 312.36)">
	<g id="Rectangle_1923-2" transform="translate(1010 232.64)">
		<path class="st9" d="M-295-312.4h71c3.3,0,6,2.7,6,6v18c0,3.3-2.7,6-6,6h-71c-3.3,0-6-2.7-6-6v-18
			C-301-309.7-298.3-312.4-295-312.4z"/>
		<path class="st8" d="M-295-311.9h71c3,0,5.5,2.5,5.5,5.5v18c0,3-2.5,5.5-5.5,5.5h-71c-3,0-5.5-2.5-5.5-5.5v-18
			C-300.5-309.4-298-311.9-295-311.9z"/>
	</g>
</g>
<g>
	<text transform="matrix(1 0 0 1 1026 254.641)" class="st11 st12 st13">2021Y</text>
</g>
<g id="Group_2872" transform="translate(622.5 2.456)">
	<path id="Path_10293-9" class="st8" d="M429.5,259.6v51.3"/>
	<g transform="matrix(1, 0, 0, 1, -321.5, 309.9)">
		<g id="Ellipse_194-21" transform="translate(1068 337.1) rotate(180)">
			<circle class="st9" cx="317" cy="328.4" r="16"/>
			<circle class="st8" cx="317" cy="328.4" r="15.5"/>
		</g>
	</g>
	<g id="Ellipse_198-9" transform="translate(738.5 639) rotate(180)">
		<circle class="st10" cx="309" cy="320.4" r="8"/>
		<circle class="st8" cx="309" cy="320.4" r="7.5"/>
	</g>
</g>
<g id="Group_2873" transform="translate(1337 648.697)">
	<path id="Path_10293-10" class="st8" d="M-285-312.4v96.2"/>
	<g transform="matrix(1, 0, 0, 1, -1036, -336.34)">
		<g id="Ellipse_194-22" transform="translate(1068 442.56) rotate(180)">
			<circle class="st9" cx="317" cy="328.4" r="16"/>
			<circle class="st8" cx="317" cy="328.4" r="15.5"/>
		</g>
	</g>
	<g id="Ellipse_198-10" transform="translate(24 98.218) rotate(180)">
		<circle class="st10" cx="309" cy="320.4" r="8"/>
		<circle class="st8" cx="309" cy="320.4" r="7.5"/>
	</g>
</g>
<text transform="matrix(1 0 0 1 1080 204.599)" class="st0 st1 st2">- 开发钱包Multi SWAP技术</text>
<g>
	<text transform="matrix(1 0 0 1 1080 167.66)" class="st3 st4 st5">2Q</text>
</g>
<text transform="matrix(1 0 0 1 1080 101.584)" class="st0 st1 st6">- 钱包（Wallet）3.0版本开发完成及发布</text>
<text transform="matrix(1 0 0 1 1080 123.584)" class="st0 st1 st6">- THE ASTA（移动购物平台）上线</text>
<g>
	<text transform="matrix(1 0 0 1 1080 64.645)" class="st3 st4 st5">1Q</text>
</g>
<g id="Group_2901" transform="translate(752.323 1491.827) rotate(-90)">
	<path id="Path_10293-11" class="st8" d="M1259.7,299.7h85.9"/>
	<g transform="matrix(0, 1, -1, 0, 1179.47, -451.32)">
		<g id="Ellipse_194-23" transform="translate(1036 148.28)">
			<circle class="st9" cx="-285" cy="-296.4" r="16"/>
			<circle class="st8" cx="-285" cy="-296.4" r="15.5"/>
		</g>
	</g>
	<g id="Ellipse_198-11" transform="translate(1023.184 592.677) rotate(90)">
		<circle class="st10" cx="-293" cy="-304.4" r="8"/>
		<circle class="st8" cx="-293" cy="-304.4" r="7.5"/>
	</g>
</g>
<g id="Group_2902" transform="translate(752.323 1407.991) rotate(-90)">
	<path id="Path_10293-12" class="st8" d="M1258.5,299.7h89.3"/>
	<g transform="matrix(0, 1, -1, 0, 1095.63, -451.32)">
		<g id="Ellipse_194-24" transform="translate(1036 45.35)">
			<circle class="st9" cx="-285" cy="-296.4" r="16"/>
			<circle class="st8" cx="-285" cy="-296.4" r="15.5"/>
		</g>
	</g>
	<g id="Ellipse_198-12" transform="translate(1042.279 592.677) rotate(90)">
		<circle class="st10" cx="-293" cy="-304.4" r="8"/>
		<circle class="st8" cx="-293" cy="-304.4" r="7.5"/>
	</g>
</g>
</svg>
