<?xml version="1.0" encoding="utf-8"?>
<!-- Generator: Adobe Illustrator 25.2.3, SVG Export Plug-In . SVG Version: 6.00 Build 0)  -->
<svg version="1.1" id="레이어_1" xmlns="http://www.w3.org/2000/svg" xmlns:xlink="http://www.w3.org/1999/xlink" x="0px"
	 y="0px" viewBox="0 0 419 1640.9" style="enable-background:new 0 0 419 1640.9;" xml:space="preserve">
<style type="text/css">
	.st0{fill:url(#Rectangle_1917-2_1_);}
	.st1{fill:#0D2836;}
	.st2{font-family:'NotoSans-Light';}
	.st3{font-size:14px;}
	.st4{fill:none;stroke:#033D61;}
	.st5{fill:#FFFFFF;}
	.st6{fill:#033D61;}
	.st7{fill:#00B5BE;}
	.st8{font-family:'NotoSansCJKkr-Black-KSCpc-EUC-H';}
	.st9{font-size:16px;}
	.st10{fill:#033D61;stroke:#033D61;stroke-width:0.5;stroke-miterlimit:10;}
	.st11{font-family:'Roboto-Regular';}
	.st12{font-size:18px;}
	.st13{fill:url(#Rectangle_1925-2_1_);}
	.st14{fill:url(#Rectangle_1926-2_1_);}
	.st15{fill:url(#Rectangle_1924-2_1_);}
	.st16{enable-background:new    ;}
</style>
<g transform="matrix(1, 0, 0, 1, 138, 300)">
	
		<linearGradient id="Rectangle_1917-2_1_" gradientUnits="userSpaceOnUse" x1="-177.883" y1="817" x2="-176.895" y2="817" gradientTransform="matrix(400 0 0 -12 71032 9622.3301)">
		<stop  offset="0" style="stop-color:#0067A7"/>
		<stop  offset="0.222" style="stop-color:#008C98"/>
		<stop  offset="1" style="stop-color:#033D61"/>
	</linearGradient>
	<path id="Rectangle_1917-2" class="st0" d="M-122-187.7h388c3.3,0,6,2.7,6,6l0,0c0,3.3-2.7,6-6,6h-388c-3.3,0-6-2.7-6-6l0,0
		C-128-185-125.3-187.7-122-187.7z"/>
</g>
<g>
	<text transform="matrix(1 0 0 1 108 206.425)" class="st1 st2 st3">- Initiate developing the  project for real-life </text>
	<text transform="matrix(1 0 0 1 108 228.425)" class="st1 st2 st3">   virtual asset platform</text>
</g>
<g id="Group_2836" transform="translate(819.677 -522.666) rotate(90)">
	<path id="Path_10293" class="st4" d="M649.5,738.7h51.3"/>
	<g transform="matrix(0, -1, 1, 0, 822.67, 681.68)">
		<g id="Ellipse_194-13" transform="translate(97 201.62) rotate(180)">
			<circle class="st5" cx="154" cy="316" r="16"/>
			<circle class="st4" cx="154" cy="316" r="15.5"/>
		</g>
	</g>
	<g id="Ellipse_198" transform="translate(1016.287 592.677) rotate(90)">
		<circle class="st6" cx="146" cy="308" r="8"/>
		<circle class="st4" cx="146" cy="308" r="7.5"/>
	</g>
</g>
<g>
	<text transform="matrix(1 0 0 1 108 175.485)" class="st7 st8 st9">3Q</text>
</g>
<g transform="matrix(1, 0, 0, 1, 138, 300)">
	<g id="Rectangle_1919-2" transform="translate(40 103.33)">
		<path class="st5" d="M-132-300h71c3.3,0,6,2.7,6,6v18c0,3.3-2.7,6-6,6h-71c-3.3,0-6-2.7-6-6v-18C-138-297.3-135.3-300-132-300z"/>
		<path class="st4" d="M-132-299.5h71c3,0,5.5,2.5,5.5,5.5v18c0,3-2.5,5.5-5.5,5.5h-71c-3,0-5.5-2.5-5.5-5.5v-18
			C-137.5-297-135-299.5-132-299.5z"/>
	</g>
</g>
<g>
	<text transform="matrix(1 0 0 1 55 125.334)" class="st10 st11 st12">2017Y</text>
</g>
<g transform="matrix(1, 0, 0, 1, 138, 300)">
	<g id="Rectangle_1920-2" transform="translate(201 103.33)">
		<path class="st5" d="M-141-300h71c3.3,0,6,2.7,6,6v18c0,3.3-2.7,6-6,6h-71c-3.3,0-6-2.7-6-6v-18C-147-297.3-144.3-300-141-300z"/>
		<path class="st4" d="M-141-299.5h71c3,0,5.5,2.5,5.5,5.5v18c0,3-2.5,5.5-5.5,5.5h-71c-3,0-5.5-2.5-5.5-5.5v-18
			C-146.5-297-144-299.5-141-299.5z"/>
	</g>
</g>
<g>
	<text transform="matrix(1 0 0 1 207 125.334)" class="st10 st11 st12">2018Y</text>
</g>
<g id="Group_2864" transform="translate(-220.677 1352.834) rotate(-90)">
	<path id="Path_10293-2" class="st4" d="M1248.6,453.7h90.7"/>
	<g transform="matrix(0, 1, -1, 0, 1052.83, 358.68)">
		<g id="Ellipse_194-14" transform="translate(226 6)">
			<circle class="st5" cx="-131" cy="-284" r="16"/>
			<circle class="st4" cx="-131" cy="-284" r="15.5"/>
		</g>
	</g>
	<g id="Ellipse_198-2" transform="translate(1038.834 592.677) rotate(90)">
		<circle class="st6" cx="-139" cy="-292" r="8"/>
		<circle class="st4" cx="-139" cy="-292" r="7.5"/>
	</g>
</g>
<g>
	<text transform="matrix(1 0 0 1 262 60.872)" class="st1 st2 st3">- Establish a prototype</text>
</g>
<g>
	<text transform="matrix(1 0 0 1 262 27.933)" class="st7 st8 st9">2Q</text>
</g>
<g transform="matrix(1, 0, 0, 1, 138, 300)">
	
		<linearGradient id="Rectangle_1925-2_1_" gradientUnits="userSpaceOnUse" x1="-177.883" y1="817" x2="-176.895" y2="817" gradientTransform="matrix(400 0 0 -12 71032 9781.3301)">
		<stop  offset="0" style="stop-color:#0067A7"/>
		<stop  offset="0.222" style="stop-color:#008C98"/>
		<stop  offset="1" style="stop-color:#033D61"/>
	</linearGradient>
	<path id="Rectangle_1925-2" class="st13" d="M-122-28.7h388c3.3,0,6,2.7,6,6l0,0c0,3.3-2.7,6-6,6h-388c-3.3,0-6-2.7-6-6l0,0
		C-128-26-125.3-28.7-122-28.7z"/>
</g>
<g>
	<text transform="matrix(1 0 0 1 108 528.283)" class="st1 st2 st3">- Change CI as ASTA</text>
	<text transform="matrix(1 0 0 1 108 550.283)" class="st1 st2 st3">- Implement Stable Coin  Inter-working    </text>
	<text transform="matrix(1 0 0 1 108 572.283)" class="st1 st2 st3">   System</text>
</g>
<g>
	<text transform="matrix(1 0 0 1 108 502.283)" class="st7 st8 st9">4Q</text>
</g>
<g>
	<text transform="matrix(1 0 0 1 108 376.23)" class="st1 st2 st3">- Strategic alliance with KDAX exchange</text>
	<text transform="matrix(1 0 0 1 108 398.23)" class="st1 st2 st3">- Establish Mainnet and Alpha type</text>
	<text transform="matrix(1 0 0 1 108 420.23)" class="st1 st2 st3">- Complete developing Wallet 1.0v and </text>
	<text transform="matrix(1 0 0 1 108 442.23)" class="st1 st2 st3">   Distribute</text>
	<text transform="matrix(1 0 0 1 108 464.23)" class="st1 st2 st3">- The first official release</text>
</g>
<g>
	<text transform="matrix(1 0 0 1 108 347.334)" class="st7 st8 st9">1Q</text>
</g>
<g id="Group_2866" transform="translate(-511.5 17.334)">
	<path id="Path_10293-3" class="st4" d="M593,272v51.3"/>
	<g transform="matrix(1, 0, 0, 1, 649.5, 282.67)">
		<g id="Ellipse_194-15" transform="translate(97 364.33) rotate(180)">
			<circle class="st5" cx="153.5" cy="316" r="16"/>
			<circle class="st4" cx="153.5" cy="316" r="15.5"/>
		</g>
	</g>
	<g id="Ellipse_198-3" transform="translate(738.5 639) rotate(180)">
		<circle class="st6" cx="145.5" cy="308" r="8"/>
		<circle class="st4" cx="145.5" cy="308" r="7.5"/>
	</g>
</g>
<g id="Group_2867" transform="translate(-511.5 120.286)">
	<path id="Path_10293-4" class="st4" d="M593,244V392"/>
	<g transform="matrix(1, 0, 0, 1, 649.5, 179.71)">
		<g id="Ellipse_194-16" transform="translate(97 512.28) rotate(180)">
			<circle class="st5" cx="153.5" cy="316" r="16"/>
			<circle class="st4" cx="153.5" cy="316" r="15.5"/>
		</g>
	</g>
	<g id="Ellipse_198-4" transform="translate(738.5 683.997) rotate(180)">
		<circle class="st6" cx="145.5" cy="308" r="8"/>
		<circle class="st4" cx="145.5" cy="308" r="7.5"/>
	</g>
</g>
<g transform="matrix(1, 0, 0, 1, 138, 300)">
	<g id="Rectangle_1921-2" transform="translate(40 262.33)">
		<path class="st5" d="M-132-300h71c3.3,0,6,2.7,6,6v18c0,3.3-2.7,6-6,6h-71c-3.3,0-6-2.7-6-6v-18C-138-297.3-135.3-300-132-300z"/>
		<path class="st4" d="M-132-299.5h71c3,0,5.5,2.5,5.5,5.5v18c0,3-2.5,5.5-5.5,5.5h-71c-3,0-5.5-2.5-5.5-5.5v-18
			C-137.5-297-135-299.5-132-299.5z"/>
	</g>
</g>
<g>
	<text transform="matrix(1 0 0 1 55 284.334)" class="st10 st11 st12">2019Y</text>
</g>
<g transform="matrix(1, 0, 0, 1, 138, 300)">
	
		<linearGradient id="Rectangle_1926-2_1_" gradientUnits="userSpaceOnUse" x1="-177.883" y1="817" x2="-176.895" y2="817" gradientTransform="matrix(400 0 0 -12 71032 10109.3301)">
		<stop  offset="0" style="stop-color:#0067A7"/>
		<stop  offset="0.222" style="stop-color:#008C98"/>
		<stop  offset="1" style="stop-color:#033D61"/>
	</linearGradient>
	<path id="Rectangle_1926-2" class="st14" d="M-122,299.3h388c3.3,0,6,2.7,6,6l0,0c0,3.3-2.7,6-6,6h-388c-3.3,0-6-2.7-6-6l0,0
		C-128,302-125.3,299.3-122,299.3z"/>
</g>
<g transform="matrix(1, 0, 0, 1, 966, -45.33)">
	<g id="Rectangle_1922-2" transform="translate(40 590.33)">
		<path class="st5" d="M-960,45.3h71c3.3,0,6,2.7,6,6v18c0,3.3-2.7,6-6,6h-71c-3.3,0-6-2.7-6-6v-18C-966,48-963.3,45.3-960,45.3z"/>
		<path class="st4" d="M-960,45.8h71c3,0,5.5,2.5,5.5,5.5v18c0,3-2.5,5.5-5.5,5.5h-71c-3,0-5.5-2.5-5.5-5.5v-18
			C-965.5,48.3-963,45.8-960,45.8z"/>
	</g>
</g>
<g>
	<text transform="matrix(1 0 0 1 55.5 612.334)" class="st10 st11 st12">2020Y</text>
</g>
<g>
	<text transform="matrix(1 0 0 1 108 834.801)" class="st1 st2 st3">- Launch business affiliation of ASTA Platform</text>
	<text transform="matrix(1 0 0 1 108 856.801)" class="st1 st2 st3">- Develop affiliated business  App and </text>
	<text transform="matrix(1 0 0 1 108 878.801)" class="st1 st2 st3">   Payment Solution</text>
</g>
<g>
	<text transform="matrix(1 0 0 1 108 805.861)" class="st7 st8 st9">2Q</text>
</g>
<g id="Group_2868" transform="translate(-381.677 2176.713) rotate(-90)">
	<path id="Path_10293-5" class="st4" d="M1249.5,463.2h112.3"/>
	<g transform="matrix(0, 1, -1, 0, 1876.71, 519.68)">
		<g id="Ellipse_194-17" transform="translate(65 782.88)">
			<circle class="st5" cx="-121.5" cy="-284" r="16"/>
			<circle class="st4" cx="-121.5" cy="-284" r="15.5"/>
		</g>
	</g>
	<g id="Ellipse_198-5" transform="translate(1085.834 592.677) rotate(90)">
		<circle class="st6" cx="-129.5" cy="-292" r="8"/>
		<circle class="st4" cx="-129.5" cy="-292" r="7.5"/>
	</g>
</g>
<g>
	<text transform="matrix(1 0 0 1 108 711)" class="st1 st2 st3">- Expand the linked business affiliation</text>
	<text transform="matrix(1 0 0 1 108 733)" class="st1 st2 st3">- Complete developing Wallet 2.0v and</text>
	<text transform="matrix(1 0 0 1 108 755)" class="st1 st2 st3">  Distribute</text>
</g>
<g>
	<text transform="matrix(1 0 0 1 108 681.061)" class="st7 st8 st9">1Q</text>
</g>
<g id="Group_2869" transform="translate(-381.677 2057.726) rotate(-90)">
	<g transform="matrix(0, 1, -1, 0, 1757.73, 519.68)">
		<g id="Ellipse_194-18" transform="translate(65 659.45)">
			<circle class="st5" cx="-121.5" cy="-284" r="16"/>
			<circle class="st4" cx="-121.5" cy="-284" r="15.5"/>
		</g>
	</g>
	<g id="Ellipse_198-6" transform="translate(1090.563 592.677) rotate(90)">
		<circle class="st6" cx="-129.5" cy="-292" r="8"/>
		<circle class="st4" cx="-129.5" cy="-292" r="7.5"/>
	</g>
	<path id="Path_10294" class="st4" d="M1398.3,463.2h39.1"/>
	<path id="Path_10295" class="st4" d="M1274.8,463.2h91.5"/>
</g>
<g>
	<text transform="matrix(1 0 0 1 108 963.205)" class="st1 st2 st3">- Interconnect the Wallet and Ecosystem</text>
	<text transform="matrix(1 0 0 1 108 985.205)" class="st1 st2 st3">  through collaboration with exchanges</text>
</g>
<g>
	<text transform="matrix(1 0 0 1 108 938.266)" class="st7 st8 st9">3Q</text>
</g>
<g>
	<text transform="matrix(1 0 0 1 108 1064.605)" class="st1 st2 st3">- Finalize ASTA Alliance 1st Group</text>
	<text transform="matrix(1 0 0 1 108 1086.605)" class="st1 st2 st3">- Develop Global Payment Inter-</text>
</g>
<g>
	<text transform="matrix(1 0 0 1 108 1034.666)" class="st7 st8 st9">4Q</text>
</g>
<g id="Group_2871" transform="translate(-511.5 688.291)">
	<path id="Path_10293-6" class="st4" d="M593,266v90.9"/>
	<g transform="matrix(1, 0, 0, 1, 649.5, -388.29)">
		<g id="Ellipse_194-19" transform="translate(97 1045.17) rotate(180)">
			<circle class="st5" cx="153.5" cy="316" r="16"/>
			<circle class="st4" cx="153.5" cy="316" r="15.5"/>
		</g>
	</g>
	<g id="Ellipse_198-7" transform="translate(738.5 648.875) rotate(180)">
		<circle class="st6" cx="145.5" cy="308" r="8"/>
		<circle class="st4" cx="145.5" cy="308" r="7.5"/>
	</g>
</g>
<g transform="matrix(1, 0, 0, 1, 138, 300)">
	
		<linearGradient id="Rectangle_1924-2_1_" gradientUnits="userSpaceOnUse" x1="-177.883" y1="817" x2="-176.895" y2="817" gradientTransform="matrix(400 0 0 -12 71031 10629.54)">
		<stop  offset="0" style="stop-color:#0067A7"/>
		<stop  offset="0.222" style="stop-color:#008C98"/>
		<stop  offset="1" style="stop-color:#033D61"/>
	</linearGradient>
	<path id="Rectangle_1924-2" class="st15" d="M-123,819.5h388c3.3,0,6,2.7,6,6l0,0c0,3.3-2.7,6-6,6h-388c-3.3,0-6-2.7-6-6l0,0
		C-129,822.2-126.3,819.5-123,819.5z"/>
</g>
<g transform="matrix(1, 0, 0, 1, 1271, -564.54)">
	<g id="Rectangle_1923-2" transform="translate(40 1109.54)">
		<path class="st5" d="M-1265,564.5h71c3.3,0,6,2.7,6,6v18c0,3.3-2.7,6-6,6h-71c-3.3,0-6-2.7-6-6v-18
			C-1271,567.2-1268.3,564.5-1265,564.5z"/>
		<path class="st4" d="M-1265,565h71c3,0,5.5,2.5,5.5,5.5v18c0,3-2.5,5.5-5.5,5.5h-71c-3,0-5.5-2.5-5.5-5.5v-18
			C-1270.5,567.5-1268,565-1265,565z"/>
	</g>
</g>
<g>
	<text transform="matrix(1 0 0 1 56 1131.5349)" class="st10 st11 st12">2021Y</text>
</g>
<g>
	<text transform="matrix(1 0 0 1 108 1353.854)" class="st1 st2 st3">- Develop the multi-swap function of</text>
	<text transform="matrix(1 0 0 1 108 1375.854)" class="st1 st2 st3">  ASTA Wallet</text>
</g>
<g>
	<text transform="matrix(1 0 0 1 108 1322.915)" class="st7 st8 st9">2Q</text>
</g>
<g>
	<text transform="matrix(1 0 0 1 108 1454.9659)" class="st1 st2 st3">- Expansion of THE ASTA Affiliates  </text>
	<text transform="matrix(1 0 0 1 108 1476.9659)" class="st1 st2 st3">  (car rental, flight ticket)</text>
	<text transform="matrix(1 0 0 1 108 1498.9659)" class="st1 st2 st3">- THE ASTA Design Advancement</text>
</g>
<g>
	<text transform="matrix(1 0 0 1 108 1578.922)" class="st1 st2 st3"> - Launch the payment system of ASTA Wallet</text>
	<text transform="matrix(1 0 0 1 108 1600.922)" class="st16"><tspan x="0" y="0" class="st1 st2 st3"> - THE ASTA System Advancement</tspan><tspan x="0" y="16.8" class="st1 st2 st3">   (PMS System Development)</tspan></text>
</g>
<g>
	<text transform="matrix(1 0 0 1 108 1424.561)" class="st7 st8 st9">3Q</text>
</g>
<g>
	<text transform="matrix(1 0 0 1 108 1552.517)" class="st7 st8 st9">4Q</text>
</g>
<g>
	<text transform="matrix(1 0 0 1 108 1237.976)" class="st1 st2 st3">- Finalize ASTA Wallet 3.0 and start distribution</text>
	<text transform="matrix(1 0 0 1 108 1259.976)" class="st1 st2 st3">- Launch THE ASTA </text>
	<text transform="matrix(1 0 0 1 108 1281.976)" class="st1 st2 st3">  (mobile E-commerce platform)</text>
</g>
<g>
	<text transform="matrix(1 0 0 1 108 1203.377)" class="st7 st8 st9">1Q</text>
</g>
<g id="Group_2872" transform="translate(-511.5 867.535)">
	<path id="Path_10293-7" class="st4" d="M593,272v51.3"/>
	<g transform="matrix(1, 0, 0, 1, 649.5, -567.54)">
		<g id="Ellipse_194-20" transform="translate(97 1214.54) rotate(180)">
			<circle class="st5" cx="153.5" cy="316" r="16"/>
			<circle class="st4" cx="153.5" cy="316" r="15.5"/>
		</g>
	</g>
	<g id="Ellipse_198-8" transform="translate(738.5 639) rotate(180)">
		<circle class="st6" cx="145.5" cy="308" r="8"/>
		<circle class="st4" cx="145.5" cy="308" r="7.5"/>
	</g>
</g>
<g id="Group_2873" transform="translate(203 1538.535)">
	<path id="Path_10293-8" class="st4" d="M-121.5-325.6v95.4"/>
	<g transform="matrix(1, 0, 0, 1, -65, -1238.54)">
		<g id="Ellipse_194-21" transform="translate(97 1334.32) rotate(180)">
			<circle class="st5" cx="153.5" cy="316" r="16"/>
			<circle class="st4" cx="153.5" cy="316" r="15.5"/>
		</g>
	</g>
	<g id="Ellipse_198-9" transform="translate(24 87.781) rotate(180)">
		<circle class="st6" cx="145.5" cy="308" r="8"/>
		<circle class="st4" cx="145.5" cy="308" r="7.5"/>
	</g>
</g>
<path id="Path_10293-9" class="st4" d="M81.5,1333.5v96.5"/>
<g id="Group_2981" transform="translate(203 1796.466)">
	<path id="Path_10293-10" class="st4" d="M-121.5-370v103.5"/>
	<g transform="matrix(1, 0, 0, 1, -65, -1496.47)">
		<g id="Ellipse_194-23" transform="translate(97 1572.94) rotate(180)">
			<circle class="st5" cx="153.5" cy="327" r="16"/>
			<circle class="st4" cx="153.5" cy="327" r="15.5"/>
		</g>
	</g>
	<g id="Ellipse_198-11" transform="translate(24 68.477) rotate(180)">
		<circle class="st6" cx="145.5" cy="319" r="8"/>
		<circle class="st4" cx="145.5" cy="319" r="7.5"/>
	</g>
</g>
<g transform="matrix(1, 0, 0, 1, -65, -1377.51)">
	<g id="Ellipse_194-22" transform="translate(97 1437.99) rotate(180)">
		<circle class="st5" cx="-49.5" cy="-1361.5" r="16"/>
		<circle class="st4" cx="-49.5" cy="-1361.5" r="15.5"/>
	</g>
</g>
<g id="Ellipse_198-10" transform="translate(24 52.477) rotate(180)">
	<circle class="st6" cx="-57.5" cy="-1369.5" r="8"/>
	<circle class="st4" cx="-57.5" cy="-1369.5" r="7.5"/>
</g>
<g id="Group_2911" transform="translate(-381.677 2314.1) rotate(-90)">
	<path id="Path_10293-11" class="st4" d="M1350.3,463.2h11.5"/>
	<g transform="matrix(0, 1, -1, 0, 2014.1, 519.68)">
		<g id="Ellipse_194-24" transform="translate(65 920.27)">
			<circle class="st5" cx="-121.5" cy="-284" r="16"/>
			<circle class="st4" cx="-121.5" cy="-284" r="15.5"/>
		</g>
	</g>
	<g id="Ellipse_198-12" transform="translate(1085.834 592.677) rotate(90)">
		<circle class="st6" cx="-129.5" cy="-292" r="8"/>
		<circle class="st4" cx="-129.5" cy="-292" r="7.5"/>
	</g>
</g>
</svg>
