<svg id="Group_496" data-name="Group 496" xmlns="http://www.w3.org/2000/svg" width="615.633" height="67.633" viewBox="0 0 615.633 67.633">
  <g id="Group_493" data-name="Group 493" transform="translate(0)">
    <g id="Group_491" data-name="Group 491" transform="translate(81.551 3.346)">
      <path id="Path_5986" data-name="Path 5986" d="M521.97,201.6h-7.328l-21.088,46.867h9.282l15.388-35.783h.163l15.389,35.783h9.282Z" transform="translate(-374.11 -201.551)" fill="#002f4f"/>
      <path id="Path_5987" data-name="Path 5987" d="M444.587,208.535v-7H387.612c-11.78,0-18.592,5.572-18.592,13.476,0,6.673,5.29,11.857,15.146,12.958,2.965.323,4.969.583,7.533.842,5.129.519,7.453,2.98,7.453,6.219,0,3.824-4.249,6.415-11.3,6.415H366.326l-16.84-39.862h-7.327l-21.087,46.867h9.281l15.389-35.782h.163l15.389,35.782h7.993l-.028-.066,18.515.058c12.262,0,20.035-4.924,20.035-13.412,0-6.283-4.969-12.245-15.627-13.281-2.726-.26-4.889-.519-6.412-.713-5.771-.713-8.094-3.3-8.094-5.9,0-4.406,4.248-6.609,9.537-6.609l32.7,0v39.914h8.795V208.533Z" transform="translate(-321.072 -201.53)" fill="#002f4f"/>
    </g>
    <g id="Group_492" data-name="Group 492">
      <path id="Path_5988" data-name="Path 5988" d="M203.309,205.174c0,.069.008.135.01.2v-.393C203.316,205.048,203.309,205.111,203.309,205.174Z" transform="translate(-203.309 -199.246)" fill="#008c98"/>
      <path id="Path_5989" data-name="Path 5989" d="M266.18,202.627c0-.039-.006-.079-.007-.118a5.925,5.925,0,0,0-5.886-5.808l-.036,0-.037,0-20.608.006,20.324,50.1h-4.254L239.431,207.45h-9.283l-12.087,29.491h-4.253l13.826-33.551h10.248l-2.719-6.683-25.584.008c-.111-.007-.224-.017-.337-.017s-.229.01-.343.017a5.921,5.921,0,0,0-5.577,5.721v.393l.064,38.489s-.454,5.449,3.9,8.529l1.051.61,3.048-7.716H222.22l3.287-7.735H231.5l-2.9-7.543,6.189-15.275L249.2,246.8h-4.35l-9.96-23.978-1.933,4.639,4.544,11.6h-9.475l-3.191,7.83H214.194l-2.386,5.568,1,.582,17.81,10.139a7.913,7.913,0,0,0,7.872,0l24.4-14.031c3.354-1.888,3.238-7.789,3.238-7.789l.039-38.617C266.173,202.709,266.18,202.668,266.18,202.627Z" transform="translate(-203.313 -196.698)" fill="#008c98"/>
    </g>
  </g>
  <g id="Group_514" data-name="Group 514" transform="translate(357.425)">
    <g id="Group_494" data-name="Group 494">
      <path id="Path_5990" data-name="Path 5990" d="M203.309,351.227c0,.069.008.135.01.2v-.395C203.316,351.1,203.309,351.163,203.309,351.227Z" transform="translate(-203.309 -345.289)" fill="#008c98"/>
      <path id="Path_5991" data-name="Path 5991" d="M266.277,348.688c0-.04-.006-.078-.007-.118a5.934,5.934,0,0,0-5.9-5.818l-.036,0-.037,0-20.64.006,20.355,50.174h-4.261l-16.268-39.413h-9.3l-12.106,29.536h-4.26l13.848-33.6h10.264l-2.724-6.693-25.623.008c-.112-.007-.224-.017-.338-.017s-.23.01-.343.017a5.93,5.93,0,0,0-5.586,5.73v.395l.065,38.547s-.455,5.458,3.91,8.542l1.053.611,3.052-7.727h10.845l3.292-7.747h6l-2.906-7.554,6.2-15.3,14.428,34.667h-4.357l-9.975-24.015L233,373.563l4.551,11.622H228.06l-3.2,7.842H214.211l-2.389,5.576,1.006.583,17.838,10.155a7.927,7.927,0,0,0,7.884,0l24.437-14.054c3.359-1.891,3.243-7.8,3.243-7.8l.04-38.676C266.27,348.77,266.277,348.729,266.277,348.688Z" transform="translate(-203.313 -342.75)" fill="#008c98"/>
    </g>
    <g id="Group_495" data-name="Group 495" transform="translate(81.677 3.4)">
      <path id="Path_5992" data-name="Path 5992" d="M339.735,349.147A18.663,18.663,0,1,0,358.4,367.81,18.691,18.691,0,0,0,339.735,349.147Zm0,30.107a11.512,11.512,0,1,1,11.443-11.581A11.542,11.542,0,0,1,339.735,379.254Z" transform="translate(-321.072 -348.11)" fill="#002f4f"/>
      <path id="Path_5993" data-name="Path 5993" d="M569.155,347.652v7.22h-7.364v39.72h-7.22V347.652Z" transform="translate(-392.623 -347.652)" fill="#002f4f"/>
      <path id="Path_5994" data-name="Path 5994" d="M401.8,347.652v7.22h-7.364v39.72h-7.22V347.652Z" transform="translate(-341.34 -347.652)" fill="#002f4f"/>
      <rect id="Rectangle_145" data-name="Rectangle 145" width="31.608" height="7.309" transform="translate(122.526 19.92)" fill="#002f4f"/>
      <rect id="Rectangle_146" data-name="Rectangle 146" width="31.608" height="7.309" transform="translate(122.526 39.631)" fill="#002f4f"/>
      <rect id="Rectangle_147" data-name="Rectangle 147" width="31.608" height="7.31" transform="translate(122.526)" fill="#002f4f"/>
      <rect id="Rectangle_148" data-name="Rectangle 148" width="50.038" height="7.309" transform="translate(63.783 39.63)" fill="#002f4f"/>
      <path id="Path_5995" data-name="Path 5995" d="M438.093,357.647l16.236,17.233h8.737l-24.973-27.228L413.035,374.88H421.8Z" transform="translate(-349.252 -347.652)" fill="#002f4f"/>
    </g>
  </g>
</svg>
